M48
;DRILL file {KiCad 4.0.2-stable} date 11/4/2016 4:42:27 PM
;FORMAT={-:-/ absolute / inch / decimal}
FMAT,2
INCH,TZ
T1C0.024
T2C0.031
T3C0.047
T4C0.051
T5C0.126
%
G90
G05
M72
T1
X4.4371Y-1.8647
X4.4548Y-3.1249
X4.4548Y-3.2143
X4.7729Y-1.8647
X4.9383Y-2.4706
X4.9887Y-2.5859
X5.1076Y-1.8659
X5.4395Y-1.8635
X5.5615Y-3.2033
X6.3261Y-2.2848
X6.7473Y-2.3914
X6.767Y-4.8533
X6.7678Y-4.4308
X6.7678Y-4.9663
X6.8497Y-2.6926
T2
X5.1233Y-2.3899
X5.1233Y-2.6899
X5.2233Y-2.3899
X5.2233Y-2.6899
X5.3233Y-2.3899
X5.3233Y-2.6899
X5.4233Y-2.3899
X5.4233Y-2.6899
X5.5233Y-2.3899
X5.5233Y-2.6899
X5.6233Y-2.3899
X5.6233Y-2.6899
X5.7233Y-2.3899
X5.7233Y-2.6899
X5.8233Y-2.3899
X5.8233Y-2.6899
X5.9233Y-2.3899
X5.9233Y-2.6899
X6.0233Y-2.3899
X6.0233Y-2.6899
X6.1233Y-2.3899
X6.1233Y-2.6899
X6.2233Y-2.3899
X6.2233Y-2.6899
X6.3233Y-2.3899
X6.3233Y-2.6899
X6.4233Y-2.3899
X6.4233Y-2.6899
T3
X4.2697Y-5.2473
X4.2697Y-5.4973
X4.4347Y-5.2473
X4.4347Y-5.4973
X4.5996Y-5.2473
X4.5996Y-5.4973
X4.7646Y-5.2473
X4.7646Y-5.4973
X4.9296Y-5.2473
X4.9296Y-5.4973
X5.0945Y-5.2473
X5.0945Y-5.4973
X6.4351Y-5.2473
X6.4351Y-5.4973
X6.6Y-5.2473
X6.6Y-5.4973
X6.765Y-5.2473
X6.765Y-5.4973
X6.93Y-5.2473
X6.93Y-5.4973
X7.0949Y-5.2473
X7.0949Y-5.4973
X7.2599Y-5.2473
X7.2599Y-5.4973
T4
X4.9029Y-4.0414
X4.9029Y-4.3997
X4.9029Y-4.88
X5.1391Y-4.1202
X5.1391Y-4.321
X5.3753Y-3.5611
X5.3753Y-4.0414
X5.3753Y-4.3997
X5.5328Y-4.0414
X5.5328Y-4.3997
X5.5328Y-4.88
X5.769Y-4.1202
X5.769Y-4.321
X6.0052Y-3.5611
X6.0052Y-4.0414
X6.0052Y-4.3997
X6.1627Y-4.0414
X6.1627Y-4.3997
X6.1627Y-4.88
X6.3989Y-4.1202
X6.3989Y-4.321
X6.6351Y-3.5611
X6.6351Y-4.0414
X6.6351Y-4.3997
T5
X5.765Y-5.4202
T0
M30
