%FSLAX45Y45*%
G04 Gerber Fmt 4.5, Leading zero omitted, Abs format (unit mm)*
G04 Created by KiCad (PCBNEW 4.0.2-stable) date 9/3/2016 7:39:00 PM*
%MOMM*%
G01*
G04 APERTURE LIST*
%ADD10C,0.127000*%
%ADD11C,0.150000*%
%ADD12C,0.200000*%
%ADD13C,0.300000*%
G04 APERTURE END LIST*
D10*
D11*
X4635500Y-6286500D02*
X24765000Y-6286500D01*
X4635500Y-6286500D02*
X4635500Y-13525500D01*
X24765000Y-13525500D02*
X24765000Y-6286500D01*
X4635500Y-13525500D02*
X24765000Y-13525500D01*
D12*
X5161600Y-10305100D02*
X5201600Y-10345100D01*
X5201600Y-10305100D02*
X5161600Y-10345100D01*
X5161600Y-10559100D02*
X5201600Y-10599100D01*
X5201600Y-10559100D02*
X5161600Y-10599100D01*
X5174300Y-11067100D02*
X5214300Y-11107100D01*
X5214300Y-11067100D02*
X5174300Y-11107100D01*
X5174300Y-11321100D02*
X5214300Y-11361100D01*
X5214300Y-11321100D02*
X5174300Y-11361100D01*
X5174300Y-11575100D02*
X5214300Y-11615100D01*
X5214300Y-11575100D02*
X5174300Y-11615100D01*
X5174300Y-11829100D02*
X5214300Y-11869100D01*
X5214300Y-11829100D02*
X5174300Y-11869100D01*
X5174300Y-12083100D02*
X5214300Y-12123100D01*
X5214300Y-12083100D02*
X5174300Y-12123100D01*
X5174300Y-12337100D02*
X5214300Y-12377100D01*
X5214300Y-12337100D02*
X5174300Y-12377100D01*
X5174300Y-12591100D02*
X5214300Y-12631100D01*
X5214300Y-12591100D02*
X5174300Y-12631100D01*
X5174300Y-12845100D02*
X5214300Y-12885100D01*
X5214300Y-12845100D02*
X5174300Y-12885100D01*
X6164900Y-9238300D02*
X6204900Y-9278300D01*
X6204900Y-9238300D02*
X6164900Y-9278300D01*
X6393500Y-9098600D02*
X6433500Y-9138600D01*
X6433500Y-9098600D02*
X6393500Y-9138600D01*
X7231700Y-7015800D02*
X7271700Y-7055800D01*
X7271700Y-7015800D02*
X7231700Y-7055800D01*
X7269800Y-7485700D02*
X7309800Y-7525700D01*
X7309800Y-7485700D02*
X7269800Y-7525700D01*
X7371400Y-7561900D02*
X7411400Y-7601900D01*
X7411400Y-7561900D02*
X7371400Y-7601900D01*
X7460300Y-7638100D02*
X7500300Y-7678100D01*
X7500300Y-7638100D02*
X7460300Y-7678100D01*
X7561900Y-7714300D02*
X7601900Y-7754300D01*
X7601900Y-7714300D02*
X7561900Y-7754300D01*
X7650800Y-7790500D02*
X7690800Y-7830500D01*
X7690800Y-7790500D02*
X7650800Y-7830500D01*
X7739700Y-7866700D02*
X7779700Y-7906700D01*
X7779700Y-7866700D02*
X7739700Y-7906700D01*
X7815900Y-12464100D02*
X7855900Y-12504100D01*
X7855900Y-12464100D02*
X7815900Y-12504100D01*
X5033800Y-7366000D02*
G75*
G03X5033800Y-7366000I-30000J0D01*
G01*
X5160800Y-7239000D02*
G75*
G03X5160800Y-7239000I-30000J0D01*
G01*
X5287800Y-7366000D02*
G75*
G03X5287800Y-7366000I-30000J0D01*
G01*
X7586500Y-7366000D02*
G75*
G03X7586500Y-7366000I-30000J0D01*
G01*
X7713500Y-7239000D02*
G75*
G03X7713500Y-7239000I-30000J0D01*
G01*
X7840500Y-7366000D02*
G75*
G03X7840500Y-7366000I-30000J0D01*
G01*
X9047000Y-8128000D02*
G75*
G03X9047000Y-8128000I-30000J0D01*
G01*
X9174000Y-8001000D02*
G75*
G03X9174000Y-8001000I-30000J0D01*
G01*
X9301000Y-8128000D02*
G75*
G03X9301000Y-8128000I-30000J0D01*
G01*
X9682000Y-7366000D02*
G75*
G03X9682000Y-7366000I-30000J0D01*
G01*
X9809000Y-7239000D02*
G75*
G03X9809000Y-7239000I-30000J0D01*
G01*
X9936000Y-7366000D02*
G75*
G03X9936000Y-7366000I-30000J0D01*
G01*
X11142500Y-8128000D02*
G75*
G03X11142500Y-8128000I-30000J0D01*
G01*
X11269500Y-8001000D02*
G75*
G03X11269500Y-8001000I-30000J0D01*
G01*
X11396500Y-8128000D02*
G75*
G03X11396500Y-8128000I-30000J0D01*
G01*
X11777500Y-7366000D02*
G75*
G03X11777500Y-7366000I-30000J0D01*
G01*
X11904500Y-7239000D02*
G75*
G03X11904500Y-7239000I-30000J0D01*
G01*
X12031500Y-7366000D02*
G75*
G03X12031500Y-7366000I-30000J0D01*
G01*
X13238000Y-8128000D02*
G75*
G03X13238000Y-8128000I-30000J0D01*
G01*
X13365000Y-8001000D02*
G75*
G03X13365000Y-8001000I-30000J0D01*
G01*
X13492000Y-8128000D02*
G75*
G03X13492000Y-8128000I-30000J0D01*
G01*
X13873000Y-7366000D02*
G75*
G03X13873000Y-7366000I-30000J0D01*
G01*
X14000000Y-7239000D02*
G75*
G03X14000000Y-7239000I-30000J0D01*
G01*
X14127000Y-7366000D02*
G75*
G03X14127000Y-7366000I-30000J0D01*
G01*
X15333500Y-8128000D02*
G75*
G03X15333500Y-8128000I-30000J0D01*
G01*
X15460500Y-8001000D02*
G75*
G03X15460500Y-8001000I-30000J0D01*
G01*
X15587500Y-8128000D02*
G75*
G03X15587500Y-8128000I-30000J0D01*
G01*
X15968500Y-7366000D02*
G75*
G03X15968500Y-7366000I-30000J0D01*
G01*
X16095500Y-7239000D02*
G75*
G03X16095500Y-7239000I-30000J0D01*
G01*
X16222500Y-7366000D02*
G75*
G03X16222500Y-7366000I-30000J0D01*
G01*
X17429000Y-8128000D02*
G75*
G03X17429000Y-8128000I-30000J0D01*
G01*
X17556000Y-8001000D02*
G75*
G03X17556000Y-8001000I-30000J0D01*
G01*
X17683000Y-8128000D02*
G75*
G03X17683000Y-8128000I-30000J0D01*
G01*
X18064000Y-7366000D02*
G75*
G03X18064000Y-7366000I-30000J0D01*
G01*
X18191000Y-7239000D02*
G75*
G03X18191000Y-7239000I-30000J0D01*
G01*
X18318000Y-7366000D02*
G75*
G03X18318000Y-7366000I-30000J0D01*
G01*
X19524500Y-8128000D02*
G75*
G03X19524500Y-8128000I-30000J0D01*
G01*
X19651500Y-8001000D02*
G75*
G03X19651500Y-8001000I-30000J0D01*
G01*
X19778500Y-8128000D02*
G75*
G03X19778500Y-8128000I-30000J0D01*
G01*
X20159500Y-7366000D02*
G75*
G03X20159500Y-7366000I-30000J0D01*
G01*
X20286500Y-7239000D02*
G75*
G03X20286500Y-7239000I-30000J0D01*
G01*
X20413500Y-7366000D02*
G75*
G03X20413500Y-7366000I-30000J0D01*
G01*
X21620000Y-8128000D02*
G75*
G03X21620000Y-8128000I-30000J0D01*
G01*
X21747000Y-8001000D02*
G75*
G03X21747000Y-8001000I-30000J0D01*
G01*
X21874000Y-8128000D02*
G75*
G03X21874000Y-8128000I-30000J0D01*
G01*
X22255000Y-7366000D02*
G75*
G03X22255000Y-7366000I-30000J0D01*
G01*
X22382000Y-7239000D02*
G75*
G03X22382000Y-7239000I-30000J0D01*
G01*
X22509000Y-7366000D02*
G75*
G03X22509000Y-7366000I-30000J0D01*
G01*
X23715500Y-8128000D02*
G75*
G03X23715500Y-8128000I-30000J0D01*
G01*
X23842500Y-8001000D02*
G75*
G03X23842500Y-8001000I-30000J0D01*
G01*
X23969500Y-8128000D02*
G75*
G03X23969500Y-8128000I-30000J0D01*
G01*
X5130800Y-6617462D02*
X5130800Y-6717538D01*
X5080762Y-6667500D02*
X5180838Y-6667500D01*
X5575300Y-7315962D02*
X5575300Y-7416038D01*
X5525262Y-7366000D02*
X5625338Y-7366000D01*
X6146800Y-6617462D02*
X6146800Y-6717538D01*
X6096762Y-6667500D02*
X6196838Y-6667500D01*
X6591300Y-7315962D02*
X6591300Y-7416038D01*
X6541262Y-7366000D02*
X6641338Y-7366000D01*
X7620000Y-8141462D02*
X7620000Y-8241538D01*
X7569962Y-8191500D02*
X7670038Y-8191500D01*
X7683500Y-6617462D02*
X7683500Y-6717538D01*
X7633462Y-6667500D02*
X7733538Y-6667500D01*
X8128000Y-7315962D02*
X8128000Y-7416038D01*
X8077962Y-7366000D02*
X8178038Y-7366000D01*
X8636000Y-8141462D02*
X8636000Y-8241538D01*
X8585962Y-8191500D02*
X8686038Y-8191500D01*
X8699500Y-6617462D02*
X8699500Y-6717538D01*
X8649462Y-6667500D02*
X8749538Y-6667500D01*
X9144000Y-7315962D02*
X9144000Y-7416038D01*
X9093962Y-7366000D02*
X9194038Y-7366000D01*
X9270746Y-9474962D02*
X9270746Y-9575038D01*
X9220708Y-9525000D02*
X9320784Y-9525000D01*
X9715500Y-8141462D02*
X9715500Y-8241538D01*
X9665462Y-8191500D02*
X9765538Y-8191500D01*
X9779000Y-6617462D02*
X9779000Y-6717538D01*
X9728962Y-6667500D02*
X9829038Y-6667500D01*
X10287000Y-7315962D02*
X10287000Y-7416038D01*
X10236962Y-7366000D02*
X10337038Y-7366000D01*
X10731500Y-8141462D02*
X10731500Y-8241538D01*
X10681462Y-8191500D02*
X10781538Y-8191500D01*
X10795000Y-6617462D02*
X10795000Y-6717538D01*
X10744962Y-6667500D02*
X10845038Y-6667500D01*
X11303000Y-7315962D02*
X11303000Y-7416038D01*
X11252962Y-7366000D02*
X11353038Y-7366000D01*
X11366246Y-9474962D02*
X11366246Y-9575038D01*
X11316208Y-9525000D02*
X11416284Y-9525000D01*
X11811000Y-8141462D02*
X11811000Y-8241538D01*
X11760962Y-8191500D02*
X11861038Y-8191500D01*
X11874500Y-6617462D02*
X11874500Y-6717538D01*
X11824462Y-6667500D02*
X11924538Y-6667500D01*
X12382500Y-7315962D02*
X12382500Y-7416038D01*
X12332462Y-7366000D02*
X12432538Y-7366000D01*
X12827000Y-8141462D02*
X12827000Y-8241538D01*
X12776962Y-8191500D02*
X12877038Y-8191500D01*
X12890500Y-6617462D02*
X12890500Y-6717538D01*
X12840462Y-6667500D02*
X12940538Y-6667500D01*
X13398500Y-7315962D02*
X13398500Y-7416038D01*
X13348462Y-7366000D02*
X13448538Y-7366000D01*
X13461746Y-9474962D02*
X13461746Y-9575038D01*
X13411708Y-9525000D02*
X13511784Y-9525000D01*
X13906500Y-8141462D02*
X13906500Y-8241538D01*
X13856462Y-8191500D02*
X13956538Y-8191500D01*
X13970000Y-6617462D02*
X13970000Y-6717538D01*
X13919962Y-6667500D02*
X14020038Y-6667500D01*
X14478000Y-7315962D02*
X14478000Y-7416038D01*
X14427962Y-7366000D02*
X14528038Y-7366000D01*
X14922500Y-8141462D02*
X14922500Y-8241538D01*
X14872462Y-8191500D02*
X14972538Y-8191500D01*
X14986000Y-6617462D02*
X14986000Y-6717538D01*
X14935962Y-6667500D02*
X15036038Y-6667500D01*
X15494000Y-7315962D02*
X15494000Y-7416038D01*
X15443962Y-7366000D02*
X15544038Y-7366000D01*
X15557246Y-9474962D02*
X15557246Y-9575038D01*
X15507208Y-9525000D02*
X15607284Y-9525000D01*
X16002000Y-8141462D02*
X16002000Y-8241538D01*
X15951962Y-8191500D02*
X16052038Y-8191500D01*
X16065500Y-6617462D02*
X16065500Y-6717538D01*
X16015462Y-6667500D02*
X16115538Y-6667500D01*
X16573500Y-7315962D02*
X16573500Y-7416038D01*
X16523462Y-7366000D02*
X16623538Y-7366000D01*
X17018000Y-8141462D02*
X17018000Y-8241538D01*
X16967962Y-8191500D02*
X17068038Y-8191500D01*
X17081500Y-6617462D02*
X17081500Y-6717538D01*
X17031462Y-6667500D02*
X17131538Y-6667500D01*
X17589500Y-7315962D02*
X17589500Y-7416038D01*
X17539462Y-7366000D02*
X17639538Y-7366000D01*
X17652746Y-9474962D02*
X17652746Y-9575038D01*
X17602708Y-9525000D02*
X17702784Y-9525000D01*
X18097500Y-8141462D02*
X18097500Y-8241538D01*
X18047462Y-8191500D02*
X18147538Y-8191500D01*
X18161000Y-6617462D02*
X18161000Y-6717538D01*
X18110962Y-6667500D02*
X18211038Y-6667500D01*
X18669000Y-7315962D02*
X18669000Y-7416038D01*
X18618962Y-7366000D02*
X18719038Y-7366000D01*
X19113500Y-8141462D02*
X19113500Y-8241538D01*
X19063462Y-8191500D02*
X19163538Y-8191500D01*
X19177000Y-6617462D02*
X19177000Y-6717538D01*
X19126962Y-6667500D02*
X19227038Y-6667500D01*
X19685000Y-7315962D02*
X19685000Y-7416038D01*
X19634962Y-7366000D02*
X19735038Y-7366000D01*
X19748246Y-9474962D02*
X19748246Y-9575038D01*
X19698208Y-9525000D02*
X19798284Y-9525000D01*
X20193000Y-8141462D02*
X20193000Y-8241538D01*
X20142962Y-8191500D02*
X20243038Y-8191500D01*
X20256500Y-6617462D02*
X20256500Y-6717538D01*
X20206462Y-6667500D02*
X20306538Y-6667500D01*
X20764500Y-7315962D02*
X20764500Y-7416038D01*
X20714462Y-7366000D02*
X20814538Y-7366000D01*
X21209000Y-8141462D02*
X21209000Y-8241538D01*
X21158962Y-8191500D02*
X21259038Y-8191500D01*
X21272500Y-6617462D02*
X21272500Y-6717538D01*
X21222462Y-6667500D02*
X21322538Y-6667500D01*
X21780500Y-7315962D02*
X21780500Y-7416038D01*
X21730462Y-7366000D02*
X21830538Y-7366000D01*
X21843746Y-9474962D02*
X21843746Y-9575038D01*
X21793708Y-9525000D02*
X21893784Y-9525000D01*
X22288500Y-8141462D02*
X22288500Y-8241538D01*
X22238462Y-8191500D02*
X22338538Y-8191500D01*
X22352000Y-6617462D02*
X22352000Y-6717538D01*
X22301962Y-6667500D02*
X22402038Y-6667500D01*
X22860000Y-7315962D02*
X22860000Y-7416038D01*
X22809962Y-7366000D02*
X22910038Y-7366000D01*
X23304500Y-8141462D02*
X23304500Y-8241538D01*
X23254462Y-8191500D02*
X23354538Y-8191500D01*
X23368000Y-6617462D02*
X23368000Y-6717538D01*
X23317962Y-6667500D02*
X23418038Y-6667500D01*
X23876000Y-7315962D02*
X23876000Y-7416038D01*
X23825962Y-7366000D02*
X23926038Y-7366000D01*
X23939246Y-9474962D02*
X23939246Y-9575038D01*
X23889208Y-9525000D02*
X23989284Y-9525000D01*
X4925421Y-9345021D02*
X4925421Y-9273179D01*
X4853579Y-9273179D01*
X4853579Y-9345021D01*
X4925421Y-9345021D01*
X4925421Y-9599021D02*
X4925421Y-9527179D01*
X4853579Y-9527179D01*
X4853579Y-9599021D01*
X4925421Y-9599021D01*
X4925421Y-9853021D02*
X4925421Y-9781179D01*
X4853579Y-9781179D01*
X4853579Y-9853021D01*
X4925421Y-9853021D01*
X4925421Y-10107021D02*
X4925421Y-10035179D01*
X4853579Y-10035179D01*
X4853579Y-10107021D01*
X4925421Y-10107021D01*
X4925421Y-10361021D02*
X4925421Y-10289179D01*
X4853579Y-10289179D01*
X4853579Y-10361021D01*
X4925421Y-10361021D01*
X4925421Y-10615021D02*
X4925421Y-10543179D01*
X4853579Y-10543179D01*
X4853579Y-10615021D01*
X4925421Y-10615021D01*
X4925421Y-10869021D02*
X4925421Y-10797179D01*
X4853579Y-10797179D01*
X4853579Y-10869021D01*
X4925421Y-10869021D01*
X4925421Y-11123021D02*
X4925421Y-11051179D01*
X4853579Y-11051179D01*
X4853579Y-11123021D01*
X4925421Y-11123021D01*
X4925421Y-11377021D02*
X4925421Y-11305179D01*
X4853579Y-11305179D01*
X4853579Y-11377021D01*
X4925421Y-11377021D01*
X4925421Y-11631021D02*
X4925421Y-11559179D01*
X4853579Y-11559179D01*
X4853579Y-11631021D01*
X4925421Y-11631021D01*
X4925421Y-11885021D02*
X4925421Y-11813179D01*
X4853579Y-11813179D01*
X4853579Y-11885021D01*
X4925421Y-11885021D01*
X4925421Y-12139021D02*
X4925421Y-12067179D01*
X4853579Y-12067179D01*
X4853579Y-12139021D01*
X4925421Y-12139021D01*
X4925421Y-12393021D02*
X4925421Y-12321179D01*
X4853579Y-12321179D01*
X4853579Y-12393021D01*
X4925421Y-12393021D01*
X4925421Y-12647021D02*
X4925421Y-12575179D01*
X4853579Y-12575179D01*
X4853579Y-12647021D01*
X4925421Y-12647021D01*
X4925421Y-12901021D02*
X4925421Y-12829179D01*
X4853579Y-12829179D01*
X4853579Y-12901021D01*
X4925421Y-12901021D01*
X6449421Y-9345021D02*
X6449421Y-9273179D01*
X6377579Y-9273179D01*
X6377579Y-9345021D01*
X6449421Y-9345021D01*
X6449421Y-9599021D02*
X6449421Y-9527179D01*
X6377579Y-9527179D01*
X6377579Y-9599021D01*
X6449421Y-9599021D01*
X6449421Y-9853021D02*
X6449421Y-9781179D01*
X6377579Y-9781179D01*
X6377579Y-9853021D01*
X6449421Y-9853021D01*
X6449421Y-10107021D02*
X6449421Y-10035179D01*
X6377579Y-10035179D01*
X6377579Y-10107021D01*
X6449421Y-10107021D01*
X6449421Y-10361021D02*
X6449421Y-10289179D01*
X6377579Y-10289179D01*
X6377579Y-10361021D01*
X6449421Y-10361021D01*
X6449421Y-10615021D02*
X6449421Y-10543179D01*
X6377579Y-10543179D01*
X6377579Y-10615021D01*
X6449421Y-10615021D01*
X6449421Y-10869021D02*
X6449421Y-10797179D01*
X6377579Y-10797179D01*
X6377579Y-10869021D01*
X6449421Y-10869021D01*
X6449421Y-11123021D02*
X6449421Y-11051179D01*
X6377579Y-11051179D01*
X6377579Y-11123021D01*
X6449421Y-11123021D01*
X6449421Y-11377021D02*
X6449421Y-11305179D01*
X6377579Y-11305179D01*
X6377579Y-11377021D01*
X6449421Y-11377021D01*
X6449421Y-11631021D02*
X6449421Y-11559179D01*
X6377579Y-11559179D01*
X6377579Y-11631021D01*
X6449421Y-11631021D01*
X6449421Y-11885021D02*
X6449421Y-11813179D01*
X6377579Y-11813179D01*
X6377579Y-11885021D01*
X6449421Y-11885021D01*
X6449421Y-12139021D02*
X6449421Y-12067179D01*
X6377579Y-12067179D01*
X6377579Y-12139021D01*
X6449421Y-12139021D01*
X6449421Y-12393021D02*
X6449421Y-12321179D01*
X6377579Y-12321179D01*
X6377579Y-12393021D01*
X6449421Y-12393021D01*
X6449421Y-12647021D02*
X6449421Y-12575179D01*
X6377579Y-12575179D01*
X6377579Y-12647021D01*
X6449421Y-12647021D01*
X6449421Y-12901021D02*
X6449421Y-12829179D01*
X6377579Y-12829179D01*
X6377579Y-12901021D01*
X6449421Y-12901021D01*
X9270746Y-8572500D02*
X9334246Y-8509000D01*
X9270746Y-8445500D01*
X9207246Y-8509000D01*
X9270746Y-8572500D01*
X11366246Y-8572500D02*
X11429746Y-8509000D01*
X11366246Y-8445500D01*
X11302746Y-8509000D01*
X11366246Y-8572500D01*
X13461746Y-8572500D02*
X13525246Y-8509000D01*
X13461746Y-8445500D01*
X13398246Y-8509000D01*
X13461746Y-8572500D01*
X15557246Y-8572500D02*
X15620746Y-8509000D01*
X15557246Y-8445500D01*
X15493746Y-8509000D01*
X15557246Y-8572500D01*
X17652746Y-8572500D02*
X17716246Y-8509000D01*
X17652746Y-8445500D01*
X17589246Y-8509000D01*
X17652746Y-8572500D01*
X19748246Y-8572500D02*
X19811746Y-8509000D01*
X19748246Y-8445500D01*
X19684746Y-8509000D01*
X19748246Y-8572500D01*
X21843746Y-8572500D02*
X21907246Y-8509000D01*
X21843746Y-8445500D01*
X21780246Y-8509000D01*
X21843746Y-8572500D01*
X23939246Y-8572500D02*
X24002746Y-8509000D01*
X23939246Y-8445500D01*
X23875746Y-8509000D01*
X23939246Y-8572500D01*
X7555000Y-8825000D02*
X7685000Y-8955000D01*
X7685000Y-8825000D02*
X7555000Y-8955000D01*
X7685000Y-8890000D02*
G75*
G03X7685000Y-8890000I-65000J0D01*
G01*
X7555000Y-10045000D02*
X7685000Y-10175000D01*
X7685000Y-10045000D02*
X7555000Y-10175000D01*
X7685000Y-10110000D02*
G75*
G03X7685000Y-10110000I-65000J0D01*
G01*
X8155000Y-8625000D02*
X8285000Y-8755000D01*
X8285000Y-8625000D02*
X8155000Y-8755000D01*
X8285000Y-8690000D02*
G75*
G03X8285000Y-8690000I-65000J0D01*
G01*
X8755000Y-8825000D02*
X8885000Y-8955000D01*
X8885000Y-8825000D02*
X8755000Y-8955000D01*
X8885000Y-8890000D02*
G75*
G03X8885000Y-8890000I-65000J0D01*
G01*
X8755000Y-10045000D02*
X8885000Y-10175000D01*
X8885000Y-10045000D02*
X8755000Y-10175000D01*
X8885000Y-10110000D02*
G75*
G03X8885000Y-10110000I-65000J0D01*
G01*
X9650500Y-8825000D02*
X9780500Y-8955000D01*
X9780500Y-8825000D02*
X9650500Y-8955000D01*
X9780500Y-8890000D02*
G75*
G03X9780500Y-8890000I-65000J0D01*
G01*
X9650500Y-10045000D02*
X9780500Y-10175000D01*
X9780500Y-10045000D02*
X9650500Y-10175000D01*
X9780500Y-10110000D02*
G75*
G03X9780500Y-10110000I-65000J0D01*
G01*
X10250500Y-8625000D02*
X10380500Y-8755000D01*
X10380500Y-8625000D02*
X10250500Y-8755000D01*
X10380500Y-8690000D02*
G75*
G03X10380500Y-8690000I-65000J0D01*
G01*
X10850500Y-8825000D02*
X10980500Y-8955000D01*
X10980500Y-8825000D02*
X10850500Y-8955000D01*
X10980500Y-8890000D02*
G75*
G03X10980500Y-8890000I-65000J0D01*
G01*
X10850500Y-10045000D02*
X10980500Y-10175000D01*
X10980500Y-10045000D02*
X10850500Y-10175000D01*
X10980500Y-10110000D02*
G75*
G03X10980500Y-10110000I-65000J0D01*
G01*
X11746000Y-8825000D02*
X11876000Y-8955000D01*
X11876000Y-8825000D02*
X11746000Y-8955000D01*
X11876000Y-8890000D02*
G75*
G03X11876000Y-8890000I-65000J0D01*
G01*
X11746000Y-10045000D02*
X11876000Y-10175000D01*
X11876000Y-10045000D02*
X11746000Y-10175000D01*
X11876000Y-10110000D02*
G75*
G03X11876000Y-10110000I-65000J0D01*
G01*
X12346000Y-8625000D02*
X12476000Y-8755000D01*
X12476000Y-8625000D02*
X12346000Y-8755000D01*
X12476000Y-8690000D02*
G75*
G03X12476000Y-8690000I-65000J0D01*
G01*
X12946000Y-8825000D02*
X13076000Y-8955000D01*
X13076000Y-8825000D02*
X12946000Y-8955000D01*
X13076000Y-8890000D02*
G75*
G03X13076000Y-8890000I-65000J0D01*
G01*
X12946000Y-10045000D02*
X13076000Y-10175000D01*
X13076000Y-10045000D02*
X12946000Y-10175000D01*
X13076000Y-10110000D02*
G75*
G03X13076000Y-10110000I-65000J0D01*
G01*
X13841500Y-8825000D02*
X13971500Y-8955000D01*
X13971500Y-8825000D02*
X13841500Y-8955000D01*
X13971500Y-8890000D02*
G75*
G03X13971500Y-8890000I-65000J0D01*
G01*
X13841500Y-10045000D02*
X13971500Y-10175000D01*
X13971500Y-10045000D02*
X13841500Y-10175000D01*
X13971500Y-10110000D02*
G75*
G03X13971500Y-10110000I-65000J0D01*
G01*
X14441500Y-8625000D02*
X14571500Y-8755000D01*
X14571500Y-8625000D02*
X14441500Y-8755000D01*
X14571500Y-8690000D02*
G75*
G03X14571500Y-8690000I-65000J0D01*
G01*
X15041500Y-8825000D02*
X15171500Y-8955000D01*
X15171500Y-8825000D02*
X15041500Y-8955000D01*
X15171500Y-8890000D02*
G75*
G03X15171500Y-8890000I-65000J0D01*
G01*
X15041500Y-10045000D02*
X15171500Y-10175000D01*
X15171500Y-10045000D02*
X15041500Y-10175000D01*
X15171500Y-10110000D02*
G75*
G03X15171500Y-10110000I-65000J0D01*
G01*
X15937000Y-8825000D02*
X16067000Y-8955000D01*
X16067000Y-8825000D02*
X15937000Y-8955000D01*
X16067000Y-8890000D02*
G75*
G03X16067000Y-8890000I-65000J0D01*
G01*
X15937000Y-10045000D02*
X16067000Y-10175000D01*
X16067000Y-10045000D02*
X15937000Y-10175000D01*
X16067000Y-10110000D02*
G75*
G03X16067000Y-10110000I-65000J0D01*
G01*
X16537000Y-8625000D02*
X16667000Y-8755000D01*
X16667000Y-8625000D02*
X16537000Y-8755000D01*
X16667000Y-8690000D02*
G75*
G03X16667000Y-8690000I-65000J0D01*
G01*
X17137000Y-8825000D02*
X17267000Y-8955000D01*
X17267000Y-8825000D02*
X17137000Y-8955000D01*
X17267000Y-8890000D02*
G75*
G03X17267000Y-8890000I-65000J0D01*
G01*
X17137000Y-10045000D02*
X17267000Y-10175000D01*
X17267000Y-10045000D02*
X17137000Y-10175000D01*
X17267000Y-10110000D02*
G75*
G03X17267000Y-10110000I-65000J0D01*
G01*
X18032500Y-8825000D02*
X18162500Y-8955000D01*
X18162500Y-8825000D02*
X18032500Y-8955000D01*
X18162500Y-8890000D02*
G75*
G03X18162500Y-8890000I-65000J0D01*
G01*
X18032500Y-10045000D02*
X18162500Y-10175000D01*
X18162500Y-10045000D02*
X18032500Y-10175000D01*
X18162500Y-10110000D02*
G75*
G03X18162500Y-10110000I-65000J0D01*
G01*
X18632500Y-8625000D02*
X18762500Y-8755000D01*
X18762500Y-8625000D02*
X18632500Y-8755000D01*
X18762500Y-8690000D02*
G75*
G03X18762500Y-8690000I-65000J0D01*
G01*
X19232500Y-8825000D02*
X19362500Y-8955000D01*
X19362500Y-8825000D02*
X19232500Y-8955000D01*
X19362500Y-8890000D02*
G75*
G03X19362500Y-8890000I-65000J0D01*
G01*
X19232500Y-10045000D02*
X19362500Y-10175000D01*
X19362500Y-10045000D02*
X19232500Y-10175000D01*
X19362500Y-10110000D02*
G75*
G03X19362500Y-10110000I-65000J0D01*
G01*
X20128000Y-8825000D02*
X20258000Y-8955000D01*
X20258000Y-8825000D02*
X20128000Y-8955000D01*
X20258000Y-8890000D02*
G75*
G03X20258000Y-8890000I-65000J0D01*
G01*
X20128000Y-10045000D02*
X20258000Y-10175000D01*
X20258000Y-10045000D02*
X20128000Y-10175000D01*
X20258000Y-10110000D02*
G75*
G03X20258000Y-10110000I-65000J0D01*
G01*
X20728000Y-8625000D02*
X20858000Y-8755000D01*
X20858000Y-8625000D02*
X20728000Y-8755000D01*
X20858000Y-8690000D02*
G75*
G03X20858000Y-8690000I-65000J0D01*
G01*
X21328000Y-8825000D02*
X21458000Y-8955000D01*
X21458000Y-8825000D02*
X21328000Y-8955000D01*
X21458000Y-8890000D02*
G75*
G03X21458000Y-8890000I-65000J0D01*
G01*
X21328000Y-10045000D02*
X21458000Y-10175000D01*
X21458000Y-10045000D02*
X21328000Y-10175000D01*
X21458000Y-10110000D02*
G75*
G03X21458000Y-10110000I-65000J0D01*
G01*
X22223500Y-8825000D02*
X22353500Y-8955000D01*
X22353500Y-8825000D02*
X22223500Y-8955000D01*
X22353500Y-8890000D02*
G75*
G03X22353500Y-8890000I-65000J0D01*
G01*
X22223500Y-10045000D02*
X22353500Y-10175000D01*
X22353500Y-10045000D02*
X22223500Y-10175000D01*
X22353500Y-10110000D02*
G75*
G03X22353500Y-10110000I-65000J0D01*
G01*
X22823500Y-8625000D02*
X22953500Y-8755000D01*
X22953500Y-8625000D02*
X22823500Y-8755000D01*
X22953500Y-8690000D02*
G75*
G03X22953500Y-8690000I-65000J0D01*
G01*
X23423500Y-8825000D02*
X23553500Y-8955000D01*
X23553500Y-8825000D02*
X23423500Y-8955000D01*
X23553500Y-8890000D02*
G75*
G03X23553500Y-8890000I-65000J0D01*
G01*
X23423500Y-10045000D02*
X23553500Y-10175000D01*
X23553500Y-10045000D02*
X23423500Y-10175000D01*
X23553500Y-10110000D02*
G75*
G03X23553500Y-10110000I-65000J0D01*
G01*
X8243500Y-12117000D02*
X8393500Y-12267000D01*
X8393500Y-12117000D02*
X8243500Y-12267000D01*
X8318500Y-12117000D02*
X8318500Y-12267000D01*
X8243500Y-12192000D02*
X8393500Y-12192000D01*
X8743500Y-12117000D02*
X8893500Y-12267000D01*
X8893500Y-12117000D02*
X8743500Y-12267000D01*
X8818500Y-12117000D02*
X8818500Y-12267000D01*
X8743500Y-12192000D02*
X8893500Y-12192000D01*
X9243500Y-12117000D02*
X9393500Y-12267000D01*
X9393500Y-12117000D02*
X9243500Y-12267000D01*
X9318500Y-12117000D02*
X9318500Y-12267000D01*
X9243500Y-12192000D02*
X9393500Y-12192000D01*
X9743500Y-12117000D02*
X9893500Y-12267000D01*
X9893500Y-12117000D02*
X9743500Y-12267000D01*
X9818500Y-12117000D02*
X9818500Y-12267000D01*
X9743500Y-12192000D02*
X9893500Y-12192000D01*
X10402500Y-12117000D02*
X10552500Y-12267000D01*
X10552500Y-12117000D02*
X10402500Y-12267000D01*
X10477500Y-12117000D02*
X10477500Y-12267000D01*
X10402500Y-12192000D02*
X10552500Y-12192000D01*
X10902500Y-12117000D02*
X11052500Y-12267000D01*
X11052500Y-12117000D02*
X10902500Y-12267000D01*
X10977500Y-12117000D02*
X10977500Y-12267000D01*
X10902500Y-12192000D02*
X11052500Y-12192000D01*
X11402500Y-12117000D02*
X11552500Y-12267000D01*
X11552500Y-12117000D02*
X11402500Y-12267000D01*
X11477500Y-12117000D02*
X11477500Y-12267000D01*
X11402500Y-12192000D02*
X11552500Y-12192000D01*
X11902500Y-12117000D02*
X12052500Y-12267000D01*
X12052500Y-12117000D02*
X11902500Y-12267000D01*
X11977500Y-12117000D02*
X11977500Y-12267000D01*
X11902500Y-12192000D02*
X12052500Y-12192000D01*
X12561500Y-12117000D02*
X12711500Y-12267000D01*
X12711500Y-12117000D02*
X12561500Y-12267000D01*
X12636500Y-12117000D02*
X12636500Y-12267000D01*
X12561500Y-12192000D02*
X12711500Y-12192000D01*
X13061500Y-12117000D02*
X13211500Y-12267000D01*
X13211500Y-12117000D02*
X13061500Y-12267000D01*
X13136500Y-12117000D02*
X13136500Y-12267000D01*
X13061500Y-12192000D02*
X13211500Y-12192000D01*
X13561500Y-12117000D02*
X13711500Y-12267000D01*
X13711500Y-12117000D02*
X13561500Y-12267000D01*
X13636500Y-12117000D02*
X13636500Y-12267000D01*
X13561500Y-12192000D02*
X13711500Y-12192000D01*
X14061500Y-12117000D02*
X14211500Y-12267000D01*
X14211500Y-12117000D02*
X14061500Y-12267000D01*
X14136500Y-12117000D02*
X14136500Y-12267000D01*
X14061500Y-12192000D02*
X14211500Y-12192000D01*
X14720500Y-12117000D02*
X14870500Y-12267000D01*
X14870500Y-12117000D02*
X14720500Y-12267000D01*
X14795500Y-12117000D02*
X14795500Y-12267000D01*
X14720500Y-12192000D02*
X14870500Y-12192000D01*
X15220500Y-12117000D02*
X15370500Y-12267000D01*
X15370500Y-12117000D02*
X15220500Y-12267000D01*
X15295500Y-12117000D02*
X15295500Y-12267000D01*
X15220500Y-12192000D02*
X15370500Y-12192000D01*
X15720500Y-12117000D02*
X15870500Y-12267000D01*
X15870500Y-12117000D02*
X15720500Y-12267000D01*
X15795500Y-12117000D02*
X15795500Y-12267000D01*
X15720500Y-12192000D02*
X15870500Y-12192000D01*
X16220500Y-12117000D02*
X16370500Y-12267000D01*
X16370500Y-12117000D02*
X16220500Y-12267000D01*
X16295500Y-12117000D02*
X16295500Y-12267000D01*
X16220500Y-12192000D02*
X16370500Y-12192000D01*
X16879500Y-12117000D02*
X17029500Y-12267000D01*
X17029500Y-12117000D02*
X16879500Y-12267000D01*
X16954500Y-12117000D02*
X16954500Y-12267000D01*
X16879500Y-12192000D02*
X17029500Y-12192000D01*
X17379500Y-12117000D02*
X17529500Y-12267000D01*
X17529500Y-12117000D02*
X17379500Y-12267000D01*
X17454500Y-12117000D02*
X17454500Y-12267000D01*
X17379500Y-12192000D02*
X17529500Y-12192000D01*
X17879500Y-12117000D02*
X18029500Y-12267000D01*
X18029500Y-12117000D02*
X17879500Y-12267000D01*
X17954500Y-12117000D02*
X17954500Y-12267000D01*
X17879500Y-12192000D02*
X18029500Y-12192000D01*
X18379500Y-12117000D02*
X18529500Y-12267000D01*
X18529500Y-12117000D02*
X18379500Y-12267000D01*
X18454500Y-12117000D02*
X18454500Y-12267000D01*
X18379500Y-12192000D02*
X18529500Y-12192000D01*
X19038500Y-12117000D02*
X19188500Y-12267000D01*
X19188500Y-12117000D02*
X19038500Y-12267000D01*
X19113500Y-12117000D02*
X19113500Y-12267000D01*
X19038500Y-12192000D02*
X19188500Y-12192000D01*
X19538500Y-12117000D02*
X19688500Y-12267000D01*
X19688500Y-12117000D02*
X19538500Y-12267000D01*
X19613500Y-12117000D02*
X19613500Y-12267000D01*
X19538500Y-12192000D02*
X19688500Y-12192000D01*
X20038500Y-12117000D02*
X20188500Y-12267000D01*
X20188500Y-12117000D02*
X20038500Y-12267000D01*
X20113500Y-12117000D02*
X20113500Y-12267000D01*
X20038500Y-12192000D02*
X20188500Y-12192000D01*
X20538500Y-12117000D02*
X20688500Y-12267000D01*
X20688500Y-12117000D02*
X20538500Y-12267000D01*
X20613500Y-12117000D02*
X20613500Y-12267000D01*
X20538500Y-12192000D02*
X20688500Y-12192000D01*
X21197500Y-12117000D02*
X21347500Y-12267000D01*
X21347500Y-12117000D02*
X21197500Y-12267000D01*
X21272500Y-12117000D02*
X21272500Y-12267000D01*
X21197500Y-12192000D02*
X21347500Y-12192000D01*
X21697500Y-12117000D02*
X21847500Y-12267000D01*
X21847500Y-12117000D02*
X21697500Y-12267000D01*
X21772500Y-12117000D02*
X21772500Y-12267000D01*
X21697500Y-12192000D02*
X21847500Y-12192000D01*
X22197500Y-12117000D02*
X22347500Y-12267000D01*
X22347500Y-12117000D02*
X22197500Y-12267000D01*
X22272500Y-12117000D02*
X22272500Y-12267000D01*
X22197500Y-12192000D02*
X22347500Y-12192000D01*
X22697500Y-12117000D02*
X22847500Y-12267000D01*
X22847500Y-12117000D02*
X22697500Y-12267000D01*
X22772500Y-12117000D02*
X22772500Y-12267000D01*
X22697500Y-12192000D02*
X22847500Y-12192000D01*
D13*
X4899429Y-13998714D02*
X4899429Y-13698714D01*
X4970857Y-13698714D01*
X5013714Y-13713000D01*
X5042286Y-13741571D01*
X5056571Y-13770143D01*
X5070857Y-13827286D01*
X5070857Y-13870143D01*
X5056571Y-13927286D01*
X5042286Y-13955857D01*
X5013714Y-13984429D01*
X4970857Y-13998714D01*
X4899429Y-13998714D01*
X5199429Y-13998714D02*
X5199429Y-13798714D01*
X5199429Y-13855857D02*
X5213714Y-13827286D01*
X5228000Y-13813000D01*
X5256571Y-13798714D01*
X5285143Y-13798714D01*
X5385143Y-13998714D02*
X5385143Y-13798714D01*
X5385143Y-13698714D02*
X5370857Y-13713000D01*
X5385143Y-13727286D01*
X5399429Y-13713000D01*
X5385143Y-13698714D01*
X5385143Y-13727286D01*
X5570857Y-13998714D02*
X5542286Y-13984429D01*
X5528000Y-13955857D01*
X5528000Y-13698714D01*
X5728000Y-13998714D02*
X5699428Y-13984429D01*
X5685143Y-13955857D01*
X5685143Y-13698714D01*
X6070857Y-13998714D02*
X6070857Y-13698714D01*
X6170857Y-13913000D01*
X6270857Y-13698714D01*
X6270857Y-13998714D01*
X6542286Y-13998714D02*
X6542286Y-13841571D01*
X6528000Y-13813000D01*
X6499428Y-13798714D01*
X6442286Y-13798714D01*
X6413714Y-13813000D01*
X6542286Y-13984429D02*
X6513714Y-13998714D01*
X6442286Y-13998714D01*
X6413714Y-13984429D01*
X6399428Y-13955857D01*
X6399428Y-13927286D01*
X6413714Y-13898714D01*
X6442286Y-13884429D01*
X6513714Y-13884429D01*
X6542286Y-13870143D01*
X6685143Y-13798714D02*
X6685143Y-14098714D01*
X6685143Y-13813000D02*
X6713714Y-13798714D01*
X6770857Y-13798714D01*
X6799428Y-13813000D01*
X6813714Y-13827286D01*
X6828000Y-13855857D01*
X6828000Y-13941571D01*
X6813714Y-13970143D01*
X6799428Y-13984429D01*
X6770857Y-13998714D01*
X6713714Y-13998714D01*
X6685143Y-13984429D01*
X6956571Y-13970143D02*
X6970857Y-13984429D01*
X6956571Y-13998714D01*
X6942286Y-13984429D01*
X6956571Y-13970143D01*
X6956571Y-13998714D01*
X6956571Y-13813000D02*
X6970857Y-13827286D01*
X6956571Y-13841571D01*
X6942286Y-13827286D01*
X6956571Y-13813000D01*
X6956571Y-13841571D01*
X4588000Y-14473000D02*
X4628000Y-14513000D01*
X4628000Y-14473000D02*
X4588000Y-14513000D01*
X4956571Y-14328714D02*
X4985143Y-14328714D01*
X5013714Y-14343000D01*
X5028000Y-14357286D01*
X5042286Y-14385857D01*
X5056571Y-14443000D01*
X5056571Y-14514429D01*
X5042286Y-14571571D01*
X5028000Y-14600143D01*
X5013714Y-14614429D01*
X4985143Y-14628714D01*
X4956571Y-14628714D01*
X4928000Y-14614429D01*
X4913714Y-14600143D01*
X4899429Y-14571571D01*
X4885143Y-14514429D01*
X4885143Y-14443000D01*
X4899429Y-14385857D01*
X4913714Y-14357286D01*
X4928000Y-14343000D01*
X4956571Y-14328714D01*
X5185143Y-14600143D02*
X5199429Y-14614429D01*
X5185143Y-14628714D01*
X5170857Y-14614429D01*
X5185143Y-14600143D01*
X5185143Y-14628714D01*
X5456571Y-14428714D02*
X5456571Y-14628714D01*
X5385143Y-14314429D02*
X5313714Y-14528714D01*
X5499428Y-14528714D01*
X5670857Y-14328714D02*
X5699428Y-14328714D01*
X5728000Y-14343000D01*
X5742286Y-14357286D01*
X5756571Y-14385857D01*
X5770857Y-14443000D01*
X5770857Y-14514429D01*
X5756571Y-14571571D01*
X5742286Y-14600143D01*
X5728000Y-14614429D01*
X5699428Y-14628714D01*
X5670857Y-14628714D01*
X5642286Y-14614429D01*
X5628000Y-14600143D01*
X5613714Y-14571571D01*
X5599428Y-14514429D01*
X5599428Y-14443000D01*
X5613714Y-14385857D01*
X5628000Y-14357286D01*
X5642286Y-14343000D01*
X5670857Y-14328714D01*
X5899428Y-14628714D02*
X5899428Y-14428714D01*
X5899428Y-14457286D02*
X5913714Y-14443000D01*
X5942286Y-14428714D01*
X5985143Y-14428714D01*
X6013714Y-14443000D01*
X6028000Y-14471571D01*
X6028000Y-14628714D01*
X6028000Y-14471571D02*
X6042286Y-14443000D01*
X6070857Y-14428714D01*
X6113714Y-14428714D01*
X6142286Y-14443000D01*
X6156571Y-14471571D01*
X6156571Y-14628714D01*
X6299428Y-14628714D02*
X6299428Y-14428714D01*
X6299428Y-14457286D02*
X6313714Y-14443000D01*
X6342286Y-14428714D01*
X6385143Y-14428714D01*
X6413714Y-14443000D01*
X6428000Y-14471571D01*
X6428000Y-14628714D01*
X6428000Y-14471571D02*
X6442286Y-14443000D01*
X6470857Y-14428714D01*
X6513714Y-14428714D01*
X6542286Y-14443000D01*
X6556571Y-14471571D01*
X6556571Y-14628714D01*
X7142286Y-14314429D02*
X6885143Y-14700143D01*
X7528000Y-14328714D02*
X7556571Y-14328714D01*
X7585143Y-14343000D01*
X7599428Y-14357286D01*
X7613714Y-14385857D01*
X7628000Y-14443000D01*
X7628000Y-14514429D01*
X7613714Y-14571571D01*
X7599428Y-14600143D01*
X7585143Y-14614429D01*
X7556571Y-14628714D01*
X7528000Y-14628714D01*
X7499428Y-14614429D01*
X7485143Y-14600143D01*
X7470857Y-14571571D01*
X7456571Y-14514429D01*
X7456571Y-14443000D01*
X7470857Y-14385857D01*
X7485143Y-14357286D01*
X7499428Y-14343000D01*
X7528000Y-14328714D01*
X7756571Y-14600143D02*
X7770857Y-14614429D01*
X7756571Y-14628714D01*
X7742286Y-14614429D01*
X7756571Y-14600143D01*
X7756571Y-14628714D01*
X7956571Y-14328714D02*
X7985143Y-14328714D01*
X8013714Y-14343000D01*
X8028000Y-14357286D01*
X8042285Y-14385857D01*
X8056571Y-14443000D01*
X8056571Y-14514429D01*
X8042285Y-14571571D01*
X8028000Y-14600143D01*
X8013714Y-14614429D01*
X7985143Y-14628714D01*
X7956571Y-14628714D01*
X7928000Y-14614429D01*
X7913714Y-14600143D01*
X7899428Y-14571571D01*
X7885143Y-14514429D01*
X7885143Y-14443000D01*
X7899428Y-14385857D01*
X7913714Y-14357286D01*
X7928000Y-14343000D01*
X7956571Y-14328714D01*
X8342285Y-14628714D02*
X8170857Y-14628714D01*
X8256571Y-14628714D02*
X8256571Y-14328714D01*
X8228000Y-14371571D01*
X8199428Y-14400143D01*
X8170857Y-14414429D01*
X8599428Y-14328714D02*
X8542286Y-14328714D01*
X8513714Y-14343000D01*
X8499428Y-14357286D01*
X8470857Y-14400143D01*
X8456571Y-14457286D01*
X8456571Y-14571571D01*
X8470857Y-14600143D01*
X8485143Y-14614429D01*
X8513714Y-14628714D01*
X8570857Y-14628714D01*
X8599428Y-14614429D01*
X8613714Y-14600143D01*
X8628000Y-14571571D01*
X8628000Y-14500143D01*
X8613714Y-14471571D01*
X8599428Y-14457286D01*
X8570857Y-14443000D01*
X8513714Y-14443000D01*
X8485143Y-14457286D01*
X8470857Y-14471571D01*
X8456571Y-14500143D01*
X8742286Y-14328714D02*
X8742286Y-14385857D01*
X8856571Y-14328714D02*
X8856571Y-14385857D01*
X9299428Y-14743000D02*
X9285143Y-14728714D01*
X9256571Y-14685857D01*
X9242286Y-14657286D01*
X9228000Y-14614429D01*
X9213714Y-14543000D01*
X9213714Y-14485857D01*
X9228000Y-14414429D01*
X9242286Y-14371571D01*
X9256571Y-14343000D01*
X9285143Y-14300143D01*
X9299428Y-14285857D01*
X9399428Y-14357286D02*
X9413714Y-14343000D01*
X9442286Y-14328714D01*
X9513714Y-14328714D01*
X9542286Y-14343000D01*
X9556571Y-14357286D01*
X9570857Y-14385857D01*
X9570857Y-14414429D01*
X9556571Y-14457286D01*
X9385143Y-14628714D01*
X9570857Y-14628714D01*
X9756571Y-14328714D02*
X9785143Y-14328714D01*
X9813714Y-14343000D01*
X9828000Y-14357286D01*
X9842286Y-14385857D01*
X9856571Y-14443000D01*
X9856571Y-14514429D01*
X9842286Y-14571571D01*
X9828000Y-14600143D01*
X9813714Y-14614429D01*
X9785143Y-14628714D01*
X9756571Y-14628714D01*
X9728000Y-14614429D01*
X9713714Y-14600143D01*
X9699428Y-14571571D01*
X9685143Y-14514429D01*
X9685143Y-14443000D01*
X9699428Y-14385857D01*
X9713714Y-14357286D01*
X9728000Y-14343000D01*
X9756571Y-14328714D01*
X10213714Y-14628714D02*
X10213714Y-14328714D01*
X10342286Y-14628714D02*
X10342286Y-14471571D01*
X10328000Y-14443000D01*
X10299428Y-14428714D01*
X10256571Y-14428714D01*
X10228000Y-14443000D01*
X10213714Y-14457286D01*
X10528000Y-14628714D02*
X10499428Y-14614429D01*
X10485143Y-14600143D01*
X10470857Y-14571571D01*
X10470857Y-14485857D01*
X10485143Y-14457286D01*
X10499428Y-14443000D01*
X10528000Y-14428714D01*
X10570857Y-14428714D01*
X10599428Y-14443000D01*
X10613714Y-14457286D01*
X10628000Y-14485857D01*
X10628000Y-14571571D01*
X10613714Y-14600143D01*
X10599428Y-14614429D01*
X10570857Y-14628714D01*
X10528000Y-14628714D01*
X10799428Y-14628714D02*
X10770857Y-14614429D01*
X10756571Y-14585857D01*
X10756571Y-14328714D01*
X11028000Y-14614429D02*
X10999429Y-14628714D01*
X10942286Y-14628714D01*
X10913714Y-14614429D01*
X10899429Y-14585857D01*
X10899429Y-14471571D01*
X10913714Y-14443000D01*
X10942286Y-14428714D01*
X10999429Y-14428714D01*
X11028000Y-14443000D01*
X11042286Y-14471571D01*
X11042286Y-14500143D01*
X10899429Y-14528714D01*
X11156571Y-14614429D02*
X11185143Y-14628714D01*
X11242286Y-14628714D01*
X11270857Y-14614429D01*
X11285143Y-14585857D01*
X11285143Y-14571571D01*
X11270857Y-14543000D01*
X11242286Y-14528714D01*
X11199428Y-14528714D01*
X11170857Y-14514429D01*
X11156571Y-14485857D01*
X11156571Y-14471571D01*
X11170857Y-14443000D01*
X11199428Y-14428714D01*
X11242286Y-14428714D01*
X11270857Y-14443000D01*
X11385143Y-14743000D02*
X11399428Y-14728714D01*
X11428000Y-14685857D01*
X11442286Y-14657286D01*
X11456571Y-14614429D01*
X11470857Y-14543000D01*
X11470857Y-14485857D01*
X11456571Y-14414429D01*
X11442286Y-14371571D01*
X11428000Y-14343000D01*
X11399428Y-14300143D01*
X11385143Y-14285857D01*
X4628000Y-14889000D02*
G75*
G03X4628000Y-14889000I-30000J0D01*
G01*
X4956571Y-14724714D02*
X4985143Y-14724714D01*
X5013714Y-14739000D01*
X5028000Y-14753286D01*
X5042286Y-14781857D01*
X5056571Y-14839000D01*
X5056571Y-14910429D01*
X5042286Y-14967571D01*
X5028000Y-14996143D01*
X5013714Y-15010429D01*
X4985143Y-15024714D01*
X4956571Y-15024714D01*
X4928000Y-15010429D01*
X4913714Y-14996143D01*
X4899429Y-14967571D01*
X4885143Y-14910429D01*
X4885143Y-14839000D01*
X4899429Y-14781857D01*
X4913714Y-14753286D01*
X4928000Y-14739000D01*
X4956571Y-14724714D01*
X5185143Y-14996143D02*
X5199429Y-15010429D01*
X5185143Y-15024714D01*
X5170857Y-15010429D01*
X5185143Y-14996143D01*
X5185143Y-15024714D01*
X5456571Y-14724714D02*
X5399428Y-14724714D01*
X5370857Y-14739000D01*
X5356571Y-14753286D01*
X5328000Y-14796143D01*
X5313714Y-14853286D01*
X5313714Y-14967571D01*
X5328000Y-14996143D01*
X5342286Y-15010429D01*
X5370857Y-15024714D01*
X5428000Y-15024714D01*
X5456571Y-15010429D01*
X5470857Y-14996143D01*
X5485143Y-14967571D01*
X5485143Y-14896143D01*
X5470857Y-14867571D01*
X5456571Y-14853286D01*
X5428000Y-14839000D01*
X5370857Y-14839000D01*
X5342286Y-14853286D01*
X5328000Y-14867571D01*
X5313714Y-14896143D01*
X5670857Y-14724714D02*
X5699428Y-14724714D01*
X5728000Y-14739000D01*
X5742286Y-14753286D01*
X5756571Y-14781857D01*
X5770857Y-14839000D01*
X5770857Y-14910429D01*
X5756571Y-14967571D01*
X5742286Y-14996143D01*
X5728000Y-15010429D01*
X5699428Y-15024714D01*
X5670857Y-15024714D01*
X5642286Y-15010429D01*
X5628000Y-14996143D01*
X5613714Y-14967571D01*
X5599428Y-14910429D01*
X5599428Y-14839000D01*
X5613714Y-14781857D01*
X5628000Y-14753286D01*
X5642286Y-14739000D01*
X5670857Y-14724714D01*
X5899428Y-15024714D02*
X5899428Y-14824714D01*
X5899428Y-14853286D02*
X5913714Y-14839000D01*
X5942286Y-14824714D01*
X5985143Y-14824714D01*
X6013714Y-14839000D01*
X6028000Y-14867571D01*
X6028000Y-15024714D01*
X6028000Y-14867571D02*
X6042286Y-14839000D01*
X6070857Y-14824714D01*
X6113714Y-14824714D01*
X6142286Y-14839000D01*
X6156571Y-14867571D01*
X6156571Y-15024714D01*
X6299428Y-15024714D02*
X6299428Y-14824714D01*
X6299428Y-14853286D02*
X6313714Y-14839000D01*
X6342286Y-14824714D01*
X6385143Y-14824714D01*
X6413714Y-14839000D01*
X6428000Y-14867571D01*
X6428000Y-15024714D01*
X6428000Y-14867571D02*
X6442286Y-14839000D01*
X6470857Y-14824714D01*
X6513714Y-14824714D01*
X6542286Y-14839000D01*
X6556571Y-14867571D01*
X6556571Y-15024714D01*
X7142286Y-14710429D02*
X6885143Y-15096143D01*
X7528000Y-14724714D02*
X7556571Y-14724714D01*
X7585143Y-14739000D01*
X7599428Y-14753286D01*
X7613714Y-14781857D01*
X7628000Y-14839000D01*
X7628000Y-14910429D01*
X7613714Y-14967571D01*
X7599428Y-14996143D01*
X7585143Y-15010429D01*
X7556571Y-15024714D01*
X7528000Y-15024714D01*
X7499428Y-15010429D01*
X7485143Y-14996143D01*
X7470857Y-14967571D01*
X7456571Y-14910429D01*
X7456571Y-14839000D01*
X7470857Y-14781857D01*
X7485143Y-14753286D01*
X7499428Y-14739000D01*
X7528000Y-14724714D01*
X7756571Y-14996143D02*
X7770857Y-15010429D01*
X7756571Y-15024714D01*
X7742286Y-15010429D01*
X7756571Y-14996143D01*
X7756571Y-15024714D01*
X7956571Y-14724714D02*
X7985143Y-14724714D01*
X8013714Y-14739000D01*
X8028000Y-14753286D01*
X8042285Y-14781857D01*
X8056571Y-14839000D01*
X8056571Y-14910429D01*
X8042285Y-14967571D01*
X8028000Y-14996143D01*
X8013714Y-15010429D01*
X7985143Y-15024714D01*
X7956571Y-15024714D01*
X7928000Y-15010429D01*
X7913714Y-14996143D01*
X7899428Y-14967571D01*
X7885143Y-14910429D01*
X7885143Y-14839000D01*
X7899428Y-14781857D01*
X7913714Y-14753286D01*
X7928000Y-14739000D01*
X7956571Y-14724714D01*
X8170857Y-14753286D02*
X8185143Y-14739000D01*
X8213714Y-14724714D01*
X8285143Y-14724714D01*
X8313714Y-14739000D01*
X8328000Y-14753286D01*
X8342285Y-14781857D01*
X8342285Y-14810429D01*
X8328000Y-14853286D01*
X8156571Y-15024714D01*
X8342285Y-15024714D01*
X8599428Y-14824714D02*
X8599428Y-15024714D01*
X8528000Y-14710429D02*
X8456571Y-14924714D01*
X8642286Y-14924714D01*
X8742286Y-14724714D02*
X8742286Y-14781857D01*
X8856571Y-14724714D02*
X8856571Y-14781857D01*
X9299428Y-15139000D02*
X9285143Y-15124714D01*
X9256571Y-15081857D01*
X9242286Y-15053286D01*
X9228000Y-15010429D01*
X9213714Y-14939000D01*
X9213714Y-14881857D01*
X9228000Y-14810429D01*
X9242286Y-14767571D01*
X9256571Y-14739000D01*
X9285143Y-14696143D01*
X9299428Y-14681857D01*
X9556571Y-14724714D02*
X9413714Y-14724714D01*
X9399428Y-14867571D01*
X9413714Y-14853286D01*
X9442286Y-14839000D01*
X9513714Y-14839000D01*
X9542286Y-14853286D01*
X9556571Y-14867571D01*
X9570857Y-14896143D01*
X9570857Y-14967571D01*
X9556571Y-14996143D01*
X9542286Y-15010429D01*
X9513714Y-15024714D01*
X9442286Y-15024714D01*
X9413714Y-15010429D01*
X9399428Y-14996143D01*
X9856571Y-15024714D02*
X9685143Y-15024714D01*
X9770857Y-15024714D02*
X9770857Y-14724714D01*
X9742286Y-14767571D01*
X9713714Y-14796143D01*
X9685143Y-14810429D01*
X10213714Y-15024714D02*
X10213714Y-14724714D01*
X10342286Y-15024714D02*
X10342286Y-14867571D01*
X10328000Y-14839000D01*
X10299428Y-14824714D01*
X10256571Y-14824714D01*
X10228000Y-14839000D01*
X10213714Y-14853286D01*
X10528000Y-15024714D02*
X10499428Y-15010429D01*
X10485143Y-14996143D01*
X10470857Y-14967571D01*
X10470857Y-14881857D01*
X10485143Y-14853286D01*
X10499428Y-14839000D01*
X10528000Y-14824714D01*
X10570857Y-14824714D01*
X10599428Y-14839000D01*
X10613714Y-14853286D01*
X10628000Y-14881857D01*
X10628000Y-14967571D01*
X10613714Y-14996143D01*
X10599428Y-15010429D01*
X10570857Y-15024714D01*
X10528000Y-15024714D01*
X10799428Y-15024714D02*
X10770857Y-15010429D01*
X10756571Y-14981857D01*
X10756571Y-14724714D01*
X11028000Y-15010429D02*
X10999429Y-15024714D01*
X10942286Y-15024714D01*
X10913714Y-15010429D01*
X10899429Y-14981857D01*
X10899429Y-14867571D01*
X10913714Y-14839000D01*
X10942286Y-14824714D01*
X10999429Y-14824714D01*
X11028000Y-14839000D01*
X11042286Y-14867571D01*
X11042286Y-14896143D01*
X10899429Y-14924714D01*
X11156571Y-15010429D02*
X11185143Y-15024714D01*
X11242286Y-15024714D01*
X11270857Y-15010429D01*
X11285143Y-14981857D01*
X11285143Y-14967571D01*
X11270857Y-14939000D01*
X11242286Y-14924714D01*
X11199428Y-14924714D01*
X11170857Y-14910429D01*
X11156571Y-14881857D01*
X11156571Y-14867571D01*
X11170857Y-14839000D01*
X11199428Y-14824714D01*
X11242286Y-14824714D01*
X11270857Y-14839000D01*
X11385143Y-15139000D02*
X11399428Y-15124714D01*
X11428000Y-15081857D01*
X11442286Y-15053286D01*
X11456571Y-15010429D01*
X11470857Y-14939000D01*
X11470857Y-14881857D01*
X11456571Y-14810429D01*
X11442286Y-14767571D01*
X11428000Y-14739000D01*
X11399428Y-14696143D01*
X11385143Y-14681857D01*
X4577962Y-15234962D02*
X4577962Y-15335038D01*
X4527924Y-15285000D02*
X4628000Y-15285000D01*
X5056571Y-15420714D02*
X4885143Y-15420714D01*
X4970857Y-15420714D02*
X4970857Y-15120714D01*
X4942286Y-15163571D01*
X4913714Y-15192143D01*
X4885143Y-15206429D01*
X5185143Y-15392143D02*
X5199429Y-15406429D01*
X5185143Y-15420714D01*
X5170857Y-15406429D01*
X5185143Y-15392143D01*
X5185143Y-15420714D01*
X5385143Y-15120714D02*
X5413714Y-15120714D01*
X5442286Y-15135000D01*
X5456571Y-15149286D01*
X5470857Y-15177857D01*
X5485143Y-15235000D01*
X5485143Y-15306429D01*
X5470857Y-15363571D01*
X5456571Y-15392143D01*
X5442286Y-15406429D01*
X5413714Y-15420714D01*
X5385143Y-15420714D01*
X5356571Y-15406429D01*
X5342286Y-15392143D01*
X5328000Y-15363571D01*
X5313714Y-15306429D01*
X5313714Y-15235000D01*
X5328000Y-15177857D01*
X5342286Y-15149286D01*
X5356571Y-15135000D01*
X5385143Y-15120714D01*
X5670857Y-15120714D02*
X5699428Y-15120714D01*
X5728000Y-15135000D01*
X5742286Y-15149286D01*
X5756571Y-15177857D01*
X5770857Y-15235000D01*
X5770857Y-15306429D01*
X5756571Y-15363571D01*
X5742286Y-15392143D01*
X5728000Y-15406429D01*
X5699428Y-15420714D01*
X5670857Y-15420714D01*
X5642286Y-15406429D01*
X5628000Y-15392143D01*
X5613714Y-15363571D01*
X5599428Y-15306429D01*
X5599428Y-15235000D01*
X5613714Y-15177857D01*
X5628000Y-15149286D01*
X5642286Y-15135000D01*
X5670857Y-15120714D01*
X5899428Y-15420714D02*
X5899428Y-15220714D01*
X5899428Y-15249286D02*
X5913714Y-15235000D01*
X5942286Y-15220714D01*
X5985143Y-15220714D01*
X6013714Y-15235000D01*
X6028000Y-15263571D01*
X6028000Y-15420714D01*
X6028000Y-15263571D02*
X6042286Y-15235000D01*
X6070857Y-15220714D01*
X6113714Y-15220714D01*
X6142286Y-15235000D01*
X6156571Y-15263571D01*
X6156571Y-15420714D01*
X6299428Y-15420714D02*
X6299428Y-15220714D01*
X6299428Y-15249286D02*
X6313714Y-15235000D01*
X6342286Y-15220714D01*
X6385143Y-15220714D01*
X6413714Y-15235000D01*
X6428000Y-15263571D01*
X6428000Y-15420714D01*
X6428000Y-15263571D02*
X6442286Y-15235000D01*
X6470857Y-15220714D01*
X6513714Y-15220714D01*
X6542286Y-15235000D01*
X6556571Y-15263571D01*
X6556571Y-15420714D01*
X7142286Y-15106429D02*
X6885143Y-15492143D01*
X7528000Y-15120714D02*
X7556571Y-15120714D01*
X7585143Y-15135000D01*
X7599428Y-15149286D01*
X7613714Y-15177857D01*
X7628000Y-15235000D01*
X7628000Y-15306429D01*
X7613714Y-15363571D01*
X7599428Y-15392143D01*
X7585143Y-15406429D01*
X7556571Y-15420714D01*
X7528000Y-15420714D01*
X7499428Y-15406429D01*
X7485143Y-15392143D01*
X7470857Y-15363571D01*
X7456571Y-15306429D01*
X7456571Y-15235000D01*
X7470857Y-15177857D01*
X7485143Y-15149286D01*
X7499428Y-15135000D01*
X7528000Y-15120714D01*
X7756571Y-15392143D02*
X7770857Y-15406429D01*
X7756571Y-15420714D01*
X7742286Y-15406429D01*
X7756571Y-15392143D01*
X7756571Y-15420714D01*
X7956571Y-15120714D02*
X7985143Y-15120714D01*
X8013714Y-15135000D01*
X8028000Y-15149286D01*
X8042285Y-15177857D01*
X8056571Y-15235000D01*
X8056571Y-15306429D01*
X8042285Y-15363571D01*
X8028000Y-15392143D01*
X8013714Y-15406429D01*
X7985143Y-15420714D01*
X7956571Y-15420714D01*
X7928000Y-15406429D01*
X7913714Y-15392143D01*
X7899428Y-15363571D01*
X7885143Y-15306429D01*
X7885143Y-15235000D01*
X7899428Y-15177857D01*
X7913714Y-15149286D01*
X7928000Y-15135000D01*
X7956571Y-15120714D01*
X8156571Y-15120714D02*
X8342285Y-15120714D01*
X8242285Y-15235000D01*
X8285143Y-15235000D01*
X8313714Y-15249286D01*
X8328000Y-15263571D01*
X8342285Y-15292143D01*
X8342285Y-15363571D01*
X8328000Y-15392143D01*
X8313714Y-15406429D01*
X8285143Y-15420714D01*
X8199428Y-15420714D01*
X8170857Y-15406429D01*
X8156571Y-15392143D01*
X8485143Y-15420714D02*
X8542286Y-15420714D01*
X8570857Y-15406429D01*
X8585143Y-15392143D01*
X8613714Y-15349286D01*
X8628000Y-15292143D01*
X8628000Y-15177857D01*
X8613714Y-15149286D01*
X8599428Y-15135000D01*
X8570857Y-15120714D01*
X8513714Y-15120714D01*
X8485143Y-15135000D01*
X8470857Y-15149286D01*
X8456571Y-15177857D01*
X8456571Y-15249286D01*
X8470857Y-15277857D01*
X8485143Y-15292143D01*
X8513714Y-15306429D01*
X8570857Y-15306429D01*
X8599428Y-15292143D01*
X8613714Y-15277857D01*
X8628000Y-15249286D01*
X8742286Y-15120714D02*
X8742286Y-15177857D01*
X8856571Y-15120714D02*
X8856571Y-15177857D01*
X9299428Y-15535000D02*
X9285143Y-15520714D01*
X9256571Y-15477857D01*
X9242286Y-15449286D01*
X9228000Y-15406429D01*
X9213714Y-15335000D01*
X9213714Y-15277857D01*
X9228000Y-15206429D01*
X9242286Y-15163571D01*
X9256571Y-15135000D01*
X9285143Y-15092143D01*
X9299428Y-15077857D01*
X9542286Y-15120714D02*
X9485143Y-15120714D01*
X9456571Y-15135000D01*
X9442286Y-15149286D01*
X9413714Y-15192143D01*
X9399428Y-15249286D01*
X9399428Y-15363571D01*
X9413714Y-15392143D01*
X9428000Y-15406429D01*
X9456571Y-15420714D01*
X9513714Y-15420714D01*
X9542286Y-15406429D01*
X9556571Y-15392143D01*
X9570857Y-15363571D01*
X9570857Y-15292143D01*
X9556571Y-15263571D01*
X9542286Y-15249286D01*
X9513714Y-15235000D01*
X9456571Y-15235000D01*
X9428000Y-15249286D01*
X9413714Y-15263571D01*
X9399428Y-15292143D01*
X9756571Y-15120714D02*
X9785143Y-15120714D01*
X9813714Y-15135000D01*
X9828000Y-15149286D01*
X9842286Y-15177857D01*
X9856571Y-15235000D01*
X9856571Y-15306429D01*
X9842286Y-15363571D01*
X9828000Y-15392143D01*
X9813714Y-15406429D01*
X9785143Y-15420714D01*
X9756571Y-15420714D01*
X9728000Y-15406429D01*
X9713714Y-15392143D01*
X9699428Y-15363571D01*
X9685143Y-15306429D01*
X9685143Y-15235000D01*
X9699428Y-15177857D01*
X9713714Y-15149286D01*
X9728000Y-15135000D01*
X9756571Y-15120714D01*
X10213714Y-15420714D02*
X10213714Y-15120714D01*
X10342286Y-15420714D02*
X10342286Y-15263571D01*
X10328000Y-15235000D01*
X10299428Y-15220714D01*
X10256571Y-15220714D01*
X10228000Y-15235000D01*
X10213714Y-15249286D01*
X10528000Y-15420714D02*
X10499428Y-15406429D01*
X10485143Y-15392143D01*
X10470857Y-15363571D01*
X10470857Y-15277857D01*
X10485143Y-15249286D01*
X10499428Y-15235000D01*
X10528000Y-15220714D01*
X10570857Y-15220714D01*
X10599428Y-15235000D01*
X10613714Y-15249286D01*
X10628000Y-15277857D01*
X10628000Y-15363571D01*
X10613714Y-15392143D01*
X10599428Y-15406429D01*
X10570857Y-15420714D01*
X10528000Y-15420714D01*
X10799428Y-15420714D02*
X10770857Y-15406429D01*
X10756571Y-15377857D01*
X10756571Y-15120714D01*
X11028000Y-15406429D02*
X10999429Y-15420714D01*
X10942286Y-15420714D01*
X10913714Y-15406429D01*
X10899429Y-15377857D01*
X10899429Y-15263571D01*
X10913714Y-15235000D01*
X10942286Y-15220714D01*
X10999429Y-15220714D01*
X11028000Y-15235000D01*
X11042286Y-15263571D01*
X11042286Y-15292143D01*
X10899429Y-15320714D01*
X11156571Y-15406429D02*
X11185143Y-15420714D01*
X11242286Y-15420714D01*
X11270857Y-15406429D01*
X11285143Y-15377857D01*
X11285143Y-15363571D01*
X11270857Y-15335000D01*
X11242286Y-15320714D01*
X11199428Y-15320714D01*
X11170857Y-15306429D01*
X11156571Y-15277857D01*
X11156571Y-15263571D01*
X11170857Y-15235000D01*
X11199428Y-15220714D01*
X11242286Y-15220714D01*
X11270857Y-15235000D01*
X11385143Y-15535000D02*
X11399428Y-15520714D01*
X11428000Y-15477857D01*
X11442286Y-15449286D01*
X11456571Y-15406429D01*
X11470857Y-15335000D01*
X11470857Y-15277857D01*
X11456571Y-15206429D01*
X11442286Y-15163571D01*
X11428000Y-15135000D01*
X11399428Y-15092143D01*
X11385143Y-15077857D01*
X4613121Y-15716921D02*
X4613121Y-15645079D01*
X4541279Y-15645079D01*
X4541279Y-15716921D01*
X4613121Y-15716921D01*
X5056571Y-15816714D02*
X4885143Y-15816714D01*
X4970857Y-15816714D02*
X4970857Y-15516714D01*
X4942286Y-15559571D01*
X4913714Y-15588143D01*
X4885143Y-15602429D01*
X5185143Y-15788143D02*
X5199429Y-15802429D01*
X5185143Y-15816714D01*
X5170857Y-15802429D01*
X5185143Y-15788143D01*
X5185143Y-15816714D01*
X5385143Y-15516714D02*
X5413714Y-15516714D01*
X5442286Y-15531000D01*
X5456571Y-15545286D01*
X5470857Y-15573857D01*
X5485143Y-15631000D01*
X5485143Y-15702429D01*
X5470857Y-15759571D01*
X5456571Y-15788143D01*
X5442286Y-15802429D01*
X5413714Y-15816714D01*
X5385143Y-15816714D01*
X5356571Y-15802429D01*
X5342286Y-15788143D01*
X5328000Y-15759571D01*
X5313714Y-15702429D01*
X5313714Y-15631000D01*
X5328000Y-15573857D01*
X5342286Y-15545286D01*
X5356571Y-15531000D01*
X5385143Y-15516714D01*
X5599428Y-15545286D02*
X5613714Y-15531000D01*
X5642286Y-15516714D01*
X5713714Y-15516714D01*
X5742286Y-15531000D01*
X5756571Y-15545286D01*
X5770857Y-15573857D01*
X5770857Y-15602429D01*
X5756571Y-15645286D01*
X5585143Y-15816714D01*
X5770857Y-15816714D01*
X5899428Y-15816714D02*
X5899428Y-15616714D01*
X5899428Y-15645286D02*
X5913714Y-15631000D01*
X5942286Y-15616714D01*
X5985143Y-15616714D01*
X6013714Y-15631000D01*
X6028000Y-15659571D01*
X6028000Y-15816714D01*
X6028000Y-15659571D02*
X6042286Y-15631000D01*
X6070857Y-15616714D01*
X6113714Y-15616714D01*
X6142286Y-15631000D01*
X6156571Y-15659571D01*
X6156571Y-15816714D01*
X6299428Y-15816714D02*
X6299428Y-15616714D01*
X6299428Y-15645286D02*
X6313714Y-15631000D01*
X6342286Y-15616714D01*
X6385143Y-15616714D01*
X6413714Y-15631000D01*
X6428000Y-15659571D01*
X6428000Y-15816714D01*
X6428000Y-15659571D02*
X6442286Y-15631000D01*
X6470857Y-15616714D01*
X6513714Y-15616714D01*
X6542286Y-15631000D01*
X6556571Y-15659571D01*
X6556571Y-15816714D01*
X7142286Y-15502429D02*
X6885143Y-15888143D01*
X7528000Y-15516714D02*
X7556571Y-15516714D01*
X7585143Y-15531000D01*
X7599428Y-15545286D01*
X7613714Y-15573857D01*
X7628000Y-15631000D01*
X7628000Y-15702429D01*
X7613714Y-15759571D01*
X7599428Y-15788143D01*
X7585143Y-15802429D01*
X7556571Y-15816714D01*
X7528000Y-15816714D01*
X7499428Y-15802429D01*
X7485143Y-15788143D01*
X7470857Y-15759571D01*
X7456571Y-15702429D01*
X7456571Y-15631000D01*
X7470857Y-15573857D01*
X7485143Y-15545286D01*
X7499428Y-15531000D01*
X7528000Y-15516714D01*
X7756571Y-15788143D02*
X7770857Y-15802429D01*
X7756571Y-15816714D01*
X7742286Y-15802429D01*
X7756571Y-15788143D01*
X7756571Y-15816714D01*
X7956571Y-15516714D02*
X7985143Y-15516714D01*
X8013714Y-15531000D01*
X8028000Y-15545286D01*
X8042285Y-15573857D01*
X8056571Y-15631000D01*
X8056571Y-15702429D01*
X8042285Y-15759571D01*
X8028000Y-15788143D01*
X8013714Y-15802429D01*
X7985143Y-15816714D01*
X7956571Y-15816714D01*
X7928000Y-15802429D01*
X7913714Y-15788143D01*
X7899428Y-15759571D01*
X7885143Y-15702429D01*
X7885143Y-15631000D01*
X7899428Y-15573857D01*
X7913714Y-15545286D01*
X7928000Y-15531000D01*
X7956571Y-15516714D01*
X8313714Y-15616714D02*
X8313714Y-15816714D01*
X8242285Y-15502429D02*
X8170857Y-15716714D01*
X8356571Y-15716714D01*
X8528000Y-15516714D02*
X8556571Y-15516714D01*
X8585143Y-15531000D01*
X8599428Y-15545286D01*
X8613714Y-15573857D01*
X8628000Y-15631000D01*
X8628000Y-15702429D01*
X8613714Y-15759571D01*
X8599428Y-15788143D01*
X8585143Y-15802429D01*
X8556571Y-15816714D01*
X8528000Y-15816714D01*
X8499428Y-15802429D01*
X8485143Y-15788143D01*
X8470857Y-15759571D01*
X8456571Y-15702429D01*
X8456571Y-15631000D01*
X8470857Y-15573857D01*
X8485143Y-15545286D01*
X8499428Y-15531000D01*
X8528000Y-15516714D01*
X8742286Y-15516714D02*
X8742286Y-15573857D01*
X8856571Y-15516714D02*
X8856571Y-15573857D01*
X9299428Y-15931000D02*
X9285143Y-15916714D01*
X9256571Y-15873857D01*
X9242286Y-15845286D01*
X9228000Y-15802429D01*
X9213714Y-15731000D01*
X9213714Y-15673857D01*
X9228000Y-15602429D01*
X9242286Y-15559571D01*
X9256571Y-15531000D01*
X9285143Y-15488143D01*
X9299428Y-15473857D01*
X9385143Y-15516714D02*
X9570857Y-15516714D01*
X9470857Y-15631000D01*
X9513714Y-15631000D01*
X9542286Y-15645286D01*
X9556571Y-15659571D01*
X9570857Y-15688143D01*
X9570857Y-15759571D01*
X9556571Y-15788143D01*
X9542286Y-15802429D01*
X9513714Y-15816714D01*
X9428000Y-15816714D01*
X9399428Y-15802429D01*
X9385143Y-15788143D01*
X9756571Y-15516714D02*
X9785143Y-15516714D01*
X9813714Y-15531000D01*
X9828000Y-15545286D01*
X9842286Y-15573857D01*
X9856571Y-15631000D01*
X9856571Y-15702429D01*
X9842286Y-15759571D01*
X9828000Y-15788143D01*
X9813714Y-15802429D01*
X9785143Y-15816714D01*
X9756571Y-15816714D01*
X9728000Y-15802429D01*
X9713714Y-15788143D01*
X9699428Y-15759571D01*
X9685143Y-15702429D01*
X9685143Y-15631000D01*
X9699428Y-15573857D01*
X9713714Y-15545286D01*
X9728000Y-15531000D01*
X9756571Y-15516714D01*
X10213714Y-15816714D02*
X10213714Y-15516714D01*
X10342286Y-15816714D02*
X10342286Y-15659571D01*
X10328000Y-15631000D01*
X10299428Y-15616714D01*
X10256571Y-15616714D01*
X10228000Y-15631000D01*
X10213714Y-15645286D01*
X10528000Y-15816714D02*
X10499428Y-15802429D01*
X10485143Y-15788143D01*
X10470857Y-15759571D01*
X10470857Y-15673857D01*
X10485143Y-15645286D01*
X10499428Y-15631000D01*
X10528000Y-15616714D01*
X10570857Y-15616714D01*
X10599428Y-15631000D01*
X10613714Y-15645286D01*
X10628000Y-15673857D01*
X10628000Y-15759571D01*
X10613714Y-15788143D01*
X10599428Y-15802429D01*
X10570857Y-15816714D01*
X10528000Y-15816714D01*
X10799428Y-15816714D02*
X10770857Y-15802429D01*
X10756571Y-15773857D01*
X10756571Y-15516714D01*
X11028000Y-15802429D02*
X10999429Y-15816714D01*
X10942286Y-15816714D01*
X10913714Y-15802429D01*
X10899429Y-15773857D01*
X10899429Y-15659571D01*
X10913714Y-15631000D01*
X10942286Y-15616714D01*
X10999429Y-15616714D01*
X11028000Y-15631000D01*
X11042286Y-15659571D01*
X11042286Y-15688143D01*
X10899429Y-15716714D01*
X11156571Y-15802429D02*
X11185143Y-15816714D01*
X11242286Y-15816714D01*
X11270857Y-15802429D01*
X11285143Y-15773857D01*
X11285143Y-15759571D01*
X11270857Y-15731000D01*
X11242286Y-15716714D01*
X11199428Y-15716714D01*
X11170857Y-15702429D01*
X11156571Y-15673857D01*
X11156571Y-15659571D01*
X11170857Y-15631000D01*
X11199428Y-15616714D01*
X11242286Y-15616714D01*
X11270857Y-15631000D01*
X11385143Y-15931000D02*
X11399428Y-15916714D01*
X11428000Y-15873857D01*
X11442286Y-15845286D01*
X11456571Y-15802429D01*
X11470857Y-15731000D01*
X11470857Y-15673857D01*
X11456571Y-15602429D01*
X11442286Y-15559571D01*
X11428000Y-15531000D01*
X11399428Y-15488143D01*
X11385143Y-15473857D01*
X4564500Y-16140500D02*
X4628000Y-16077000D01*
X4564500Y-16013500D01*
X4501000Y-16077000D01*
X4564500Y-16140500D01*
X5056571Y-16212714D02*
X4885143Y-16212714D01*
X4970857Y-16212714D02*
X4970857Y-15912714D01*
X4942286Y-15955571D01*
X4913714Y-15984143D01*
X4885143Y-15998429D01*
X5185143Y-16184143D02*
X5199429Y-16198429D01*
X5185143Y-16212714D01*
X5170857Y-16198429D01*
X5185143Y-16184143D01*
X5185143Y-16212714D01*
X5313714Y-15941286D02*
X5328000Y-15927000D01*
X5356571Y-15912714D01*
X5428000Y-15912714D01*
X5456571Y-15927000D01*
X5470857Y-15941286D01*
X5485143Y-15969857D01*
X5485143Y-15998429D01*
X5470857Y-16041286D01*
X5299428Y-16212714D01*
X5485143Y-16212714D01*
X5585143Y-15912714D02*
X5785143Y-15912714D01*
X5656571Y-16212714D01*
X5899428Y-16212714D02*
X5899428Y-16012714D01*
X5899428Y-16041286D02*
X5913714Y-16027000D01*
X5942286Y-16012714D01*
X5985143Y-16012714D01*
X6013714Y-16027000D01*
X6028000Y-16055571D01*
X6028000Y-16212714D01*
X6028000Y-16055571D02*
X6042286Y-16027000D01*
X6070857Y-16012714D01*
X6113714Y-16012714D01*
X6142286Y-16027000D01*
X6156571Y-16055571D01*
X6156571Y-16212714D01*
X6299428Y-16212714D02*
X6299428Y-16012714D01*
X6299428Y-16041286D02*
X6313714Y-16027000D01*
X6342286Y-16012714D01*
X6385143Y-16012714D01*
X6413714Y-16027000D01*
X6428000Y-16055571D01*
X6428000Y-16212714D01*
X6428000Y-16055571D02*
X6442286Y-16027000D01*
X6470857Y-16012714D01*
X6513714Y-16012714D01*
X6542286Y-16027000D01*
X6556571Y-16055571D01*
X6556571Y-16212714D01*
X7142286Y-15898429D02*
X6885143Y-16284143D01*
X7528000Y-15912714D02*
X7556571Y-15912714D01*
X7585143Y-15927000D01*
X7599428Y-15941286D01*
X7613714Y-15969857D01*
X7628000Y-16027000D01*
X7628000Y-16098429D01*
X7613714Y-16155571D01*
X7599428Y-16184143D01*
X7585143Y-16198429D01*
X7556571Y-16212714D01*
X7528000Y-16212714D01*
X7499428Y-16198429D01*
X7485143Y-16184143D01*
X7470857Y-16155571D01*
X7456571Y-16098429D01*
X7456571Y-16027000D01*
X7470857Y-15969857D01*
X7485143Y-15941286D01*
X7499428Y-15927000D01*
X7528000Y-15912714D01*
X7756571Y-16184143D02*
X7770857Y-16198429D01*
X7756571Y-16212714D01*
X7742286Y-16198429D01*
X7756571Y-16184143D01*
X7756571Y-16212714D01*
X7956571Y-15912714D02*
X7985143Y-15912714D01*
X8013714Y-15927000D01*
X8028000Y-15941286D01*
X8042285Y-15969857D01*
X8056571Y-16027000D01*
X8056571Y-16098429D01*
X8042285Y-16155571D01*
X8028000Y-16184143D01*
X8013714Y-16198429D01*
X7985143Y-16212714D01*
X7956571Y-16212714D01*
X7928000Y-16198429D01*
X7913714Y-16184143D01*
X7899428Y-16155571D01*
X7885143Y-16098429D01*
X7885143Y-16027000D01*
X7899428Y-15969857D01*
X7913714Y-15941286D01*
X7928000Y-15927000D01*
X7956571Y-15912714D01*
X8328000Y-15912714D02*
X8185143Y-15912714D01*
X8170857Y-16055571D01*
X8185143Y-16041286D01*
X8213714Y-16027000D01*
X8285143Y-16027000D01*
X8313714Y-16041286D01*
X8328000Y-16055571D01*
X8342285Y-16084143D01*
X8342285Y-16155571D01*
X8328000Y-16184143D01*
X8313714Y-16198429D01*
X8285143Y-16212714D01*
X8213714Y-16212714D01*
X8185143Y-16198429D01*
X8170857Y-16184143D01*
X8528000Y-15912714D02*
X8556571Y-15912714D01*
X8585143Y-15927000D01*
X8599428Y-15941286D01*
X8613714Y-15969857D01*
X8628000Y-16027000D01*
X8628000Y-16098429D01*
X8613714Y-16155571D01*
X8599428Y-16184143D01*
X8585143Y-16198429D01*
X8556571Y-16212714D01*
X8528000Y-16212714D01*
X8499428Y-16198429D01*
X8485143Y-16184143D01*
X8470857Y-16155571D01*
X8456571Y-16098429D01*
X8456571Y-16027000D01*
X8470857Y-15969857D01*
X8485143Y-15941286D01*
X8499428Y-15927000D01*
X8528000Y-15912714D01*
X8742286Y-15912714D02*
X8742286Y-15969857D01*
X8856571Y-15912714D02*
X8856571Y-15969857D01*
X9299428Y-16327000D02*
X9285143Y-16312714D01*
X9256571Y-16269857D01*
X9242286Y-16241286D01*
X9228000Y-16198429D01*
X9213714Y-16127000D01*
X9213714Y-16069857D01*
X9228000Y-15998429D01*
X9242286Y-15955571D01*
X9256571Y-15927000D01*
X9285143Y-15884143D01*
X9299428Y-15869857D01*
X9456571Y-16041286D02*
X9428000Y-16027000D01*
X9413714Y-16012714D01*
X9399428Y-15984143D01*
X9399428Y-15969857D01*
X9413714Y-15941286D01*
X9428000Y-15927000D01*
X9456571Y-15912714D01*
X9513714Y-15912714D01*
X9542286Y-15927000D01*
X9556571Y-15941286D01*
X9570857Y-15969857D01*
X9570857Y-15984143D01*
X9556571Y-16012714D01*
X9542286Y-16027000D01*
X9513714Y-16041286D01*
X9456571Y-16041286D01*
X9428000Y-16055571D01*
X9413714Y-16069857D01*
X9399428Y-16098429D01*
X9399428Y-16155571D01*
X9413714Y-16184143D01*
X9428000Y-16198429D01*
X9456571Y-16212714D01*
X9513714Y-16212714D01*
X9542286Y-16198429D01*
X9556571Y-16184143D01*
X9570857Y-16155571D01*
X9570857Y-16098429D01*
X9556571Y-16069857D01*
X9542286Y-16055571D01*
X9513714Y-16041286D01*
X9928000Y-16212714D02*
X9928000Y-15912714D01*
X10056571Y-16212714D02*
X10056571Y-16055571D01*
X10042286Y-16027000D01*
X10013714Y-16012714D01*
X9970857Y-16012714D01*
X9942286Y-16027000D01*
X9928000Y-16041286D01*
X10242286Y-16212714D02*
X10213714Y-16198429D01*
X10199428Y-16184143D01*
X10185143Y-16155571D01*
X10185143Y-16069857D01*
X10199428Y-16041286D01*
X10213714Y-16027000D01*
X10242286Y-16012714D01*
X10285143Y-16012714D01*
X10313714Y-16027000D01*
X10328000Y-16041286D01*
X10342286Y-16069857D01*
X10342286Y-16155571D01*
X10328000Y-16184143D01*
X10313714Y-16198429D01*
X10285143Y-16212714D01*
X10242286Y-16212714D01*
X10513714Y-16212714D02*
X10485143Y-16198429D01*
X10470857Y-16169857D01*
X10470857Y-15912714D01*
X10742286Y-16198429D02*
X10713714Y-16212714D01*
X10656571Y-16212714D01*
X10628000Y-16198429D01*
X10613714Y-16169857D01*
X10613714Y-16055571D01*
X10628000Y-16027000D01*
X10656571Y-16012714D01*
X10713714Y-16012714D01*
X10742286Y-16027000D01*
X10756571Y-16055571D01*
X10756571Y-16084143D01*
X10613714Y-16112714D01*
X10870857Y-16198429D02*
X10899429Y-16212714D01*
X10956571Y-16212714D01*
X10985143Y-16198429D01*
X10999429Y-16169857D01*
X10999429Y-16155571D01*
X10985143Y-16127000D01*
X10956571Y-16112714D01*
X10913714Y-16112714D01*
X10885143Y-16098429D01*
X10870857Y-16069857D01*
X10870857Y-16055571D01*
X10885143Y-16027000D01*
X10913714Y-16012714D01*
X10956571Y-16012714D01*
X10985143Y-16027000D01*
X11099428Y-16327000D02*
X11113714Y-16312714D01*
X11142286Y-16269857D01*
X11156571Y-16241286D01*
X11170857Y-16198429D01*
X11185143Y-16127000D01*
X11185143Y-16069857D01*
X11170857Y-15998429D01*
X11156571Y-15955571D01*
X11142286Y-15927000D01*
X11113714Y-15884143D01*
X11099428Y-15869857D01*
X4498000Y-16408000D02*
X4628000Y-16538000D01*
X4628000Y-16408000D02*
X4498000Y-16538000D01*
X4628000Y-16473000D02*
G75*
G03X4628000Y-16473000I-65000J0D01*
G01*
X5056571Y-16608714D02*
X4885143Y-16608714D01*
X4970857Y-16608714D02*
X4970857Y-16308714D01*
X4942286Y-16351571D01*
X4913714Y-16380143D01*
X4885143Y-16394429D01*
X5185143Y-16580143D02*
X5199429Y-16594429D01*
X5185143Y-16608714D01*
X5170857Y-16594429D01*
X5185143Y-16580143D01*
X5185143Y-16608714D01*
X5299428Y-16308714D02*
X5485143Y-16308714D01*
X5385143Y-16423000D01*
X5428000Y-16423000D01*
X5456571Y-16437286D01*
X5470857Y-16451571D01*
X5485143Y-16480143D01*
X5485143Y-16551571D01*
X5470857Y-16580143D01*
X5456571Y-16594429D01*
X5428000Y-16608714D01*
X5342286Y-16608714D01*
X5313714Y-16594429D01*
X5299428Y-16580143D01*
X5670857Y-16308714D02*
X5699428Y-16308714D01*
X5728000Y-16323000D01*
X5742286Y-16337286D01*
X5756571Y-16365857D01*
X5770857Y-16423000D01*
X5770857Y-16494429D01*
X5756571Y-16551571D01*
X5742286Y-16580143D01*
X5728000Y-16594429D01*
X5699428Y-16608714D01*
X5670857Y-16608714D01*
X5642286Y-16594429D01*
X5628000Y-16580143D01*
X5613714Y-16551571D01*
X5599428Y-16494429D01*
X5599428Y-16423000D01*
X5613714Y-16365857D01*
X5628000Y-16337286D01*
X5642286Y-16323000D01*
X5670857Y-16308714D01*
X5899428Y-16608714D02*
X5899428Y-16408714D01*
X5899428Y-16437286D02*
X5913714Y-16423000D01*
X5942286Y-16408714D01*
X5985143Y-16408714D01*
X6013714Y-16423000D01*
X6028000Y-16451571D01*
X6028000Y-16608714D01*
X6028000Y-16451571D02*
X6042286Y-16423000D01*
X6070857Y-16408714D01*
X6113714Y-16408714D01*
X6142286Y-16423000D01*
X6156571Y-16451571D01*
X6156571Y-16608714D01*
X6299428Y-16608714D02*
X6299428Y-16408714D01*
X6299428Y-16437286D02*
X6313714Y-16423000D01*
X6342286Y-16408714D01*
X6385143Y-16408714D01*
X6413714Y-16423000D01*
X6428000Y-16451571D01*
X6428000Y-16608714D01*
X6428000Y-16451571D02*
X6442286Y-16423000D01*
X6470857Y-16408714D01*
X6513714Y-16408714D01*
X6542286Y-16423000D01*
X6556571Y-16451571D01*
X6556571Y-16608714D01*
X7142286Y-16294429D02*
X6885143Y-16680143D01*
X7528000Y-16308714D02*
X7556571Y-16308714D01*
X7585143Y-16323000D01*
X7599428Y-16337286D01*
X7613714Y-16365857D01*
X7628000Y-16423000D01*
X7628000Y-16494429D01*
X7613714Y-16551571D01*
X7599428Y-16580143D01*
X7585143Y-16594429D01*
X7556571Y-16608714D01*
X7528000Y-16608714D01*
X7499428Y-16594429D01*
X7485143Y-16580143D01*
X7470857Y-16551571D01*
X7456571Y-16494429D01*
X7456571Y-16423000D01*
X7470857Y-16365857D01*
X7485143Y-16337286D01*
X7499428Y-16323000D01*
X7528000Y-16308714D01*
X7756571Y-16580143D02*
X7770857Y-16594429D01*
X7756571Y-16608714D01*
X7742286Y-16594429D01*
X7756571Y-16580143D01*
X7756571Y-16608714D01*
X7956571Y-16308714D02*
X7985143Y-16308714D01*
X8013714Y-16323000D01*
X8028000Y-16337286D01*
X8042285Y-16365857D01*
X8056571Y-16423000D01*
X8056571Y-16494429D01*
X8042285Y-16551571D01*
X8028000Y-16580143D01*
X8013714Y-16594429D01*
X7985143Y-16608714D01*
X7956571Y-16608714D01*
X7928000Y-16594429D01*
X7913714Y-16580143D01*
X7899428Y-16551571D01*
X7885143Y-16494429D01*
X7885143Y-16423000D01*
X7899428Y-16365857D01*
X7913714Y-16337286D01*
X7928000Y-16323000D01*
X7956571Y-16308714D01*
X8328000Y-16308714D02*
X8185143Y-16308714D01*
X8170857Y-16451571D01*
X8185143Y-16437286D01*
X8213714Y-16423000D01*
X8285143Y-16423000D01*
X8313714Y-16437286D01*
X8328000Y-16451571D01*
X8342285Y-16480143D01*
X8342285Y-16551571D01*
X8328000Y-16580143D01*
X8313714Y-16594429D01*
X8285143Y-16608714D01*
X8213714Y-16608714D01*
X8185143Y-16594429D01*
X8170857Y-16580143D01*
X8628000Y-16608714D02*
X8456571Y-16608714D01*
X8542286Y-16608714D02*
X8542286Y-16308714D01*
X8513714Y-16351571D01*
X8485143Y-16380143D01*
X8456571Y-16394429D01*
X8742286Y-16308714D02*
X8742286Y-16365857D01*
X8856571Y-16308714D02*
X8856571Y-16365857D01*
X9299428Y-16723000D02*
X9285143Y-16708714D01*
X9256571Y-16665857D01*
X9242286Y-16637286D01*
X9228000Y-16594429D01*
X9213714Y-16523000D01*
X9213714Y-16465857D01*
X9228000Y-16394429D01*
X9242286Y-16351571D01*
X9256571Y-16323000D01*
X9285143Y-16280143D01*
X9299428Y-16265857D01*
X9542286Y-16408714D02*
X9542286Y-16608714D01*
X9470857Y-16294429D02*
X9399428Y-16508714D01*
X9585143Y-16508714D01*
X9756571Y-16308714D02*
X9785143Y-16308714D01*
X9813714Y-16323000D01*
X9828000Y-16337286D01*
X9842286Y-16365857D01*
X9856571Y-16423000D01*
X9856571Y-16494429D01*
X9842286Y-16551571D01*
X9828000Y-16580143D01*
X9813714Y-16594429D01*
X9785143Y-16608714D01*
X9756571Y-16608714D01*
X9728000Y-16594429D01*
X9713714Y-16580143D01*
X9699428Y-16551571D01*
X9685143Y-16494429D01*
X9685143Y-16423000D01*
X9699428Y-16365857D01*
X9713714Y-16337286D01*
X9728000Y-16323000D01*
X9756571Y-16308714D01*
X10213714Y-16608714D02*
X10213714Y-16308714D01*
X10342286Y-16608714D02*
X10342286Y-16451571D01*
X10328000Y-16423000D01*
X10299428Y-16408714D01*
X10256571Y-16408714D01*
X10228000Y-16423000D01*
X10213714Y-16437286D01*
X10528000Y-16608714D02*
X10499428Y-16594429D01*
X10485143Y-16580143D01*
X10470857Y-16551571D01*
X10470857Y-16465857D01*
X10485143Y-16437286D01*
X10499428Y-16423000D01*
X10528000Y-16408714D01*
X10570857Y-16408714D01*
X10599428Y-16423000D01*
X10613714Y-16437286D01*
X10628000Y-16465857D01*
X10628000Y-16551571D01*
X10613714Y-16580143D01*
X10599428Y-16594429D01*
X10570857Y-16608714D01*
X10528000Y-16608714D01*
X10799428Y-16608714D02*
X10770857Y-16594429D01*
X10756571Y-16565857D01*
X10756571Y-16308714D01*
X11028000Y-16594429D02*
X10999429Y-16608714D01*
X10942286Y-16608714D01*
X10913714Y-16594429D01*
X10899429Y-16565857D01*
X10899429Y-16451571D01*
X10913714Y-16423000D01*
X10942286Y-16408714D01*
X10999429Y-16408714D01*
X11028000Y-16423000D01*
X11042286Y-16451571D01*
X11042286Y-16480143D01*
X10899429Y-16508714D01*
X11156571Y-16594429D02*
X11185143Y-16608714D01*
X11242286Y-16608714D01*
X11270857Y-16594429D01*
X11285143Y-16565857D01*
X11285143Y-16551571D01*
X11270857Y-16523000D01*
X11242286Y-16508714D01*
X11199428Y-16508714D01*
X11170857Y-16494429D01*
X11156571Y-16465857D01*
X11156571Y-16451571D01*
X11170857Y-16423000D01*
X11199428Y-16408714D01*
X11242286Y-16408714D01*
X11270857Y-16423000D01*
X11385143Y-16723000D02*
X11399428Y-16708714D01*
X11428000Y-16665857D01*
X11442286Y-16637286D01*
X11456571Y-16594429D01*
X11470857Y-16523000D01*
X11470857Y-16465857D01*
X11456571Y-16394429D01*
X11442286Y-16351571D01*
X11428000Y-16323000D01*
X11399428Y-16280143D01*
X11385143Y-16265857D01*
X4478000Y-16794000D02*
X4628000Y-16944000D01*
X4628000Y-16794000D02*
X4478000Y-16944000D01*
X4553000Y-16794000D02*
X4553000Y-16944000D01*
X4478000Y-16869000D02*
X4628000Y-16869000D01*
X5056571Y-17004714D02*
X4885143Y-17004714D01*
X4970857Y-17004714D02*
X4970857Y-16704714D01*
X4942286Y-16747571D01*
X4913714Y-16776143D01*
X4885143Y-16790429D01*
X5185143Y-16976143D02*
X5199429Y-16990429D01*
X5185143Y-17004714D01*
X5170857Y-16990429D01*
X5185143Y-16976143D01*
X5185143Y-17004714D01*
X5470857Y-16704714D02*
X5328000Y-16704714D01*
X5313714Y-16847572D01*
X5328000Y-16833286D01*
X5356571Y-16819000D01*
X5428000Y-16819000D01*
X5456571Y-16833286D01*
X5470857Y-16847572D01*
X5485143Y-16876143D01*
X5485143Y-16947572D01*
X5470857Y-16976143D01*
X5456571Y-16990429D01*
X5428000Y-17004714D01*
X5356571Y-17004714D01*
X5328000Y-16990429D01*
X5313714Y-16976143D01*
X5670857Y-16704714D02*
X5699428Y-16704714D01*
X5728000Y-16719000D01*
X5742286Y-16733286D01*
X5756571Y-16761857D01*
X5770857Y-16819000D01*
X5770857Y-16890429D01*
X5756571Y-16947572D01*
X5742286Y-16976143D01*
X5728000Y-16990429D01*
X5699428Y-17004714D01*
X5670857Y-17004714D01*
X5642286Y-16990429D01*
X5628000Y-16976143D01*
X5613714Y-16947572D01*
X5599428Y-16890429D01*
X5599428Y-16819000D01*
X5613714Y-16761857D01*
X5628000Y-16733286D01*
X5642286Y-16719000D01*
X5670857Y-16704714D01*
X5899428Y-17004714D02*
X5899428Y-16804714D01*
X5899428Y-16833286D02*
X5913714Y-16819000D01*
X5942286Y-16804714D01*
X5985143Y-16804714D01*
X6013714Y-16819000D01*
X6028000Y-16847572D01*
X6028000Y-17004714D01*
X6028000Y-16847572D02*
X6042286Y-16819000D01*
X6070857Y-16804714D01*
X6113714Y-16804714D01*
X6142286Y-16819000D01*
X6156571Y-16847572D01*
X6156571Y-17004714D01*
X6299428Y-17004714D02*
X6299428Y-16804714D01*
X6299428Y-16833286D02*
X6313714Y-16819000D01*
X6342286Y-16804714D01*
X6385143Y-16804714D01*
X6413714Y-16819000D01*
X6428000Y-16847572D01*
X6428000Y-17004714D01*
X6428000Y-16847572D02*
X6442286Y-16819000D01*
X6470857Y-16804714D01*
X6513714Y-16804714D01*
X6542286Y-16819000D01*
X6556571Y-16847572D01*
X6556571Y-17004714D01*
X7142286Y-16690429D02*
X6885143Y-17076143D01*
X7528000Y-16704714D02*
X7556571Y-16704714D01*
X7585143Y-16719000D01*
X7599428Y-16733286D01*
X7613714Y-16761857D01*
X7628000Y-16819000D01*
X7628000Y-16890429D01*
X7613714Y-16947572D01*
X7599428Y-16976143D01*
X7585143Y-16990429D01*
X7556571Y-17004714D01*
X7528000Y-17004714D01*
X7499428Y-16990429D01*
X7485143Y-16976143D01*
X7470857Y-16947572D01*
X7456571Y-16890429D01*
X7456571Y-16819000D01*
X7470857Y-16761857D01*
X7485143Y-16733286D01*
X7499428Y-16719000D01*
X7528000Y-16704714D01*
X7756571Y-16976143D02*
X7770857Y-16990429D01*
X7756571Y-17004714D01*
X7742286Y-16990429D01*
X7756571Y-16976143D01*
X7756571Y-17004714D01*
X7956571Y-16704714D02*
X7985143Y-16704714D01*
X8013714Y-16719000D01*
X8028000Y-16733286D01*
X8042285Y-16761857D01*
X8056571Y-16819000D01*
X8056571Y-16890429D01*
X8042285Y-16947572D01*
X8028000Y-16976143D01*
X8013714Y-16990429D01*
X7985143Y-17004714D01*
X7956571Y-17004714D01*
X7928000Y-16990429D01*
X7913714Y-16976143D01*
X7899428Y-16947572D01*
X7885143Y-16890429D01*
X7885143Y-16819000D01*
X7899428Y-16761857D01*
X7913714Y-16733286D01*
X7928000Y-16719000D01*
X7956571Y-16704714D01*
X8328000Y-16704714D02*
X8185143Y-16704714D01*
X8170857Y-16847572D01*
X8185143Y-16833286D01*
X8213714Y-16819000D01*
X8285143Y-16819000D01*
X8313714Y-16833286D01*
X8328000Y-16847572D01*
X8342285Y-16876143D01*
X8342285Y-16947572D01*
X8328000Y-16976143D01*
X8313714Y-16990429D01*
X8285143Y-17004714D01*
X8213714Y-17004714D01*
X8185143Y-16990429D01*
X8170857Y-16976143D01*
X8485143Y-17004714D02*
X8542286Y-17004714D01*
X8570857Y-16990429D01*
X8585143Y-16976143D01*
X8613714Y-16933286D01*
X8628000Y-16876143D01*
X8628000Y-16761857D01*
X8613714Y-16733286D01*
X8599428Y-16719000D01*
X8570857Y-16704714D01*
X8513714Y-16704714D01*
X8485143Y-16719000D01*
X8470857Y-16733286D01*
X8456571Y-16761857D01*
X8456571Y-16833286D01*
X8470857Y-16861857D01*
X8485143Y-16876143D01*
X8513714Y-16890429D01*
X8570857Y-16890429D01*
X8599428Y-16876143D01*
X8613714Y-16861857D01*
X8628000Y-16833286D01*
X8742286Y-16704714D02*
X8742286Y-16761857D01*
X8856571Y-16704714D02*
X8856571Y-16761857D01*
X9299428Y-17119000D02*
X9285143Y-17104714D01*
X9256571Y-17061857D01*
X9242286Y-17033286D01*
X9228000Y-16990429D01*
X9213714Y-16919000D01*
X9213714Y-16861857D01*
X9228000Y-16790429D01*
X9242286Y-16747571D01*
X9256571Y-16719000D01*
X9285143Y-16676143D01*
X9299428Y-16661857D01*
X9399428Y-16733286D02*
X9413714Y-16719000D01*
X9442286Y-16704714D01*
X9513714Y-16704714D01*
X9542286Y-16719000D01*
X9556571Y-16733286D01*
X9570857Y-16761857D01*
X9570857Y-16790429D01*
X9556571Y-16833286D01*
X9385143Y-17004714D01*
X9570857Y-17004714D01*
X9742286Y-16833286D02*
X9713714Y-16819000D01*
X9699428Y-16804714D01*
X9685143Y-16776143D01*
X9685143Y-16761857D01*
X9699428Y-16733286D01*
X9713714Y-16719000D01*
X9742286Y-16704714D01*
X9799428Y-16704714D01*
X9828000Y-16719000D01*
X9842286Y-16733286D01*
X9856571Y-16761857D01*
X9856571Y-16776143D01*
X9842286Y-16804714D01*
X9828000Y-16819000D01*
X9799428Y-16833286D01*
X9742286Y-16833286D01*
X9713714Y-16847572D01*
X9699428Y-16861857D01*
X9685143Y-16890429D01*
X9685143Y-16947572D01*
X9699428Y-16976143D01*
X9713714Y-16990429D01*
X9742286Y-17004714D01*
X9799428Y-17004714D01*
X9828000Y-16990429D01*
X9842286Y-16976143D01*
X9856571Y-16947572D01*
X9856571Y-16890429D01*
X9842286Y-16861857D01*
X9828000Y-16847572D01*
X9799428Y-16833286D01*
X10213714Y-17004714D02*
X10213714Y-16704714D01*
X10342286Y-17004714D02*
X10342286Y-16847572D01*
X10328000Y-16819000D01*
X10299428Y-16804714D01*
X10256571Y-16804714D01*
X10228000Y-16819000D01*
X10213714Y-16833286D01*
X10528000Y-17004714D02*
X10499428Y-16990429D01*
X10485143Y-16976143D01*
X10470857Y-16947572D01*
X10470857Y-16861857D01*
X10485143Y-16833286D01*
X10499428Y-16819000D01*
X10528000Y-16804714D01*
X10570857Y-16804714D01*
X10599428Y-16819000D01*
X10613714Y-16833286D01*
X10628000Y-16861857D01*
X10628000Y-16947572D01*
X10613714Y-16976143D01*
X10599428Y-16990429D01*
X10570857Y-17004714D01*
X10528000Y-17004714D01*
X10799428Y-17004714D02*
X10770857Y-16990429D01*
X10756571Y-16961857D01*
X10756571Y-16704714D01*
X11028000Y-16990429D02*
X10999429Y-17004714D01*
X10942286Y-17004714D01*
X10913714Y-16990429D01*
X10899429Y-16961857D01*
X10899429Y-16847572D01*
X10913714Y-16819000D01*
X10942286Y-16804714D01*
X10999429Y-16804714D01*
X11028000Y-16819000D01*
X11042286Y-16847572D01*
X11042286Y-16876143D01*
X10899429Y-16904714D01*
X11156571Y-16990429D02*
X11185143Y-17004714D01*
X11242286Y-17004714D01*
X11270857Y-16990429D01*
X11285143Y-16961857D01*
X11285143Y-16947572D01*
X11270857Y-16919000D01*
X11242286Y-16904714D01*
X11199428Y-16904714D01*
X11170857Y-16890429D01*
X11156571Y-16861857D01*
X11156571Y-16847572D01*
X11170857Y-16819000D01*
X11199428Y-16804714D01*
X11242286Y-16804714D01*
X11270857Y-16819000D01*
X11385143Y-17119000D02*
X11399428Y-17104714D01*
X11428000Y-17061857D01*
X11442286Y-17033286D01*
X11456571Y-16990429D01*
X11470857Y-16919000D01*
X11470857Y-16861857D01*
X11456571Y-16790429D01*
X11442286Y-16747571D01*
X11428000Y-16719000D01*
X11399428Y-16676143D01*
X11385143Y-16661857D01*
M02*
