G04 #@! TF.FileFunction,Copper,L1,Top,Signal*
%FSLAX46Y46*%
G04 Gerber Fmt 4.6, Leading zero omitted, Abs format (unit mm)*
G04 Created by KiCad (PCBNEW 4.0.3+e1-6302~38~ubuntu16.04.1-stable) date Sat Sep  3 15:17:22 2016*
%MOMM*%
%LPD*%
G01*
G04 APERTURE LIST*
%ADD10C,0.100000*%
%ADD11C,1.000760*%
%ADD12C,1.998980*%
%ADD13R,1.998980X1.998980*%
%ADD14C,2.500000*%
%ADD15R,2.286000X1.574800*%
%ADD16O,2.286000X1.574800*%
%ADD17C,2.000000*%
%ADD18C,0.600000*%
%ADD19C,0.200000*%
%ADD20C,0.250000*%
G04 APERTURE END LIST*
D10*
D11*
X51308000Y-72390000D03*
X52578000Y-73660000D03*
X50038000Y-73660000D03*
X223520000Y-72390000D03*
X224790000Y-73660000D03*
X222250000Y-73660000D03*
X202565000Y-72390000D03*
X203835000Y-73660000D03*
X201295000Y-73660000D03*
X181610000Y-72390000D03*
X182880000Y-73660000D03*
X180340000Y-73660000D03*
X160655000Y-72390000D03*
X161925000Y-73660000D03*
X159385000Y-73660000D03*
X139700000Y-72390000D03*
X140970000Y-73660000D03*
X138430000Y-73660000D03*
X118745000Y-72390000D03*
X120015000Y-73660000D03*
X117475000Y-73660000D03*
X97790000Y-72390000D03*
X99060000Y-73660000D03*
X96520000Y-73660000D03*
X76835000Y-72390000D03*
X78105000Y-73660000D03*
X75565000Y-73660000D03*
X238125000Y-80010000D03*
X239395000Y-81280000D03*
X236855000Y-81280000D03*
X217170000Y-80010000D03*
X218440000Y-81280000D03*
X215900000Y-81280000D03*
X196215000Y-80010000D03*
X197485000Y-81280000D03*
X194945000Y-81280000D03*
X175260000Y-80010000D03*
X176530000Y-81280000D03*
X173990000Y-81280000D03*
X154305000Y-80010000D03*
X155575000Y-81280000D03*
X153035000Y-81280000D03*
X133350000Y-80010000D03*
X134620000Y-81280000D03*
X132080000Y-81280000D03*
X112395000Y-80010000D03*
X113665000Y-81280000D03*
X111125000Y-81280000D03*
X91440000Y-80010000D03*
X92710000Y-81280000D03*
X90170000Y-81280000D03*
D12*
X239392460Y-85090000D03*
D13*
X239392460Y-95250000D03*
D12*
X218437460Y-85090000D03*
D13*
X218437460Y-95250000D03*
D12*
X197482460Y-85090000D03*
D13*
X197482460Y-95250000D03*
D12*
X176527460Y-85090000D03*
D13*
X176527460Y-95250000D03*
D12*
X155572460Y-85090000D03*
D13*
X155572460Y-95250000D03*
D12*
X134617460Y-85090000D03*
D13*
X134617460Y-95250000D03*
D12*
X113662460Y-85090000D03*
D13*
X113662460Y-95250000D03*
D12*
X92707460Y-85090000D03*
D13*
X92707460Y-95250000D03*
D12*
X55753000Y-73660000D03*
X65913000Y-73660000D03*
X51308000Y-66675000D03*
X61468000Y-66675000D03*
X228600000Y-73660000D03*
X238760000Y-73660000D03*
X223520000Y-66675000D03*
X233680000Y-66675000D03*
X207645000Y-73660000D03*
X217805000Y-73660000D03*
X202565000Y-66675000D03*
X212725000Y-66675000D03*
X186690000Y-73660000D03*
X196850000Y-73660000D03*
X181610000Y-66675000D03*
X191770000Y-66675000D03*
X165735000Y-73660000D03*
X175895000Y-73660000D03*
X160655000Y-66675000D03*
X170815000Y-66675000D03*
X144780000Y-73660000D03*
X154940000Y-73660000D03*
X139700000Y-66675000D03*
X149860000Y-66675000D03*
X123825000Y-73660000D03*
X133985000Y-73660000D03*
X118745000Y-66675000D03*
X128905000Y-66675000D03*
X102870000Y-73660000D03*
X113030000Y-73660000D03*
X97790000Y-66675000D03*
X107950000Y-66675000D03*
X81280000Y-73660000D03*
X91440000Y-73660000D03*
X76835000Y-66675000D03*
X86995000Y-66675000D03*
X233045000Y-81915000D03*
X222885000Y-81915000D03*
X212090000Y-81915000D03*
X201930000Y-81915000D03*
X191135000Y-81915000D03*
X180975000Y-81915000D03*
X170180000Y-81915000D03*
X160020000Y-81915000D03*
X149225000Y-81915000D03*
X139065000Y-81915000D03*
X128270000Y-81915000D03*
X118110000Y-81915000D03*
X107315000Y-81915000D03*
X97155000Y-81915000D03*
X86360000Y-81915000D03*
X76200000Y-81915000D03*
D14*
X126365000Y-121920000D03*
X131365000Y-121920000D03*
X136365000Y-121920000D03*
X141365000Y-121920000D03*
X83185000Y-121920000D03*
X88185000Y-121920000D03*
X93185000Y-121920000D03*
X98185000Y-121920000D03*
X212725000Y-121920000D03*
X217725000Y-121920000D03*
X222725000Y-121920000D03*
X227725000Y-121920000D03*
X191135000Y-121920000D03*
X196135000Y-121920000D03*
X201135000Y-121920000D03*
X206135000Y-121920000D03*
X169545000Y-121920000D03*
X174545000Y-121920000D03*
X179545000Y-121920000D03*
X184545000Y-121920000D03*
X147955000Y-121920000D03*
X152955000Y-121920000D03*
X157955000Y-121920000D03*
X162955000Y-121920000D03*
X104775000Y-121920000D03*
X109775000Y-121920000D03*
X114775000Y-121920000D03*
X119775000Y-121920000D03*
D15*
X64135000Y-128651000D03*
D16*
X64135000Y-126111000D03*
X64135000Y-123571000D03*
X64135000Y-121031000D03*
X64135000Y-118491000D03*
X64135000Y-115951000D03*
X64135000Y-113411000D03*
X64135000Y-110871000D03*
X64135000Y-108331000D03*
X64135000Y-105791000D03*
X64135000Y-103251000D03*
X64135000Y-100711000D03*
X64135000Y-98171000D03*
X64135000Y-95631000D03*
X64135000Y-93091000D03*
X48895000Y-93091000D03*
X48895000Y-95631000D03*
X48895000Y-98171000D03*
X48895000Y-100711000D03*
X48895000Y-103251000D03*
X48895000Y-105791000D03*
X48895000Y-108331000D03*
X48895000Y-110871000D03*
X48895000Y-113411000D03*
X48895000Y-115951000D03*
X48895000Y-118491000D03*
X48895000Y-121031000D03*
X48895000Y-123571000D03*
X48895000Y-126111000D03*
X48895000Y-128651000D03*
D17*
X222885000Y-88900000D03*
X234885000Y-88900000D03*
X228885000Y-86900000D03*
X222885000Y-101100000D03*
X234885000Y-101100000D03*
X201930000Y-88900000D03*
X213930000Y-88900000D03*
X207930000Y-86900000D03*
X201930000Y-101100000D03*
X213930000Y-101100000D03*
X180975000Y-88900000D03*
X192975000Y-88900000D03*
X186975000Y-86900000D03*
X180975000Y-101100000D03*
X192975000Y-101100000D03*
X160020000Y-88900000D03*
X172020000Y-88900000D03*
X166020000Y-86900000D03*
X160020000Y-101100000D03*
X172020000Y-101100000D03*
X139065000Y-88900000D03*
X151065000Y-88900000D03*
X145065000Y-86900000D03*
X139065000Y-101100000D03*
X151065000Y-101100000D03*
X118110000Y-88900000D03*
X130110000Y-88900000D03*
X124110000Y-86900000D03*
X118110000Y-101100000D03*
X130110000Y-101100000D03*
X97155000Y-88900000D03*
X109155000Y-88900000D03*
X103155000Y-86900000D03*
X97155000Y-101100000D03*
X109155000Y-101100000D03*
X76200000Y-88900000D03*
X88200000Y-88900000D03*
X82200000Y-86900000D03*
X76200000Y-101100000D03*
X88200000Y-101100000D03*
D18*
X64135000Y-91186000D03*
X78359000Y-124841000D03*
X61849000Y-92583000D03*
X77597000Y-78867000D03*
X76708000Y-78105000D03*
X75819000Y-77343000D03*
X74803000Y-76581000D03*
X73914000Y-75819000D03*
X72898000Y-75057000D03*
X51816000Y-103251000D03*
X51816000Y-105791000D03*
X72517000Y-70358000D03*
X51943000Y-110871000D03*
X51943000Y-113411000D03*
X51943000Y-115951000D03*
X51943000Y-118491000D03*
X51943000Y-121031000D03*
X51943000Y-123571000D03*
X51943000Y-126111000D03*
X51943000Y-128651000D03*
D19*
X72009000Y-95250000D02*
X92707460Y-95250000D01*
X67945000Y-91186000D02*
X72009000Y-95250000D01*
X64135000Y-91186000D02*
X67945000Y-91186000D01*
X228885000Y-86900000D02*
X232505000Y-86900000D01*
X239392460Y-88897460D02*
X239392460Y-95250000D01*
X237395000Y-86900000D02*
X239392460Y-88897460D01*
X232505000Y-86900000D02*
X237395000Y-86900000D01*
X78359000Y-124841000D02*
X72009000Y-131191000D01*
X72009000Y-131191000D02*
X63373000Y-131191000D01*
X63373000Y-131191000D02*
X61849000Y-129667000D01*
X61849000Y-129667000D02*
X61849000Y-92583000D01*
D20*
X219583000Y-78867000D02*
X224790000Y-73660000D01*
X77597000Y-78867000D02*
X219583000Y-78867000D01*
X76708000Y-78105000D02*
X199390000Y-78105000D01*
X199390000Y-78105000D02*
X203835000Y-73660000D01*
X179197000Y-77343000D02*
X182880000Y-73660000D01*
X75819000Y-77343000D02*
X179197000Y-77343000D01*
X159004000Y-76581000D02*
X161925000Y-73660000D01*
X74803000Y-76581000D02*
X159004000Y-76581000D01*
X138811000Y-75819000D02*
X140970000Y-73660000D01*
X73914000Y-75819000D02*
X138811000Y-75819000D01*
X118618000Y-75057000D02*
X120015000Y-73660000D01*
X72898000Y-75057000D02*
X118618000Y-75057000D01*
X98552000Y-69342000D02*
X102870000Y-73660000D01*
X66167000Y-69342000D02*
X98552000Y-69342000D01*
X56134000Y-79375000D02*
X66167000Y-69342000D01*
X56134000Y-98933000D02*
X56134000Y-79375000D01*
X51816000Y-103251000D02*
X56134000Y-98933000D01*
D19*
X64516000Y-71755000D02*
X72136000Y-71755000D01*
X77133002Y-74631998D02*
X78105000Y-73660000D01*
X75012998Y-74631998D02*
X77133002Y-74631998D01*
X72136000Y-71755000D02*
X75012998Y-74631998D01*
D20*
X56642000Y-79629000D02*
X64516000Y-71755000D01*
X56642000Y-100965000D02*
X56642000Y-79629000D01*
X51816000Y-105791000D02*
X56642000Y-100965000D01*
D19*
X88011000Y-70231000D02*
X91440000Y-73660000D01*
X72644000Y-70231000D02*
X88011000Y-70231000D01*
X72517000Y-70358000D02*
X72644000Y-70231000D01*
D20*
X60706000Y-81915000D02*
X76200000Y-81915000D01*
X57277000Y-85344000D02*
X60706000Y-81915000D01*
X57277000Y-109982000D02*
X57277000Y-85344000D01*
X56388000Y-110871000D02*
X57277000Y-109982000D01*
X51943000Y-110871000D02*
X56388000Y-110871000D01*
X95504000Y-83566000D02*
X97155000Y-81915000D01*
X61087000Y-83566000D02*
X95504000Y-83566000D01*
X57727002Y-86925998D02*
X61087000Y-83566000D01*
X57727002Y-110293998D02*
X57727002Y-86925998D01*
X54610000Y-113411000D02*
X57727002Y-110293998D01*
X51943000Y-113411000D02*
X54610000Y-113411000D01*
X118110000Y-85471000D02*
X118110000Y-81915000D01*
X113030000Y-90551000D02*
X118110000Y-85471000D01*
X74295000Y-90551000D02*
X113030000Y-90551000D01*
X71501000Y-87757000D02*
X74295000Y-90551000D01*
X60706000Y-87757000D02*
X71501000Y-87757000D01*
X58293000Y-90170000D02*
X60706000Y-87757000D01*
X58293000Y-110617000D02*
X58293000Y-90170000D01*
X52959000Y-115951000D02*
X58293000Y-110617000D01*
X51943000Y-115951000D02*
X52959000Y-115951000D01*
X139065000Y-85344000D02*
X139065000Y-81915000D01*
X133350000Y-91059000D02*
X139065000Y-85344000D01*
X74041000Y-91059000D02*
X133350000Y-91059000D01*
X71189002Y-88207002D02*
X74041000Y-91059000D01*
X61144998Y-88207002D02*
X71189002Y-88207002D01*
X58801000Y-90551000D02*
X61144998Y-88207002D01*
X58801000Y-114554000D02*
X58801000Y-90551000D01*
X54864000Y-118491000D02*
X58801000Y-114554000D01*
X51943000Y-118491000D02*
X54864000Y-118491000D01*
X160020000Y-85217000D02*
X160020000Y-81915000D01*
X153670000Y-91567000D02*
X160020000Y-85217000D01*
X73787000Y-91567000D02*
X153670000Y-91567000D01*
X70993000Y-88773000D02*
X73787000Y-91567000D01*
X61341000Y-88773000D02*
X70993000Y-88773000D01*
X59309000Y-90805000D02*
X61341000Y-88773000D01*
X59309000Y-116713000D02*
X59309000Y-90805000D01*
X54991000Y-121031000D02*
X59309000Y-116713000D01*
X51943000Y-121031000D02*
X54991000Y-121031000D01*
X180975000Y-85344000D02*
X180975000Y-81915000D01*
X174244000Y-92075000D02*
X180975000Y-85344000D01*
X73406000Y-92075000D02*
X174244000Y-92075000D01*
X70554002Y-89223002D02*
X73406000Y-92075000D01*
X61652998Y-89223002D02*
X70554002Y-89223002D01*
X59817000Y-91059000D02*
X61652998Y-89223002D01*
X59817000Y-119761000D02*
X59817000Y-91059000D01*
X56007000Y-123571000D02*
X59817000Y-119761000D01*
X51943000Y-123571000D02*
X56007000Y-123571000D01*
X201930000Y-85217000D02*
X201930000Y-81915000D01*
X194564000Y-92583000D02*
X201930000Y-85217000D01*
X73152000Y-92583000D02*
X194564000Y-92583000D01*
X70358000Y-89789000D02*
X73152000Y-92583000D01*
X62103000Y-89789000D02*
X70358000Y-89789000D01*
X60325000Y-91567000D02*
X62103000Y-89789000D01*
X60325000Y-122682000D02*
X60325000Y-91567000D01*
X56896000Y-126111000D02*
X60325000Y-122682000D01*
X55880000Y-126111000D02*
X56896000Y-126111000D01*
X54356000Y-126111000D02*
X55880000Y-126111000D01*
X51943000Y-126111000D02*
X54356000Y-126111000D01*
X70104000Y-90297000D02*
X72898000Y-93091000D01*
X222885000Y-85344000D02*
X222885000Y-81915000D01*
X215138000Y-93091000D02*
X222885000Y-85344000D01*
X72898000Y-93091000D02*
X215138000Y-93091000D01*
X62484000Y-90297000D02*
X70104000Y-90297000D01*
X60833000Y-91948000D02*
X62484000Y-90297000D01*
X60833000Y-124079000D02*
X60833000Y-91948000D01*
X56261000Y-128651000D02*
X60833000Y-124079000D01*
X51943000Y-128651000D02*
X56261000Y-128651000D01*
M02*
