M48
;DRILL file {KiCad 4.0.3+e1-6302~38~ubuntu16.04.1-stable} date Sat Sep  3 15:19:08 2016
;FORMAT={-:-/ absolute / inch / decimal}
FMAT,2
INCH,TZ
T1C0.016
T2C0.024
T3C0.039
T4C0.040
T5C0.050
T6C0.051
T7C0.059
%
G90
G05
M72
T1
X2.04Y-4.065
X2.04Y-4.165
X2.045Y-4.365
X2.045Y-4.465
X2.045Y-4.565
X2.045Y-4.665
X2.045Y-4.765
X2.045Y-4.865
X2.045Y-4.965
X2.045Y-5.065
X2.435Y-3.645
X2.525Y-3.59
X2.855Y-2.77
X2.87Y-2.955
X2.91Y-2.985
X2.945Y-3.015
X2.985Y-3.045
X3.02Y-3.075
X3.055Y-3.105
X3.085Y-4.915
T2
X1.97Y-2.9
X2.02Y-2.85
X2.07Y-2.9
X2.975Y-2.9
X3.025Y-2.85
X3.075Y-2.9
X3.55Y-3.2
X3.6Y-3.15
X3.65Y-3.2
X3.8Y-2.9
X3.85Y-2.85
X3.9Y-2.9
X4.375Y-3.2
X4.425Y-3.15
X4.475Y-3.2
X4.625Y-2.9
X4.675Y-2.85
X4.725Y-2.9
X5.2Y-3.2
X5.25Y-3.15
X5.3Y-3.2
X5.45Y-2.9
X5.5Y-2.85
X5.55Y-2.9
X6.025Y-3.2
X6.075Y-3.15
X6.125Y-3.2
X6.275Y-2.9
X6.325Y-2.85
X6.375Y-2.9
X6.85Y-3.2
X6.9Y-3.15
X6.95Y-3.2
X7.1Y-2.9
X7.15Y-2.85
X7.2Y-2.9
X7.675Y-3.2
X7.725Y-3.15
X7.775Y-3.2
X7.925Y-2.9
X7.975Y-2.85
X8.025Y-2.9
X8.5Y-3.2
X8.55Y-3.15
X8.6Y-3.2
X8.75Y-2.9
X8.8Y-2.85
X8.85Y-2.9
X9.325Y-3.2
X9.375Y-3.15
X9.425Y-3.2
T3
X2.02Y-2.625
X2.195Y-2.9
X2.42Y-2.625
X2.595Y-2.9
X3.Y-3.225
X3.025Y-2.625
X3.2Y-2.9
X3.4Y-3.225
X3.425Y-2.625
X3.6Y-2.9
X3.6499Y-3.75
X3.825Y-3.225
X3.85Y-2.625
X4.05Y-2.9
X4.225Y-3.225
X4.25Y-2.625
X4.45Y-2.9
X4.4749Y-3.75
X4.65Y-3.225
X4.675Y-2.625
X4.875Y-2.9
X5.05Y-3.225
X5.075Y-2.625
X5.275Y-2.9
X5.2999Y-3.75
X5.475Y-3.225
X5.5Y-2.625
X5.7Y-2.9
X5.875Y-3.225
X5.9Y-2.625
X6.1Y-2.9
X6.1249Y-3.75
X6.3Y-3.225
X6.325Y-2.625
X6.525Y-2.9
X6.7Y-3.225
X6.725Y-2.625
X6.925Y-2.9
X6.9499Y-3.75
X7.125Y-3.225
X7.15Y-2.625
X7.35Y-2.9
X7.525Y-3.225
X7.55Y-2.625
X7.75Y-2.9
X7.7749Y-3.75
X7.95Y-3.225
X7.975Y-2.625
X8.175Y-2.9
X8.35Y-3.225
X8.375Y-2.625
X8.575Y-2.9
X8.5999Y-3.75
X8.775Y-3.225
X8.8Y-2.625
X9.Y-2.9
X9.175Y-3.225
X9.2Y-2.625
X9.4Y-2.9
X9.4249Y-3.75
T4
X1.925Y-3.665
X1.925Y-3.765
X1.925Y-3.865
X1.925Y-3.965
X1.925Y-4.065
X1.925Y-4.165
X1.925Y-4.265
X1.925Y-4.365
X1.925Y-4.465
X1.925Y-4.565
X1.925Y-4.665
X1.925Y-4.765
X1.925Y-4.865
X1.925Y-4.965
X1.925Y-5.065
X2.525Y-3.665
X2.525Y-3.765
X2.525Y-3.865
X2.525Y-3.965
X2.525Y-4.065
X2.525Y-4.165
X2.525Y-4.265
X2.525Y-4.365
X2.525Y-4.465
X2.525Y-4.565
X2.525Y-4.665
X2.525Y-4.765
X2.525Y-4.865
X2.525Y-4.965
X2.525Y-5.065
T5
X3.6499Y-3.35
X4.4749Y-3.35
X5.2999Y-3.35
X6.1249Y-3.35
X6.9499Y-3.35
X7.7749Y-3.35
X8.5999Y-3.35
X9.4249Y-3.35
T6
X3.Y-3.5
X3.Y-3.9803
X3.2362Y-3.4213
X3.4724Y-3.5
X3.4724Y-3.9803
X3.825Y-3.5
X3.825Y-3.9803
X4.0612Y-3.4213
X4.2974Y-3.5
X4.2974Y-3.9803
X4.65Y-3.5
X4.65Y-3.9803
X4.8862Y-3.4213
X5.1224Y-3.5
X5.1224Y-3.9803
X5.475Y-3.5
X5.475Y-3.9803
X5.7112Y-3.4213
X5.9474Y-3.5
X5.9474Y-3.9803
X6.3Y-3.5
X6.3Y-3.9803
X6.5362Y-3.4213
X6.7724Y-3.5
X6.7724Y-3.9803
X7.125Y-3.5
X7.125Y-3.9803
X7.3612Y-3.4213
X7.5974Y-3.5
X7.5974Y-3.9803
X7.95Y-3.5
X7.95Y-3.9803
X8.1862Y-3.4213
X8.4224Y-3.5
X8.4224Y-3.9803
X8.775Y-3.5
X8.775Y-3.9803
X9.0112Y-3.4213
X9.2474Y-3.5
X9.2474Y-3.9803
T7
X3.275Y-4.8
X3.4719Y-4.8
X3.6687Y-4.8
X3.8656Y-4.8
X4.125Y-4.8
X4.3219Y-4.8
X4.5187Y-4.8
X4.7156Y-4.8
X4.975Y-4.8
X5.1719Y-4.8
X5.3687Y-4.8
X5.5656Y-4.8
X5.825Y-4.8
X6.0219Y-4.8
X6.2187Y-4.8
X6.4156Y-4.8
X6.675Y-4.8
X6.8719Y-4.8
X7.0687Y-4.8
X7.2656Y-4.8
X7.525Y-4.8
X7.7219Y-4.8
X7.9187Y-4.8
X8.1156Y-4.8
X8.375Y-4.8
X8.5719Y-4.8
X8.7687Y-4.8
X8.9656Y-4.8
T0
M30
