G04 #@! TF.FileFunction,Copper,L1,Top,Signal*
%FSLAX46Y46*%
G04 Gerber Fmt 4.6, Leading zero omitted, Abs format (unit mm)*
G04 Created by KiCad (PCBNEW 4.0.2-stable) date 9/17/2016 5:44:57 PM*
%MOMM*%
G01*
G04 APERTURE LIST*
%ADD10C,0.100000*%
%ADD11C,2.500000*%
%ADD12C,1.998980*%
%ADD13R,1.998980X1.998980*%
%ADD14R,2.286000X1.574800*%
%ADD15O,2.286000X1.574800*%
%ADD16C,2.000000*%
%ADD17C,1.500000*%
%ADD18C,0.400000*%
%ADD19C,0.254000*%
G04 APERTURE END LIST*
D10*
D11*
X147955000Y-121920000D03*
X152955000Y-121920000D03*
X157955000Y-121920000D03*
X162955000Y-121920000D03*
D12*
X239392460Y-85090000D03*
D13*
X239392460Y-95250000D03*
D12*
X218437460Y-85090000D03*
D13*
X218437460Y-95250000D03*
D12*
X197482460Y-85090000D03*
D13*
X197482460Y-95250000D03*
D12*
X176527460Y-85090000D03*
D13*
X176527460Y-95250000D03*
D12*
X155572460Y-85090000D03*
D13*
X155572460Y-95250000D03*
D12*
X134617460Y-85090000D03*
D13*
X134617460Y-95250000D03*
D12*
X113662460Y-85090000D03*
D13*
X113662460Y-95250000D03*
D12*
X92707460Y-85090000D03*
D13*
X92707460Y-95250000D03*
D12*
X55753000Y-73660000D03*
X65913000Y-73660000D03*
X51308000Y-66675000D03*
X61468000Y-66675000D03*
X228600000Y-73660000D03*
X238760000Y-73660000D03*
X223520000Y-66675000D03*
X233680000Y-66675000D03*
X207645000Y-73660000D03*
X217805000Y-73660000D03*
X202565000Y-66675000D03*
X212725000Y-66675000D03*
X186690000Y-73660000D03*
X196850000Y-73660000D03*
X181610000Y-66675000D03*
X191770000Y-66675000D03*
X165735000Y-73660000D03*
X175895000Y-73660000D03*
X160655000Y-66675000D03*
X170815000Y-66675000D03*
X144780000Y-73660000D03*
X154940000Y-73660000D03*
X139700000Y-66675000D03*
X149860000Y-66675000D03*
X123825000Y-73660000D03*
X133985000Y-73660000D03*
X118745000Y-66675000D03*
X128905000Y-66675000D03*
X102870000Y-73660000D03*
X113030000Y-73660000D03*
X97790000Y-66675000D03*
X107950000Y-66675000D03*
X81280000Y-73660000D03*
X91440000Y-73660000D03*
X76835000Y-66675000D03*
X86995000Y-66675000D03*
X233045000Y-81915000D03*
X222885000Y-81915000D03*
X212090000Y-81915000D03*
X201930000Y-81915000D03*
X191135000Y-81915000D03*
X180975000Y-81915000D03*
X170180000Y-81915000D03*
X160020000Y-81915000D03*
X149225000Y-81915000D03*
X139065000Y-81915000D03*
X128270000Y-81915000D03*
X118110000Y-81915000D03*
X107315000Y-81915000D03*
X97155000Y-81915000D03*
X86360000Y-81915000D03*
X76200000Y-81915000D03*
D11*
X126365000Y-121920000D03*
X131365000Y-121920000D03*
X136365000Y-121920000D03*
X141365000Y-121920000D03*
X83185000Y-121920000D03*
X88185000Y-121920000D03*
X93185000Y-121920000D03*
X98185000Y-121920000D03*
X212725000Y-121920000D03*
X217725000Y-121920000D03*
X222725000Y-121920000D03*
X227725000Y-121920000D03*
X191135000Y-121920000D03*
X196135000Y-121920000D03*
X201135000Y-121920000D03*
X206135000Y-121920000D03*
X169545000Y-121920000D03*
X174545000Y-121920000D03*
X179545000Y-121920000D03*
X184545000Y-121920000D03*
X104775000Y-121920000D03*
X109775000Y-121920000D03*
X114775000Y-121920000D03*
X119775000Y-121920000D03*
D14*
X64135000Y-128651000D03*
D15*
X64135000Y-126111000D03*
X64135000Y-123571000D03*
X64135000Y-121031000D03*
X64135000Y-118491000D03*
X64135000Y-115951000D03*
X64135000Y-113411000D03*
X64135000Y-110871000D03*
X64135000Y-108331000D03*
X64135000Y-105791000D03*
X64135000Y-103251000D03*
X64135000Y-100711000D03*
X64135000Y-98171000D03*
X64135000Y-95631000D03*
X64135000Y-93091000D03*
X48895000Y-93091000D03*
X48895000Y-95631000D03*
X48895000Y-98171000D03*
X48895000Y-100711000D03*
X48895000Y-103251000D03*
X48895000Y-105791000D03*
X48895000Y-108331000D03*
X48895000Y-110871000D03*
X48895000Y-113411000D03*
X48895000Y-115951000D03*
X48895000Y-118491000D03*
X48895000Y-121031000D03*
X48895000Y-123571000D03*
X48895000Y-126111000D03*
X48895000Y-128651000D03*
D16*
X222885000Y-88900000D03*
X234885000Y-88900000D03*
X228885000Y-86900000D03*
X222885000Y-101100000D03*
X234885000Y-101100000D03*
X201930000Y-88900000D03*
X213930000Y-88900000D03*
X207930000Y-86900000D03*
X201930000Y-101100000D03*
X213930000Y-101100000D03*
X180975000Y-88900000D03*
X192975000Y-88900000D03*
X186975000Y-86900000D03*
X180975000Y-101100000D03*
X192975000Y-101100000D03*
X160020000Y-88900000D03*
X172020000Y-88900000D03*
X166020000Y-86900000D03*
X160020000Y-101100000D03*
X172020000Y-101100000D03*
X139065000Y-88900000D03*
X151065000Y-88900000D03*
X145065000Y-86900000D03*
X139065000Y-101100000D03*
X151065000Y-101100000D03*
X118110000Y-88900000D03*
X130110000Y-88900000D03*
X124110000Y-86900000D03*
X118110000Y-101100000D03*
X130110000Y-101100000D03*
X97155000Y-88900000D03*
X109155000Y-88900000D03*
X103155000Y-86900000D03*
X97155000Y-101100000D03*
X109155000Y-101100000D03*
X76200000Y-88900000D03*
X88200000Y-88900000D03*
X82200000Y-86900000D03*
X76200000Y-101100000D03*
X88200000Y-101100000D03*
D17*
X91440000Y-80010000D03*
X92710000Y-81280000D03*
X90170000Y-81280000D03*
X112395000Y-80010000D03*
X113665000Y-81280000D03*
X111125000Y-81280000D03*
X133350000Y-80010000D03*
X134620000Y-81280000D03*
X132080000Y-81280000D03*
X154305000Y-80010000D03*
X155575000Y-81280000D03*
X153035000Y-81280000D03*
X175260000Y-80010000D03*
X176530000Y-81280000D03*
X173990000Y-81280000D03*
X196215000Y-80010000D03*
X197485000Y-81280000D03*
X194945000Y-81280000D03*
X217170000Y-80010000D03*
X218440000Y-81280000D03*
X215900000Y-81280000D03*
X238125000Y-80010000D03*
X239395000Y-81280000D03*
X236855000Y-81280000D03*
X76835000Y-72390000D03*
X78105000Y-73660000D03*
X75565000Y-73660000D03*
X97790000Y-72390000D03*
X99060000Y-73660000D03*
X96520000Y-73660000D03*
X118745000Y-72390000D03*
X120015000Y-73660000D03*
X117475000Y-73660000D03*
X139700000Y-72390000D03*
X140970000Y-73660000D03*
X138430000Y-73660000D03*
X160655000Y-72390000D03*
X161925000Y-73660000D03*
X159385000Y-73660000D03*
X181610000Y-72390000D03*
X182880000Y-73660000D03*
X180340000Y-73660000D03*
X202565000Y-72390000D03*
X203835000Y-73660000D03*
X201295000Y-73660000D03*
X223520000Y-72390000D03*
X224790000Y-73660000D03*
X222250000Y-73660000D03*
X51308000Y-72390000D03*
X52578000Y-73660000D03*
X50038000Y-73660000D03*
X64135000Y-90932000D03*
X69875400Y-80365600D03*
X70866000Y-78841600D03*
X69875400Y-77368400D03*
X70840600Y-75742800D03*
X59105800Y-70942200D03*
X60833000Y-70078600D03*
X51816000Y-103251000D03*
X51816000Y-105791000D03*
X73660000Y-70993000D03*
X175768000Y-64160400D03*
X51943000Y-110871000D03*
X51943000Y-113411000D03*
X51943000Y-115951000D03*
X51943000Y-118491000D03*
X51943000Y-121031000D03*
X51943000Y-123571000D03*
X51943000Y-126111000D03*
X51943000Y-128651000D03*
D18*
X147955000Y-121920000D02*
X147955000Y-122123200D01*
X239382300Y-88887300D02*
X239382300Y-95239840D01*
X239382300Y-95239840D02*
X239392460Y-95250000D01*
X228885000Y-86900000D02*
X232505000Y-86900000D01*
X232505000Y-86900000D02*
X237395000Y-86900000D01*
X237395000Y-86900000D02*
X239382300Y-88887300D01*
X239382300Y-88887300D02*
X239392460Y-88897460D01*
X64135000Y-90932000D02*
X68249800Y-90932000D01*
X68249800Y-90932000D02*
X72567800Y-95250000D01*
X72567800Y-95250000D02*
X92707460Y-95250000D01*
X223520000Y-66675000D02*
X223520000Y-72390000D01*
X220776800Y-77673200D02*
X224790000Y-73660000D01*
X73837800Y-77673200D02*
X220776800Y-77673200D01*
X71145400Y-80365600D02*
X73837800Y-77673200D01*
X69875400Y-80365600D02*
X71145400Y-80365600D01*
X202565000Y-66675000D02*
X202565000Y-72390000D01*
X70866000Y-78841600D02*
X72653598Y-77054002D01*
X72653598Y-77054002D02*
X200440998Y-77054002D01*
X200440998Y-77054002D02*
X203835000Y-73660000D01*
X181610000Y-66675000D02*
X181610000Y-72390000D01*
X71348600Y-77368400D02*
X72263000Y-76454000D01*
X69875400Y-77368400D02*
X71348600Y-77368400D01*
X180086000Y-76454000D02*
X182880000Y-73660000D01*
X72263000Y-76454000D02*
X180086000Y-76454000D01*
X70840600Y-75742800D02*
X159842200Y-75742800D01*
X159842200Y-75742800D02*
X161925000Y-73660000D01*
X139658798Y-68538798D02*
X144780000Y-73660000D01*
X68335598Y-68538798D02*
X139658798Y-68538798D01*
X68326000Y-68529200D02*
X68335598Y-68538798D01*
X60426600Y-68529200D02*
X68326000Y-68529200D01*
X59105800Y-69850000D02*
X60426600Y-68529200D01*
X59105800Y-70942200D02*
X59105800Y-69850000D01*
X64693800Y-69148398D02*
X64693800Y-69138800D01*
X61763202Y-69148398D02*
X64693800Y-69148398D01*
X60833000Y-70078600D02*
X61763202Y-69148398D01*
X64693800Y-69138800D02*
X64693800Y-69138800D01*
X64693800Y-69138800D02*
X119303800Y-69138800D01*
X119303800Y-69138800D02*
X123825000Y-73660000D01*
X98958400Y-69748400D02*
X102870000Y-73660000D01*
X63068200Y-69748400D02*
X98958400Y-69748400D01*
X53568600Y-79248000D02*
X63068200Y-69748400D01*
X53568600Y-101498400D02*
X53568600Y-79248000D01*
X51816000Y-103251000D02*
X53568600Y-101498400D01*
X71399400Y-71755000D02*
X71501000Y-71755000D01*
X76911200Y-74853800D02*
X78105000Y-73660000D01*
X74599800Y-74853800D02*
X76911200Y-74853800D01*
X71501000Y-71755000D02*
X74599800Y-74853800D01*
X64516000Y-71755000D02*
X71399400Y-71755000D01*
X71399400Y-71755000D02*
X71475600Y-71755000D01*
X51816000Y-105791000D02*
X54203600Y-103403400D01*
X54203600Y-103403400D02*
X54203600Y-82067400D01*
X54203600Y-82067400D02*
X64516000Y-71755000D01*
X73660000Y-70993000D02*
X88773000Y-70993000D01*
X88773000Y-70993000D02*
X91440000Y-73660000D01*
X196850000Y-73660000D02*
X194208400Y-73660000D01*
X182473600Y-64135000D02*
X182473600Y-64160400D01*
X182448200Y-64160400D02*
X182473600Y-64135000D01*
X184708800Y-64160400D02*
X182448200Y-64160400D01*
X194208400Y-73660000D02*
X184708800Y-64160400D01*
X217805000Y-73660000D02*
X215163400Y-73660000D01*
X205663800Y-64160400D02*
X203301600Y-64160400D01*
X215163400Y-73660000D02*
X205663800Y-64160400D01*
X236016800Y-73660000D02*
X238760000Y-73660000D01*
X226517200Y-64160400D02*
X236016800Y-73660000D01*
X175768000Y-64160400D02*
X182473600Y-64160400D01*
X182473600Y-64160400D02*
X203301600Y-64160400D01*
X203301600Y-64160400D02*
X226517200Y-64160400D01*
X60706000Y-81915000D02*
X76200000Y-81915000D01*
X54813200Y-87807800D02*
X60706000Y-81915000D01*
X54813200Y-108102400D02*
X54813200Y-87807800D01*
X52044600Y-110871000D02*
X54813200Y-108102400D01*
X51943000Y-110871000D02*
X52044600Y-110871000D01*
X95504000Y-83566000D02*
X97155000Y-81915000D01*
X59969400Y-83566000D02*
X95504000Y-83566000D01*
X55422800Y-88112600D02*
X59969400Y-83566000D01*
X55422800Y-110312200D02*
X55422800Y-88112600D01*
X52324000Y-113411000D02*
X55422800Y-110312200D01*
X51943000Y-113411000D02*
X52324000Y-113411000D01*
X56032400Y-91135200D02*
X56032400Y-88366600D01*
X63001598Y-84166002D02*
X88865002Y-84166002D01*
X88865002Y-84166002D02*
X91490800Y-86791800D01*
X91490800Y-86791800D02*
X95275400Y-86791800D01*
X95275400Y-86791800D02*
X98653600Y-83413600D01*
X98653600Y-83413600D02*
X116611400Y-83413600D01*
X116611400Y-83413600D02*
X118110000Y-81915000D01*
X60232998Y-84166002D02*
X63001598Y-84166002D01*
X56032400Y-88366600D02*
X60232998Y-84166002D01*
X56032400Y-91160600D02*
X56032400Y-91135200D01*
X51943000Y-115951000D02*
X52095400Y-115951000D01*
X52095400Y-115951000D02*
X56032400Y-112014000D01*
X56032400Y-112014000D02*
X56032400Y-91160600D01*
X56032400Y-91160600D02*
X56032400Y-91135200D01*
X139065000Y-85344000D02*
X139065000Y-81915000D01*
X133807200Y-90601800D02*
X139065000Y-85344000D01*
X74396600Y-90601800D02*
X133807200Y-90601800D01*
X68580000Y-84785200D02*
X74396600Y-90601800D01*
X60477400Y-84785200D02*
X68580000Y-84785200D01*
X56642000Y-88620600D02*
X60477400Y-84785200D01*
X56642000Y-114173000D02*
X56642000Y-88620600D01*
X52324000Y-118491000D02*
X56642000Y-114173000D01*
X51943000Y-118491000D02*
X52324000Y-118491000D01*
X160020000Y-85217000D02*
X160020000Y-81915000D01*
X154025600Y-91211400D02*
X160020000Y-85217000D01*
X74142600Y-91211400D02*
X154025600Y-91211400D01*
X68326000Y-85394800D02*
X74142600Y-91211400D01*
X60731400Y-85394800D02*
X68326000Y-85394800D01*
X57251600Y-88874600D02*
X60731400Y-85394800D01*
X57251600Y-115925600D02*
X57251600Y-88874600D01*
X52146200Y-121031000D02*
X57251600Y-115925600D01*
X51943000Y-121031000D02*
X52146200Y-121031000D01*
X180975000Y-85344000D02*
X180975000Y-81915000D01*
X174472600Y-91846400D02*
X180975000Y-85344000D01*
X73888600Y-91846400D02*
X174472600Y-91846400D01*
X68039402Y-85997202D02*
X73888600Y-91846400D01*
X60992598Y-85997202D02*
X68039402Y-85997202D01*
X57886600Y-89103200D02*
X60992598Y-85997202D01*
X57886600Y-117983000D02*
X57886600Y-89103200D01*
X52298600Y-123571000D02*
X57886600Y-117983000D01*
X51943000Y-123571000D02*
X52298600Y-123571000D01*
X201930000Y-85217000D02*
X201930000Y-81915000D01*
X194640200Y-92506800D02*
X201930000Y-85217000D01*
X73634600Y-92506800D02*
X194640200Y-92506800D01*
X67741800Y-86614000D02*
X73634600Y-92506800D01*
X61264800Y-86614000D02*
X67741800Y-86614000D01*
X58547000Y-89331800D02*
X61264800Y-86614000D01*
X58547000Y-119811800D02*
X58547000Y-89331800D01*
X52247800Y-126111000D02*
X58547000Y-119811800D01*
X67487800Y-87249000D02*
X73380600Y-93141800D01*
X222885000Y-85344000D02*
X222885000Y-81915000D01*
X215087200Y-93141800D02*
X222885000Y-85344000D01*
X73380600Y-93141800D02*
X215087200Y-93141800D01*
X61518800Y-87249000D02*
X67487800Y-87249000D01*
X59232800Y-89535000D02*
X61518800Y-87249000D01*
X59232800Y-121386600D02*
X59232800Y-89535000D01*
X51968400Y-128651000D02*
X59232800Y-121386600D01*
X51943000Y-128651000D02*
X51968400Y-128651000D01*
D19*
G36*
X174593169Y-64943915D02*
X174982436Y-65333861D01*
X175491298Y-65545159D01*
X176042285Y-65545640D01*
X176551515Y-65335231D01*
X176891939Y-64995400D01*
X184362932Y-64995400D01*
X193617966Y-74250434D01*
X193888859Y-74431439D01*
X194208400Y-74495000D01*
X195426493Y-74495000D01*
X195463538Y-74584655D01*
X195922927Y-75044846D01*
X196523453Y-75294206D01*
X197173694Y-75294774D01*
X197774655Y-75046462D01*
X198234846Y-74587073D01*
X198484206Y-73986547D01*
X198484452Y-73704746D01*
X199883575Y-73704746D01*
X199973890Y-74158789D01*
X200185128Y-74242370D01*
X200767498Y-73660000D01*
X200185128Y-73077630D01*
X199973890Y-73161211D01*
X199883575Y-73704746D01*
X198484452Y-73704746D01*
X198484774Y-73336306D01*
X198236462Y-72735345D01*
X197777073Y-72275154D01*
X197176547Y-72025794D01*
X196526306Y-72025226D01*
X195925345Y-72273538D01*
X195465154Y-72732927D01*
X195426922Y-72825000D01*
X194554268Y-72825000D01*
X188727962Y-66998694D01*
X190135226Y-66998694D01*
X190383538Y-67599655D01*
X190842927Y-68059846D01*
X191443453Y-68309206D01*
X192093694Y-68309774D01*
X192694655Y-68061462D01*
X193154846Y-67602073D01*
X193404206Y-67001547D01*
X193404774Y-66351306D01*
X193156462Y-65750345D01*
X192697073Y-65290154D01*
X192096547Y-65040794D01*
X191446306Y-65040226D01*
X190845345Y-65288538D01*
X190385154Y-65747927D01*
X190135794Y-66348453D01*
X190135226Y-66998694D01*
X188727962Y-66998694D01*
X186724668Y-64995400D01*
X205317932Y-64995400D01*
X214572966Y-74250434D01*
X214843859Y-74431439D01*
X215163400Y-74495000D01*
X216381493Y-74495000D01*
X216418538Y-74584655D01*
X216877927Y-75044846D01*
X217478453Y-75294206D01*
X218128694Y-75294774D01*
X218729655Y-75046462D01*
X219189846Y-74587073D01*
X219439206Y-73986547D01*
X219439452Y-73704746D01*
X220838575Y-73704746D01*
X220928890Y-74158789D01*
X221140128Y-74242370D01*
X221722498Y-73660000D01*
X221140128Y-73077630D01*
X220928890Y-73161211D01*
X220838575Y-73704746D01*
X219439452Y-73704746D01*
X219439774Y-73336306D01*
X219191462Y-72735345D01*
X218732073Y-72275154D01*
X218131547Y-72025794D01*
X217481306Y-72025226D01*
X216880345Y-72273538D01*
X216420154Y-72732927D01*
X216381922Y-72825000D01*
X215509268Y-72825000D01*
X209682962Y-66998694D01*
X211090226Y-66998694D01*
X211338538Y-67599655D01*
X211797927Y-68059846D01*
X212398453Y-68309206D01*
X213048694Y-68309774D01*
X213649655Y-68061462D01*
X214109846Y-67602073D01*
X214359206Y-67001547D01*
X214359774Y-66351306D01*
X214111462Y-65750345D01*
X213652073Y-65290154D01*
X213051547Y-65040794D01*
X212401306Y-65040226D01*
X211800345Y-65288538D01*
X211340154Y-65747927D01*
X211090794Y-66348453D01*
X211090226Y-66998694D01*
X209682962Y-66998694D01*
X207679668Y-64995400D01*
X226171332Y-64995400D01*
X235426366Y-74250434D01*
X235697259Y-74431439D01*
X236016800Y-74495000D01*
X237336493Y-74495000D01*
X237373538Y-74584655D01*
X237832927Y-75044846D01*
X238433453Y-75294206D01*
X238633000Y-75294380D01*
X238633000Y-78721284D01*
X238401702Y-78625241D01*
X237850715Y-78624760D01*
X237341485Y-78835169D01*
X236951539Y-79224436D01*
X236740241Y-79733298D01*
X236740111Y-79882527D01*
X236356211Y-79958890D01*
X236272630Y-80170128D01*
X236855000Y-80752498D01*
X236869142Y-80738356D01*
X237396644Y-81265858D01*
X237382502Y-81280000D01*
X237964872Y-81862370D01*
X238112863Y-81803814D01*
X238220169Y-82063515D01*
X238609436Y-82453461D01*
X238633000Y-82463246D01*
X238633000Y-83635281D01*
X238467805Y-83703538D01*
X238007614Y-84162927D01*
X237758254Y-84763453D01*
X237758080Y-84963000D01*
X223720000Y-84963000D01*
X223720000Y-83338507D01*
X223809655Y-83301462D01*
X224269846Y-82842073D01*
X224519206Y-82241547D01*
X224519208Y-82238694D01*
X231410226Y-82238694D01*
X231658538Y-82839655D01*
X232117927Y-83299846D01*
X232718453Y-83549206D01*
X233368694Y-83549774D01*
X233969655Y-83301462D01*
X234429846Y-82842073D01*
X234617616Y-82389872D01*
X236272630Y-82389872D01*
X236356211Y-82601110D01*
X236899746Y-82691425D01*
X237353789Y-82601110D01*
X237437370Y-82389872D01*
X236855000Y-81807502D01*
X236272630Y-82389872D01*
X234617616Y-82389872D01*
X234679206Y-82241547D01*
X234679774Y-81591306D01*
X234569634Y-81324746D01*
X235443575Y-81324746D01*
X235533890Y-81778789D01*
X235745128Y-81862370D01*
X236327498Y-81280000D01*
X235745128Y-80697630D01*
X235533890Y-80781211D01*
X235443575Y-81324746D01*
X234569634Y-81324746D01*
X234431462Y-80990345D01*
X233972073Y-80530154D01*
X233371547Y-80280794D01*
X232721306Y-80280226D01*
X232120345Y-80528538D01*
X231660154Y-80987927D01*
X231410794Y-81588453D01*
X231410226Y-82238694D01*
X224519208Y-82238694D01*
X224519774Y-81591306D01*
X224271462Y-80990345D01*
X223812073Y-80530154D01*
X223211547Y-80280794D01*
X222561306Y-80280226D01*
X221960345Y-80528538D01*
X221500154Y-80987927D01*
X221250794Y-81588453D01*
X221250226Y-82238694D01*
X221498538Y-82839655D01*
X221957927Y-83299846D01*
X222050000Y-83338078D01*
X222050000Y-84963000D01*
X220072062Y-84963000D01*
X220072234Y-84766306D01*
X219823922Y-84165345D01*
X219364533Y-83705154D01*
X218764007Y-83455794D01*
X218113766Y-83455226D01*
X217512805Y-83703538D01*
X217052614Y-84162927D01*
X216803254Y-84763453D01*
X216803080Y-84963000D01*
X202765000Y-84963000D01*
X202765000Y-83338507D01*
X202854655Y-83301462D01*
X203314846Y-82842073D01*
X203564206Y-82241547D01*
X203564208Y-82238694D01*
X210455226Y-82238694D01*
X210703538Y-82839655D01*
X211162927Y-83299846D01*
X211763453Y-83549206D01*
X212413694Y-83549774D01*
X213014655Y-83301462D01*
X213474846Y-82842073D01*
X213662616Y-82389872D01*
X215317630Y-82389872D01*
X215401211Y-82601110D01*
X215944746Y-82691425D01*
X216398789Y-82601110D01*
X216482370Y-82389872D01*
X215900000Y-81807502D01*
X215317630Y-82389872D01*
X213662616Y-82389872D01*
X213724206Y-82241547D01*
X213724774Y-81591306D01*
X213614634Y-81324746D01*
X214488575Y-81324746D01*
X214578890Y-81778789D01*
X214790128Y-81862370D01*
X215372498Y-81280000D01*
X214790128Y-80697630D01*
X214578890Y-80781211D01*
X214488575Y-81324746D01*
X213614634Y-81324746D01*
X213476462Y-80990345D01*
X213017073Y-80530154D01*
X212416547Y-80280794D01*
X211766306Y-80280226D01*
X211165345Y-80528538D01*
X210705154Y-80987927D01*
X210455794Y-81588453D01*
X210455226Y-82238694D01*
X203564208Y-82238694D01*
X203564774Y-81591306D01*
X203316462Y-80990345D01*
X202857073Y-80530154D01*
X202256547Y-80280794D01*
X201606306Y-80280226D01*
X201005345Y-80528538D01*
X200545154Y-80987927D01*
X200295794Y-81588453D01*
X200295226Y-82238694D01*
X200543538Y-82839655D01*
X201002927Y-83299846D01*
X201095000Y-83338078D01*
X201095000Y-84871132D01*
X201003132Y-84963000D01*
X199117062Y-84963000D01*
X199117234Y-84766306D01*
X198868922Y-84165345D01*
X198409533Y-83705154D01*
X197809007Y-83455794D01*
X197158766Y-83455226D01*
X196557805Y-83703538D01*
X196097614Y-84162927D01*
X195848254Y-84763453D01*
X195848080Y-84963000D01*
X181810000Y-84963000D01*
X181810000Y-83338507D01*
X181899655Y-83301462D01*
X182359846Y-82842073D01*
X182609206Y-82241547D01*
X182609208Y-82238694D01*
X189500226Y-82238694D01*
X189748538Y-82839655D01*
X190207927Y-83299846D01*
X190808453Y-83549206D01*
X191458694Y-83549774D01*
X192059655Y-83301462D01*
X192519846Y-82842073D01*
X192707616Y-82389872D01*
X194362630Y-82389872D01*
X194446211Y-82601110D01*
X194989746Y-82691425D01*
X195443789Y-82601110D01*
X195527370Y-82389872D01*
X194945000Y-81807502D01*
X194362630Y-82389872D01*
X192707616Y-82389872D01*
X192769206Y-82241547D01*
X192769774Y-81591306D01*
X192659634Y-81324746D01*
X193533575Y-81324746D01*
X193623890Y-81778789D01*
X193835128Y-81862370D01*
X194417498Y-81280000D01*
X193835128Y-80697630D01*
X193623890Y-80781211D01*
X193533575Y-81324746D01*
X192659634Y-81324746D01*
X192521462Y-80990345D01*
X192062073Y-80530154D01*
X191461547Y-80280794D01*
X190811306Y-80280226D01*
X190210345Y-80528538D01*
X189750154Y-80987927D01*
X189500794Y-81588453D01*
X189500226Y-82238694D01*
X182609208Y-82238694D01*
X182609774Y-81591306D01*
X182361462Y-80990345D01*
X181902073Y-80530154D01*
X181301547Y-80280794D01*
X180651306Y-80280226D01*
X180050345Y-80528538D01*
X179590154Y-80987927D01*
X179340794Y-81588453D01*
X179340226Y-82238694D01*
X179588538Y-82839655D01*
X180047927Y-83299846D01*
X180140000Y-83338078D01*
X180140000Y-84963000D01*
X178162062Y-84963000D01*
X178162234Y-84766306D01*
X177913922Y-84165345D01*
X177454533Y-83705154D01*
X176854007Y-83455794D01*
X176203766Y-83455226D01*
X175602805Y-83703538D01*
X175142614Y-84162927D01*
X174893254Y-84763453D01*
X174893080Y-84963000D01*
X160855000Y-84963000D01*
X160855000Y-83338507D01*
X160944655Y-83301462D01*
X161404846Y-82842073D01*
X161654206Y-82241547D01*
X161654208Y-82238694D01*
X168545226Y-82238694D01*
X168793538Y-82839655D01*
X169252927Y-83299846D01*
X169853453Y-83549206D01*
X170503694Y-83549774D01*
X171104655Y-83301462D01*
X171564846Y-82842073D01*
X171752616Y-82389872D01*
X173407630Y-82389872D01*
X173491211Y-82601110D01*
X174034746Y-82691425D01*
X174488789Y-82601110D01*
X174572370Y-82389872D01*
X173990000Y-81807502D01*
X173407630Y-82389872D01*
X171752616Y-82389872D01*
X171814206Y-82241547D01*
X171814774Y-81591306D01*
X171704634Y-81324746D01*
X172578575Y-81324746D01*
X172668890Y-81778789D01*
X172880128Y-81862370D01*
X173462498Y-81280000D01*
X172880128Y-80697630D01*
X172668890Y-80781211D01*
X172578575Y-81324746D01*
X171704634Y-81324746D01*
X171566462Y-80990345D01*
X171107073Y-80530154D01*
X170506547Y-80280794D01*
X169856306Y-80280226D01*
X169255345Y-80528538D01*
X168795154Y-80987927D01*
X168545794Y-81588453D01*
X168545226Y-82238694D01*
X161654208Y-82238694D01*
X161654774Y-81591306D01*
X161406462Y-80990345D01*
X160947073Y-80530154D01*
X160346547Y-80280794D01*
X159696306Y-80280226D01*
X159095345Y-80528538D01*
X158635154Y-80987927D01*
X158385794Y-81588453D01*
X158385226Y-82238694D01*
X158633538Y-82839655D01*
X159092927Y-83299846D01*
X159185000Y-83338078D01*
X159185000Y-84871132D01*
X159093132Y-84963000D01*
X157207062Y-84963000D01*
X157207234Y-84766306D01*
X156958922Y-84165345D01*
X156499533Y-83705154D01*
X155899007Y-83455794D01*
X155248766Y-83455226D01*
X154647805Y-83703538D01*
X154187614Y-84162927D01*
X153938254Y-84763453D01*
X153938080Y-84963000D01*
X139900000Y-84963000D01*
X139900000Y-83338507D01*
X139989655Y-83301462D01*
X140449846Y-82842073D01*
X140699206Y-82241547D01*
X140699208Y-82238694D01*
X147590226Y-82238694D01*
X147838538Y-82839655D01*
X148297927Y-83299846D01*
X148898453Y-83549206D01*
X149548694Y-83549774D01*
X150149655Y-83301462D01*
X150609846Y-82842073D01*
X150797616Y-82389872D01*
X152452630Y-82389872D01*
X152536211Y-82601110D01*
X153079746Y-82691425D01*
X153533789Y-82601110D01*
X153617370Y-82389872D01*
X153035000Y-81807502D01*
X152452630Y-82389872D01*
X150797616Y-82389872D01*
X150859206Y-82241547D01*
X150859774Y-81591306D01*
X150749634Y-81324746D01*
X151623575Y-81324746D01*
X151713890Y-81778789D01*
X151925128Y-81862370D01*
X152507498Y-81280000D01*
X151925128Y-80697630D01*
X151713890Y-80781211D01*
X151623575Y-81324746D01*
X150749634Y-81324746D01*
X150611462Y-80990345D01*
X150152073Y-80530154D01*
X149551547Y-80280794D01*
X148901306Y-80280226D01*
X148300345Y-80528538D01*
X147840154Y-80987927D01*
X147590794Y-81588453D01*
X147590226Y-82238694D01*
X140699208Y-82238694D01*
X140699774Y-81591306D01*
X140451462Y-80990345D01*
X139992073Y-80530154D01*
X139391547Y-80280794D01*
X138741306Y-80280226D01*
X138140345Y-80528538D01*
X137680154Y-80987927D01*
X137430794Y-81588453D01*
X137430226Y-82238694D01*
X137678538Y-82839655D01*
X138137927Y-83299846D01*
X138230000Y-83338078D01*
X138230000Y-84963000D01*
X136252062Y-84963000D01*
X136252234Y-84766306D01*
X136003922Y-84165345D01*
X135544533Y-83705154D01*
X134944007Y-83455794D01*
X134293766Y-83455226D01*
X133692805Y-83703538D01*
X133232614Y-84162927D01*
X132983254Y-84763453D01*
X132983080Y-84963000D01*
X115297062Y-84963000D01*
X115297234Y-84766306D01*
X115083322Y-84248600D01*
X116611400Y-84248600D01*
X116930941Y-84185039D01*
X117201834Y-84004034D01*
X117693863Y-83512005D01*
X117783453Y-83549206D01*
X118433694Y-83549774D01*
X119034655Y-83301462D01*
X119494846Y-82842073D01*
X119744206Y-82241547D01*
X119744208Y-82238694D01*
X126635226Y-82238694D01*
X126883538Y-82839655D01*
X127342927Y-83299846D01*
X127943453Y-83549206D01*
X128593694Y-83549774D01*
X129194655Y-83301462D01*
X129654846Y-82842073D01*
X129842616Y-82389872D01*
X131497630Y-82389872D01*
X131581211Y-82601110D01*
X132124746Y-82691425D01*
X132578789Y-82601110D01*
X132662370Y-82389872D01*
X132080000Y-81807502D01*
X131497630Y-82389872D01*
X129842616Y-82389872D01*
X129904206Y-82241547D01*
X129904774Y-81591306D01*
X129794634Y-81324746D01*
X130668575Y-81324746D01*
X130758890Y-81778789D01*
X130970128Y-81862370D01*
X131552498Y-81280000D01*
X130970128Y-80697630D01*
X130758890Y-80781211D01*
X130668575Y-81324746D01*
X129794634Y-81324746D01*
X129656462Y-80990345D01*
X129197073Y-80530154D01*
X128596547Y-80280794D01*
X127946306Y-80280226D01*
X127345345Y-80528538D01*
X126885154Y-80987927D01*
X126635794Y-81588453D01*
X126635226Y-82238694D01*
X119744208Y-82238694D01*
X119744774Y-81591306D01*
X119496462Y-80990345D01*
X119037073Y-80530154D01*
X118436547Y-80280794D01*
X117786306Y-80280226D01*
X117185345Y-80528538D01*
X116725154Y-80987927D01*
X116475794Y-81588453D01*
X116475226Y-82238694D01*
X116513298Y-82330834D01*
X116265532Y-82578600D01*
X114148970Y-82578600D01*
X114448515Y-82454831D01*
X114838461Y-82065564D01*
X115049759Y-81556702D01*
X115050240Y-81005715D01*
X114839831Y-80496485D01*
X114514043Y-80170128D01*
X131497630Y-80170128D01*
X132080000Y-80752498D01*
X132094142Y-80738356D01*
X132621644Y-81265858D01*
X132607502Y-81280000D01*
X133189872Y-81862370D01*
X133337863Y-81803814D01*
X133445169Y-82063515D01*
X133834436Y-82453461D01*
X134343298Y-82664759D01*
X134894285Y-82665240D01*
X135403515Y-82454831D01*
X135793461Y-82065564D01*
X136004759Y-81556702D01*
X136005240Y-81005715D01*
X135794831Y-80496485D01*
X135469043Y-80170128D01*
X152452630Y-80170128D01*
X153035000Y-80752498D01*
X153049142Y-80738356D01*
X153576644Y-81265858D01*
X153562502Y-81280000D01*
X154144872Y-81862370D01*
X154292863Y-81803814D01*
X154400169Y-82063515D01*
X154789436Y-82453461D01*
X155298298Y-82664759D01*
X155849285Y-82665240D01*
X156358515Y-82454831D01*
X156748461Y-82065564D01*
X156959759Y-81556702D01*
X156960240Y-81005715D01*
X156749831Y-80496485D01*
X156424043Y-80170128D01*
X173407630Y-80170128D01*
X173990000Y-80752498D01*
X174004142Y-80738356D01*
X174531644Y-81265858D01*
X174517502Y-81280000D01*
X175099872Y-81862370D01*
X175247863Y-81803814D01*
X175355169Y-82063515D01*
X175744436Y-82453461D01*
X176253298Y-82664759D01*
X176804285Y-82665240D01*
X177313515Y-82454831D01*
X177703461Y-82065564D01*
X177914759Y-81556702D01*
X177915240Y-81005715D01*
X177704831Y-80496485D01*
X177379043Y-80170128D01*
X194362630Y-80170128D01*
X194945000Y-80752498D01*
X194959142Y-80738356D01*
X195486644Y-81265858D01*
X195472502Y-81280000D01*
X196054872Y-81862370D01*
X196202863Y-81803814D01*
X196310169Y-82063515D01*
X196699436Y-82453461D01*
X197208298Y-82664759D01*
X197759285Y-82665240D01*
X198268515Y-82454831D01*
X198658461Y-82065564D01*
X198869759Y-81556702D01*
X198870240Y-81005715D01*
X198659831Y-80496485D01*
X198334043Y-80170128D01*
X215317630Y-80170128D01*
X215900000Y-80752498D01*
X215914142Y-80738356D01*
X216441644Y-81265858D01*
X216427502Y-81280000D01*
X217009872Y-81862370D01*
X217157863Y-81803814D01*
X217265169Y-82063515D01*
X217654436Y-82453461D01*
X218163298Y-82664759D01*
X218714285Y-82665240D01*
X219223515Y-82454831D01*
X219613461Y-82065564D01*
X219824759Y-81556702D01*
X219825240Y-81005715D01*
X219614831Y-80496485D01*
X219225564Y-80106539D01*
X218716702Y-79895241D01*
X218555101Y-79895100D01*
X218555240Y-79735715D01*
X218344831Y-79226485D01*
X217955564Y-78836539D01*
X217446702Y-78625241D01*
X216895715Y-78624760D01*
X216386485Y-78835169D01*
X215996539Y-79224436D01*
X215785241Y-79733298D01*
X215785111Y-79882527D01*
X215401211Y-79958890D01*
X215317630Y-80170128D01*
X198334043Y-80170128D01*
X198270564Y-80106539D01*
X197761702Y-79895241D01*
X197600101Y-79895100D01*
X197600240Y-79735715D01*
X197389831Y-79226485D01*
X197000564Y-78836539D01*
X196491702Y-78625241D01*
X195940715Y-78624760D01*
X195431485Y-78835169D01*
X195041539Y-79224436D01*
X194830241Y-79733298D01*
X194830111Y-79882527D01*
X194446211Y-79958890D01*
X194362630Y-80170128D01*
X177379043Y-80170128D01*
X177315564Y-80106539D01*
X176806702Y-79895241D01*
X176645101Y-79895100D01*
X176645240Y-79735715D01*
X176434831Y-79226485D01*
X176045564Y-78836539D01*
X175536702Y-78625241D01*
X174985715Y-78624760D01*
X174476485Y-78835169D01*
X174086539Y-79224436D01*
X173875241Y-79733298D01*
X173875111Y-79882527D01*
X173491211Y-79958890D01*
X173407630Y-80170128D01*
X156424043Y-80170128D01*
X156360564Y-80106539D01*
X155851702Y-79895241D01*
X155690101Y-79895100D01*
X155690240Y-79735715D01*
X155479831Y-79226485D01*
X155090564Y-78836539D01*
X154581702Y-78625241D01*
X154030715Y-78624760D01*
X153521485Y-78835169D01*
X153131539Y-79224436D01*
X152920241Y-79733298D01*
X152920111Y-79882527D01*
X152536211Y-79958890D01*
X152452630Y-80170128D01*
X135469043Y-80170128D01*
X135405564Y-80106539D01*
X134896702Y-79895241D01*
X134735101Y-79895100D01*
X134735240Y-79735715D01*
X134524831Y-79226485D01*
X134135564Y-78836539D01*
X133626702Y-78625241D01*
X133075715Y-78624760D01*
X132566485Y-78835169D01*
X132176539Y-79224436D01*
X131965241Y-79733298D01*
X131965111Y-79882527D01*
X131581211Y-79958890D01*
X131497630Y-80170128D01*
X114514043Y-80170128D01*
X114450564Y-80106539D01*
X113941702Y-79895241D01*
X113780101Y-79895100D01*
X113780240Y-79735715D01*
X113569831Y-79226485D01*
X113180564Y-78836539D01*
X112671702Y-78625241D01*
X112120715Y-78624760D01*
X111611485Y-78835169D01*
X111221539Y-79224436D01*
X111010241Y-79733298D01*
X111010111Y-79882527D01*
X110626211Y-79958890D01*
X110542630Y-80170128D01*
X111125000Y-80752498D01*
X111139142Y-80738356D01*
X111666644Y-81265858D01*
X111652502Y-81280000D01*
X112234872Y-81862370D01*
X112382863Y-81803814D01*
X112490169Y-82063515D01*
X112879436Y-82453461D01*
X113180804Y-82578600D01*
X111632696Y-82578600D01*
X111707370Y-82389872D01*
X111125000Y-81807502D01*
X110542630Y-82389872D01*
X110617304Y-82578600D01*
X108809249Y-82578600D01*
X108949206Y-82241547D01*
X108949774Y-81591306D01*
X108839634Y-81324746D01*
X109713575Y-81324746D01*
X109803890Y-81778789D01*
X110015128Y-81862370D01*
X110597498Y-81280000D01*
X110015128Y-80697630D01*
X109803890Y-80781211D01*
X109713575Y-81324746D01*
X108839634Y-81324746D01*
X108701462Y-80990345D01*
X108242073Y-80530154D01*
X107641547Y-80280794D01*
X106991306Y-80280226D01*
X106390345Y-80528538D01*
X105930154Y-80987927D01*
X105680794Y-81588453D01*
X105680226Y-82238694D01*
X105820672Y-82578600D01*
X98653600Y-82578600D01*
X98648858Y-82579543D01*
X98789206Y-82241547D01*
X98789774Y-81591306D01*
X98541462Y-80990345D01*
X98082073Y-80530154D01*
X97481547Y-80280794D01*
X96831306Y-80280226D01*
X96230345Y-80528538D01*
X95770154Y-80987927D01*
X95520794Y-81588453D01*
X95520226Y-82238694D01*
X95558298Y-82330834D01*
X95158132Y-82731000D01*
X87790968Y-82731000D01*
X87932616Y-82389872D01*
X89587630Y-82389872D01*
X89671211Y-82601110D01*
X90214746Y-82691425D01*
X90668789Y-82601110D01*
X90752370Y-82389872D01*
X90170000Y-81807502D01*
X89587630Y-82389872D01*
X87932616Y-82389872D01*
X87994206Y-82241547D01*
X87994774Y-81591306D01*
X87884634Y-81324746D01*
X88758575Y-81324746D01*
X88848890Y-81778789D01*
X89060128Y-81862370D01*
X89642498Y-81280000D01*
X89060128Y-80697630D01*
X88848890Y-80781211D01*
X88758575Y-81324746D01*
X87884634Y-81324746D01*
X87746462Y-80990345D01*
X87287073Y-80530154D01*
X86686547Y-80280794D01*
X86036306Y-80280226D01*
X85435345Y-80528538D01*
X84975154Y-80987927D01*
X84725794Y-81588453D01*
X84725226Y-82238694D01*
X84928643Y-82731000D01*
X77630968Y-82731000D01*
X77834206Y-82241547D01*
X77834774Y-81591306D01*
X77586462Y-80990345D01*
X77127073Y-80530154D01*
X76526547Y-80280794D01*
X75876306Y-80280226D01*
X75275345Y-80528538D01*
X74815154Y-80987927D01*
X74776922Y-81080000D01*
X73787000Y-81080000D01*
X73787000Y-80170128D01*
X89587630Y-80170128D01*
X90170000Y-80752498D01*
X90184142Y-80738356D01*
X90711644Y-81265858D01*
X90697502Y-81280000D01*
X91279872Y-81862370D01*
X91427863Y-81803814D01*
X91535169Y-82063515D01*
X91924436Y-82453461D01*
X92433298Y-82664759D01*
X92984285Y-82665240D01*
X93493515Y-82454831D01*
X93883461Y-82065564D01*
X94094759Y-81556702D01*
X94095240Y-81005715D01*
X93884831Y-80496485D01*
X93495564Y-80106539D01*
X92986702Y-79895241D01*
X92825101Y-79895100D01*
X92825240Y-79735715D01*
X92614831Y-79226485D01*
X92225564Y-78836539D01*
X91716702Y-78625241D01*
X91165715Y-78624760D01*
X90656485Y-78835169D01*
X90266539Y-79224436D01*
X90055241Y-79733298D01*
X90055111Y-79882527D01*
X89671211Y-79958890D01*
X89587630Y-80170128D01*
X73787000Y-80170128D01*
X73787000Y-78904868D01*
X74183668Y-78508200D01*
X220776800Y-78508200D01*
X221096341Y-78444639D01*
X221367234Y-78263634D01*
X224586045Y-75044823D01*
X225064285Y-75045240D01*
X225573515Y-74834831D01*
X225963461Y-74445564D01*
X226155246Y-73983694D01*
X226965226Y-73983694D01*
X227213538Y-74584655D01*
X227672927Y-75044846D01*
X228273453Y-75294206D01*
X228923694Y-75294774D01*
X229524655Y-75046462D01*
X229984846Y-74587073D01*
X230234206Y-73986547D01*
X230234774Y-73336306D01*
X229986462Y-72735345D01*
X229527073Y-72275154D01*
X228926547Y-72025794D01*
X228276306Y-72025226D01*
X227675345Y-72273538D01*
X227215154Y-72732927D01*
X226965794Y-73333453D01*
X226965226Y-73983694D01*
X226155246Y-73983694D01*
X226174759Y-73936702D01*
X226175240Y-73385715D01*
X225964831Y-72876485D01*
X225575564Y-72486539D01*
X225066702Y-72275241D01*
X224905101Y-72275100D01*
X224905240Y-72115715D01*
X224694831Y-71606485D01*
X224355000Y-71266061D01*
X224355000Y-68098507D01*
X224444655Y-68061462D01*
X224904846Y-67602073D01*
X225154206Y-67001547D01*
X225154774Y-66351306D01*
X224906462Y-65750345D01*
X224447073Y-65290154D01*
X223846547Y-65040794D01*
X223196306Y-65040226D01*
X222595345Y-65288538D01*
X222135154Y-65747927D01*
X221885794Y-66348453D01*
X221885226Y-66998694D01*
X222133538Y-67599655D01*
X222592927Y-68059846D01*
X222685000Y-68098078D01*
X222685000Y-71266564D01*
X222346539Y-71604436D01*
X222135241Y-72113298D01*
X222135111Y-72262527D01*
X221751211Y-72338890D01*
X221667630Y-72550128D01*
X222250000Y-73132498D01*
X222264142Y-73118356D01*
X222791644Y-73645858D01*
X222777502Y-73660000D01*
X222791644Y-73674142D01*
X222264142Y-74201644D01*
X222250000Y-74187502D01*
X221667630Y-74769872D01*
X221751211Y-74981110D01*
X222211534Y-75057598D01*
X220430932Y-76838200D01*
X201837668Y-76838200D01*
X203631045Y-75044823D01*
X204109285Y-75045240D01*
X204618515Y-74834831D01*
X205008461Y-74445564D01*
X205200246Y-73983694D01*
X206010226Y-73983694D01*
X206258538Y-74584655D01*
X206717927Y-75044846D01*
X207318453Y-75294206D01*
X207968694Y-75294774D01*
X208569655Y-75046462D01*
X209029846Y-74587073D01*
X209279206Y-73986547D01*
X209279774Y-73336306D01*
X209031462Y-72735345D01*
X208572073Y-72275154D01*
X207971547Y-72025794D01*
X207321306Y-72025226D01*
X206720345Y-72273538D01*
X206260154Y-72732927D01*
X206010794Y-73333453D01*
X206010226Y-73983694D01*
X205200246Y-73983694D01*
X205219759Y-73936702D01*
X205220240Y-73385715D01*
X205009831Y-72876485D01*
X204620564Y-72486539D01*
X204111702Y-72275241D01*
X203950101Y-72275100D01*
X203950240Y-72115715D01*
X203739831Y-71606485D01*
X203400000Y-71266061D01*
X203400000Y-68098507D01*
X203489655Y-68061462D01*
X203949846Y-67602073D01*
X204199206Y-67001547D01*
X204199774Y-66351306D01*
X203951462Y-65750345D01*
X203492073Y-65290154D01*
X202891547Y-65040794D01*
X202241306Y-65040226D01*
X201640345Y-65288538D01*
X201180154Y-65747927D01*
X200930794Y-66348453D01*
X200930226Y-66998694D01*
X201178538Y-67599655D01*
X201637927Y-68059846D01*
X201730000Y-68098078D01*
X201730000Y-71266564D01*
X201391539Y-71604436D01*
X201180241Y-72113298D01*
X201180111Y-72262527D01*
X200796211Y-72338890D01*
X200712630Y-72550128D01*
X201295000Y-73132498D01*
X201309142Y-73118356D01*
X201836644Y-73645858D01*
X201822502Y-73660000D01*
X201836644Y-73674142D01*
X201309142Y-74201644D01*
X201295000Y-74187502D01*
X200712630Y-74769872D01*
X200796211Y-74981110D01*
X201256534Y-75057598D01*
X200095130Y-76219002D01*
X181501866Y-76219002D01*
X182676045Y-75044823D01*
X183154285Y-75045240D01*
X183663515Y-74834831D01*
X184053461Y-74445564D01*
X184245246Y-73983694D01*
X185055226Y-73983694D01*
X185303538Y-74584655D01*
X185762927Y-75044846D01*
X186363453Y-75294206D01*
X187013694Y-75294774D01*
X187614655Y-75046462D01*
X188074846Y-74587073D01*
X188324206Y-73986547D01*
X188324774Y-73336306D01*
X188076462Y-72735345D01*
X187617073Y-72275154D01*
X187016547Y-72025794D01*
X186366306Y-72025226D01*
X185765345Y-72273538D01*
X185305154Y-72732927D01*
X185055794Y-73333453D01*
X185055226Y-73983694D01*
X184245246Y-73983694D01*
X184264759Y-73936702D01*
X184265240Y-73385715D01*
X184054831Y-72876485D01*
X183665564Y-72486539D01*
X183156702Y-72275241D01*
X182995101Y-72275100D01*
X182995240Y-72115715D01*
X182784831Y-71606485D01*
X182445000Y-71266061D01*
X182445000Y-68098507D01*
X182534655Y-68061462D01*
X182994846Y-67602073D01*
X183244206Y-67001547D01*
X183244774Y-66351306D01*
X182996462Y-65750345D01*
X182537073Y-65290154D01*
X181936547Y-65040794D01*
X181286306Y-65040226D01*
X180685345Y-65288538D01*
X180225154Y-65747927D01*
X179975794Y-66348453D01*
X179975226Y-66998694D01*
X180223538Y-67599655D01*
X180682927Y-68059846D01*
X180775000Y-68098078D01*
X180775000Y-71266564D01*
X180436539Y-71604436D01*
X180225241Y-72113298D01*
X180225111Y-72262527D01*
X179841211Y-72338890D01*
X179757630Y-72550128D01*
X180340000Y-73132498D01*
X180354142Y-73118356D01*
X180881644Y-73645858D01*
X180867502Y-73660000D01*
X180881644Y-73674142D01*
X180354142Y-74201644D01*
X180340000Y-74187502D01*
X179757630Y-74769872D01*
X179841211Y-74981110D01*
X180301534Y-75057598D01*
X179740132Y-75619000D01*
X161146868Y-75619000D01*
X161721045Y-75044823D01*
X162199285Y-75045240D01*
X162708515Y-74834831D01*
X163098461Y-74445564D01*
X163290246Y-73983694D01*
X164100226Y-73983694D01*
X164348538Y-74584655D01*
X164807927Y-75044846D01*
X165408453Y-75294206D01*
X166058694Y-75294774D01*
X166659655Y-75046462D01*
X167119846Y-74587073D01*
X167369206Y-73986547D01*
X167369208Y-73983694D01*
X174260226Y-73983694D01*
X174508538Y-74584655D01*
X174967927Y-75044846D01*
X175568453Y-75294206D01*
X176218694Y-75294774D01*
X176819655Y-75046462D01*
X177279846Y-74587073D01*
X177529206Y-73986547D01*
X177529452Y-73704746D01*
X178928575Y-73704746D01*
X179018890Y-74158789D01*
X179230128Y-74242370D01*
X179812498Y-73660000D01*
X179230128Y-73077630D01*
X179018890Y-73161211D01*
X178928575Y-73704746D01*
X177529452Y-73704746D01*
X177529774Y-73336306D01*
X177281462Y-72735345D01*
X176822073Y-72275154D01*
X176221547Y-72025794D01*
X175571306Y-72025226D01*
X174970345Y-72273538D01*
X174510154Y-72732927D01*
X174260794Y-73333453D01*
X174260226Y-73983694D01*
X167369208Y-73983694D01*
X167369774Y-73336306D01*
X167121462Y-72735345D01*
X166662073Y-72275154D01*
X166061547Y-72025794D01*
X165411306Y-72025226D01*
X164810345Y-72273538D01*
X164350154Y-72732927D01*
X164100794Y-73333453D01*
X164100226Y-73983694D01*
X163290246Y-73983694D01*
X163309759Y-73936702D01*
X163310240Y-73385715D01*
X163099831Y-72876485D01*
X162710564Y-72486539D01*
X162201702Y-72275241D01*
X162040101Y-72275100D01*
X162040240Y-72115715D01*
X161829831Y-71606485D01*
X161440564Y-71216539D01*
X160931702Y-71005241D01*
X160380715Y-71004760D01*
X159871485Y-71215169D01*
X159481539Y-71604436D01*
X159270241Y-72113298D01*
X159270111Y-72262527D01*
X158886211Y-72338890D01*
X158802630Y-72550128D01*
X159385000Y-73132498D01*
X159399142Y-73118356D01*
X159926644Y-73645858D01*
X159912502Y-73660000D01*
X159926644Y-73674142D01*
X159399142Y-74201644D01*
X159385000Y-74187502D01*
X158802630Y-74769872D01*
X158857204Y-74907800D01*
X156003559Y-74907800D01*
X156324846Y-74587073D01*
X156574206Y-73986547D01*
X156574452Y-73704746D01*
X157973575Y-73704746D01*
X158063890Y-74158789D01*
X158275128Y-74242370D01*
X158857498Y-73660000D01*
X158275128Y-73077630D01*
X158063890Y-73161211D01*
X157973575Y-73704746D01*
X156574452Y-73704746D01*
X156574774Y-73336306D01*
X156326462Y-72735345D01*
X155867073Y-72275154D01*
X155266547Y-72025794D01*
X154616306Y-72025226D01*
X154015345Y-72273538D01*
X153555154Y-72732927D01*
X153305794Y-73333453D01*
X153305226Y-73983694D01*
X153553538Y-74584655D01*
X153876120Y-74907800D01*
X145843559Y-74907800D01*
X146164846Y-74587073D01*
X146414206Y-73986547D01*
X146414774Y-73336306D01*
X146166462Y-72735345D01*
X145707073Y-72275154D01*
X145106547Y-72025794D01*
X144456306Y-72025226D01*
X144364166Y-72063298D01*
X140439029Y-68138161D01*
X140624655Y-68061462D01*
X141084846Y-67602073D01*
X141334206Y-67001547D01*
X141334208Y-66998694D01*
X148225226Y-66998694D01*
X148473538Y-67599655D01*
X148932927Y-68059846D01*
X149533453Y-68309206D01*
X150183694Y-68309774D01*
X150784655Y-68061462D01*
X151244846Y-67602073D01*
X151494206Y-67001547D01*
X151494208Y-66998694D01*
X159020226Y-66998694D01*
X159268538Y-67599655D01*
X159727927Y-68059846D01*
X160328453Y-68309206D01*
X160978694Y-68309774D01*
X161579655Y-68061462D01*
X162039846Y-67602073D01*
X162289206Y-67001547D01*
X162289208Y-66998694D01*
X169180226Y-66998694D01*
X169428538Y-67599655D01*
X169887927Y-68059846D01*
X170488453Y-68309206D01*
X171138694Y-68309774D01*
X171739655Y-68061462D01*
X172199846Y-67602073D01*
X172449206Y-67001547D01*
X172449774Y-66351306D01*
X172201462Y-65750345D01*
X171742073Y-65290154D01*
X171141547Y-65040794D01*
X170491306Y-65040226D01*
X169890345Y-65288538D01*
X169430154Y-65747927D01*
X169180794Y-66348453D01*
X169180226Y-66998694D01*
X162289208Y-66998694D01*
X162289774Y-66351306D01*
X162041462Y-65750345D01*
X161582073Y-65290154D01*
X160981547Y-65040794D01*
X160331306Y-65040226D01*
X159730345Y-65288538D01*
X159270154Y-65747927D01*
X159020794Y-66348453D01*
X159020226Y-66998694D01*
X151494208Y-66998694D01*
X151494774Y-66351306D01*
X151246462Y-65750345D01*
X150787073Y-65290154D01*
X150186547Y-65040794D01*
X149536306Y-65040226D01*
X148935345Y-65288538D01*
X148475154Y-65747927D01*
X148225794Y-66348453D01*
X148225226Y-66998694D01*
X141334208Y-66998694D01*
X141334774Y-66351306D01*
X141086462Y-65750345D01*
X140627073Y-65290154D01*
X140026547Y-65040794D01*
X139376306Y-65040226D01*
X138775345Y-65288538D01*
X138315154Y-65747927D01*
X138065794Y-66348453D01*
X138065226Y-66998694D01*
X138313538Y-67599655D01*
X138417500Y-67703798D01*
X130187943Y-67703798D01*
X130289846Y-67602073D01*
X130539206Y-67001547D01*
X130539774Y-66351306D01*
X130291462Y-65750345D01*
X129832073Y-65290154D01*
X129231547Y-65040794D01*
X128581306Y-65040226D01*
X127980345Y-65288538D01*
X127520154Y-65747927D01*
X127270794Y-66348453D01*
X127270226Y-66998694D01*
X127518538Y-67599655D01*
X127622500Y-67703798D01*
X120027943Y-67703798D01*
X120129846Y-67602073D01*
X120379206Y-67001547D01*
X120379774Y-66351306D01*
X120131462Y-65750345D01*
X119672073Y-65290154D01*
X119071547Y-65040794D01*
X118421306Y-65040226D01*
X117820345Y-65288538D01*
X117360154Y-65747927D01*
X117110794Y-66348453D01*
X117110226Y-66998694D01*
X117358538Y-67599655D01*
X117462500Y-67703798D01*
X109232943Y-67703798D01*
X109334846Y-67602073D01*
X109584206Y-67001547D01*
X109584774Y-66351306D01*
X109336462Y-65750345D01*
X108877073Y-65290154D01*
X108276547Y-65040794D01*
X107626306Y-65040226D01*
X107025345Y-65288538D01*
X106565154Y-65747927D01*
X106315794Y-66348453D01*
X106315226Y-66998694D01*
X106563538Y-67599655D01*
X106667500Y-67703798D01*
X99072943Y-67703798D01*
X99174846Y-67602073D01*
X99424206Y-67001547D01*
X99424774Y-66351306D01*
X99176462Y-65750345D01*
X98717073Y-65290154D01*
X98116547Y-65040794D01*
X97466306Y-65040226D01*
X96865345Y-65288538D01*
X96405154Y-65747927D01*
X96155794Y-66348453D01*
X96155226Y-66998694D01*
X96403538Y-67599655D01*
X96507500Y-67703798D01*
X88277943Y-67703798D01*
X88379846Y-67602073D01*
X88629206Y-67001547D01*
X88629774Y-66351306D01*
X88381462Y-65750345D01*
X87922073Y-65290154D01*
X87321547Y-65040794D01*
X86671306Y-65040226D01*
X86070345Y-65288538D01*
X85610154Y-65747927D01*
X85360794Y-66348453D01*
X85360226Y-66998694D01*
X85608538Y-67599655D01*
X85712500Y-67703798D01*
X78117943Y-67703798D01*
X78219846Y-67602073D01*
X78469206Y-67001547D01*
X78469774Y-66351306D01*
X78221462Y-65750345D01*
X77762073Y-65290154D01*
X77161547Y-65040794D01*
X76511306Y-65040226D01*
X75910345Y-65288538D01*
X75450154Y-65747927D01*
X75200794Y-66348453D01*
X75200226Y-66998694D01*
X75448538Y-67599655D01*
X75552500Y-67703798D01*
X73787000Y-67703798D01*
X73787000Y-64897000D01*
X174573784Y-64897000D01*
X174593169Y-64943915D01*
X174593169Y-64943915D01*
G37*
X174593169Y-64943915D02*
X174982436Y-65333861D01*
X175491298Y-65545159D01*
X176042285Y-65545640D01*
X176551515Y-65335231D01*
X176891939Y-64995400D01*
X184362932Y-64995400D01*
X193617966Y-74250434D01*
X193888859Y-74431439D01*
X194208400Y-74495000D01*
X195426493Y-74495000D01*
X195463538Y-74584655D01*
X195922927Y-75044846D01*
X196523453Y-75294206D01*
X197173694Y-75294774D01*
X197774655Y-75046462D01*
X198234846Y-74587073D01*
X198484206Y-73986547D01*
X198484452Y-73704746D01*
X199883575Y-73704746D01*
X199973890Y-74158789D01*
X200185128Y-74242370D01*
X200767498Y-73660000D01*
X200185128Y-73077630D01*
X199973890Y-73161211D01*
X199883575Y-73704746D01*
X198484452Y-73704746D01*
X198484774Y-73336306D01*
X198236462Y-72735345D01*
X197777073Y-72275154D01*
X197176547Y-72025794D01*
X196526306Y-72025226D01*
X195925345Y-72273538D01*
X195465154Y-72732927D01*
X195426922Y-72825000D01*
X194554268Y-72825000D01*
X188727962Y-66998694D01*
X190135226Y-66998694D01*
X190383538Y-67599655D01*
X190842927Y-68059846D01*
X191443453Y-68309206D01*
X192093694Y-68309774D01*
X192694655Y-68061462D01*
X193154846Y-67602073D01*
X193404206Y-67001547D01*
X193404774Y-66351306D01*
X193156462Y-65750345D01*
X192697073Y-65290154D01*
X192096547Y-65040794D01*
X191446306Y-65040226D01*
X190845345Y-65288538D01*
X190385154Y-65747927D01*
X190135794Y-66348453D01*
X190135226Y-66998694D01*
X188727962Y-66998694D01*
X186724668Y-64995400D01*
X205317932Y-64995400D01*
X214572966Y-74250434D01*
X214843859Y-74431439D01*
X215163400Y-74495000D01*
X216381493Y-74495000D01*
X216418538Y-74584655D01*
X216877927Y-75044846D01*
X217478453Y-75294206D01*
X218128694Y-75294774D01*
X218729655Y-75046462D01*
X219189846Y-74587073D01*
X219439206Y-73986547D01*
X219439452Y-73704746D01*
X220838575Y-73704746D01*
X220928890Y-74158789D01*
X221140128Y-74242370D01*
X221722498Y-73660000D01*
X221140128Y-73077630D01*
X220928890Y-73161211D01*
X220838575Y-73704746D01*
X219439452Y-73704746D01*
X219439774Y-73336306D01*
X219191462Y-72735345D01*
X218732073Y-72275154D01*
X218131547Y-72025794D01*
X217481306Y-72025226D01*
X216880345Y-72273538D01*
X216420154Y-72732927D01*
X216381922Y-72825000D01*
X215509268Y-72825000D01*
X209682962Y-66998694D01*
X211090226Y-66998694D01*
X211338538Y-67599655D01*
X211797927Y-68059846D01*
X212398453Y-68309206D01*
X213048694Y-68309774D01*
X213649655Y-68061462D01*
X214109846Y-67602073D01*
X214359206Y-67001547D01*
X214359774Y-66351306D01*
X214111462Y-65750345D01*
X213652073Y-65290154D01*
X213051547Y-65040794D01*
X212401306Y-65040226D01*
X211800345Y-65288538D01*
X211340154Y-65747927D01*
X211090794Y-66348453D01*
X211090226Y-66998694D01*
X209682962Y-66998694D01*
X207679668Y-64995400D01*
X226171332Y-64995400D01*
X235426366Y-74250434D01*
X235697259Y-74431439D01*
X236016800Y-74495000D01*
X237336493Y-74495000D01*
X237373538Y-74584655D01*
X237832927Y-75044846D01*
X238433453Y-75294206D01*
X238633000Y-75294380D01*
X238633000Y-78721284D01*
X238401702Y-78625241D01*
X237850715Y-78624760D01*
X237341485Y-78835169D01*
X236951539Y-79224436D01*
X236740241Y-79733298D01*
X236740111Y-79882527D01*
X236356211Y-79958890D01*
X236272630Y-80170128D01*
X236855000Y-80752498D01*
X236869142Y-80738356D01*
X237396644Y-81265858D01*
X237382502Y-81280000D01*
X237964872Y-81862370D01*
X238112863Y-81803814D01*
X238220169Y-82063515D01*
X238609436Y-82453461D01*
X238633000Y-82463246D01*
X238633000Y-83635281D01*
X238467805Y-83703538D01*
X238007614Y-84162927D01*
X237758254Y-84763453D01*
X237758080Y-84963000D01*
X223720000Y-84963000D01*
X223720000Y-83338507D01*
X223809655Y-83301462D01*
X224269846Y-82842073D01*
X224519206Y-82241547D01*
X224519208Y-82238694D01*
X231410226Y-82238694D01*
X231658538Y-82839655D01*
X232117927Y-83299846D01*
X232718453Y-83549206D01*
X233368694Y-83549774D01*
X233969655Y-83301462D01*
X234429846Y-82842073D01*
X234617616Y-82389872D01*
X236272630Y-82389872D01*
X236356211Y-82601110D01*
X236899746Y-82691425D01*
X237353789Y-82601110D01*
X237437370Y-82389872D01*
X236855000Y-81807502D01*
X236272630Y-82389872D01*
X234617616Y-82389872D01*
X234679206Y-82241547D01*
X234679774Y-81591306D01*
X234569634Y-81324746D01*
X235443575Y-81324746D01*
X235533890Y-81778789D01*
X235745128Y-81862370D01*
X236327498Y-81280000D01*
X235745128Y-80697630D01*
X235533890Y-80781211D01*
X235443575Y-81324746D01*
X234569634Y-81324746D01*
X234431462Y-80990345D01*
X233972073Y-80530154D01*
X233371547Y-80280794D01*
X232721306Y-80280226D01*
X232120345Y-80528538D01*
X231660154Y-80987927D01*
X231410794Y-81588453D01*
X231410226Y-82238694D01*
X224519208Y-82238694D01*
X224519774Y-81591306D01*
X224271462Y-80990345D01*
X223812073Y-80530154D01*
X223211547Y-80280794D01*
X222561306Y-80280226D01*
X221960345Y-80528538D01*
X221500154Y-80987927D01*
X221250794Y-81588453D01*
X221250226Y-82238694D01*
X221498538Y-82839655D01*
X221957927Y-83299846D01*
X222050000Y-83338078D01*
X222050000Y-84963000D01*
X220072062Y-84963000D01*
X220072234Y-84766306D01*
X219823922Y-84165345D01*
X219364533Y-83705154D01*
X218764007Y-83455794D01*
X218113766Y-83455226D01*
X217512805Y-83703538D01*
X217052614Y-84162927D01*
X216803254Y-84763453D01*
X216803080Y-84963000D01*
X202765000Y-84963000D01*
X202765000Y-83338507D01*
X202854655Y-83301462D01*
X203314846Y-82842073D01*
X203564206Y-82241547D01*
X203564208Y-82238694D01*
X210455226Y-82238694D01*
X210703538Y-82839655D01*
X211162927Y-83299846D01*
X211763453Y-83549206D01*
X212413694Y-83549774D01*
X213014655Y-83301462D01*
X213474846Y-82842073D01*
X213662616Y-82389872D01*
X215317630Y-82389872D01*
X215401211Y-82601110D01*
X215944746Y-82691425D01*
X216398789Y-82601110D01*
X216482370Y-82389872D01*
X215900000Y-81807502D01*
X215317630Y-82389872D01*
X213662616Y-82389872D01*
X213724206Y-82241547D01*
X213724774Y-81591306D01*
X213614634Y-81324746D01*
X214488575Y-81324746D01*
X214578890Y-81778789D01*
X214790128Y-81862370D01*
X215372498Y-81280000D01*
X214790128Y-80697630D01*
X214578890Y-80781211D01*
X214488575Y-81324746D01*
X213614634Y-81324746D01*
X213476462Y-80990345D01*
X213017073Y-80530154D01*
X212416547Y-80280794D01*
X211766306Y-80280226D01*
X211165345Y-80528538D01*
X210705154Y-80987927D01*
X210455794Y-81588453D01*
X210455226Y-82238694D01*
X203564208Y-82238694D01*
X203564774Y-81591306D01*
X203316462Y-80990345D01*
X202857073Y-80530154D01*
X202256547Y-80280794D01*
X201606306Y-80280226D01*
X201005345Y-80528538D01*
X200545154Y-80987927D01*
X200295794Y-81588453D01*
X200295226Y-82238694D01*
X200543538Y-82839655D01*
X201002927Y-83299846D01*
X201095000Y-83338078D01*
X201095000Y-84871132D01*
X201003132Y-84963000D01*
X199117062Y-84963000D01*
X199117234Y-84766306D01*
X198868922Y-84165345D01*
X198409533Y-83705154D01*
X197809007Y-83455794D01*
X197158766Y-83455226D01*
X196557805Y-83703538D01*
X196097614Y-84162927D01*
X195848254Y-84763453D01*
X195848080Y-84963000D01*
X181810000Y-84963000D01*
X181810000Y-83338507D01*
X181899655Y-83301462D01*
X182359846Y-82842073D01*
X182609206Y-82241547D01*
X182609208Y-82238694D01*
X189500226Y-82238694D01*
X189748538Y-82839655D01*
X190207927Y-83299846D01*
X190808453Y-83549206D01*
X191458694Y-83549774D01*
X192059655Y-83301462D01*
X192519846Y-82842073D01*
X192707616Y-82389872D01*
X194362630Y-82389872D01*
X194446211Y-82601110D01*
X194989746Y-82691425D01*
X195443789Y-82601110D01*
X195527370Y-82389872D01*
X194945000Y-81807502D01*
X194362630Y-82389872D01*
X192707616Y-82389872D01*
X192769206Y-82241547D01*
X192769774Y-81591306D01*
X192659634Y-81324746D01*
X193533575Y-81324746D01*
X193623890Y-81778789D01*
X193835128Y-81862370D01*
X194417498Y-81280000D01*
X193835128Y-80697630D01*
X193623890Y-80781211D01*
X193533575Y-81324746D01*
X192659634Y-81324746D01*
X192521462Y-80990345D01*
X192062073Y-80530154D01*
X191461547Y-80280794D01*
X190811306Y-80280226D01*
X190210345Y-80528538D01*
X189750154Y-80987927D01*
X189500794Y-81588453D01*
X189500226Y-82238694D01*
X182609208Y-82238694D01*
X182609774Y-81591306D01*
X182361462Y-80990345D01*
X181902073Y-80530154D01*
X181301547Y-80280794D01*
X180651306Y-80280226D01*
X180050345Y-80528538D01*
X179590154Y-80987927D01*
X179340794Y-81588453D01*
X179340226Y-82238694D01*
X179588538Y-82839655D01*
X180047927Y-83299846D01*
X180140000Y-83338078D01*
X180140000Y-84963000D01*
X178162062Y-84963000D01*
X178162234Y-84766306D01*
X177913922Y-84165345D01*
X177454533Y-83705154D01*
X176854007Y-83455794D01*
X176203766Y-83455226D01*
X175602805Y-83703538D01*
X175142614Y-84162927D01*
X174893254Y-84763453D01*
X174893080Y-84963000D01*
X160855000Y-84963000D01*
X160855000Y-83338507D01*
X160944655Y-83301462D01*
X161404846Y-82842073D01*
X161654206Y-82241547D01*
X161654208Y-82238694D01*
X168545226Y-82238694D01*
X168793538Y-82839655D01*
X169252927Y-83299846D01*
X169853453Y-83549206D01*
X170503694Y-83549774D01*
X171104655Y-83301462D01*
X171564846Y-82842073D01*
X171752616Y-82389872D01*
X173407630Y-82389872D01*
X173491211Y-82601110D01*
X174034746Y-82691425D01*
X174488789Y-82601110D01*
X174572370Y-82389872D01*
X173990000Y-81807502D01*
X173407630Y-82389872D01*
X171752616Y-82389872D01*
X171814206Y-82241547D01*
X171814774Y-81591306D01*
X171704634Y-81324746D01*
X172578575Y-81324746D01*
X172668890Y-81778789D01*
X172880128Y-81862370D01*
X173462498Y-81280000D01*
X172880128Y-80697630D01*
X172668890Y-80781211D01*
X172578575Y-81324746D01*
X171704634Y-81324746D01*
X171566462Y-80990345D01*
X171107073Y-80530154D01*
X170506547Y-80280794D01*
X169856306Y-80280226D01*
X169255345Y-80528538D01*
X168795154Y-80987927D01*
X168545794Y-81588453D01*
X168545226Y-82238694D01*
X161654208Y-82238694D01*
X161654774Y-81591306D01*
X161406462Y-80990345D01*
X160947073Y-80530154D01*
X160346547Y-80280794D01*
X159696306Y-80280226D01*
X159095345Y-80528538D01*
X158635154Y-80987927D01*
X158385794Y-81588453D01*
X158385226Y-82238694D01*
X158633538Y-82839655D01*
X159092927Y-83299846D01*
X159185000Y-83338078D01*
X159185000Y-84871132D01*
X159093132Y-84963000D01*
X157207062Y-84963000D01*
X157207234Y-84766306D01*
X156958922Y-84165345D01*
X156499533Y-83705154D01*
X155899007Y-83455794D01*
X155248766Y-83455226D01*
X154647805Y-83703538D01*
X154187614Y-84162927D01*
X153938254Y-84763453D01*
X153938080Y-84963000D01*
X139900000Y-84963000D01*
X139900000Y-83338507D01*
X139989655Y-83301462D01*
X140449846Y-82842073D01*
X140699206Y-82241547D01*
X140699208Y-82238694D01*
X147590226Y-82238694D01*
X147838538Y-82839655D01*
X148297927Y-83299846D01*
X148898453Y-83549206D01*
X149548694Y-83549774D01*
X150149655Y-83301462D01*
X150609846Y-82842073D01*
X150797616Y-82389872D01*
X152452630Y-82389872D01*
X152536211Y-82601110D01*
X153079746Y-82691425D01*
X153533789Y-82601110D01*
X153617370Y-82389872D01*
X153035000Y-81807502D01*
X152452630Y-82389872D01*
X150797616Y-82389872D01*
X150859206Y-82241547D01*
X150859774Y-81591306D01*
X150749634Y-81324746D01*
X151623575Y-81324746D01*
X151713890Y-81778789D01*
X151925128Y-81862370D01*
X152507498Y-81280000D01*
X151925128Y-80697630D01*
X151713890Y-80781211D01*
X151623575Y-81324746D01*
X150749634Y-81324746D01*
X150611462Y-80990345D01*
X150152073Y-80530154D01*
X149551547Y-80280794D01*
X148901306Y-80280226D01*
X148300345Y-80528538D01*
X147840154Y-80987927D01*
X147590794Y-81588453D01*
X147590226Y-82238694D01*
X140699208Y-82238694D01*
X140699774Y-81591306D01*
X140451462Y-80990345D01*
X139992073Y-80530154D01*
X139391547Y-80280794D01*
X138741306Y-80280226D01*
X138140345Y-80528538D01*
X137680154Y-80987927D01*
X137430794Y-81588453D01*
X137430226Y-82238694D01*
X137678538Y-82839655D01*
X138137927Y-83299846D01*
X138230000Y-83338078D01*
X138230000Y-84963000D01*
X136252062Y-84963000D01*
X136252234Y-84766306D01*
X136003922Y-84165345D01*
X135544533Y-83705154D01*
X134944007Y-83455794D01*
X134293766Y-83455226D01*
X133692805Y-83703538D01*
X133232614Y-84162927D01*
X132983254Y-84763453D01*
X132983080Y-84963000D01*
X115297062Y-84963000D01*
X115297234Y-84766306D01*
X115083322Y-84248600D01*
X116611400Y-84248600D01*
X116930941Y-84185039D01*
X117201834Y-84004034D01*
X117693863Y-83512005D01*
X117783453Y-83549206D01*
X118433694Y-83549774D01*
X119034655Y-83301462D01*
X119494846Y-82842073D01*
X119744206Y-82241547D01*
X119744208Y-82238694D01*
X126635226Y-82238694D01*
X126883538Y-82839655D01*
X127342927Y-83299846D01*
X127943453Y-83549206D01*
X128593694Y-83549774D01*
X129194655Y-83301462D01*
X129654846Y-82842073D01*
X129842616Y-82389872D01*
X131497630Y-82389872D01*
X131581211Y-82601110D01*
X132124746Y-82691425D01*
X132578789Y-82601110D01*
X132662370Y-82389872D01*
X132080000Y-81807502D01*
X131497630Y-82389872D01*
X129842616Y-82389872D01*
X129904206Y-82241547D01*
X129904774Y-81591306D01*
X129794634Y-81324746D01*
X130668575Y-81324746D01*
X130758890Y-81778789D01*
X130970128Y-81862370D01*
X131552498Y-81280000D01*
X130970128Y-80697630D01*
X130758890Y-80781211D01*
X130668575Y-81324746D01*
X129794634Y-81324746D01*
X129656462Y-80990345D01*
X129197073Y-80530154D01*
X128596547Y-80280794D01*
X127946306Y-80280226D01*
X127345345Y-80528538D01*
X126885154Y-80987927D01*
X126635794Y-81588453D01*
X126635226Y-82238694D01*
X119744208Y-82238694D01*
X119744774Y-81591306D01*
X119496462Y-80990345D01*
X119037073Y-80530154D01*
X118436547Y-80280794D01*
X117786306Y-80280226D01*
X117185345Y-80528538D01*
X116725154Y-80987927D01*
X116475794Y-81588453D01*
X116475226Y-82238694D01*
X116513298Y-82330834D01*
X116265532Y-82578600D01*
X114148970Y-82578600D01*
X114448515Y-82454831D01*
X114838461Y-82065564D01*
X115049759Y-81556702D01*
X115050240Y-81005715D01*
X114839831Y-80496485D01*
X114514043Y-80170128D01*
X131497630Y-80170128D01*
X132080000Y-80752498D01*
X132094142Y-80738356D01*
X132621644Y-81265858D01*
X132607502Y-81280000D01*
X133189872Y-81862370D01*
X133337863Y-81803814D01*
X133445169Y-82063515D01*
X133834436Y-82453461D01*
X134343298Y-82664759D01*
X134894285Y-82665240D01*
X135403515Y-82454831D01*
X135793461Y-82065564D01*
X136004759Y-81556702D01*
X136005240Y-81005715D01*
X135794831Y-80496485D01*
X135469043Y-80170128D01*
X152452630Y-80170128D01*
X153035000Y-80752498D01*
X153049142Y-80738356D01*
X153576644Y-81265858D01*
X153562502Y-81280000D01*
X154144872Y-81862370D01*
X154292863Y-81803814D01*
X154400169Y-82063515D01*
X154789436Y-82453461D01*
X155298298Y-82664759D01*
X155849285Y-82665240D01*
X156358515Y-82454831D01*
X156748461Y-82065564D01*
X156959759Y-81556702D01*
X156960240Y-81005715D01*
X156749831Y-80496485D01*
X156424043Y-80170128D01*
X173407630Y-80170128D01*
X173990000Y-80752498D01*
X174004142Y-80738356D01*
X174531644Y-81265858D01*
X174517502Y-81280000D01*
X175099872Y-81862370D01*
X175247863Y-81803814D01*
X175355169Y-82063515D01*
X175744436Y-82453461D01*
X176253298Y-82664759D01*
X176804285Y-82665240D01*
X177313515Y-82454831D01*
X177703461Y-82065564D01*
X177914759Y-81556702D01*
X177915240Y-81005715D01*
X177704831Y-80496485D01*
X177379043Y-80170128D01*
X194362630Y-80170128D01*
X194945000Y-80752498D01*
X194959142Y-80738356D01*
X195486644Y-81265858D01*
X195472502Y-81280000D01*
X196054872Y-81862370D01*
X196202863Y-81803814D01*
X196310169Y-82063515D01*
X196699436Y-82453461D01*
X197208298Y-82664759D01*
X197759285Y-82665240D01*
X198268515Y-82454831D01*
X198658461Y-82065564D01*
X198869759Y-81556702D01*
X198870240Y-81005715D01*
X198659831Y-80496485D01*
X198334043Y-80170128D01*
X215317630Y-80170128D01*
X215900000Y-80752498D01*
X215914142Y-80738356D01*
X216441644Y-81265858D01*
X216427502Y-81280000D01*
X217009872Y-81862370D01*
X217157863Y-81803814D01*
X217265169Y-82063515D01*
X217654436Y-82453461D01*
X218163298Y-82664759D01*
X218714285Y-82665240D01*
X219223515Y-82454831D01*
X219613461Y-82065564D01*
X219824759Y-81556702D01*
X219825240Y-81005715D01*
X219614831Y-80496485D01*
X219225564Y-80106539D01*
X218716702Y-79895241D01*
X218555101Y-79895100D01*
X218555240Y-79735715D01*
X218344831Y-79226485D01*
X217955564Y-78836539D01*
X217446702Y-78625241D01*
X216895715Y-78624760D01*
X216386485Y-78835169D01*
X215996539Y-79224436D01*
X215785241Y-79733298D01*
X215785111Y-79882527D01*
X215401211Y-79958890D01*
X215317630Y-80170128D01*
X198334043Y-80170128D01*
X198270564Y-80106539D01*
X197761702Y-79895241D01*
X197600101Y-79895100D01*
X197600240Y-79735715D01*
X197389831Y-79226485D01*
X197000564Y-78836539D01*
X196491702Y-78625241D01*
X195940715Y-78624760D01*
X195431485Y-78835169D01*
X195041539Y-79224436D01*
X194830241Y-79733298D01*
X194830111Y-79882527D01*
X194446211Y-79958890D01*
X194362630Y-80170128D01*
X177379043Y-80170128D01*
X177315564Y-80106539D01*
X176806702Y-79895241D01*
X176645101Y-79895100D01*
X176645240Y-79735715D01*
X176434831Y-79226485D01*
X176045564Y-78836539D01*
X175536702Y-78625241D01*
X174985715Y-78624760D01*
X174476485Y-78835169D01*
X174086539Y-79224436D01*
X173875241Y-79733298D01*
X173875111Y-79882527D01*
X173491211Y-79958890D01*
X173407630Y-80170128D01*
X156424043Y-80170128D01*
X156360564Y-80106539D01*
X155851702Y-79895241D01*
X155690101Y-79895100D01*
X155690240Y-79735715D01*
X155479831Y-79226485D01*
X155090564Y-78836539D01*
X154581702Y-78625241D01*
X154030715Y-78624760D01*
X153521485Y-78835169D01*
X153131539Y-79224436D01*
X152920241Y-79733298D01*
X152920111Y-79882527D01*
X152536211Y-79958890D01*
X152452630Y-80170128D01*
X135469043Y-80170128D01*
X135405564Y-80106539D01*
X134896702Y-79895241D01*
X134735101Y-79895100D01*
X134735240Y-79735715D01*
X134524831Y-79226485D01*
X134135564Y-78836539D01*
X133626702Y-78625241D01*
X133075715Y-78624760D01*
X132566485Y-78835169D01*
X132176539Y-79224436D01*
X131965241Y-79733298D01*
X131965111Y-79882527D01*
X131581211Y-79958890D01*
X131497630Y-80170128D01*
X114514043Y-80170128D01*
X114450564Y-80106539D01*
X113941702Y-79895241D01*
X113780101Y-79895100D01*
X113780240Y-79735715D01*
X113569831Y-79226485D01*
X113180564Y-78836539D01*
X112671702Y-78625241D01*
X112120715Y-78624760D01*
X111611485Y-78835169D01*
X111221539Y-79224436D01*
X111010241Y-79733298D01*
X111010111Y-79882527D01*
X110626211Y-79958890D01*
X110542630Y-80170128D01*
X111125000Y-80752498D01*
X111139142Y-80738356D01*
X111666644Y-81265858D01*
X111652502Y-81280000D01*
X112234872Y-81862370D01*
X112382863Y-81803814D01*
X112490169Y-82063515D01*
X112879436Y-82453461D01*
X113180804Y-82578600D01*
X111632696Y-82578600D01*
X111707370Y-82389872D01*
X111125000Y-81807502D01*
X110542630Y-82389872D01*
X110617304Y-82578600D01*
X108809249Y-82578600D01*
X108949206Y-82241547D01*
X108949774Y-81591306D01*
X108839634Y-81324746D01*
X109713575Y-81324746D01*
X109803890Y-81778789D01*
X110015128Y-81862370D01*
X110597498Y-81280000D01*
X110015128Y-80697630D01*
X109803890Y-80781211D01*
X109713575Y-81324746D01*
X108839634Y-81324746D01*
X108701462Y-80990345D01*
X108242073Y-80530154D01*
X107641547Y-80280794D01*
X106991306Y-80280226D01*
X106390345Y-80528538D01*
X105930154Y-80987927D01*
X105680794Y-81588453D01*
X105680226Y-82238694D01*
X105820672Y-82578600D01*
X98653600Y-82578600D01*
X98648858Y-82579543D01*
X98789206Y-82241547D01*
X98789774Y-81591306D01*
X98541462Y-80990345D01*
X98082073Y-80530154D01*
X97481547Y-80280794D01*
X96831306Y-80280226D01*
X96230345Y-80528538D01*
X95770154Y-80987927D01*
X95520794Y-81588453D01*
X95520226Y-82238694D01*
X95558298Y-82330834D01*
X95158132Y-82731000D01*
X87790968Y-82731000D01*
X87932616Y-82389872D01*
X89587630Y-82389872D01*
X89671211Y-82601110D01*
X90214746Y-82691425D01*
X90668789Y-82601110D01*
X90752370Y-82389872D01*
X90170000Y-81807502D01*
X89587630Y-82389872D01*
X87932616Y-82389872D01*
X87994206Y-82241547D01*
X87994774Y-81591306D01*
X87884634Y-81324746D01*
X88758575Y-81324746D01*
X88848890Y-81778789D01*
X89060128Y-81862370D01*
X89642498Y-81280000D01*
X89060128Y-80697630D01*
X88848890Y-80781211D01*
X88758575Y-81324746D01*
X87884634Y-81324746D01*
X87746462Y-80990345D01*
X87287073Y-80530154D01*
X86686547Y-80280794D01*
X86036306Y-80280226D01*
X85435345Y-80528538D01*
X84975154Y-80987927D01*
X84725794Y-81588453D01*
X84725226Y-82238694D01*
X84928643Y-82731000D01*
X77630968Y-82731000D01*
X77834206Y-82241547D01*
X77834774Y-81591306D01*
X77586462Y-80990345D01*
X77127073Y-80530154D01*
X76526547Y-80280794D01*
X75876306Y-80280226D01*
X75275345Y-80528538D01*
X74815154Y-80987927D01*
X74776922Y-81080000D01*
X73787000Y-81080000D01*
X73787000Y-80170128D01*
X89587630Y-80170128D01*
X90170000Y-80752498D01*
X90184142Y-80738356D01*
X90711644Y-81265858D01*
X90697502Y-81280000D01*
X91279872Y-81862370D01*
X91427863Y-81803814D01*
X91535169Y-82063515D01*
X91924436Y-82453461D01*
X92433298Y-82664759D01*
X92984285Y-82665240D01*
X93493515Y-82454831D01*
X93883461Y-82065564D01*
X94094759Y-81556702D01*
X94095240Y-81005715D01*
X93884831Y-80496485D01*
X93495564Y-80106539D01*
X92986702Y-79895241D01*
X92825101Y-79895100D01*
X92825240Y-79735715D01*
X92614831Y-79226485D01*
X92225564Y-78836539D01*
X91716702Y-78625241D01*
X91165715Y-78624760D01*
X90656485Y-78835169D01*
X90266539Y-79224436D01*
X90055241Y-79733298D01*
X90055111Y-79882527D01*
X89671211Y-79958890D01*
X89587630Y-80170128D01*
X73787000Y-80170128D01*
X73787000Y-78904868D01*
X74183668Y-78508200D01*
X220776800Y-78508200D01*
X221096341Y-78444639D01*
X221367234Y-78263634D01*
X224586045Y-75044823D01*
X225064285Y-75045240D01*
X225573515Y-74834831D01*
X225963461Y-74445564D01*
X226155246Y-73983694D01*
X226965226Y-73983694D01*
X227213538Y-74584655D01*
X227672927Y-75044846D01*
X228273453Y-75294206D01*
X228923694Y-75294774D01*
X229524655Y-75046462D01*
X229984846Y-74587073D01*
X230234206Y-73986547D01*
X230234774Y-73336306D01*
X229986462Y-72735345D01*
X229527073Y-72275154D01*
X228926547Y-72025794D01*
X228276306Y-72025226D01*
X227675345Y-72273538D01*
X227215154Y-72732927D01*
X226965794Y-73333453D01*
X226965226Y-73983694D01*
X226155246Y-73983694D01*
X226174759Y-73936702D01*
X226175240Y-73385715D01*
X225964831Y-72876485D01*
X225575564Y-72486539D01*
X225066702Y-72275241D01*
X224905101Y-72275100D01*
X224905240Y-72115715D01*
X224694831Y-71606485D01*
X224355000Y-71266061D01*
X224355000Y-68098507D01*
X224444655Y-68061462D01*
X224904846Y-67602073D01*
X225154206Y-67001547D01*
X225154774Y-66351306D01*
X224906462Y-65750345D01*
X224447073Y-65290154D01*
X223846547Y-65040794D01*
X223196306Y-65040226D01*
X222595345Y-65288538D01*
X222135154Y-65747927D01*
X221885794Y-66348453D01*
X221885226Y-66998694D01*
X222133538Y-67599655D01*
X222592927Y-68059846D01*
X222685000Y-68098078D01*
X222685000Y-71266564D01*
X222346539Y-71604436D01*
X222135241Y-72113298D01*
X222135111Y-72262527D01*
X221751211Y-72338890D01*
X221667630Y-72550128D01*
X222250000Y-73132498D01*
X222264142Y-73118356D01*
X222791644Y-73645858D01*
X222777502Y-73660000D01*
X222791644Y-73674142D01*
X222264142Y-74201644D01*
X222250000Y-74187502D01*
X221667630Y-74769872D01*
X221751211Y-74981110D01*
X222211534Y-75057598D01*
X220430932Y-76838200D01*
X201837668Y-76838200D01*
X203631045Y-75044823D01*
X204109285Y-75045240D01*
X204618515Y-74834831D01*
X205008461Y-74445564D01*
X205200246Y-73983694D01*
X206010226Y-73983694D01*
X206258538Y-74584655D01*
X206717927Y-75044846D01*
X207318453Y-75294206D01*
X207968694Y-75294774D01*
X208569655Y-75046462D01*
X209029846Y-74587073D01*
X209279206Y-73986547D01*
X209279774Y-73336306D01*
X209031462Y-72735345D01*
X208572073Y-72275154D01*
X207971547Y-72025794D01*
X207321306Y-72025226D01*
X206720345Y-72273538D01*
X206260154Y-72732927D01*
X206010794Y-73333453D01*
X206010226Y-73983694D01*
X205200246Y-73983694D01*
X205219759Y-73936702D01*
X205220240Y-73385715D01*
X205009831Y-72876485D01*
X204620564Y-72486539D01*
X204111702Y-72275241D01*
X203950101Y-72275100D01*
X203950240Y-72115715D01*
X203739831Y-71606485D01*
X203400000Y-71266061D01*
X203400000Y-68098507D01*
X203489655Y-68061462D01*
X203949846Y-67602073D01*
X204199206Y-67001547D01*
X204199774Y-66351306D01*
X203951462Y-65750345D01*
X203492073Y-65290154D01*
X202891547Y-65040794D01*
X202241306Y-65040226D01*
X201640345Y-65288538D01*
X201180154Y-65747927D01*
X200930794Y-66348453D01*
X200930226Y-66998694D01*
X201178538Y-67599655D01*
X201637927Y-68059846D01*
X201730000Y-68098078D01*
X201730000Y-71266564D01*
X201391539Y-71604436D01*
X201180241Y-72113298D01*
X201180111Y-72262527D01*
X200796211Y-72338890D01*
X200712630Y-72550128D01*
X201295000Y-73132498D01*
X201309142Y-73118356D01*
X201836644Y-73645858D01*
X201822502Y-73660000D01*
X201836644Y-73674142D01*
X201309142Y-74201644D01*
X201295000Y-74187502D01*
X200712630Y-74769872D01*
X200796211Y-74981110D01*
X201256534Y-75057598D01*
X200095130Y-76219002D01*
X181501866Y-76219002D01*
X182676045Y-75044823D01*
X183154285Y-75045240D01*
X183663515Y-74834831D01*
X184053461Y-74445564D01*
X184245246Y-73983694D01*
X185055226Y-73983694D01*
X185303538Y-74584655D01*
X185762927Y-75044846D01*
X186363453Y-75294206D01*
X187013694Y-75294774D01*
X187614655Y-75046462D01*
X188074846Y-74587073D01*
X188324206Y-73986547D01*
X188324774Y-73336306D01*
X188076462Y-72735345D01*
X187617073Y-72275154D01*
X187016547Y-72025794D01*
X186366306Y-72025226D01*
X185765345Y-72273538D01*
X185305154Y-72732927D01*
X185055794Y-73333453D01*
X185055226Y-73983694D01*
X184245246Y-73983694D01*
X184264759Y-73936702D01*
X184265240Y-73385715D01*
X184054831Y-72876485D01*
X183665564Y-72486539D01*
X183156702Y-72275241D01*
X182995101Y-72275100D01*
X182995240Y-72115715D01*
X182784831Y-71606485D01*
X182445000Y-71266061D01*
X182445000Y-68098507D01*
X182534655Y-68061462D01*
X182994846Y-67602073D01*
X183244206Y-67001547D01*
X183244774Y-66351306D01*
X182996462Y-65750345D01*
X182537073Y-65290154D01*
X181936547Y-65040794D01*
X181286306Y-65040226D01*
X180685345Y-65288538D01*
X180225154Y-65747927D01*
X179975794Y-66348453D01*
X179975226Y-66998694D01*
X180223538Y-67599655D01*
X180682927Y-68059846D01*
X180775000Y-68098078D01*
X180775000Y-71266564D01*
X180436539Y-71604436D01*
X180225241Y-72113298D01*
X180225111Y-72262527D01*
X179841211Y-72338890D01*
X179757630Y-72550128D01*
X180340000Y-73132498D01*
X180354142Y-73118356D01*
X180881644Y-73645858D01*
X180867502Y-73660000D01*
X180881644Y-73674142D01*
X180354142Y-74201644D01*
X180340000Y-74187502D01*
X179757630Y-74769872D01*
X179841211Y-74981110D01*
X180301534Y-75057598D01*
X179740132Y-75619000D01*
X161146868Y-75619000D01*
X161721045Y-75044823D01*
X162199285Y-75045240D01*
X162708515Y-74834831D01*
X163098461Y-74445564D01*
X163290246Y-73983694D01*
X164100226Y-73983694D01*
X164348538Y-74584655D01*
X164807927Y-75044846D01*
X165408453Y-75294206D01*
X166058694Y-75294774D01*
X166659655Y-75046462D01*
X167119846Y-74587073D01*
X167369206Y-73986547D01*
X167369208Y-73983694D01*
X174260226Y-73983694D01*
X174508538Y-74584655D01*
X174967927Y-75044846D01*
X175568453Y-75294206D01*
X176218694Y-75294774D01*
X176819655Y-75046462D01*
X177279846Y-74587073D01*
X177529206Y-73986547D01*
X177529452Y-73704746D01*
X178928575Y-73704746D01*
X179018890Y-74158789D01*
X179230128Y-74242370D01*
X179812498Y-73660000D01*
X179230128Y-73077630D01*
X179018890Y-73161211D01*
X178928575Y-73704746D01*
X177529452Y-73704746D01*
X177529774Y-73336306D01*
X177281462Y-72735345D01*
X176822073Y-72275154D01*
X176221547Y-72025794D01*
X175571306Y-72025226D01*
X174970345Y-72273538D01*
X174510154Y-72732927D01*
X174260794Y-73333453D01*
X174260226Y-73983694D01*
X167369208Y-73983694D01*
X167369774Y-73336306D01*
X167121462Y-72735345D01*
X166662073Y-72275154D01*
X166061547Y-72025794D01*
X165411306Y-72025226D01*
X164810345Y-72273538D01*
X164350154Y-72732927D01*
X164100794Y-73333453D01*
X164100226Y-73983694D01*
X163290246Y-73983694D01*
X163309759Y-73936702D01*
X163310240Y-73385715D01*
X163099831Y-72876485D01*
X162710564Y-72486539D01*
X162201702Y-72275241D01*
X162040101Y-72275100D01*
X162040240Y-72115715D01*
X161829831Y-71606485D01*
X161440564Y-71216539D01*
X160931702Y-71005241D01*
X160380715Y-71004760D01*
X159871485Y-71215169D01*
X159481539Y-71604436D01*
X159270241Y-72113298D01*
X159270111Y-72262527D01*
X158886211Y-72338890D01*
X158802630Y-72550128D01*
X159385000Y-73132498D01*
X159399142Y-73118356D01*
X159926644Y-73645858D01*
X159912502Y-73660000D01*
X159926644Y-73674142D01*
X159399142Y-74201644D01*
X159385000Y-74187502D01*
X158802630Y-74769872D01*
X158857204Y-74907800D01*
X156003559Y-74907800D01*
X156324846Y-74587073D01*
X156574206Y-73986547D01*
X156574452Y-73704746D01*
X157973575Y-73704746D01*
X158063890Y-74158789D01*
X158275128Y-74242370D01*
X158857498Y-73660000D01*
X158275128Y-73077630D01*
X158063890Y-73161211D01*
X157973575Y-73704746D01*
X156574452Y-73704746D01*
X156574774Y-73336306D01*
X156326462Y-72735345D01*
X155867073Y-72275154D01*
X155266547Y-72025794D01*
X154616306Y-72025226D01*
X154015345Y-72273538D01*
X153555154Y-72732927D01*
X153305794Y-73333453D01*
X153305226Y-73983694D01*
X153553538Y-74584655D01*
X153876120Y-74907800D01*
X145843559Y-74907800D01*
X146164846Y-74587073D01*
X146414206Y-73986547D01*
X146414774Y-73336306D01*
X146166462Y-72735345D01*
X145707073Y-72275154D01*
X145106547Y-72025794D01*
X144456306Y-72025226D01*
X144364166Y-72063298D01*
X140439029Y-68138161D01*
X140624655Y-68061462D01*
X141084846Y-67602073D01*
X141334206Y-67001547D01*
X141334208Y-66998694D01*
X148225226Y-66998694D01*
X148473538Y-67599655D01*
X148932927Y-68059846D01*
X149533453Y-68309206D01*
X150183694Y-68309774D01*
X150784655Y-68061462D01*
X151244846Y-67602073D01*
X151494206Y-67001547D01*
X151494208Y-66998694D01*
X159020226Y-66998694D01*
X159268538Y-67599655D01*
X159727927Y-68059846D01*
X160328453Y-68309206D01*
X160978694Y-68309774D01*
X161579655Y-68061462D01*
X162039846Y-67602073D01*
X162289206Y-67001547D01*
X162289208Y-66998694D01*
X169180226Y-66998694D01*
X169428538Y-67599655D01*
X169887927Y-68059846D01*
X170488453Y-68309206D01*
X171138694Y-68309774D01*
X171739655Y-68061462D01*
X172199846Y-67602073D01*
X172449206Y-67001547D01*
X172449774Y-66351306D01*
X172201462Y-65750345D01*
X171742073Y-65290154D01*
X171141547Y-65040794D01*
X170491306Y-65040226D01*
X169890345Y-65288538D01*
X169430154Y-65747927D01*
X169180794Y-66348453D01*
X169180226Y-66998694D01*
X162289208Y-66998694D01*
X162289774Y-66351306D01*
X162041462Y-65750345D01*
X161582073Y-65290154D01*
X160981547Y-65040794D01*
X160331306Y-65040226D01*
X159730345Y-65288538D01*
X159270154Y-65747927D01*
X159020794Y-66348453D01*
X159020226Y-66998694D01*
X151494208Y-66998694D01*
X151494774Y-66351306D01*
X151246462Y-65750345D01*
X150787073Y-65290154D01*
X150186547Y-65040794D01*
X149536306Y-65040226D01*
X148935345Y-65288538D01*
X148475154Y-65747927D01*
X148225794Y-66348453D01*
X148225226Y-66998694D01*
X141334208Y-66998694D01*
X141334774Y-66351306D01*
X141086462Y-65750345D01*
X140627073Y-65290154D01*
X140026547Y-65040794D01*
X139376306Y-65040226D01*
X138775345Y-65288538D01*
X138315154Y-65747927D01*
X138065794Y-66348453D01*
X138065226Y-66998694D01*
X138313538Y-67599655D01*
X138417500Y-67703798D01*
X130187943Y-67703798D01*
X130289846Y-67602073D01*
X130539206Y-67001547D01*
X130539774Y-66351306D01*
X130291462Y-65750345D01*
X129832073Y-65290154D01*
X129231547Y-65040794D01*
X128581306Y-65040226D01*
X127980345Y-65288538D01*
X127520154Y-65747927D01*
X127270794Y-66348453D01*
X127270226Y-66998694D01*
X127518538Y-67599655D01*
X127622500Y-67703798D01*
X120027943Y-67703798D01*
X120129846Y-67602073D01*
X120379206Y-67001547D01*
X120379774Y-66351306D01*
X120131462Y-65750345D01*
X119672073Y-65290154D01*
X119071547Y-65040794D01*
X118421306Y-65040226D01*
X117820345Y-65288538D01*
X117360154Y-65747927D01*
X117110794Y-66348453D01*
X117110226Y-66998694D01*
X117358538Y-67599655D01*
X117462500Y-67703798D01*
X109232943Y-67703798D01*
X109334846Y-67602073D01*
X109584206Y-67001547D01*
X109584774Y-66351306D01*
X109336462Y-65750345D01*
X108877073Y-65290154D01*
X108276547Y-65040794D01*
X107626306Y-65040226D01*
X107025345Y-65288538D01*
X106565154Y-65747927D01*
X106315794Y-66348453D01*
X106315226Y-66998694D01*
X106563538Y-67599655D01*
X106667500Y-67703798D01*
X99072943Y-67703798D01*
X99174846Y-67602073D01*
X99424206Y-67001547D01*
X99424774Y-66351306D01*
X99176462Y-65750345D01*
X98717073Y-65290154D01*
X98116547Y-65040794D01*
X97466306Y-65040226D01*
X96865345Y-65288538D01*
X96405154Y-65747927D01*
X96155794Y-66348453D01*
X96155226Y-66998694D01*
X96403538Y-67599655D01*
X96507500Y-67703798D01*
X88277943Y-67703798D01*
X88379846Y-67602073D01*
X88629206Y-67001547D01*
X88629774Y-66351306D01*
X88381462Y-65750345D01*
X87922073Y-65290154D01*
X87321547Y-65040794D01*
X86671306Y-65040226D01*
X86070345Y-65288538D01*
X85610154Y-65747927D01*
X85360794Y-66348453D01*
X85360226Y-66998694D01*
X85608538Y-67599655D01*
X85712500Y-67703798D01*
X78117943Y-67703798D01*
X78219846Y-67602073D01*
X78469206Y-67001547D01*
X78469774Y-66351306D01*
X78221462Y-65750345D01*
X77762073Y-65290154D01*
X77161547Y-65040794D01*
X76511306Y-65040226D01*
X75910345Y-65288538D01*
X75450154Y-65747927D01*
X75200794Y-66348453D01*
X75200226Y-66998694D01*
X75448538Y-67599655D01*
X75552500Y-67703798D01*
X73787000Y-67703798D01*
X73787000Y-64897000D01*
X174573784Y-64897000D01*
X174593169Y-64943915D01*
G36*
X101272995Y-73243863D02*
X101235794Y-73333453D01*
X101235226Y-73983694D01*
X101483538Y-74584655D01*
X101806120Y-74907800D01*
X99666916Y-74907800D01*
X99843515Y-74834831D01*
X100233461Y-74445564D01*
X100444759Y-73936702D01*
X100445240Y-73385715D01*
X100234831Y-72876485D01*
X99845564Y-72486539D01*
X99336702Y-72275241D01*
X99175101Y-72275100D01*
X99175240Y-72115715D01*
X98964831Y-71606485D01*
X98575564Y-71216539D01*
X98066702Y-71005241D01*
X97515715Y-71004760D01*
X97006485Y-71215169D01*
X96616539Y-71604436D01*
X96405241Y-72113298D01*
X96405111Y-72262527D01*
X96021211Y-72338890D01*
X95937630Y-72550128D01*
X96520000Y-73132498D01*
X96534142Y-73118356D01*
X97061644Y-73645858D01*
X97047502Y-73660000D01*
X97629872Y-74242370D01*
X97777863Y-74183814D01*
X97885169Y-74443515D01*
X98274436Y-74833461D01*
X98453464Y-74907800D01*
X97047796Y-74907800D01*
X97102370Y-74769872D01*
X96520000Y-74187502D01*
X95937630Y-74769872D01*
X95992204Y-74907800D01*
X92503559Y-74907800D01*
X92824846Y-74587073D01*
X93074206Y-73986547D01*
X93074452Y-73704746D01*
X95108575Y-73704746D01*
X95198890Y-74158789D01*
X95410128Y-74242370D01*
X95992498Y-73660000D01*
X95410128Y-73077630D01*
X95198890Y-73161211D01*
X95108575Y-73704746D01*
X93074452Y-73704746D01*
X93074774Y-73336306D01*
X92826462Y-72735345D01*
X92367073Y-72275154D01*
X91766547Y-72025794D01*
X91116306Y-72025226D01*
X91024166Y-72063298D01*
X89544268Y-70583400D01*
X98612532Y-70583400D01*
X101272995Y-73243863D01*
X101272995Y-73243863D01*
G37*
X101272995Y-73243863D02*
X101235794Y-73333453D01*
X101235226Y-73983694D01*
X101483538Y-74584655D01*
X101806120Y-74907800D01*
X99666916Y-74907800D01*
X99843515Y-74834831D01*
X100233461Y-74445564D01*
X100444759Y-73936702D01*
X100445240Y-73385715D01*
X100234831Y-72876485D01*
X99845564Y-72486539D01*
X99336702Y-72275241D01*
X99175101Y-72275100D01*
X99175240Y-72115715D01*
X98964831Y-71606485D01*
X98575564Y-71216539D01*
X98066702Y-71005241D01*
X97515715Y-71004760D01*
X97006485Y-71215169D01*
X96616539Y-71604436D01*
X96405241Y-72113298D01*
X96405111Y-72262527D01*
X96021211Y-72338890D01*
X95937630Y-72550128D01*
X96520000Y-73132498D01*
X96534142Y-73118356D01*
X97061644Y-73645858D01*
X97047502Y-73660000D01*
X97629872Y-74242370D01*
X97777863Y-74183814D01*
X97885169Y-74443515D01*
X98274436Y-74833461D01*
X98453464Y-74907800D01*
X97047796Y-74907800D01*
X97102370Y-74769872D01*
X96520000Y-74187502D01*
X95937630Y-74769872D01*
X95992204Y-74907800D01*
X92503559Y-74907800D01*
X92824846Y-74587073D01*
X93074206Y-73986547D01*
X93074452Y-73704746D01*
X95108575Y-73704746D01*
X95198890Y-74158789D01*
X95410128Y-74242370D01*
X95992498Y-73660000D01*
X95410128Y-73077630D01*
X95198890Y-73161211D01*
X95108575Y-73704746D01*
X93074452Y-73704746D01*
X93074774Y-73336306D01*
X92826462Y-72735345D01*
X92367073Y-72275154D01*
X91766547Y-72025794D01*
X91116306Y-72025226D01*
X91024166Y-72063298D01*
X89544268Y-70583400D01*
X98612532Y-70583400D01*
X101272995Y-73243863D01*
G36*
X143182995Y-73243863D02*
X143145794Y-73333453D01*
X143145226Y-73983694D01*
X143393538Y-74584655D01*
X143716120Y-74907800D01*
X141576916Y-74907800D01*
X141753515Y-74834831D01*
X142143461Y-74445564D01*
X142354759Y-73936702D01*
X142355240Y-73385715D01*
X142144831Y-72876485D01*
X141755564Y-72486539D01*
X141246702Y-72275241D01*
X141085101Y-72275100D01*
X141085240Y-72115715D01*
X140874831Y-71606485D01*
X140485564Y-71216539D01*
X139976702Y-71005241D01*
X139425715Y-71004760D01*
X138916485Y-71215169D01*
X138526539Y-71604436D01*
X138315241Y-72113298D01*
X138315111Y-72262527D01*
X137931211Y-72338890D01*
X137847630Y-72550128D01*
X138430000Y-73132498D01*
X138444142Y-73118356D01*
X138971644Y-73645858D01*
X138957502Y-73660000D01*
X139539872Y-74242370D01*
X139687863Y-74183814D01*
X139795169Y-74443515D01*
X140184436Y-74833461D01*
X140363464Y-74907800D01*
X138957796Y-74907800D01*
X139012370Y-74769872D01*
X138430000Y-74187502D01*
X137847630Y-74769872D01*
X137902204Y-74907800D01*
X135048559Y-74907800D01*
X135369846Y-74587073D01*
X135619206Y-73986547D01*
X135619452Y-73704746D01*
X137018575Y-73704746D01*
X137108890Y-74158789D01*
X137320128Y-74242370D01*
X137902498Y-73660000D01*
X137320128Y-73077630D01*
X137108890Y-73161211D01*
X137018575Y-73704746D01*
X135619452Y-73704746D01*
X135619774Y-73336306D01*
X135371462Y-72735345D01*
X134912073Y-72275154D01*
X134311547Y-72025794D01*
X133661306Y-72025226D01*
X133060345Y-72273538D01*
X132600154Y-72732927D01*
X132350794Y-73333453D01*
X132350226Y-73983694D01*
X132598538Y-74584655D01*
X132921120Y-74907800D01*
X124888559Y-74907800D01*
X125209846Y-74587073D01*
X125459206Y-73986547D01*
X125459774Y-73336306D01*
X125211462Y-72735345D01*
X124752073Y-72275154D01*
X124151547Y-72025794D01*
X123501306Y-72025226D01*
X123409166Y-72063298D01*
X120719666Y-69373798D01*
X139312930Y-69373798D01*
X143182995Y-73243863D01*
X143182995Y-73243863D01*
G37*
X143182995Y-73243863D02*
X143145794Y-73333453D01*
X143145226Y-73983694D01*
X143393538Y-74584655D01*
X143716120Y-74907800D01*
X141576916Y-74907800D01*
X141753515Y-74834831D01*
X142143461Y-74445564D01*
X142354759Y-73936702D01*
X142355240Y-73385715D01*
X142144831Y-72876485D01*
X141755564Y-72486539D01*
X141246702Y-72275241D01*
X141085101Y-72275100D01*
X141085240Y-72115715D01*
X140874831Y-71606485D01*
X140485564Y-71216539D01*
X139976702Y-71005241D01*
X139425715Y-71004760D01*
X138916485Y-71215169D01*
X138526539Y-71604436D01*
X138315241Y-72113298D01*
X138315111Y-72262527D01*
X137931211Y-72338890D01*
X137847630Y-72550128D01*
X138430000Y-73132498D01*
X138444142Y-73118356D01*
X138971644Y-73645858D01*
X138957502Y-73660000D01*
X139539872Y-74242370D01*
X139687863Y-74183814D01*
X139795169Y-74443515D01*
X140184436Y-74833461D01*
X140363464Y-74907800D01*
X138957796Y-74907800D01*
X139012370Y-74769872D01*
X138430000Y-74187502D01*
X137847630Y-74769872D01*
X137902204Y-74907800D01*
X135048559Y-74907800D01*
X135369846Y-74587073D01*
X135619206Y-73986547D01*
X135619452Y-73704746D01*
X137018575Y-73704746D01*
X137108890Y-74158789D01*
X137320128Y-74242370D01*
X137902498Y-73660000D01*
X137320128Y-73077630D01*
X137108890Y-73161211D01*
X137018575Y-73704746D01*
X135619452Y-73704746D01*
X135619774Y-73336306D01*
X135371462Y-72735345D01*
X134912073Y-72275154D01*
X134311547Y-72025794D01*
X133661306Y-72025226D01*
X133060345Y-72273538D01*
X132600154Y-72732927D01*
X132350794Y-73333453D01*
X132350226Y-73983694D01*
X132598538Y-74584655D01*
X132921120Y-74907800D01*
X124888559Y-74907800D01*
X125209846Y-74587073D01*
X125459206Y-73986547D01*
X125459774Y-73336306D01*
X125211462Y-72735345D01*
X124752073Y-72275154D01*
X124151547Y-72025794D01*
X123501306Y-72025226D01*
X123409166Y-72063298D01*
X120719666Y-69373798D01*
X139312930Y-69373798D01*
X143182995Y-73243863D01*
G36*
X122227995Y-73243863D02*
X122190794Y-73333453D01*
X122190226Y-73983694D01*
X122438538Y-74584655D01*
X122761120Y-74907800D01*
X120621916Y-74907800D01*
X120798515Y-74834831D01*
X121188461Y-74445564D01*
X121399759Y-73936702D01*
X121400240Y-73385715D01*
X121189831Y-72876485D01*
X120800564Y-72486539D01*
X120291702Y-72275241D01*
X120130101Y-72275100D01*
X120130240Y-72115715D01*
X119919831Y-71606485D01*
X119530564Y-71216539D01*
X119021702Y-71005241D01*
X118470715Y-71004760D01*
X117961485Y-71215169D01*
X117571539Y-71604436D01*
X117360241Y-72113298D01*
X117360111Y-72262527D01*
X116976211Y-72338890D01*
X116892630Y-72550128D01*
X117475000Y-73132498D01*
X117489142Y-73118356D01*
X118016644Y-73645858D01*
X118002502Y-73660000D01*
X118584872Y-74242370D01*
X118732863Y-74183814D01*
X118840169Y-74443515D01*
X119229436Y-74833461D01*
X119408464Y-74907800D01*
X118002796Y-74907800D01*
X118057370Y-74769872D01*
X117475000Y-74187502D01*
X116892630Y-74769872D01*
X116947204Y-74907800D01*
X114093559Y-74907800D01*
X114414846Y-74587073D01*
X114664206Y-73986547D01*
X114664452Y-73704746D01*
X116063575Y-73704746D01*
X116153890Y-74158789D01*
X116365128Y-74242370D01*
X116947498Y-73660000D01*
X116365128Y-73077630D01*
X116153890Y-73161211D01*
X116063575Y-73704746D01*
X114664452Y-73704746D01*
X114664774Y-73336306D01*
X114416462Y-72735345D01*
X113957073Y-72275154D01*
X113356547Y-72025794D01*
X112706306Y-72025226D01*
X112105345Y-72273538D01*
X111645154Y-72732927D01*
X111395794Y-73333453D01*
X111395226Y-73983694D01*
X111643538Y-74584655D01*
X111966120Y-74907800D01*
X103933559Y-74907800D01*
X104254846Y-74587073D01*
X104504206Y-73986547D01*
X104504774Y-73336306D01*
X104256462Y-72735345D01*
X103797073Y-72275154D01*
X103196547Y-72025794D01*
X102546306Y-72025226D01*
X102454166Y-72063298D01*
X100364668Y-69973800D01*
X118957932Y-69973800D01*
X122227995Y-73243863D01*
X122227995Y-73243863D01*
G37*
X122227995Y-73243863D02*
X122190794Y-73333453D01*
X122190226Y-73983694D01*
X122438538Y-74584655D01*
X122761120Y-74907800D01*
X120621916Y-74907800D01*
X120798515Y-74834831D01*
X121188461Y-74445564D01*
X121399759Y-73936702D01*
X121400240Y-73385715D01*
X121189831Y-72876485D01*
X120800564Y-72486539D01*
X120291702Y-72275241D01*
X120130101Y-72275100D01*
X120130240Y-72115715D01*
X119919831Y-71606485D01*
X119530564Y-71216539D01*
X119021702Y-71005241D01*
X118470715Y-71004760D01*
X117961485Y-71215169D01*
X117571539Y-71604436D01*
X117360241Y-72113298D01*
X117360111Y-72262527D01*
X116976211Y-72338890D01*
X116892630Y-72550128D01*
X117475000Y-73132498D01*
X117489142Y-73118356D01*
X118016644Y-73645858D01*
X118002502Y-73660000D01*
X118584872Y-74242370D01*
X118732863Y-74183814D01*
X118840169Y-74443515D01*
X119229436Y-74833461D01*
X119408464Y-74907800D01*
X118002796Y-74907800D01*
X118057370Y-74769872D01*
X117475000Y-74187502D01*
X116892630Y-74769872D01*
X116947204Y-74907800D01*
X114093559Y-74907800D01*
X114414846Y-74587073D01*
X114664206Y-73986547D01*
X114664452Y-73704746D01*
X116063575Y-73704746D01*
X116153890Y-74158789D01*
X116365128Y-74242370D01*
X116947498Y-73660000D01*
X116365128Y-73077630D01*
X116153890Y-73161211D01*
X116063575Y-73704746D01*
X114664452Y-73704746D01*
X114664774Y-73336306D01*
X114416462Y-72735345D01*
X113957073Y-72275154D01*
X113356547Y-72025794D01*
X112706306Y-72025226D01*
X112105345Y-72273538D01*
X111645154Y-72732927D01*
X111395794Y-73333453D01*
X111395226Y-73983694D01*
X111643538Y-74584655D01*
X111966120Y-74907800D01*
X103933559Y-74907800D01*
X104254846Y-74587073D01*
X104504206Y-73986547D01*
X104504774Y-73336306D01*
X104256462Y-72735345D01*
X103797073Y-72275154D01*
X103196547Y-72025794D01*
X102546306Y-72025226D01*
X102454166Y-72063298D01*
X100364668Y-69973800D01*
X118957932Y-69973800D01*
X122227995Y-73243863D01*
G36*
X75450241Y-72113298D02*
X75450111Y-72262527D01*
X75066211Y-72338890D01*
X74982630Y-72550128D01*
X75565000Y-73132498D01*
X75579142Y-73118356D01*
X76106644Y-73645858D01*
X76092502Y-73660000D01*
X76106644Y-73674142D01*
X75761986Y-74018800D01*
X75368014Y-74018800D01*
X75023356Y-73674142D01*
X75037498Y-73660000D01*
X74455128Y-73077630D01*
X74243890Y-73161211D01*
X74221689Y-73294821D01*
X73787000Y-72860132D01*
X73787000Y-72378111D01*
X73934285Y-72378240D01*
X74443515Y-72167831D01*
X74783939Y-71828000D01*
X75568707Y-71828000D01*
X75450241Y-72113298D01*
X75450241Y-72113298D01*
G37*
X75450241Y-72113298D02*
X75450111Y-72262527D01*
X75066211Y-72338890D01*
X74982630Y-72550128D01*
X75565000Y-73132498D01*
X75579142Y-73118356D01*
X76106644Y-73645858D01*
X76092502Y-73660000D01*
X76106644Y-73674142D01*
X75761986Y-74018800D01*
X75368014Y-74018800D01*
X75023356Y-73674142D01*
X75037498Y-73660000D01*
X74455128Y-73077630D01*
X74243890Y-73161211D01*
X74221689Y-73294821D01*
X73787000Y-72860132D01*
X73787000Y-72378111D01*
X73934285Y-72378240D01*
X74443515Y-72167831D01*
X74783939Y-71828000D01*
X75568707Y-71828000D01*
X75450241Y-72113298D01*
M02*
