G04 #@! TF.FileFunction,Copper,L1,Top,Signal*
%FSLAX46Y46*%
G04 Gerber Fmt 4.6, Leading zero omitted, Abs format (unit mm)*
G04 Created by KiCad (PCBNEW 4.0.2-stable) date 9/15/2016 10:46:59 AM*
%MOMM*%
G01*
G04 APERTURE LIST*
%ADD10C,0.100000*%
%ADD11C,1.998980*%
%ADD12R,1.998980X1.998980*%
%ADD13C,2.500000*%
%ADD14R,2.286000X1.574800*%
%ADD15O,2.286000X1.574800*%
%ADD16C,2.000000*%
%ADD17C,1.500000*%
%ADD18C,0.250000*%
%ADD19C,0.254000*%
G04 APERTURE END LIST*
D10*
D11*
X239392460Y-85090000D03*
D12*
X239392460Y-95250000D03*
D11*
X218437460Y-85090000D03*
D12*
X218437460Y-95250000D03*
D11*
X197482460Y-85090000D03*
D12*
X197482460Y-95250000D03*
D11*
X176527460Y-85090000D03*
D12*
X176527460Y-95250000D03*
D11*
X155572460Y-85090000D03*
D12*
X155572460Y-95250000D03*
D11*
X134617460Y-85090000D03*
D12*
X134617460Y-95250000D03*
D11*
X113662460Y-85090000D03*
D12*
X113662460Y-95250000D03*
D11*
X92707460Y-85090000D03*
D12*
X92707460Y-95250000D03*
D11*
X55753000Y-73660000D03*
X65913000Y-73660000D03*
X51308000Y-66675000D03*
X61468000Y-66675000D03*
X228600000Y-73660000D03*
X238760000Y-73660000D03*
X223520000Y-66675000D03*
X233680000Y-66675000D03*
X207645000Y-73660000D03*
X217805000Y-73660000D03*
X202565000Y-66675000D03*
X212725000Y-66675000D03*
X186690000Y-73660000D03*
X196850000Y-73660000D03*
X181610000Y-66675000D03*
X191770000Y-66675000D03*
X165735000Y-73660000D03*
X175895000Y-73660000D03*
X160655000Y-66675000D03*
X170815000Y-66675000D03*
X144780000Y-73660000D03*
X154940000Y-73660000D03*
X139700000Y-66675000D03*
X149860000Y-66675000D03*
X123825000Y-73660000D03*
X133985000Y-73660000D03*
X118745000Y-66675000D03*
X128905000Y-66675000D03*
X102870000Y-73660000D03*
X113030000Y-73660000D03*
X97790000Y-66675000D03*
X107950000Y-66675000D03*
X81280000Y-73660000D03*
X91440000Y-73660000D03*
X76835000Y-66675000D03*
X86995000Y-66675000D03*
X233045000Y-81915000D03*
X222885000Y-81915000D03*
X212090000Y-81915000D03*
X201930000Y-81915000D03*
X191135000Y-81915000D03*
X180975000Y-81915000D03*
X170180000Y-81915000D03*
X160020000Y-81915000D03*
X149225000Y-81915000D03*
X139065000Y-81915000D03*
X128270000Y-81915000D03*
X118110000Y-81915000D03*
X107315000Y-81915000D03*
X97155000Y-81915000D03*
X86360000Y-81915000D03*
X76200000Y-81915000D03*
D13*
X126365000Y-121920000D03*
X131365000Y-121920000D03*
X136365000Y-121920000D03*
X141365000Y-121920000D03*
X83185000Y-121920000D03*
X88185000Y-121920000D03*
X93185000Y-121920000D03*
X98185000Y-121920000D03*
X212725000Y-121920000D03*
X217725000Y-121920000D03*
X222725000Y-121920000D03*
X227725000Y-121920000D03*
X191135000Y-121920000D03*
X196135000Y-121920000D03*
X201135000Y-121920000D03*
X206135000Y-121920000D03*
X169545000Y-121920000D03*
X174545000Y-121920000D03*
X179545000Y-121920000D03*
X184545000Y-121920000D03*
X147955000Y-121920000D03*
X152955000Y-121920000D03*
X157955000Y-121920000D03*
X162955000Y-121920000D03*
X104775000Y-121920000D03*
X109775000Y-121920000D03*
X114775000Y-121920000D03*
X119775000Y-121920000D03*
D14*
X64135000Y-128651000D03*
D15*
X64135000Y-126111000D03*
X64135000Y-123571000D03*
X64135000Y-121031000D03*
X64135000Y-118491000D03*
X64135000Y-115951000D03*
X64135000Y-113411000D03*
X64135000Y-110871000D03*
X64135000Y-108331000D03*
X64135000Y-105791000D03*
X64135000Y-103251000D03*
X64135000Y-100711000D03*
X64135000Y-98171000D03*
X64135000Y-95631000D03*
X64135000Y-93091000D03*
X48895000Y-93091000D03*
X48895000Y-95631000D03*
X48895000Y-98171000D03*
X48895000Y-100711000D03*
X48895000Y-103251000D03*
X48895000Y-105791000D03*
X48895000Y-108331000D03*
X48895000Y-110871000D03*
X48895000Y-113411000D03*
X48895000Y-115951000D03*
X48895000Y-118491000D03*
X48895000Y-121031000D03*
X48895000Y-123571000D03*
X48895000Y-126111000D03*
X48895000Y-128651000D03*
D16*
X222885000Y-88900000D03*
X234885000Y-88900000D03*
X228885000Y-86900000D03*
X222885000Y-101100000D03*
X234885000Y-101100000D03*
X201930000Y-88900000D03*
X213930000Y-88900000D03*
X207930000Y-86900000D03*
X201930000Y-101100000D03*
X213930000Y-101100000D03*
X180975000Y-88900000D03*
X192975000Y-88900000D03*
X186975000Y-86900000D03*
X180975000Y-101100000D03*
X192975000Y-101100000D03*
X160020000Y-88900000D03*
X172020000Y-88900000D03*
X166020000Y-86900000D03*
X160020000Y-101100000D03*
X172020000Y-101100000D03*
X139065000Y-88900000D03*
X151065000Y-88900000D03*
X145065000Y-86900000D03*
X139065000Y-101100000D03*
X151065000Y-101100000D03*
X118110000Y-88900000D03*
X130110000Y-88900000D03*
X124110000Y-86900000D03*
X118110000Y-101100000D03*
X130110000Y-101100000D03*
X97155000Y-88900000D03*
X109155000Y-88900000D03*
X103155000Y-86900000D03*
X97155000Y-101100000D03*
X109155000Y-101100000D03*
X76200000Y-88900000D03*
X88200000Y-88900000D03*
X82200000Y-86900000D03*
X76200000Y-101100000D03*
X88200000Y-101100000D03*
D17*
X91440000Y-80010000D03*
X92710000Y-81280000D03*
X90170000Y-81280000D03*
X112395000Y-80010000D03*
X113665000Y-81280000D03*
X111125000Y-81280000D03*
X133350000Y-80010000D03*
X134620000Y-81280000D03*
X132080000Y-81280000D03*
X154305000Y-80010000D03*
X155575000Y-81280000D03*
X153035000Y-81280000D03*
X175260000Y-80010000D03*
X176530000Y-81280000D03*
X173990000Y-81280000D03*
X196215000Y-80010000D03*
X197485000Y-81280000D03*
X194945000Y-81280000D03*
X217170000Y-80010000D03*
X218440000Y-81280000D03*
X215900000Y-81280000D03*
X238125000Y-80010000D03*
X239395000Y-81280000D03*
X236855000Y-81280000D03*
X76835000Y-72390000D03*
X78105000Y-73660000D03*
X75565000Y-73660000D03*
X97790000Y-72390000D03*
X99060000Y-73660000D03*
X96520000Y-73660000D03*
X118745000Y-72390000D03*
X120015000Y-73660000D03*
X117475000Y-73660000D03*
X139700000Y-72390000D03*
X140970000Y-73660000D03*
X138430000Y-73660000D03*
X160655000Y-72390000D03*
X161925000Y-73660000D03*
X159385000Y-73660000D03*
X181610000Y-72390000D03*
X182880000Y-73660000D03*
X180340000Y-73660000D03*
X202565000Y-72390000D03*
X203835000Y-73660000D03*
X201295000Y-73660000D03*
X223520000Y-72390000D03*
X224790000Y-73660000D03*
X222250000Y-73660000D03*
X51308000Y-72390000D03*
X52578000Y-73660000D03*
X50038000Y-73660000D03*
X64135000Y-90932000D03*
X62103000Y-94538800D03*
X78359000Y-124841000D03*
X74041000Y-80467200D03*
X71882000Y-80467200D03*
X69697600Y-80441800D03*
X68681600Y-76504800D03*
X68681600Y-74777600D03*
X68656200Y-72999600D03*
X51816000Y-103251000D03*
X51816000Y-105791000D03*
X73660000Y-70993000D03*
X51943000Y-110871000D03*
X51943000Y-113411000D03*
X51943000Y-115951000D03*
X51943000Y-118491000D03*
X51943000Y-121031000D03*
X51943000Y-123571000D03*
X51943000Y-126111000D03*
X51943000Y-128651000D03*
D18*
X239382300Y-88887300D02*
X239382300Y-95239840D01*
X239382300Y-95239840D02*
X239392460Y-95250000D01*
X228885000Y-86900000D02*
X232505000Y-86900000D01*
X232505000Y-86900000D02*
X237395000Y-86900000D01*
X237395000Y-86900000D02*
X239382300Y-88887300D01*
X239382300Y-88887300D02*
X239392460Y-88897460D01*
X72567800Y-95250000D02*
X92707460Y-95250000D01*
X68249800Y-90932000D02*
X72567800Y-95250000D01*
X64135000Y-90932000D02*
X68249800Y-90932000D01*
X61849000Y-96748600D02*
X61849000Y-94792800D01*
X61849000Y-94792800D02*
X62103000Y-94538800D01*
X78359000Y-124841000D02*
X72009000Y-131191000D01*
X72009000Y-131191000D02*
X63373000Y-131191000D01*
X63373000Y-131191000D02*
X61849000Y-129667000D01*
X61849000Y-129667000D02*
X61849000Y-96748600D01*
X61849000Y-96748600D02*
X61849000Y-96723200D01*
X75641200Y-78867000D02*
X78079600Y-78867000D01*
X74041000Y-80467200D02*
X75641200Y-78867000D01*
X219583000Y-78867000D02*
X224790000Y-73660000D01*
X78130400Y-78867000D02*
X219583000Y-78867000D01*
X77597000Y-78867000D02*
X78130400Y-78867000D01*
X74244200Y-78105000D02*
X77165200Y-78105000D01*
X71882000Y-80467200D02*
X74244200Y-78105000D01*
X76708000Y-78105000D02*
X77266800Y-78105000D01*
X77266800Y-78105000D02*
X199390000Y-78105000D01*
X199390000Y-78105000D02*
X203835000Y-73660000D01*
X72796400Y-77343000D02*
X76631800Y-77343000D01*
X69697600Y-80441800D02*
X72796400Y-77343000D01*
X179197000Y-77343000D02*
X182880000Y-73660000D01*
X76682600Y-77343000D02*
X179197000Y-77343000D01*
X75819000Y-77343000D02*
X76682600Y-77343000D01*
X68681600Y-76504800D02*
X68884800Y-76708000D01*
X158877000Y-76708000D02*
X159562800Y-76022200D01*
X68884800Y-76708000D02*
X158877000Y-76708000D01*
X68681600Y-76504800D02*
X68757800Y-76581000D01*
X159004000Y-76581000D02*
X159562800Y-76022200D01*
X159562800Y-76022200D02*
X161925000Y-73660000D01*
X72161400Y-74777600D02*
X73456800Y-76073000D01*
X68681600Y-74777600D02*
X72161400Y-74777600D01*
X138557000Y-76073000D02*
X140970000Y-73660000D01*
X73456800Y-76073000D02*
X138557000Y-76073000D01*
X71780400Y-73050400D02*
X71729600Y-72999600D01*
X71729600Y-72999600D02*
X68656200Y-72999600D01*
X118237000Y-75438000D02*
X120015000Y-73660000D01*
X74168000Y-75438000D02*
X118237000Y-75438000D01*
X71780400Y-73050400D02*
X74168000Y-75438000D01*
X98552000Y-69342000D02*
X102870000Y-73660000D01*
X66167000Y-69342000D02*
X98552000Y-69342000D01*
X56134000Y-79375000D02*
X66167000Y-69342000D01*
X56134000Y-98933000D02*
X56134000Y-79375000D01*
X51816000Y-103251000D02*
X56134000Y-98933000D01*
X78105000Y-73660000D02*
X76860400Y-74904600D01*
X71805800Y-71755000D02*
X71475600Y-71755000D01*
X74955400Y-74904600D02*
X71805800Y-71755000D01*
X76860400Y-74904600D02*
X74955400Y-74904600D01*
X64516000Y-71755000D02*
X71475600Y-71755000D01*
X51816000Y-105791000D02*
X56642000Y-100965000D01*
X56642000Y-100965000D02*
X56642000Y-79629000D01*
X56642000Y-79629000D02*
X64516000Y-71755000D01*
X73660000Y-70993000D02*
X88773000Y-70993000D01*
X88773000Y-70993000D02*
X91440000Y-73660000D01*
X60706000Y-81915000D02*
X76200000Y-81915000D01*
X57277000Y-85344000D02*
X60706000Y-81915000D01*
X57277000Y-109982000D02*
X57277000Y-85344000D01*
X56388000Y-110871000D02*
X57277000Y-109982000D01*
X51943000Y-110871000D02*
X56388000Y-110871000D01*
X95504000Y-83566000D02*
X97155000Y-81915000D01*
X61087000Y-83566000D02*
X95504000Y-83566000D01*
X57727002Y-86925998D02*
X61087000Y-83566000D01*
X57727002Y-110293998D02*
X57727002Y-86925998D01*
X54610000Y-113411000D02*
X57727002Y-110293998D01*
X51943000Y-113411000D02*
X54610000Y-113411000D01*
X118110000Y-85471000D02*
X118110000Y-81915000D01*
X113030000Y-90551000D02*
X118110000Y-85471000D01*
X74295000Y-90551000D02*
X113030000Y-90551000D01*
X70612000Y-86868000D02*
X74295000Y-90551000D01*
X61595000Y-86868000D02*
X70612000Y-86868000D01*
X58293000Y-90170000D02*
X61595000Y-86868000D01*
X58293000Y-110617000D02*
X58293000Y-90170000D01*
X52959000Y-115951000D02*
X58293000Y-110617000D01*
X51943000Y-115951000D02*
X52959000Y-115951000D01*
X139065000Y-85344000D02*
X139065000Y-81915000D01*
X133350000Y-91059000D02*
X139065000Y-85344000D01*
X74041000Y-91059000D02*
X133350000Y-91059000D01*
X70350802Y-87368802D02*
X74041000Y-91059000D01*
X61983198Y-87368802D02*
X70350802Y-87368802D01*
X58801000Y-90551000D02*
X61983198Y-87368802D01*
X58801000Y-114554000D02*
X58801000Y-90551000D01*
X54864000Y-118491000D02*
X58801000Y-114554000D01*
X51943000Y-118491000D02*
X54864000Y-118491000D01*
X160020000Y-85217000D02*
X160020000Y-81915000D01*
X153670000Y-91567000D02*
X160020000Y-85217000D01*
X73787000Y-91567000D02*
X153670000Y-91567000D01*
X70129400Y-87909400D02*
X73787000Y-91567000D01*
X62204600Y-87909400D02*
X70129400Y-87909400D01*
X59309000Y-90805000D02*
X62204600Y-87909400D01*
X59309000Y-116713000D02*
X59309000Y-90805000D01*
X54991000Y-121031000D02*
X59309000Y-116713000D01*
X51943000Y-121031000D02*
X54991000Y-121031000D01*
X180975000Y-85344000D02*
X180975000Y-81915000D01*
X174244000Y-92075000D02*
X180975000Y-85344000D01*
X73406000Y-92075000D02*
X174244000Y-92075000D01*
X69766602Y-88435602D02*
X73406000Y-92075000D01*
X62440398Y-88435602D02*
X69766602Y-88435602D01*
X59817000Y-91059000D02*
X62440398Y-88435602D01*
X59817000Y-119761000D02*
X59817000Y-91059000D01*
X56007000Y-123571000D02*
X59817000Y-119761000D01*
X51943000Y-123571000D02*
X56007000Y-123571000D01*
X201930000Y-85217000D02*
X201930000Y-81915000D01*
X194564000Y-92583000D02*
X201930000Y-85217000D01*
X73152000Y-92583000D02*
X194564000Y-92583000D01*
X69545200Y-88976200D02*
X73152000Y-92583000D01*
X62915800Y-88976200D02*
X69545200Y-88976200D01*
X60325000Y-91567000D02*
X62915800Y-88976200D01*
X60325000Y-122682000D02*
X60325000Y-91567000D01*
X56896000Y-126111000D02*
X60325000Y-122682000D01*
X55880000Y-126111000D02*
X56896000Y-126111000D01*
X54356000Y-126111000D02*
X55880000Y-126111000D01*
X51943000Y-126111000D02*
X54356000Y-126111000D01*
X69367400Y-89560400D02*
X72898000Y-93091000D01*
X222885000Y-85344000D02*
X222885000Y-81915000D01*
X215138000Y-93091000D02*
X222885000Y-85344000D01*
X72898000Y-93091000D02*
X215138000Y-93091000D01*
X63220600Y-89560400D02*
X69367400Y-89560400D01*
X60833000Y-91948000D02*
X63220600Y-89560400D01*
X60833000Y-124079000D02*
X60833000Y-91948000D01*
X56261000Y-128651000D02*
X60833000Y-124079000D01*
X51943000Y-128651000D02*
X56261000Y-128651000D01*
D19*
G36*
X246940000Y-134545000D02*
X47065000Y-134545000D01*
X47065000Y-103251000D01*
X47082167Y-103251000D01*
X47190441Y-103795329D01*
X47498778Y-104256789D01*
X47894199Y-104521000D01*
X47498778Y-104785211D01*
X47190441Y-105246671D01*
X47082167Y-105791000D01*
X47190441Y-106335329D01*
X47498778Y-106796789D01*
X47894199Y-107061000D01*
X47498778Y-107325211D01*
X47190441Y-107786671D01*
X47082167Y-108331000D01*
X47190441Y-108875329D01*
X47498778Y-109336789D01*
X47894199Y-109601000D01*
X47498778Y-109865211D01*
X47190441Y-110326671D01*
X47082167Y-110871000D01*
X47190441Y-111415329D01*
X47498778Y-111876789D01*
X47894199Y-112141000D01*
X47498778Y-112405211D01*
X47190441Y-112866671D01*
X47082167Y-113411000D01*
X47190441Y-113955329D01*
X47498778Y-114416789D01*
X47894199Y-114681000D01*
X47498778Y-114945211D01*
X47190441Y-115406671D01*
X47082167Y-115951000D01*
X47190441Y-116495329D01*
X47498778Y-116956789D01*
X47894199Y-117221000D01*
X47498778Y-117485211D01*
X47190441Y-117946671D01*
X47082167Y-118491000D01*
X47190441Y-119035329D01*
X47498778Y-119496789D01*
X47894199Y-119761000D01*
X47498778Y-120025211D01*
X47190441Y-120486671D01*
X47082167Y-121031000D01*
X47190441Y-121575329D01*
X47498778Y-122036789D01*
X47894199Y-122301000D01*
X47498778Y-122565211D01*
X47190441Y-123026671D01*
X47082167Y-123571000D01*
X47190441Y-124115329D01*
X47498778Y-124576789D01*
X47894199Y-124841000D01*
X47498778Y-125105211D01*
X47190441Y-125566671D01*
X47082167Y-126111000D01*
X47190441Y-126655329D01*
X47498778Y-127116789D01*
X47894199Y-127381000D01*
X47498778Y-127645211D01*
X47190441Y-128106671D01*
X47082167Y-128651000D01*
X47190441Y-129195329D01*
X47498778Y-129656789D01*
X47960238Y-129965126D01*
X48504567Y-130073400D01*
X49285433Y-130073400D01*
X49829762Y-129965126D01*
X50291222Y-129656789D01*
X50599559Y-129195329D01*
X50622235Y-129081328D01*
X50768169Y-129434515D01*
X51157436Y-129824461D01*
X51666298Y-130035759D01*
X52217285Y-130036240D01*
X52726515Y-129825831D01*
X53116461Y-129436564D01*
X53127076Y-129411000D01*
X56261000Y-129411000D01*
X56551839Y-129353148D01*
X56798401Y-129188401D01*
X61089000Y-124897802D01*
X61089000Y-129667000D01*
X61146852Y-129957839D01*
X61311599Y-130204401D01*
X62835599Y-131728401D01*
X63082160Y-131893148D01*
X63130414Y-131902746D01*
X63373000Y-131951000D01*
X72009000Y-131951000D01*
X72299839Y-131893148D01*
X72411849Y-131818305D01*
X241954674Y-131818305D01*
X242241043Y-132511372D01*
X242770839Y-133042093D01*
X243463405Y-133329672D01*
X244213305Y-133330326D01*
X244906372Y-133043957D01*
X245437093Y-132514161D01*
X245724672Y-131821595D01*
X245725326Y-131071695D01*
X245438957Y-130378628D01*
X244909161Y-129847907D01*
X244216595Y-129560328D01*
X243466695Y-129559674D01*
X242773628Y-129846043D01*
X242242907Y-130375839D01*
X241955328Y-131068405D01*
X241954674Y-131818305D01*
X72411849Y-131818305D01*
X72546401Y-131728401D01*
X78058800Y-126216002D01*
X78082298Y-126225759D01*
X78633285Y-126226240D01*
X79142515Y-126015831D01*
X79532461Y-125626564D01*
X79743759Y-125117702D01*
X79744240Y-124566715D01*
X79533831Y-124057485D01*
X79144564Y-123667539D01*
X78635702Y-123456241D01*
X78084715Y-123455760D01*
X77575485Y-123666169D01*
X77185539Y-124055436D01*
X76974241Y-124564298D01*
X76973760Y-125115285D01*
X76984330Y-125140868D01*
X71694198Y-130431000D01*
X63687802Y-130431000D01*
X63342642Y-130085840D01*
X65278000Y-130085840D01*
X65513317Y-130041562D01*
X65729441Y-129902490D01*
X65874431Y-129690290D01*
X65925440Y-129438400D01*
X65925440Y-127863600D01*
X65881162Y-127628283D01*
X65742090Y-127412159D01*
X65529890Y-127267169D01*
X65358197Y-127232400D01*
X65531222Y-127116789D01*
X65839559Y-126655329D01*
X65947833Y-126111000D01*
X65839559Y-125566671D01*
X65531222Y-125105211D01*
X65135801Y-124841000D01*
X65531222Y-124576789D01*
X65784116Y-124198305D01*
X70504674Y-124198305D01*
X70791043Y-124891372D01*
X71320839Y-125422093D01*
X72013405Y-125709672D01*
X72763305Y-125710326D01*
X73456372Y-125423957D01*
X73987093Y-124894161D01*
X74274672Y-124201595D01*
X74275326Y-123451695D01*
X73988957Y-122758628D01*
X73524446Y-122293305D01*
X81299674Y-122293305D01*
X81586043Y-122986372D01*
X82115839Y-123517093D01*
X82808405Y-123804672D01*
X83558305Y-123805326D01*
X84251372Y-123518957D01*
X84368243Y-123402289D01*
X87230213Y-123402289D01*
X87378561Y-123664553D01*
X88107559Y-123840368D01*
X88848347Y-123723824D01*
X88991439Y-123664553D01*
X89139787Y-123402289D01*
X92230213Y-123402289D01*
X92378561Y-123664553D01*
X93107559Y-123840368D01*
X93848347Y-123723824D01*
X93991439Y-123664553D01*
X94139787Y-123402289D01*
X93185000Y-122447502D01*
X92230213Y-123402289D01*
X89139787Y-123402289D01*
X88185000Y-122447502D01*
X87230213Y-123402289D01*
X84368243Y-123402289D01*
X84782093Y-122989161D01*
X85069672Y-122296595D01*
X85070067Y-121842559D01*
X86264632Y-121842559D01*
X86381176Y-122583347D01*
X86440447Y-122726439D01*
X86702711Y-122874787D01*
X87657498Y-121920000D01*
X88712502Y-121920000D01*
X89667289Y-122874787D01*
X89929553Y-122726439D01*
X90105368Y-121997441D01*
X90081002Y-121842559D01*
X91264632Y-121842559D01*
X91381176Y-122583347D01*
X91440447Y-122726439D01*
X91702711Y-122874787D01*
X92657498Y-121920000D01*
X93712502Y-121920000D01*
X94667289Y-122874787D01*
X94929553Y-122726439D01*
X95034013Y-122293305D01*
X96299674Y-122293305D01*
X96586043Y-122986372D01*
X97115839Y-123517093D01*
X97808405Y-123804672D01*
X98558305Y-123805326D01*
X99251372Y-123518957D01*
X99368243Y-123402289D01*
X103820213Y-123402289D01*
X103968561Y-123664553D01*
X104697559Y-123840368D01*
X105438347Y-123723824D01*
X105581439Y-123664553D01*
X105729787Y-123402289D01*
X108820213Y-123402289D01*
X108968561Y-123664553D01*
X109697559Y-123840368D01*
X110438347Y-123723824D01*
X110581439Y-123664553D01*
X110729787Y-123402289D01*
X113820213Y-123402289D01*
X113968561Y-123664553D01*
X114697559Y-123840368D01*
X115438347Y-123723824D01*
X115581439Y-123664553D01*
X115729787Y-123402289D01*
X118820213Y-123402289D01*
X118968561Y-123664553D01*
X119697559Y-123840368D01*
X120438347Y-123723824D01*
X120581439Y-123664553D01*
X120729787Y-123402289D01*
X119775000Y-122447502D01*
X118820213Y-123402289D01*
X115729787Y-123402289D01*
X114775000Y-122447502D01*
X113820213Y-123402289D01*
X110729787Y-123402289D01*
X109775000Y-122447502D01*
X108820213Y-123402289D01*
X105729787Y-123402289D01*
X104775000Y-122447502D01*
X103820213Y-123402289D01*
X99368243Y-123402289D01*
X99782093Y-122989161D01*
X100069672Y-122296595D01*
X100070067Y-121842559D01*
X102854632Y-121842559D01*
X102971176Y-122583347D01*
X103030447Y-122726439D01*
X103292711Y-122874787D01*
X104247498Y-121920000D01*
X105302502Y-121920000D01*
X106257289Y-122874787D01*
X106519553Y-122726439D01*
X106695368Y-121997441D01*
X106671002Y-121842559D01*
X107854632Y-121842559D01*
X107971176Y-122583347D01*
X108030447Y-122726439D01*
X108292711Y-122874787D01*
X109247498Y-121920000D01*
X110302502Y-121920000D01*
X111257289Y-122874787D01*
X111519553Y-122726439D01*
X111695368Y-121997441D01*
X111671002Y-121842559D01*
X112854632Y-121842559D01*
X112971176Y-122583347D01*
X113030447Y-122726439D01*
X113292711Y-122874787D01*
X114247498Y-121920000D01*
X115302502Y-121920000D01*
X116257289Y-122874787D01*
X116519553Y-122726439D01*
X116695368Y-121997441D01*
X116671002Y-121842559D01*
X117854632Y-121842559D01*
X117971176Y-122583347D01*
X118030447Y-122726439D01*
X118292711Y-122874787D01*
X119247498Y-121920000D01*
X120302502Y-121920000D01*
X121257289Y-122874787D01*
X121519553Y-122726439D01*
X121624013Y-122293305D01*
X124479674Y-122293305D01*
X124766043Y-122986372D01*
X125295839Y-123517093D01*
X125988405Y-123804672D01*
X126738305Y-123805326D01*
X127431372Y-123518957D01*
X127962093Y-122989161D01*
X128249672Y-122296595D01*
X128249674Y-122293305D01*
X129479674Y-122293305D01*
X129766043Y-122986372D01*
X130295839Y-123517093D01*
X130988405Y-123804672D01*
X131738305Y-123805326D01*
X132431372Y-123518957D01*
X132962093Y-122989161D01*
X133249672Y-122296595D01*
X133249674Y-122293305D01*
X134479674Y-122293305D01*
X134766043Y-122986372D01*
X135295839Y-123517093D01*
X135988405Y-123804672D01*
X136738305Y-123805326D01*
X137431372Y-123518957D01*
X137962093Y-122989161D01*
X138249672Y-122296595D01*
X138249674Y-122293305D01*
X139479674Y-122293305D01*
X139766043Y-122986372D01*
X140295839Y-123517093D01*
X140988405Y-123804672D01*
X141738305Y-123805326D01*
X142431372Y-123518957D01*
X142962093Y-122989161D01*
X143249672Y-122296595D01*
X143249674Y-122293305D01*
X146069674Y-122293305D01*
X146356043Y-122986372D01*
X146885839Y-123517093D01*
X147578405Y-123804672D01*
X148328305Y-123805326D01*
X149021372Y-123518957D01*
X149552093Y-122989161D01*
X149839672Y-122296595D01*
X149839674Y-122293305D01*
X151069674Y-122293305D01*
X151356043Y-122986372D01*
X151885839Y-123517093D01*
X152578405Y-123804672D01*
X153328305Y-123805326D01*
X154021372Y-123518957D01*
X154552093Y-122989161D01*
X154839672Y-122296595D01*
X154839674Y-122293305D01*
X156069674Y-122293305D01*
X156356043Y-122986372D01*
X156885839Y-123517093D01*
X157578405Y-123804672D01*
X158328305Y-123805326D01*
X159021372Y-123518957D01*
X159552093Y-122989161D01*
X159839672Y-122296595D01*
X159839674Y-122293305D01*
X161069674Y-122293305D01*
X161356043Y-122986372D01*
X161885839Y-123517093D01*
X162578405Y-123804672D01*
X163328305Y-123805326D01*
X164021372Y-123518957D01*
X164552093Y-122989161D01*
X164839672Y-122296595D01*
X164839674Y-122293305D01*
X167659674Y-122293305D01*
X167946043Y-122986372D01*
X168475839Y-123517093D01*
X169168405Y-123804672D01*
X169918305Y-123805326D01*
X170611372Y-123518957D01*
X171142093Y-122989161D01*
X171429672Y-122296595D01*
X171429674Y-122293305D01*
X172659674Y-122293305D01*
X172946043Y-122986372D01*
X173475839Y-123517093D01*
X174168405Y-123804672D01*
X174918305Y-123805326D01*
X175611372Y-123518957D01*
X176142093Y-122989161D01*
X176429672Y-122296595D01*
X176429674Y-122293305D01*
X177659674Y-122293305D01*
X177946043Y-122986372D01*
X178475839Y-123517093D01*
X179168405Y-123804672D01*
X179918305Y-123805326D01*
X180611372Y-123518957D01*
X181142093Y-122989161D01*
X181429672Y-122296595D01*
X181429674Y-122293305D01*
X182659674Y-122293305D01*
X182946043Y-122986372D01*
X183475839Y-123517093D01*
X184168405Y-123804672D01*
X184918305Y-123805326D01*
X185611372Y-123518957D01*
X186142093Y-122989161D01*
X186429672Y-122296595D01*
X186429674Y-122293305D01*
X189249674Y-122293305D01*
X189536043Y-122986372D01*
X190065839Y-123517093D01*
X190758405Y-123804672D01*
X191508305Y-123805326D01*
X192201372Y-123518957D01*
X192732093Y-122989161D01*
X193019672Y-122296595D01*
X193019674Y-122293305D01*
X194249674Y-122293305D01*
X194536043Y-122986372D01*
X195065839Y-123517093D01*
X195758405Y-123804672D01*
X196508305Y-123805326D01*
X197201372Y-123518957D01*
X197732093Y-122989161D01*
X198019672Y-122296595D01*
X198019674Y-122293305D01*
X199249674Y-122293305D01*
X199536043Y-122986372D01*
X200065839Y-123517093D01*
X200758405Y-123804672D01*
X201508305Y-123805326D01*
X202201372Y-123518957D01*
X202732093Y-122989161D01*
X203019672Y-122296595D01*
X203019674Y-122293305D01*
X204249674Y-122293305D01*
X204536043Y-122986372D01*
X205065839Y-123517093D01*
X205758405Y-123804672D01*
X206508305Y-123805326D01*
X207201372Y-123518957D01*
X207732093Y-122989161D01*
X208019672Y-122296595D01*
X208019674Y-122293305D01*
X210839674Y-122293305D01*
X211126043Y-122986372D01*
X211655839Y-123517093D01*
X212348405Y-123804672D01*
X213098305Y-123805326D01*
X213791372Y-123518957D01*
X214322093Y-122989161D01*
X214609672Y-122296595D01*
X214609674Y-122293305D01*
X215839674Y-122293305D01*
X216126043Y-122986372D01*
X216655839Y-123517093D01*
X217348405Y-123804672D01*
X218098305Y-123805326D01*
X218791372Y-123518957D01*
X219322093Y-122989161D01*
X219609672Y-122296595D01*
X219609674Y-122293305D01*
X220839674Y-122293305D01*
X221126043Y-122986372D01*
X221655839Y-123517093D01*
X222348405Y-123804672D01*
X223098305Y-123805326D01*
X223791372Y-123518957D01*
X224322093Y-122989161D01*
X224609672Y-122296595D01*
X224609674Y-122293305D01*
X225839674Y-122293305D01*
X226126043Y-122986372D01*
X226655839Y-123517093D01*
X227348405Y-123804672D01*
X228098305Y-123805326D01*
X228791372Y-123518957D01*
X229322093Y-122989161D01*
X229609672Y-122296595D01*
X229610326Y-121546695D01*
X229323957Y-120853628D01*
X228794161Y-120322907D01*
X228101595Y-120035328D01*
X227351695Y-120034674D01*
X226658628Y-120321043D01*
X226127907Y-120850839D01*
X225840328Y-121543405D01*
X225839674Y-122293305D01*
X224609674Y-122293305D01*
X224610326Y-121546695D01*
X224323957Y-120853628D01*
X223794161Y-120322907D01*
X223101595Y-120035328D01*
X222351695Y-120034674D01*
X221658628Y-120321043D01*
X221127907Y-120850839D01*
X220840328Y-121543405D01*
X220839674Y-122293305D01*
X219609674Y-122293305D01*
X219610326Y-121546695D01*
X219323957Y-120853628D01*
X218794161Y-120322907D01*
X218101595Y-120035328D01*
X217351695Y-120034674D01*
X216658628Y-120321043D01*
X216127907Y-120850839D01*
X215840328Y-121543405D01*
X215839674Y-122293305D01*
X214609674Y-122293305D01*
X214610326Y-121546695D01*
X214323957Y-120853628D01*
X213794161Y-120322907D01*
X213101595Y-120035328D01*
X212351695Y-120034674D01*
X211658628Y-120321043D01*
X211127907Y-120850839D01*
X210840328Y-121543405D01*
X210839674Y-122293305D01*
X208019674Y-122293305D01*
X208020326Y-121546695D01*
X207733957Y-120853628D01*
X207204161Y-120322907D01*
X206511595Y-120035328D01*
X205761695Y-120034674D01*
X205068628Y-120321043D01*
X204537907Y-120850839D01*
X204250328Y-121543405D01*
X204249674Y-122293305D01*
X203019674Y-122293305D01*
X203020326Y-121546695D01*
X202733957Y-120853628D01*
X202204161Y-120322907D01*
X201511595Y-120035328D01*
X200761695Y-120034674D01*
X200068628Y-120321043D01*
X199537907Y-120850839D01*
X199250328Y-121543405D01*
X199249674Y-122293305D01*
X198019674Y-122293305D01*
X198020326Y-121546695D01*
X197733957Y-120853628D01*
X197204161Y-120322907D01*
X196511595Y-120035328D01*
X195761695Y-120034674D01*
X195068628Y-120321043D01*
X194537907Y-120850839D01*
X194250328Y-121543405D01*
X194249674Y-122293305D01*
X193019674Y-122293305D01*
X193020326Y-121546695D01*
X192733957Y-120853628D01*
X192204161Y-120322907D01*
X191511595Y-120035328D01*
X190761695Y-120034674D01*
X190068628Y-120321043D01*
X189537907Y-120850839D01*
X189250328Y-121543405D01*
X189249674Y-122293305D01*
X186429674Y-122293305D01*
X186430326Y-121546695D01*
X186143957Y-120853628D01*
X185614161Y-120322907D01*
X184921595Y-120035328D01*
X184171695Y-120034674D01*
X183478628Y-120321043D01*
X182947907Y-120850839D01*
X182660328Y-121543405D01*
X182659674Y-122293305D01*
X181429674Y-122293305D01*
X181430326Y-121546695D01*
X181143957Y-120853628D01*
X180614161Y-120322907D01*
X179921595Y-120035328D01*
X179171695Y-120034674D01*
X178478628Y-120321043D01*
X177947907Y-120850839D01*
X177660328Y-121543405D01*
X177659674Y-122293305D01*
X176429674Y-122293305D01*
X176430326Y-121546695D01*
X176143957Y-120853628D01*
X175614161Y-120322907D01*
X174921595Y-120035328D01*
X174171695Y-120034674D01*
X173478628Y-120321043D01*
X172947907Y-120850839D01*
X172660328Y-121543405D01*
X172659674Y-122293305D01*
X171429674Y-122293305D01*
X171430326Y-121546695D01*
X171143957Y-120853628D01*
X170614161Y-120322907D01*
X169921595Y-120035328D01*
X169171695Y-120034674D01*
X168478628Y-120321043D01*
X167947907Y-120850839D01*
X167660328Y-121543405D01*
X167659674Y-122293305D01*
X164839674Y-122293305D01*
X164840326Y-121546695D01*
X164553957Y-120853628D01*
X164024161Y-120322907D01*
X163331595Y-120035328D01*
X162581695Y-120034674D01*
X161888628Y-120321043D01*
X161357907Y-120850839D01*
X161070328Y-121543405D01*
X161069674Y-122293305D01*
X159839674Y-122293305D01*
X159840326Y-121546695D01*
X159553957Y-120853628D01*
X159024161Y-120322907D01*
X158331595Y-120035328D01*
X157581695Y-120034674D01*
X156888628Y-120321043D01*
X156357907Y-120850839D01*
X156070328Y-121543405D01*
X156069674Y-122293305D01*
X154839674Y-122293305D01*
X154840326Y-121546695D01*
X154553957Y-120853628D01*
X154024161Y-120322907D01*
X153331595Y-120035328D01*
X152581695Y-120034674D01*
X151888628Y-120321043D01*
X151357907Y-120850839D01*
X151070328Y-121543405D01*
X151069674Y-122293305D01*
X149839674Y-122293305D01*
X149840326Y-121546695D01*
X149553957Y-120853628D01*
X149024161Y-120322907D01*
X148331595Y-120035328D01*
X147581695Y-120034674D01*
X146888628Y-120321043D01*
X146357907Y-120850839D01*
X146070328Y-121543405D01*
X146069674Y-122293305D01*
X143249674Y-122293305D01*
X143250326Y-121546695D01*
X142963957Y-120853628D01*
X142434161Y-120322907D01*
X141741595Y-120035328D01*
X140991695Y-120034674D01*
X140298628Y-120321043D01*
X139767907Y-120850839D01*
X139480328Y-121543405D01*
X139479674Y-122293305D01*
X138249674Y-122293305D01*
X138250326Y-121546695D01*
X137963957Y-120853628D01*
X137434161Y-120322907D01*
X136741595Y-120035328D01*
X135991695Y-120034674D01*
X135298628Y-120321043D01*
X134767907Y-120850839D01*
X134480328Y-121543405D01*
X134479674Y-122293305D01*
X133249674Y-122293305D01*
X133250326Y-121546695D01*
X132963957Y-120853628D01*
X132434161Y-120322907D01*
X131741595Y-120035328D01*
X130991695Y-120034674D01*
X130298628Y-120321043D01*
X129767907Y-120850839D01*
X129480328Y-121543405D01*
X129479674Y-122293305D01*
X128249674Y-122293305D01*
X128250326Y-121546695D01*
X127963957Y-120853628D01*
X127434161Y-120322907D01*
X126741595Y-120035328D01*
X125991695Y-120034674D01*
X125298628Y-120321043D01*
X124767907Y-120850839D01*
X124480328Y-121543405D01*
X124479674Y-122293305D01*
X121624013Y-122293305D01*
X121695368Y-121997441D01*
X121578824Y-121256653D01*
X121519553Y-121113561D01*
X121257289Y-120965213D01*
X120302502Y-121920000D01*
X119247498Y-121920000D01*
X118292711Y-120965213D01*
X118030447Y-121113561D01*
X117854632Y-121842559D01*
X116671002Y-121842559D01*
X116578824Y-121256653D01*
X116519553Y-121113561D01*
X116257289Y-120965213D01*
X115302502Y-121920000D01*
X114247498Y-121920000D01*
X113292711Y-120965213D01*
X113030447Y-121113561D01*
X112854632Y-121842559D01*
X111671002Y-121842559D01*
X111578824Y-121256653D01*
X111519553Y-121113561D01*
X111257289Y-120965213D01*
X110302502Y-121920000D01*
X109247498Y-121920000D01*
X108292711Y-120965213D01*
X108030447Y-121113561D01*
X107854632Y-121842559D01*
X106671002Y-121842559D01*
X106578824Y-121256653D01*
X106519553Y-121113561D01*
X106257289Y-120965213D01*
X105302502Y-121920000D01*
X104247498Y-121920000D01*
X103292711Y-120965213D01*
X103030447Y-121113561D01*
X102854632Y-121842559D01*
X100070067Y-121842559D01*
X100070326Y-121546695D01*
X99783957Y-120853628D01*
X99368765Y-120437711D01*
X103820213Y-120437711D01*
X104775000Y-121392498D01*
X105729787Y-120437711D01*
X108820213Y-120437711D01*
X109775000Y-121392498D01*
X110729787Y-120437711D01*
X113820213Y-120437711D01*
X114775000Y-121392498D01*
X115729787Y-120437711D01*
X118820213Y-120437711D01*
X119775000Y-121392498D01*
X120729787Y-120437711D01*
X120581439Y-120175447D01*
X119852441Y-119999632D01*
X119111653Y-120116176D01*
X118968561Y-120175447D01*
X118820213Y-120437711D01*
X115729787Y-120437711D01*
X115581439Y-120175447D01*
X114852441Y-119999632D01*
X114111653Y-120116176D01*
X113968561Y-120175447D01*
X113820213Y-120437711D01*
X110729787Y-120437711D01*
X110581439Y-120175447D01*
X109852441Y-119999632D01*
X109111653Y-120116176D01*
X108968561Y-120175447D01*
X108820213Y-120437711D01*
X105729787Y-120437711D01*
X105581439Y-120175447D01*
X104852441Y-119999632D01*
X104111653Y-120116176D01*
X103968561Y-120175447D01*
X103820213Y-120437711D01*
X99368765Y-120437711D01*
X99254161Y-120322907D01*
X98561595Y-120035328D01*
X97811695Y-120034674D01*
X97118628Y-120321043D01*
X96587907Y-120850839D01*
X96300328Y-121543405D01*
X96299674Y-122293305D01*
X95034013Y-122293305D01*
X95105368Y-121997441D01*
X94988824Y-121256653D01*
X94929553Y-121113561D01*
X94667289Y-120965213D01*
X93712502Y-121920000D01*
X92657498Y-121920000D01*
X91702711Y-120965213D01*
X91440447Y-121113561D01*
X91264632Y-121842559D01*
X90081002Y-121842559D01*
X89988824Y-121256653D01*
X89929553Y-121113561D01*
X89667289Y-120965213D01*
X88712502Y-121920000D01*
X87657498Y-121920000D01*
X86702711Y-120965213D01*
X86440447Y-121113561D01*
X86264632Y-121842559D01*
X85070067Y-121842559D01*
X85070326Y-121546695D01*
X84783957Y-120853628D01*
X84368765Y-120437711D01*
X87230213Y-120437711D01*
X88185000Y-121392498D01*
X89139787Y-120437711D01*
X92230213Y-120437711D01*
X93185000Y-121392498D01*
X94139787Y-120437711D01*
X93991439Y-120175447D01*
X93262441Y-119999632D01*
X92521653Y-120116176D01*
X92378561Y-120175447D01*
X92230213Y-120437711D01*
X89139787Y-120437711D01*
X88991439Y-120175447D01*
X88262441Y-119999632D01*
X87521653Y-120116176D01*
X87378561Y-120175447D01*
X87230213Y-120437711D01*
X84368765Y-120437711D01*
X84254161Y-120322907D01*
X83561595Y-120035328D01*
X82811695Y-120034674D01*
X82118628Y-120321043D01*
X81587907Y-120850839D01*
X81300328Y-121543405D01*
X81299674Y-122293305D01*
X73524446Y-122293305D01*
X73459161Y-122227907D01*
X72766595Y-121940328D01*
X72016695Y-121939674D01*
X71323628Y-122226043D01*
X70792907Y-122755839D01*
X70505328Y-123448405D01*
X70504674Y-124198305D01*
X65784116Y-124198305D01*
X65839559Y-124115329D01*
X65947833Y-123571000D01*
X65839559Y-123026671D01*
X65531222Y-122565211D01*
X65135801Y-122301000D01*
X65531222Y-122036789D01*
X65839559Y-121575329D01*
X65947833Y-121031000D01*
X65839559Y-120486671D01*
X65531222Y-120025211D01*
X65135801Y-119761000D01*
X65531222Y-119496789D01*
X65839559Y-119035329D01*
X65947833Y-118491000D01*
X65839559Y-117946671D01*
X65531222Y-117485211D01*
X65135801Y-117221000D01*
X65531222Y-116956789D01*
X65839559Y-116495329D01*
X65947833Y-115951000D01*
X65839559Y-115406671D01*
X65531222Y-114945211D01*
X65135801Y-114681000D01*
X65531222Y-114416789D01*
X65839559Y-113955329D01*
X65947833Y-113411000D01*
X65839559Y-112866671D01*
X65531222Y-112405211D01*
X65135801Y-112141000D01*
X65531222Y-111876789D01*
X65839559Y-111415329D01*
X65947833Y-110871000D01*
X65839559Y-110326671D01*
X65531222Y-109865211D01*
X65135801Y-109601000D01*
X65531222Y-109336789D01*
X65839559Y-108875329D01*
X65947833Y-108331000D01*
X65839559Y-107786671D01*
X65531222Y-107325211D01*
X65135801Y-107061000D01*
X65531222Y-106796789D01*
X65839559Y-106335329D01*
X65947833Y-105791000D01*
X65839559Y-105246671D01*
X65531222Y-104785211D01*
X65135801Y-104521000D01*
X65531222Y-104256789D01*
X65839559Y-103795329D01*
X65947833Y-103251000D01*
X65839559Y-102706671D01*
X65531222Y-102245211D01*
X65135801Y-101981000D01*
X65531222Y-101716789D01*
X65726993Y-101423795D01*
X74564716Y-101423795D01*
X74813106Y-102024943D01*
X75272637Y-102485278D01*
X75873352Y-102734716D01*
X76523795Y-102735284D01*
X77124943Y-102486894D01*
X77585278Y-102027363D01*
X77834716Y-101426648D01*
X77834718Y-101423795D01*
X86564716Y-101423795D01*
X86813106Y-102024943D01*
X87272637Y-102485278D01*
X87873352Y-102734716D01*
X88523795Y-102735284D01*
X89124943Y-102486894D01*
X89585278Y-102027363D01*
X89834716Y-101426648D01*
X89834718Y-101423795D01*
X95519716Y-101423795D01*
X95768106Y-102024943D01*
X96227637Y-102485278D01*
X96828352Y-102734716D01*
X97478795Y-102735284D01*
X98079943Y-102486894D01*
X98540278Y-102027363D01*
X98789716Y-101426648D01*
X98789718Y-101423795D01*
X107519716Y-101423795D01*
X107768106Y-102024943D01*
X108227637Y-102485278D01*
X108828352Y-102734716D01*
X109478795Y-102735284D01*
X110079943Y-102486894D01*
X110540278Y-102027363D01*
X110789716Y-101426648D01*
X110789718Y-101423795D01*
X116474716Y-101423795D01*
X116723106Y-102024943D01*
X117182637Y-102485278D01*
X117783352Y-102734716D01*
X118433795Y-102735284D01*
X119034943Y-102486894D01*
X119495278Y-102027363D01*
X119744716Y-101426648D01*
X119744718Y-101423795D01*
X128474716Y-101423795D01*
X128723106Y-102024943D01*
X129182637Y-102485278D01*
X129783352Y-102734716D01*
X130433795Y-102735284D01*
X131034943Y-102486894D01*
X131495278Y-102027363D01*
X131744716Y-101426648D01*
X131744718Y-101423795D01*
X137429716Y-101423795D01*
X137678106Y-102024943D01*
X138137637Y-102485278D01*
X138738352Y-102734716D01*
X139388795Y-102735284D01*
X139989943Y-102486894D01*
X140450278Y-102027363D01*
X140699716Y-101426648D01*
X140699718Y-101423795D01*
X149429716Y-101423795D01*
X149678106Y-102024943D01*
X150137637Y-102485278D01*
X150738352Y-102734716D01*
X151388795Y-102735284D01*
X151989943Y-102486894D01*
X152450278Y-102027363D01*
X152699716Y-101426648D01*
X152699718Y-101423795D01*
X158384716Y-101423795D01*
X158633106Y-102024943D01*
X159092637Y-102485278D01*
X159693352Y-102734716D01*
X160343795Y-102735284D01*
X160944943Y-102486894D01*
X161405278Y-102027363D01*
X161654716Y-101426648D01*
X161654718Y-101423795D01*
X170384716Y-101423795D01*
X170633106Y-102024943D01*
X171092637Y-102485278D01*
X171693352Y-102734716D01*
X172343795Y-102735284D01*
X172944943Y-102486894D01*
X173405278Y-102027363D01*
X173654716Y-101426648D01*
X173654718Y-101423795D01*
X179339716Y-101423795D01*
X179588106Y-102024943D01*
X180047637Y-102485278D01*
X180648352Y-102734716D01*
X181298795Y-102735284D01*
X181899943Y-102486894D01*
X182360278Y-102027363D01*
X182609716Y-101426648D01*
X182609718Y-101423795D01*
X191339716Y-101423795D01*
X191588106Y-102024943D01*
X192047637Y-102485278D01*
X192648352Y-102734716D01*
X193298795Y-102735284D01*
X193899943Y-102486894D01*
X194360278Y-102027363D01*
X194609716Y-101426648D01*
X194609718Y-101423795D01*
X200294716Y-101423795D01*
X200543106Y-102024943D01*
X201002637Y-102485278D01*
X201603352Y-102734716D01*
X202253795Y-102735284D01*
X202854943Y-102486894D01*
X203315278Y-102027363D01*
X203564716Y-101426648D01*
X203564718Y-101423795D01*
X212294716Y-101423795D01*
X212543106Y-102024943D01*
X213002637Y-102485278D01*
X213603352Y-102734716D01*
X214253795Y-102735284D01*
X214854943Y-102486894D01*
X215315278Y-102027363D01*
X215564716Y-101426648D01*
X215564718Y-101423795D01*
X221249716Y-101423795D01*
X221498106Y-102024943D01*
X221957637Y-102485278D01*
X222558352Y-102734716D01*
X223208795Y-102735284D01*
X223809943Y-102486894D01*
X224270278Y-102027363D01*
X224519716Y-101426648D01*
X224519718Y-101423795D01*
X233249716Y-101423795D01*
X233498106Y-102024943D01*
X233957637Y-102485278D01*
X234558352Y-102734716D01*
X235208795Y-102735284D01*
X235809943Y-102486894D01*
X236270278Y-102027363D01*
X236519716Y-101426648D01*
X236520284Y-100776205D01*
X236271894Y-100175057D01*
X235812363Y-99714722D01*
X235211648Y-99465284D01*
X234561205Y-99464716D01*
X233960057Y-99713106D01*
X233499722Y-100172637D01*
X233250284Y-100773352D01*
X233249716Y-101423795D01*
X224519718Y-101423795D01*
X224520284Y-100776205D01*
X224271894Y-100175057D01*
X223812363Y-99714722D01*
X223211648Y-99465284D01*
X222561205Y-99464716D01*
X221960057Y-99713106D01*
X221499722Y-100172637D01*
X221250284Y-100773352D01*
X221249716Y-101423795D01*
X215564718Y-101423795D01*
X215565284Y-100776205D01*
X215316894Y-100175057D01*
X214857363Y-99714722D01*
X214256648Y-99465284D01*
X213606205Y-99464716D01*
X213005057Y-99713106D01*
X212544722Y-100172637D01*
X212295284Y-100773352D01*
X212294716Y-101423795D01*
X203564718Y-101423795D01*
X203565284Y-100776205D01*
X203316894Y-100175057D01*
X202857363Y-99714722D01*
X202256648Y-99465284D01*
X201606205Y-99464716D01*
X201005057Y-99713106D01*
X200544722Y-100172637D01*
X200295284Y-100773352D01*
X200294716Y-101423795D01*
X194609718Y-101423795D01*
X194610284Y-100776205D01*
X194361894Y-100175057D01*
X193902363Y-99714722D01*
X193301648Y-99465284D01*
X192651205Y-99464716D01*
X192050057Y-99713106D01*
X191589722Y-100172637D01*
X191340284Y-100773352D01*
X191339716Y-101423795D01*
X182609718Y-101423795D01*
X182610284Y-100776205D01*
X182361894Y-100175057D01*
X181902363Y-99714722D01*
X181301648Y-99465284D01*
X180651205Y-99464716D01*
X180050057Y-99713106D01*
X179589722Y-100172637D01*
X179340284Y-100773352D01*
X179339716Y-101423795D01*
X173654718Y-101423795D01*
X173655284Y-100776205D01*
X173406894Y-100175057D01*
X172947363Y-99714722D01*
X172346648Y-99465284D01*
X171696205Y-99464716D01*
X171095057Y-99713106D01*
X170634722Y-100172637D01*
X170385284Y-100773352D01*
X170384716Y-101423795D01*
X161654718Y-101423795D01*
X161655284Y-100776205D01*
X161406894Y-100175057D01*
X160947363Y-99714722D01*
X160346648Y-99465284D01*
X159696205Y-99464716D01*
X159095057Y-99713106D01*
X158634722Y-100172637D01*
X158385284Y-100773352D01*
X158384716Y-101423795D01*
X152699718Y-101423795D01*
X152700284Y-100776205D01*
X152451894Y-100175057D01*
X151992363Y-99714722D01*
X151391648Y-99465284D01*
X150741205Y-99464716D01*
X150140057Y-99713106D01*
X149679722Y-100172637D01*
X149430284Y-100773352D01*
X149429716Y-101423795D01*
X140699718Y-101423795D01*
X140700284Y-100776205D01*
X140451894Y-100175057D01*
X139992363Y-99714722D01*
X139391648Y-99465284D01*
X138741205Y-99464716D01*
X138140057Y-99713106D01*
X137679722Y-100172637D01*
X137430284Y-100773352D01*
X137429716Y-101423795D01*
X131744718Y-101423795D01*
X131745284Y-100776205D01*
X131496894Y-100175057D01*
X131037363Y-99714722D01*
X130436648Y-99465284D01*
X129786205Y-99464716D01*
X129185057Y-99713106D01*
X128724722Y-100172637D01*
X128475284Y-100773352D01*
X128474716Y-101423795D01*
X119744718Y-101423795D01*
X119745284Y-100776205D01*
X119496894Y-100175057D01*
X119037363Y-99714722D01*
X118436648Y-99465284D01*
X117786205Y-99464716D01*
X117185057Y-99713106D01*
X116724722Y-100172637D01*
X116475284Y-100773352D01*
X116474716Y-101423795D01*
X110789718Y-101423795D01*
X110790284Y-100776205D01*
X110541894Y-100175057D01*
X110082363Y-99714722D01*
X109481648Y-99465284D01*
X108831205Y-99464716D01*
X108230057Y-99713106D01*
X107769722Y-100172637D01*
X107520284Y-100773352D01*
X107519716Y-101423795D01*
X98789718Y-101423795D01*
X98790284Y-100776205D01*
X98541894Y-100175057D01*
X98082363Y-99714722D01*
X97481648Y-99465284D01*
X96831205Y-99464716D01*
X96230057Y-99713106D01*
X95769722Y-100172637D01*
X95520284Y-100773352D01*
X95519716Y-101423795D01*
X89834718Y-101423795D01*
X89835284Y-100776205D01*
X89586894Y-100175057D01*
X89127363Y-99714722D01*
X88526648Y-99465284D01*
X87876205Y-99464716D01*
X87275057Y-99713106D01*
X86814722Y-100172637D01*
X86565284Y-100773352D01*
X86564716Y-101423795D01*
X77834718Y-101423795D01*
X77835284Y-100776205D01*
X77586894Y-100175057D01*
X77127363Y-99714722D01*
X76526648Y-99465284D01*
X75876205Y-99464716D01*
X75275057Y-99713106D01*
X74814722Y-100172637D01*
X74565284Y-100773352D01*
X74564716Y-101423795D01*
X65726993Y-101423795D01*
X65839559Y-101255329D01*
X65947833Y-100711000D01*
X65839559Y-100166671D01*
X65531222Y-99705211D01*
X65135801Y-99441000D01*
X65531222Y-99176789D01*
X65839559Y-98715329D01*
X65947833Y-98171000D01*
X65839559Y-97626671D01*
X65531222Y-97165211D01*
X65111547Y-96884794D01*
X65247445Y-96832758D01*
X65649726Y-96451648D01*
X65787974Y-96214133D01*
X65697945Y-96004000D01*
X64508000Y-96004000D01*
X64508000Y-96024000D01*
X63762000Y-96024000D01*
X63762000Y-96004000D01*
X63742000Y-96004000D01*
X63742000Y-95258000D01*
X63762000Y-95258000D01*
X63762000Y-95238000D01*
X64508000Y-95238000D01*
X64508000Y-95258000D01*
X65697945Y-95258000D01*
X65787974Y-95047867D01*
X65649726Y-94810352D01*
X65247445Y-94429242D01*
X65111547Y-94377206D01*
X65531222Y-94096789D01*
X65839559Y-93635329D01*
X65947833Y-93091000D01*
X65839559Y-92546671D01*
X65531222Y-92085211D01*
X65177161Y-91848635D01*
X65308461Y-91717564D01*
X65319076Y-91692000D01*
X67934998Y-91692000D01*
X72030399Y-95787401D01*
X72276961Y-95952148D01*
X72567800Y-96010000D01*
X91060530Y-96010000D01*
X91060530Y-96249490D01*
X91104808Y-96484807D01*
X91243880Y-96700931D01*
X91456080Y-96845921D01*
X91707970Y-96896930D01*
X93706950Y-96896930D01*
X93942267Y-96852652D01*
X94158391Y-96713580D01*
X94303381Y-96501380D01*
X94354390Y-96249490D01*
X94354390Y-94250510D01*
X94310112Y-94015193D01*
X94204457Y-93851000D01*
X112167403Y-93851000D01*
X112066539Y-93998620D01*
X112015530Y-94250510D01*
X112015530Y-96249490D01*
X112059808Y-96484807D01*
X112198880Y-96700931D01*
X112411080Y-96845921D01*
X112662970Y-96896930D01*
X114661950Y-96896930D01*
X114897267Y-96852652D01*
X115113391Y-96713580D01*
X115258381Y-96501380D01*
X115309390Y-96249490D01*
X115309390Y-94250510D01*
X115265112Y-94015193D01*
X115159457Y-93851000D01*
X133122403Y-93851000D01*
X133021539Y-93998620D01*
X132970530Y-94250510D01*
X132970530Y-96249490D01*
X133014808Y-96484807D01*
X133153880Y-96700931D01*
X133366080Y-96845921D01*
X133617970Y-96896930D01*
X135616950Y-96896930D01*
X135852267Y-96852652D01*
X136068391Y-96713580D01*
X136213381Y-96501380D01*
X136264390Y-96249490D01*
X136264390Y-94250510D01*
X136220112Y-94015193D01*
X136114457Y-93851000D01*
X154077403Y-93851000D01*
X153976539Y-93998620D01*
X153925530Y-94250510D01*
X153925530Y-96249490D01*
X153969808Y-96484807D01*
X154108880Y-96700931D01*
X154321080Y-96845921D01*
X154572970Y-96896930D01*
X156571950Y-96896930D01*
X156807267Y-96852652D01*
X157023391Y-96713580D01*
X157168381Y-96501380D01*
X157219390Y-96249490D01*
X157219390Y-94250510D01*
X157175112Y-94015193D01*
X157069457Y-93851000D01*
X175032403Y-93851000D01*
X174931539Y-93998620D01*
X174880530Y-94250510D01*
X174880530Y-96249490D01*
X174924808Y-96484807D01*
X175063880Y-96700931D01*
X175276080Y-96845921D01*
X175527970Y-96896930D01*
X177526950Y-96896930D01*
X177762267Y-96852652D01*
X177978391Y-96713580D01*
X178123381Y-96501380D01*
X178174390Y-96249490D01*
X178174390Y-94250510D01*
X178130112Y-94015193D01*
X178024457Y-93851000D01*
X195987403Y-93851000D01*
X195886539Y-93998620D01*
X195835530Y-94250510D01*
X195835530Y-96249490D01*
X195879808Y-96484807D01*
X196018880Y-96700931D01*
X196231080Y-96845921D01*
X196482970Y-96896930D01*
X198481950Y-96896930D01*
X198717267Y-96852652D01*
X198933391Y-96713580D01*
X199078381Y-96501380D01*
X199129390Y-96249490D01*
X199129390Y-94250510D01*
X216790530Y-94250510D01*
X216790530Y-96249490D01*
X216834808Y-96484807D01*
X216973880Y-96700931D01*
X217186080Y-96845921D01*
X217437970Y-96896930D01*
X219436950Y-96896930D01*
X219672267Y-96852652D01*
X219888391Y-96713580D01*
X220033381Y-96501380D01*
X220084390Y-96249490D01*
X220084390Y-94250510D01*
X220040112Y-94015193D01*
X219901040Y-93799069D01*
X219688840Y-93654079D01*
X219436950Y-93603070D01*
X217437970Y-93603070D01*
X217202653Y-93647348D01*
X216986529Y-93786420D01*
X216841539Y-93998620D01*
X216790530Y-94250510D01*
X199129390Y-94250510D01*
X199085112Y-94015193D01*
X198979457Y-93851000D01*
X215138000Y-93851000D01*
X215428839Y-93793148D01*
X215675401Y-93628401D01*
X220080007Y-89223795D01*
X221249716Y-89223795D01*
X221498106Y-89824943D01*
X221957637Y-90285278D01*
X222558352Y-90534716D01*
X223208795Y-90535284D01*
X223809943Y-90286894D01*
X224270278Y-89827363D01*
X224519716Y-89226648D01*
X224520284Y-88576205D01*
X224271894Y-87975057D01*
X223812363Y-87514722D01*
X223211648Y-87265284D01*
X222561205Y-87264716D01*
X221960057Y-87513106D01*
X221499722Y-87972637D01*
X221250284Y-88573352D01*
X221249716Y-89223795D01*
X220080007Y-89223795D01*
X222080007Y-87223795D01*
X227249716Y-87223795D01*
X227498106Y-87824943D01*
X227957637Y-88285278D01*
X228558352Y-88534716D01*
X229208795Y-88535284D01*
X229809943Y-88286894D01*
X230270278Y-87827363D01*
X230339773Y-87660000D01*
X233812906Y-87660000D01*
X233499722Y-87972637D01*
X233250284Y-88573352D01*
X233249716Y-89223795D01*
X233498106Y-89824943D01*
X233957637Y-90285278D01*
X234558352Y-90534716D01*
X235208795Y-90535284D01*
X235809943Y-90286894D01*
X236270278Y-89827363D01*
X236519716Y-89226648D01*
X236520284Y-88576205D01*
X236271894Y-87975057D01*
X235957387Y-87660000D01*
X237080198Y-87660000D01*
X238622300Y-89202102D01*
X238622300Y-93603070D01*
X238392970Y-93603070D01*
X238157653Y-93647348D01*
X237941529Y-93786420D01*
X237796539Y-93998620D01*
X237745530Y-94250510D01*
X237745530Y-96249490D01*
X237789808Y-96484807D01*
X237928880Y-96700931D01*
X238141080Y-96845921D01*
X238392970Y-96896930D01*
X240391950Y-96896930D01*
X240627267Y-96852652D01*
X240843391Y-96713580D01*
X240988381Y-96501380D01*
X241039390Y-96249490D01*
X241039390Y-94250510D01*
X240995112Y-94015193D01*
X240856040Y-93799069D01*
X240643840Y-93654079D01*
X240391950Y-93603070D01*
X240142300Y-93603070D01*
X240142300Y-88948533D01*
X240152459Y-88897460D01*
X240094608Y-88606620D01*
X239929861Y-88360059D01*
X237932401Y-86362599D01*
X237685839Y-86197852D01*
X237395000Y-86140000D01*
X230340047Y-86140000D01*
X230271894Y-85975057D01*
X229812363Y-85514722D01*
X229569060Y-85413694D01*
X237757686Y-85413694D01*
X238005998Y-86014655D01*
X238465387Y-86474846D01*
X239065913Y-86724206D01*
X239716154Y-86724774D01*
X240317115Y-86476462D01*
X240777306Y-86017073D01*
X241026666Y-85416547D01*
X241027234Y-84766306D01*
X240778922Y-84165345D01*
X240319533Y-83705154D01*
X239719007Y-83455794D01*
X239068766Y-83455226D01*
X238467805Y-83703538D01*
X238007614Y-84162927D01*
X237758254Y-84763453D01*
X237757686Y-85413694D01*
X229569060Y-85413694D01*
X229211648Y-85265284D01*
X228561205Y-85264716D01*
X227960057Y-85513106D01*
X227499722Y-85972637D01*
X227250284Y-86573352D01*
X227249716Y-87223795D01*
X222080007Y-87223795D01*
X223422401Y-85881401D01*
X223587148Y-85634840D01*
X223612410Y-85507839D01*
X223645000Y-85344000D01*
X223645000Y-83369496D01*
X223809655Y-83301462D01*
X224269846Y-82842073D01*
X224519206Y-82241547D01*
X224519208Y-82238694D01*
X231410226Y-82238694D01*
X231658538Y-82839655D01*
X232117927Y-83299846D01*
X232718453Y-83549206D01*
X233368694Y-83549774D01*
X233969655Y-83301462D01*
X234429846Y-82842073D01*
X234617616Y-82389872D01*
X236272630Y-82389872D01*
X236356211Y-82601110D01*
X236899746Y-82691425D01*
X237353789Y-82601110D01*
X237437370Y-82389872D01*
X236855000Y-81807502D01*
X236272630Y-82389872D01*
X234617616Y-82389872D01*
X234679206Y-82241547D01*
X234679774Y-81591306D01*
X234569634Y-81324746D01*
X235443575Y-81324746D01*
X235533890Y-81778789D01*
X235745128Y-81862370D01*
X236327498Y-81280000D01*
X235745128Y-80697630D01*
X235533890Y-80781211D01*
X235443575Y-81324746D01*
X234569634Y-81324746D01*
X234431462Y-80990345D01*
X233972073Y-80530154D01*
X233371547Y-80280794D01*
X232721306Y-80280226D01*
X232120345Y-80528538D01*
X231660154Y-80987927D01*
X231410794Y-81588453D01*
X231410226Y-82238694D01*
X224519208Y-82238694D01*
X224519774Y-81591306D01*
X224271462Y-80990345D01*
X223812073Y-80530154D01*
X223211547Y-80280794D01*
X222561306Y-80280226D01*
X221960345Y-80528538D01*
X221500154Y-80987927D01*
X221250794Y-81588453D01*
X221250226Y-82238694D01*
X221498538Y-82839655D01*
X221957927Y-83299846D01*
X222125000Y-83369221D01*
X222125000Y-85029198D01*
X214823198Y-92331000D01*
X195890802Y-92331000D01*
X198998007Y-89223795D01*
X200294716Y-89223795D01*
X200543106Y-89824943D01*
X201002637Y-90285278D01*
X201603352Y-90534716D01*
X202253795Y-90535284D01*
X202854943Y-90286894D01*
X203315278Y-89827363D01*
X203564716Y-89226648D01*
X203564718Y-89223795D01*
X212294716Y-89223795D01*
X212543106Y-89824943D01*
X213002637Y-90285278D01*
X213603352Y-90534716D01*
X214253795Y-90535284D01*
X214854943Y-90286894D01*
X215315278Y-89827363D01*
X215564716Y-89226648D01*
X215565284Y-88576205D01*
X215316894Y-87975057D01*
X214857363Y-87514722D01*
X214256648Y-87265284D01*
X213606205Y-87264716D01*
X213005057Y-87513106D01*
X212544722Y-87972637D01*
X212295284Y-88573352D01*
X212294716Y-89223795D01*
X203564718Y-89223795D01*
X203565284Y-88576205D01*
X203316894Y-87975057D01*
X202857363Y-87514722D01*
X202256648Y-87265284D01*
X201606205Y-87264716D01*
X201005057Y-87513106D01*
X200544722Y-87972637D01*
X200295284Y-88573352D01*
X200294716Y-89223795D01*
X198998007Y-89223795D01*
X200998007Y-87223795D01*
X206294716Y-87223795D01*
X206543106Y-87824943D01*
X207002637Y-88285278D01*
X207603352Y-88534716D01*
X208253795Y-88535284D01*
X208854943Y-88286894D01*
X209315278Y-87827363D01*
X209564716Y-87226648D01*
X209565284Y-86576205D01*
X209316894Y-85975057D01*
X208857363Y-85514722D01*
X208614060Y-85413694D01*
X216802686Y-85413694D01*
X217050998Y-86014655D01*
X217510387Y-86474846D01*
X218110913Y-86724206D01*
X218761154Y-86724774D01*
X219362115Y-86476462D01*
X219822306Y-86017073D01*
X220071666Y-85416547D01*
X220072234Y-84766306D01*
X219823922Y-84165345D01*
X219364533Y-83705154D01*
X218764007Y-83455794D01*
X218113766Y-83455226D01*
X217512805Y-83703538D01*
X217052614Y-84162927D01*
X216803254Y-84763453D01*
X216802686Y-85413694D01*
X208614060Y-85413694D01*
X208256648Y-85265284D01*
X207606205Y-85264716D01*
X207005057Y-85513106D01*
X206544722Y-85972637D01*
X206295284Y-86573352D01*
X206294716Y-87223795D01*
X200998007Y-87223795D01*
X202467401Y-85754401D01*
X202632148Y-85507839D01*
X202690000Y-85217000D01*
X202690000Y-83369496D01*
X202854655Y-83301462D01*
X203314846Y-82842073D01*
X203564206Y-82241547D01*
X203564208Y-82238694D01*
X210455226Y-82238694D01*
X210703538Y-82839655D01*
X211162927Y-83299846D01*
X211763453Y-83549206D01*
X212413694Y-83549774D01*
X213014655Y-83301462D01*
X213474846Y-82842073D01*
X213662616Y-82389872D01*
X215317630Y-82389872D01*
X215401211Y-82601110D01*
X215944746Y-82691425D01*
X216398789Y-82601110D01*
X216482370Y-82389872D01*
X215900000Y-81807502D01*
X215317630Y-82389872D01*
X213662616Y-82389872D01*
X213724206Y-82241547D01*
X213724774Y-81591306D01*
X213614634Y-81324746D01*
X214488575Y-81324746D01*
X214578890Y-81778789D01*
X214790128Y-81862370D01*
X215372498Y-81280000D01*
X214790128Y-80697630D01*
X214578890Y-80781211D01*
X214488575Y-81324746D01*
X213614634Y-81324746D01*
X213476462Y-80990345D01*
X213017073Y-80530154D01*
X212416547Y-80280794D01*
X211766306Y-80280226D01*
X211165345Y-80528538D01*
X210705154Y-80987927D01*
X210455794Y-81588453D01*
X210455226Y-82238694D01*
X203564208Y-82238694D01*
X203564774Y-81591306D01*
X203316462Y-80990345D01*
X202857073Y-80530154D01*
X202256547Y-80280794D01*
X201606306Y-80280226D01*
X201005345Y-80528538D01*
X200545154Y-80987927D01*
X200295794Y-81588453D01*
X200295226Y-82238694D01*
X200543538Y-82839655D01*
X201002927Y-83299846D01*
X201170000Y-83369221D01*
X201170000Y-84902198D01*
X194249198Y-91823000D01*
X175570802Y-91823000D01*
X178170007Y-89223795D01*
X179339716Y-89223795D01*
X179588106Y-89824943D01*
X180047637Y-90285278D01*
X180648352Y-90534716D01*
X181298795Y-90535284D01*
X181899943Y-90286894D01*
X182360278Y-89827363D01*
X182609716Y-89226648D01*
X182609718Y-89223795D01*
X191339716Y-89223795D01*
X191588106Y-89824943D01*
X192047637Y-90285278D01*
X192648352Y-90534716D01*
X193298795Y-90535284D01*
X193899943Y-90286894D01*
X194360278Y-89827363D01*
X194609716Y-89226648D01*
X194610284Y-88576205D01*
X194361894Y-87975057D01*
X193902363Y-87514722D01*
X193301648Y-87265284D01*
X192651205Y-87264716D01*
X192050057Y-87513106D01*
X191589722Y-87972637D01*
X191340284Y-88573352D01*
X191339716Y-89223795D01*
X182609718Y-89223795D01*
X182610284Y-88576205D01*
X182361894Y-87975057D01*
X181902363Y-87514722D01*
X181301648Y-87265284D01*
X180651205Y-87264716D01*
X180050057Y-87513106D01*
X179589722Y-87972637D01*
X179340284Y-88573352D01*
X179339716Y-89223795D01*
X178170007Y-89223795D01*
X180170007Y-87223795D01*
X185339716Y-87223795D01*
X185588106Y-87824943D01*
X186047637Y-88285278D01*
X186648352Y-88534716D01*
X187298795Y-88535284D01*
X187899943Y-88286894D01*
X188360278Y-87827363D01*
X188609716Y-87226648D01*
X188610284Y-86576205D01*
X188361894Y-85975057D01*
X187902363Y-85514722D01*
X187659060Y-85413694D01*
X195847686Y-85413694D01*
X196095998Y-86014655D01*
X196555387Y-86474846D01*
X197155913Y-86724206D01*
X197806154Y-86724774D01*
X198407115Y-86476462D01*
X198867306Y-86017073D01*
X199116666Y-85416547D01*
X199117234Y-84766306D01*
X198868922Y-84165345D01*
X198409533Y-83705154D01*
X197809007Y-83455794D01*
X197158766Y-83455226D01*
X196557805Y-83703538D01*
X196097614Y-84162927D01*
X195848254Y-84763453D01*
X195847686Y-85413694D01*
X187659060Y-85413694D01*
X187301648Y-85265284D01*
X186651205Y-85264716D01*
X186050057Y-85513106D01*
X185589722Y-85972637D01*
X185340284Y-86573352D01*
X185339716Y-87223795D01*
X180170007Y-87223795D01*
X181512401Y-85881401D01*
X181677148Y-85634839D01*
X181735000Y-85344000D01*
X181735000Y-83369496D01*
X181899655Y-83301462D01*
X182359846Y-82842073D01*
X182609206Y-82241547D01*
X182609208Y-82238694D01*
X189500226Y-82238694D01*
X189748538Y-82839655D01*
X190207927Y-83299846D01*
X190808453Y-83549206D01*
X191458694Y-83549774D01*
X192059655Y-83301462D01*
X192519846Y-82842073D01*
X192707616Y-82389872D01*
X194362630Y-82389872D01*
X194446211Y-82601110D01*
X194989746Y-82691425D01*
X195443789Y-82601110D01*
X195527370Y-82389872D01*
X194945000Y-81807502D01*
X194362630Y-82389872D01*
X192707616Y-82389872D01*
X192769206Y-82241547D01*
X192769774Y-81591306D01*
X192659634Y-81324746D01*
X193533575Y-81324746D01*
X193623890Y-81778789D01*
X193835128Y-81862370D01*
X194417498Y-81280000D01*
X193835128Y-80697630D01*
X193623890Y-80781211D01*
X193533575Y-81324746D01*
X192659634Y-81324746D01*
X192521462Y-80990345D01*
X192062073Y-80530154D01*
X191461547Y-80280794D01*
X190811306Y-80280226D01*
X190210345Y-80528538D01*
X189750154Y-80987927D01*
X189500794Y-81588453D01*
X189500226Y-82238694D01*
X182609208Y-82238694D01*
X182609774Y-81591306D01*
X182361462Y-80990345D01*
X181902073Y-80530154D01*
X181301547Y-80280794D01*
X180651306Y-80280226D01*
X180050345Y-80528538D01*
X179590154Y-80987927D01*
X179340794Y-81588453D01*
X179340226Y-82238694D01*
X179588538Y-82839655D01*
X180047927Y-83299846D01*
X180215000Y-83369221D01*
X180215000Y-85029198D01*
X173929198Y-91315000D01*
X154996802Y-91315000D01*
X157088007Y-89223795D01*
X158384716Y-89223795D01*
X158633106Y-89824943D01*
X159092637Y-90285278D01*
X159693352Y-90534716D01*
X160343795Y-90535284D01*
X160944943Y-90286894D01*
X161405278Y-89827363D01*
X161654716Y-89226648D01*
X161654718Y-89223795D01*
X170384716Y-89223795D01*
X170633106Y-89824943D01*
X171092637Y-90285278D01*
X171693352Y-90534716D01*
X172343795Y-90535284D01*
X172944943Y-90286894D01*
X173405278Y-89827363D01*
X173654716Y-89226648D01*
X173655284Y-88576205D01*
X173406894Y-87975057D01*
X172947363Y-87514722D01*
X172346648Y-87265284D01*
X171696205Y-87264716D01*
X171095057Y-87513106D01*
X170634722Y-87972637D01*
X170385284Y-88573352D01*
X170384716Y-89223795D01*
X161654718Y-89223795D01*
X161655284Y-88576205D01*
X161406894Y-87975057D01*
X160947363Y-87514722D01*
X160346648Y-87265284D01*
X159696205Y-87264716D01*
X159095057Y-87513106D01*
X158634722Y-87972637D01*
X158385284Y-88573352D01*
X158384716Y-89223795D01*
X157088007Y-89223795D01*
X159088007Y-87223795D01*
X164384716Y-87223795D01*
X164633106Y-87824943D01*
X165092637Y-88285278D01*
X165693352Y-88534716D01*
X166343795Y-88535284D01*
X166944943Y-88286894D01*
X167405278Y-87827363D01*
X167654716Y-87226648D01*
X167655284Y-86576205D01*
X167406894Y-85975057D01*
X166947363Y-85514722D01*
X166704060Y-85413694D01*
X174892686Y-85413694D01*
X175140998Y-86014655D01*
X175600387Y-86474846D01*
X176200913Y-86724206D01*
X176851154Y-86724774D01*
X177452115Y-86476462D01*
X177912306Y-86017073D01*
X178161666Y-85416547D01*
X178162234Y-84766306D01*
X177913922Y-84165345D01*
X177454533Y-83705154D01*
X176854007Y-83455794D01*
X176203766Y-83455226D01*
X175602805Y-83703538D01*
X175142614Y-84162927D01*
X174893254Y-84763453D01*
X174892686Y-85413694D01*
X166704060Y-85413694D01*
X166346648Y-85265284D01*
X165696205Y-85264716D01*
X165095057Y-85513106D01*
X164634722Y-85972637D01*
X164385284Y-86573352D01*
X164384716Y-87223795D01*
X159088007Y-87223795D01*
X160557401Y-85754401D01*
X160722148Y-85507839D01*
X160780000Y-85217000D01*
X160780000Y-83369496D01*
X160944655Y-83301462D01*
X161404846Y-82842073D01*
X161654206Y-82241547D01*
X161654208Y-82238694D01*
X168545226Y-82238694D01*
X168793538Y-82839655D01*
X169252927Y-83299846D01*
X169853453Y-83549206D01*
X170503694Y-83549774D01*
X171104655Y-83301462D01*
X171564846Y-82842073D01*
X171752616Y-82389872D01*
X173407630Y-82389872D01*
X173491211Y-82601110D01*
X174034746Y-82691425D01*
X174488789Y-82601110D01*
X174572370Y-82389872D01*
X173990000Y-81807502D01*
X173407630Y-82389872D01*
X171752616Y-82389872D01*
X171814206Y-82241547D01*
X171814774Y-81591306D01*
X171704634Y-81324746D01*
X172578575Y-81324746D01*
X172668890Y-81778789D01*
X172880128Y-81862370D01*
X173462498Y-81280000D01*
X172880128Y-80697630D01*
X172668890Y-80781211D01*
X172578575Y-81324746D01*
X171704634Y-81324746D01*
X171566462Y-80990345D01*
X171107073Y-80530154D01*
X170506547Y-80280794D01*
X169856306Y-80280226D01*
X169255345Y-80528538D01*
X168795154Y-80987927D01*
X168545794Y-81588453D01*
X168545226Y-82238694D01*
X161654208Y-82238694D01*
X161654774Y-81591306D01*
X161406462Y-80990345D01*
X160947073Y-80530154D01*
X160346547Y-80280794D01*
X159696306Y-80280226D01*
X159095345Y-80528538D01*
X158635154Y-80987927D01*
X158385794Y-81588453D01*
X158385226Y-82238694D01*
X158633538Y-82839655D01*
X159092927Y-83299846D01*
X159260000Y-83369221D01*
X159260000Y-84902198D01*
X153355198Y-90807000D01*
X134676802Y-90807000D01*
X136260007Y-89223795D01*
X137429716Y-89223795D01*
X137678106Y-89824943D01*
X138137637Y-90285278D01*
X138738352Y-90534716D01*
X139388795Y-90535284D01*
X139989943Y-90286894D01*
X140450278Y-89827363D01*
X140699716Y-89226648D01*
X140699718Y-89223795D01*
X149429716Y-89223795D01*
X149678106Y-89824943D01*
X150137637Y-90285278D01*
X150738352Y-90534716D01*
X151388795Y-90535284D01*
X151989943Y-90286894D01*
X152450278Y-89827363D01*
X152699716Y-89226648D01*
X152700284Y-88576205D01*
X152451894Y-87975057D01*
X151992363Y-87514722D01*
X151391648Y-87265284D01*
X150741205Y-87264716D01*
X150140057Y-87513106D01*
X149679722Y-87972637D01*
X149430284Y-88573352D01*
X149429716Y-89223795D01*
X140699718Y-89223795D01*
X140700284Y-88576205D01*
X140451894Y-87975057D01*
X139992363Y-87514722D01*
X139391648Y-87265284D01*
X138741205Y-87264716D01*
X138140057Y-87513106D01*
X137679722Y-87972637D01*
X137430284Y-88573352D01*
X137429716Y-89223795D01*
X136260007Y-89223795D01*
X138260007Y-87223795D01*
X143429716Y-87223795D01*
X143678106Y-87824943D01*
X144137637Y-88285278D01*
X144738352Y-88534716D01*
X145388795Y-88535284D01*
X145989943Y-88286894D01*
X146450278Y-87827363D01*
X146699716Y-87226648D01*
X146700284Y-86576205D01*
X146451894Y-85975057D01*
X145992363Y-85514722D01*
X145749060Y-85413694D01*
X153937686Y-85413694D01*
X154185998Y-86014655D01*
X154645387Y-86474846D01*
X155245913Y-86724206D01*
X155896154Y-86724774D01*
X156497115Y-86476462D01*
X156957306Y-86017073D01*
X157206666Y-85416547D01*
X157207234Y-84766306D01*
X156958922Y-84165345D01*
X156499533Y-83705154D01*
X155899007Y-83455794D01*
X155248766Y-83455226D01*
X154647805Y-83703538D01*
X154187614Y-84162927D01*
X153938254Y-84763453D01*
X153937686Y-85413694D01*
X145749060Y-85413694D01*
X145391648Y-85265284D01*
X144741205Y-85264716D01*
X144140057Y-85513106D01*
X143679722Y-85972637D01*
X143430284Y-86573352D01*
X143429716Y-87223795D01*
X138260007Y-87223795D01*
X139602402Y-85881401D01*
X139767148Y-85634839D01*
X139825000Y-85344000D01*
X139825000Y-83369496D01*
X139989655Y-83301462D01*
X140449846Y-82842073D01*
X140699206Y-82241547D01*
X140699208Y-82238694D01*
X147590226Y-82238694D01*
X147838538Y-82839655D01*
X148297927Y-83299846D01*
X148898453Y-83549206D01*
X149548694Y-83549774D01*
X150149655Y-83301462D01*
X150609846Y-82842073D01*
X150797616Y-82389872D01*
X152452630Y-82389872D01*
X152536211Y-82601110D01*
X153079746Y-82691425D01*
X153533789Y-82601110D01*
X153617370Y-82389872D01*
X153035000Y-81807502D01*
X152452630Y-82389872D01*
X150797616Y-82389872D01*
X150859206Y-82241547D01*
X150859774Y-81591306D01*
X150749634Y-81324746D01*
X151623575Y-81324746D01*
X151713890Y-81778789D01*
X151925128Y-81862370D01*
X152507498Y-81280000D01*
X151925128Y-80697630D01*
X151713890Y-80781211D01*
X151623575Y-81324746D01*
X150749634Y-81324746D01*
X150611462Y-80990345D01*
X150152073Y-80530154D01*
X149551547Y-80280794D01*
X148901306Y-80280226D01*
X148300345Y-80528538D01*
X147840154Y-80987927D01*
X147590794Y-81588453D01*
X147590226Y-82238694D01*
X140699208Y-82238694D01*
X140699774Y-81591306D01*
X140451462Y-80990345D01*
X139992073Y-80530154D01*
X139391547Y-80280794D01*
X138741306Y-80280226D01*
X138140345Y-80528538D01*
X137680154Y-80987927D01*
X137430794Y-81588453D01*
X137430226Y-82238694D01*
X137678538Y-82839655D01*
X138137927Y-83299846D01*
X138305000Y-83369221D01*
X138305000Y-85029197D01*
X133035198Y-90299000D01*
X131005644Y-90299000D01*
X131034943Y-90286894D01*
X131495278Y-89827363D01*
X131744716Y-89226648D01*
X131745284Y-88576205D01*
X131496894Y-87975057D01*
X131037363Y-87514722D01*
X130436648Y-87265284D01*
X129786205Y-87264716D01*
X129185057Y-87513106D01*
X128724722Y-87972637D01*
X128475284Y-88573352D01*
X128474716Y-89223795D01*
X128723106Y-89824943D01*
X129182637Y-90285278D01*
X129215683Y-90299000D01*
X119005644Y-90299000D01*
X119034943Y-90286894D01*
X119495278Y-89827363D01*
X119744716Y-89226648D01*
X119745284Y-88576205D01*
X119496894Y-87975057D01*
X119037363Y-87514722D01*
X118436648Y-87265284D01*
X117786205Y-87264716D01*
X117185057Y-87513106D01*
X116724722Y-87972637D01*
X116475284Y-88573352D01*
X116474716Y-89223795D01*
X116723106Y-89824943D01*
X117182637Y-90285278D01*
X117215683Y-90299000D01*
X114356802Y-90299000D01*
X117432007Y-87223795D01*
X122474716Y-87223795D01*
X122723106Y-87824943D01*
X123182637Y-88285278D01*
X123783352Y-88534716D01*
X124433795Y-88535284D01*
X125034943Y-88286894D01*
X125495278Y-87827363D01*
X125744716Y-87226648D01*
X125745284Y-86576205D01*
X125496894Y-85975057D01*
X125037363Y-85514722D01*
X124794060Y-85413694D01*
X132982686Y-85413694D01*
X133230998Y-86014655D01*
X133690387Y-86474846D01*
X134290913Y-86724206D01*
X134941154Y-86724774D01*
X135542115Y-86476462D01*
X136002306Y-86017073D01*
X136251666Y-85416547D01*
X136252234Y-84766306D01*
X136003922Y-84165345D01*
X135544533Y-83705154D01*
X134944007Y-83455794D01*
X134293766Y-83455226D01*
X133692805Y-83703538D01*
X133232614Y-84162927D01*
X132983254Y-84763453D01*
X132982686Y-85413694D01*
X124794060Y-85413694D01*
X124436648Y-85265284D01*
X123786205Y-85264716D01*
X123185057Y-85513106D01*
X122724722Y-85972637D01*
X122475284Y-86573352D01*
X122474716Y-87223795D01*
X117432007Y-87223795D01*
X118647401Y-86008401D01*
X118812148Y-85761839D01*
X118870000Y-85471000D01*
X118870000Y-83369496D01*
X119034655Y-83301462D01*
X119494846Y-82842073D01*
X119744206Y-82241547D01*
X119744208Y-82238694D01*
X126635226Y-82238694D01*
X126883538Y-82839655D01*
X127342927Y-83299846D01*
X127943453Y-83549206D01*
X128593694Y-83549774D01*
X129194655Y-83301462D01*
X129654846Y-82842073D01*
X129842616Y-82389872D01*
X131497630Y-82389872D01*
X131581211Y-82601110D01*
X132124746Y-82691425D01*
X132578789Y-82601110D01*
X132662370Y-82389872D01*
X132080000Y-81807502D01*
X131497630Y-82389872D01*
X129842616Y-82389872D01*
X129904206Y-82241547D01*
X129904774Y-81591306D01*
X129794634Y-81324746D01*
X130668575Y-81324746D01*
X130758890Y-81778789D01*
X130970128Y-81862370D01*
X131552498Y-81280000D01*
X130970128Y-80697630D01*
X130758890Y-80781211D01*
X130668575Y-81324746D01*
X129794634Y-81324746D01*
X129656462Y-80990345D01*
X129197073Y-80530154D01*
X128596547Y-80280794D01*
X127946306Y-80280226D01*
X127345345Y-80528538D01*
X126885154Y-80987927D01*
X126635794Y-81588453D01*
X126635226Y-82238694D01*
X119744208Y-82238694D01*
X119744774Y-81591306D01*
X119496462Y-80990345D01*
X119037073Y-80530154D01*
X118436547Y-80280794D01*
X117786306Y-80280226D01*
X117185345Y-80528538D01*
X116725154Y-80987927D01*
X116475794Y-81588453D01*
X116475226Y-82238694D01*
X116723538Y-82839655D01*
X117182927Y-83299846D01*
X117350000Y-83369221D01*
X117350000Y-85156198D01*
X112715198Y-89791000D01*
X110555377Y-89791000D01*
X110789716Y-89226648D01*
X110790284Y-88576205D01*
X110541894Y-87975057D01*
X110082363Y-87514722D01*
X109481648Y-87265284D01*
X108831205Y-87264716D01*
X108230057Y-87513106D01*
X107769722Y-87972637D01*
X107520284Y-88573352D01*
X107519716Y-89223795D01*
X107754081Y-89791000D01*
X98555377Y-89791000D01*
X98789716Y-89226648D01*
X98790284Y-88576205D01*
X98541894Y-87975057D01*
X98082363Y-87514722D01*
X97481648Y-87265284D01*
X96831205Y-87264716D01*
X96230057Y-87513106D01*
X95769722Y-87972637D01*
X95520284Y-88573352D01*
X95519716Y-89223795D01*
X95754081Y-89791000D01*
X89600377Y-89791000D01*
X89834716Y-89226648D01*
X89835284Y-88576205D01*
X89586894Y-87975057D01*
X89127363Y-87514722D01*
X88526648Y-87265284D01*
X87876205Y-87264716D01*
X87275057Y-87513106D01*
X86814722Y-87972637D01*
X86565284Y-88573352D01*
X86564716Y-89223795D01*
X86799081Y-89791000D01*
X77600377Y-89791000D01*
X77834716Y-89226648D01*
X77835284Y-88576205D01*
X77586894Y-87975057D01*
X77127363Y-87514722D01*
X76526648Y-87265284D01*
X75876205Y-87264716D01*
X75275057Y-87513106D01*
X74814722Y-87972637D01*
X74565284Y-88573352D01*
X74564716Y-89223795D01*
X74799081Y-89791000D01*
X74609802Y-89791000D01*
X72042597Y-87223795D01*
X80564716Y-87223795D01*
X80813106Y-87824943D01*
X81272637Y-88285278D01*
X81873352Y-88534716D01*
X82523795Y-88535284D01*
X83124943Y-88286894D01*
X83585278Y-87827363D01*
X83834716Y-87226648D01*
X83834718Y-87223795D01*
X101519716Y-87223795D01*
X101768106Y-87824943D01*
X102227637Y-88285278D01*
X102828352Y-88534716D01*
X103478795Y-88535284D01*
X104079943Y-88286894D01*
X104540278Y-87827363D01*
X104789716Y-87226648D01*
X104790284Y-86576205D01*
X104541894Y-85975057D01*
X104082363Y-85514722D01*
X103839060Y-85413694D01*
X112027686Y-85413694D01*
X112275998Y-86014655D01*
X112735387Y-86474846D01*
X113335913Y-86724206D01*
X113986154Y-86724774D01*
X114587115Y-86476462D01*
X115047306Y-86017073D01*
X115296666Y-85416547D01*
X115297234Y-84766306D01*
X115048922Y-84165345D01*
X114589533Y-83705154D01*
X113989007Y-83455794D01*
X113338766Y-83455226D01*
X112737805Y-83703538D01*
X112277614Y-84162927D01*
X112028254Y-84763453D01*
X112027686Y-85413694D01*
X103839060Y-85413694D01*
X103481648Y-85265284D01*
X102831205Y-85264716D01*
X102230057Y-85513106D01*
X101769722Y-85972637D01*
X101520284Y-86573352D01*
X101519716Y-87223795D01*
X83834718Y-87223795D01*
X83835284Y-86576205D01*
X83586894Y-85975057D01*
X83127363Y-85514722D01*
X82526648Y-85265284D01*
X81876205Y-85264716D01*
X81275057Y-85513106D01*
X80814722Y-85972637D01*
X80565284Y-86573352D01*
X80564716Y-87223795D01*
X72042597Y-87223795D01*
X71149401Y-86330599D01*
X70902839Y-86165852D01*
X70612000Y-86108000D01*
X61595000Y-86108000D01*
X61304160Y-86165852D01*
X61057599Y-86330599D01*
X58487002Y-88901196D01*
X58487002Y-87240800D01*
X61401802Y-84326000D01*
X91254900Y-84326000D01*
X91073254Y-84763453D01*
X91072686Y-85413694D01*
X91320998Y-86014655D01*
X91780387Y-86474846D01*
X92380913Y-86724206D01*
X93031154Y-86724774D01*
X93632115Y-86476462D01*
X94092306Y-86017073D01*
X94341666Y-85416547D01*
X94342234Y-84766306D01*
X94160303Y-84326000D01*
X95504000Y-84326000D01*
X95794839Y-84268148D01*
X96041401Y-84103401D01*
X96663917Y-83480885D01*
X96828453Y-83549206D01*
X97478694Y-83549774D01*
X98079655Y-83301462D01*
X98539846Y-82842073D01*
X98789206Y-82241547D01*
X98789208Y-82238694D01*
X105680226Y-82238694D01*
X105928538Y-82839655D01*
X106387927Y-83299846D01*
X106988453Y-83549206D01*
X107638694Y-83549774D01*
X108239655Y-83301462D01*
X108699846Y-82842073D01*
X108887616Y-82389872D01*
X110542630Y-82389872D01*
X110626211Y-82601110D01*
X111169746Y-82691425D01*
X111623789Y-82601110D01*
X111707370Y-82389872D01*
X111125000Y-81807502D01*
X110542630Y-82389872D01*
X108887616Y-82389872D01*
X108949206Y-82241547D01*
X108949774Y-81591306D01*
X108839634Y-81324746D01*
X109713575Y-81324746D01*
X109803890Y-81778789D01*
X110015128Y-81862370D01*
X110597498Y-81280000D01*
X110015128Y-80697630D01*
X109803890Y-80781211D01*
X109713575Y-81324746D01*
X108839634Y-81324746D01*
X108701462Y-80990345D01*
X108242073Y-80530154D01*
X107641547Y-80280794D01*
X106991306Y-80280226D01*
X106390345Y-80528538D01*
X105930154Y-80987927D01*
X105680794Y-81588453D01*
X105680226Y-82238694D01*
X98789208Y-82238694D01*
X98789774Y-81591306D01*
X98541462Y-80990345D01*
X98082073Y-80530154D01*
X97481547Y-80280794D01*
X96831306Y-80280226D01*
X96230345Y-80528538D01*
X95770154Y-80987927D01*
X95520794Y-81588453D01*
X95520226Y-82238694D01*
X95589309Y-82405889D01*
X95189198Y-82806000D01*
X87759825Y-82806000D01*
X87932616Y-82389872D01*
X89587630Y-82389872D01*
X89671211Y-82601110D01*
X90214746Y-82691425D01*
X90668789Y-82601110D01*
X90752370Y-82389872D01*
X90170000Y-81807502D01*
X89587630Y-82389872D01*
X87932616Y-82389872D01*
X87994206Y-82241547D01*
X87994774Y-81591306D01*
X87884634Y-81324746D01*
X88758575Y-81324746D01*
X88848890Y-81778789D01*
X89060128Y-81862370D01*
X89642498Y-81280000D01*
X89060128Y-80697630D01*
X88848890Y-80781211D01*
X88758575Y-81324746D01*
X87884634Y-81324746D01*
X87746462Y-80990345D01*
X87287073Y-80530154D01*
X86686547Y-80280794D01*
X86036306Y-80280226D01*
X85435345Y-80528538D01*
X84975154Y-80987927D01*
X84725794Y-81588453D01*
X84725226Y-82238694D01*
X84959632Y-82806000D01*
X77599825Y-82806000D01*
X77834206Y-82241547D01*
X77834774Y-81591306D01*
X77586462Y-80990345D01*
X77127073Y-80530154D01*
X76526547Y-80280794D01*
X75876306Y-80280226D01*
X75426001Y-80466288D01*
X75426240Y-80192915D01*
X75415670Y-80167332D01*
X75956002Y-79627000D01*
X90099380Y-79627000D01*
X90055241Y-79733298D01*
X90055111Y-79882527D01*
X89671211Y-79958890D01*
X89587630Y-80170128D01*
X90170000Y-80752498D01*
X90184142Y-80738356D01*
X90711644Y-81265858D01*
X90697502Y-81280000D01*
X91279872Y-81862370D01*
X91427863Y-81803814D01*
X91535169Y-82063515D01*
X91924436Y-82453461D01*
X92433298Y-82664759D01*
X92984285Y-82665240D01*
X93493515Y-82454831D01*
X93883461Y-82065564D01*
X94094759Y-81556702D01*
X94095240Y-81005715D01*
X93884831Y-80496485D01*
X93495564Y-80106539D01*
X92986702Y-79895241D01*
X92825101Y-79895100D01*
X92825240Y-79735715D01*
X92780320Y-79627000D01*
X111054380Y-79627000D01*
X111010241Y-79733298D01*
X111010111Y-79882527D01*
X110626211Y-79958890D01*
X110542630Y-80170128D01*
X111125000Y-80752498D01*
X111139142Y-80738356D01*
X111666644Y-81265858D01*
X111652502Y-81280000D01*
X112234872Y-81862370D01*
X112382863Y-81803814D01*
X112490169Y-82063515D01*
X112879436Y-82453461D01*
X113388298Y-82664759D01*
X113939285Y-82665240D01*
X114448515Y-82454831D01*
X114838461Y-82065564D01*
X115049759Y-81556702D01*
X115050240Y-81005715D01*
X114839831Y-80496485D01*
X114450564Y-80106539D01*
X113941702Y-79895241D01*
X113780101Y-79895100D01*
X113780240Y-79735715D01*
X113735320Y-79627000D01*
X132009380Y-79627000D01*
X131965241Y-79733298D01*
X131965111Y-79882527D01*
X131581211Y-79958890D01*
X131497630Y-80170128D01*
X132080000Y-80752498D01*
X132094142Y-80738356D01*
X132621644Y-81265858D01*
X132607502Y-81280000D01*
X133189872Y-81862370D01*
X133337863Y-81803814D01*
X133445169Y-82063515D01*
X133834436Y-82453461D01*
X134343298Y-82664759D01*
X134894285Y-82665240D01*
X135403515Y-82454831D01*
X135793461Y-82065564D01*
X136004759Y-81556702D01*
X136005240Y-81005715D01*
X135794831Y-80496485D01*
X135405564Y-80106539D01*
X134896702Y-79895241D01*
X134735101Y-79895100D01*
X134735240Y-79735715D01*
X134690320Y-79627000D01*
X152964380Y-79627000D01*
X152920241Y-79733298D01*
X152920111Y-79882527D01*
X152536211Y-79958890D01*
X152452630Y-80170128D01*
X153035000Y-80752498D01*
X153049142Y-80738356D01*
X153576644Y-81265858D01*
X153562502Y-81280000D01*
X154144872Y-81862370D01*
X154292863Y-81803814D01*
X154400169Y-82063515D01*
X154789436Y-82453461D01*
X155298298Y-82664759D01*
X155849285Y-82665240D01*
X156358515Y-82454831D01*
X156748461Y-82065564D01*
X156959759Y-81556702D01*
X156960240Y-81005715D01*
X156749831Y-80496485D01*
X156360564Y-80106539D01*
X155851702Y-79895241D01*
X155690101Y-79895100D01*
X155690240Y-79735715D01*
X155645320Y-79627000D01*
X173919380Y-79627000D01*
X173875241Y-79733298D01*
X173875111Y-79882527D01*
X173491211Y-79958890D01*
X173407630Y-80170128D01*
X173990000Y-80752498D01*
X174004142Y-80738356D01*
X174531644Y-81265858D01*
X174517502Y-81280000D01*
X175099872Y-81862370D01*
X175247863Y-81803814D01*
X175355169Y-82063515D01*
X175744436Y-82453461D01*
X176253298Y-82664759D01*
X176804285Y-82665240D01*
X177313515Y-82454831D01*
X177703461Y-82065564D01*
X177914759Y-81556702D01*
X177915240Y-81005715D01*
X177704831Y-80496485D01*
X177315564Y-80106539D01*
X176806702Y-79895241D01*
X176645101Y-79895100D01*
X176645240Y-79735715D01*
X176600320Y-79627000D01*
X194874380Y-79627000D01*
X194830241Y-79733298D01*
X194830111Y-79882527D01*
X194446211Y-79958890D01*
X194362630Y-80170128D01*
X194945000Y-80752498D01*
X194959142Y-80738356D01*
X195486644Y-81265858D01*
X195472502Y-81280000D01*
X196054872Y-81862370D01*
X196202863Y-81803814D01*
X196310169Y-82063515D01*
X196699436Y-82453461D01*
X197208298Y-82664759D01*
X197759285Y-82665240D01*
X198268515Y-82454831D01*
X198658461Y-82065564D01*
X198869759Y-81556702D01*
X198870240Y-81005715D01*
X198659831Y-80496485D01*
X198270564Y-80106539D01*
X197761702Y-79895241D01*
X197600101Y-79895100D01*
X197600240Y-79735715D01*
X197555320Y-79627000D01*
X215829380Y-79627000D01*
X215785241Y-79733298D01*
X215785111Y-79882527D01*
X215401211Y-79958890D01*
X215317630Y-80170128D01*
X215900000Y-80752498D01*
X215914142Y-80738356D01*
X216441644Y-81265858D01*
X216427502Y-81280000D01*
X217009872Y-81862370D01*
X217157863Y-81803814D01*
X217265169Y-82063515D01*
X217654436Y-82453461D01*
X218163298Y-82664759D01*
X218714285Y-82665240D01*
X219223515Y-82454831D01*
X219613461Y-82065564D01*
X219824759Y-81556702D01*
X219825240Y-81005715D01*
X219614831Y-80496485D01*
X219289043Y-80170128D01*
X236272630Y-80170128D01*
X236855000Y-80752498D01*
X236869142Y-80738356D01*
X237396644Y-81265858D01*
X237382502Y-81280000D01*
X237964872Y-81862370D01*
X238112863Y-81803814D01*
X238220169Y-82063515D01*
X238609436Y-82453461D01*
X239118298Y-82664759D01*
X239669285Y-82665240D01*
X240178515Y-82454831D01*
X240568461Y-82065564D01*
X240779759Y-81556702D01*
X240780240Y-81005715D01*
X240569831Y-80496485D01*
X240180564Y-80106539D01*
X239671702Y-79895241D01*
X239510101Y-79895100D01*
X239510240Y-79735715D01*
X239299831Y-79226485D01*
X238910564Y-78836539D01*
X238401702Y-78625241D01*
X237850715Y-78624760D01*
X237341485Y-78835169D01*
X236951539Y-79224436D01*
X236740241Y-79733298D01*
X236740111Y-79882527D01*
X236356211Y-79958890D01*
X236272630Y-80170128D01*
X219289043Y-80170128D01*
X219225564Y-80106539D01*
X218716702Y-79895241D01*
X218555101Y-79895100D01*
X218555240Y-79735715D01*
X218510320Y-79627000D01*
X219583000Y-79627000D01*
X219873839Y-79569148D01*
X220120401Y-79404401D01*
X224489800Y-75035002D01*
X224513298Y-75044759D01*
X225064285Y-75045240D01*
X225573515Y-74834831D01*
X225963461Y-74445564D01*
X226155246Y-73983694D01*
X226965226Y-73983694D01*
X227213538Y-74584655D01*
X227672927Y-75044846D01*
X228273453Y-75294206D01*
X228923694Y-75294774D01*
X229524655Y-75046462D01*
X229984846Y-74587073D01*
X230234206Y-73986547D01*
X230234208Y-73983694D01*
X237125226Y-73983694D01*
X237373538Y-74584655D01*
X237832927Y-75044846D01*
X238433453Y-75294206D01*
X239083694Y-75294774D01*
X239684655Y-75046462D01*
X240144846Y-74587073D01*
X240394206Y-73986547D01*
X240394774Y-73336306D01*
X240146462Y-72735345D01*
X239687073Y-72275154D01*
X239086547Y-72025794D01*
X238436306Y-72025226D01*
X237835345Y-72273538D01*
X237375154Y-72732927D01*
X237125794Y-73333453D01*
X237125226Y-73983694D01*
X230234208Y-73983694D01*
X230234774Y-73336306D01*
X229986462Y-72735345D01*
X229527073Y-72275154D01*
X228926547Y-72025794D01*
X228276306Y-72025226D01*
X227675345Y-72273538D01*
X227215154Y-72732927D01*
X226965794Y-73333453D01*
X226965226Y-73983694D01*
X226155246Y-73983694D01*
X226174759Y-73936702D01*
X226175240Y-73385715D01*
X225964831Y-72876485D01*
X225575564Y-72486539D01*
X225066702Y-72275241D01*
X224905101Y-72275100D01*
X224905240Y-72115715D01*
X224694831Y-71606485D01*
X224305564Y-71216539D01*
X223796702Y-71005241D01*
X223245715Y-71004760D01*
X222736485Y-71215169D01*
X222346539Y-71604436D01*
X222135241Y-72113298D01*
X222135111Y-72262527D01*
X221751211Y-72338890D01*
X221667630Y-72550128D01*
X222250000Y-73132498D01*
X222264142Y-73118356D01*
X222791644Y-73645858D01*
X222777502Y-73660000D01*
X222791644Y-73674142D01*
X222264142Y-74201644D01*
X222250000Y-74187502D01*
X221667630Y-74769872D01*
X221751211Y-74981110D01*
X222294746Y-75071425D01*
X222306014Y-75069184D01*
X219268198Y-78107000D01*
X200462802Y-78107000D01*
X203534800Y-75035002D01*
X203558298Y-75044759D01*
X204109285Y-75045240D01*
X204618515Y-74834831D01*
X205008461Y-74445564D01*
X205200246Y-73983694D01*
X206010226Y-73983694D01*
X206258538Y-74584655D01*
X206717927Y-75044846D01*
X207318453Y-75294206D01*
X207968694Y-75294774D01*
X208569655Y-75046462D01*
X209029846Y-74587073D01*
X209279206Y-73986547D01*
X209279208Y-73983694D01*
X216170226Y-73983694D01*
X216418538Y-74584655D01*
X216877927Y-75044846D01*
X217478453Y-75294206D01*
X218128694Y-75294774D01*
X218729655Y-75046462D01*
X219189846Y-74587073D01*
X219439206Y-73986547D01*
X219439452Y-73704746D01*
X220838575Y-73704746D01*
X220928890Y-74158789D01*
X221140128Y-74242370D01*
X221722498Y-73660000D01*
X221140128Y-73077630D01*
X220928890Y-73161211D01*
X220838575Y-73704746D01*
X219439452Y-73704746D01*
X219439774Y-73336306D01*
X219191462Y-72735345D01*
X218732073Y-72275154D01*
X218131547Y-72025794D01*
X217481306Y-72025226D01*
X216880345Y-72273538D01*
X216420154Y-72732927D01*
X216170794Y-73333453D01*
X216170226Y-73983694D01*
X209279208Y-73983694D01*
X209279774Y-73336306D01*
X209031462Y-72735345D01*
X208572073Y-72275154D01*
X207971547Y-72025794D01*
X207321306Y-72025226D01*
X206720345Y-72273538D01*
X206260154Y-72732927D01*
X206010794Y-73333453D01*
X206010226Y-73983694D01*
X205200246Y-73983694D01*
X205219759Y-73936702D01*
X205220240Y-73385715D01*
X205009831Y-72876485D01*
X204620564Y-72486539D01*
X204111702Y-72275241D01*
X203950101Y-72275100D01*
X203950240Y-72115715D01*
X203739831Y-71606485D01*
X203350564Y-71216539D01*
X202841702Y-71005241D01*
X202290715Y-71004760D01*
X201781485Y-71215169D01*
X201391539Y-71604436D01*
X201180241Y-72113298D01*
X201180111Y-72262527D01*
X200796211Y-72338890D01*
X200712630Y-72550128D01*
X201295000Y-73132498D01*
X201309142Y-73118356D01*
X201836644Y-73645858D01*
X201822502Y-73660000D01*
X201836644Y-73674142D01*
X201309142Y-74201644D01*
X201295000Y-74187502D01*
X200712630Y-74769872D01*
X200796211Y-74981110D01*
X201339746Y-75071425D01*
X201351014Y-75069184D01*
X199075198Y-77345000D01*
X180269802Y-77345000D01*
X182579800Y-75035002D01*
X182603298Y-75044759D01*
X183154285Y-75045240D01*
X183663515Y-74834831D01*
X184053461Y-74445564D01*
X184245246Y-73983694D01*
X185055226Y-73983694D01*
X185303538Y-74584655D01*
X185762927Y-75044846D01*
X186363453Y-75294206D01*
X187013694Y-75294774D01*
X187614655Y-75046462D01*
X188074846Y-74587073D01*
X188324206Y-73986547D01*
X188324208Y-73983694D01*
X195215226Y-73983694D01*
X195463538Y-74584655D01*
X195922927Y-75044846D01*
X196523453Y-75294206D01*
X197173694Y-75294774D01*
X197774655Y-75046462D01*
X198234846Y-74587073D01*
X198484206Y-73986547D01*
X198484452Y-73704746D01*
X199883575Y-73704746D01*
X199973890Y-74158789D01*
X200185128Y-74242370D01*
X200767498Y-73660000D01*
X200185128Y-73077630D01*
X199973890Y-73161211D01*
X199883575Y-73704746D01*
X198484452Y-73704746D01*
X198484774Y-73336306D01*
X198236462Y-72735345D01*
X197777073Y-72275154D01*
X197176547Y-72025794D01*
X196526306Y-72025226D01*
X195925345Y-72273538D01*
X195465154Y-72732927D01*
X195215794Y-73333453D01*
X195215226Y-73983694D01*
X188324208Y-73983694D01*
X188324774Y-73336306D01*
X188076462Y-72735345D01*
X187617073Y-72275154D01*
X187016547Y-72025794D01*
X186366306Y-72025226D01*
X185765345Y-72273538D01*
X185305154Y-72732927D01*
X185055794Y-73333453D01*
X185055226Y-73983694D01*
X184245246Y-73983694D01*
X184264759Y-73936702D01*
X184265240Y-73385715D01*
X184054831Y-72876485D01*
X183665564Y-72486539D01*
X183156702Y-72275241D01*
X182995101Y-72275100D01*
X182995240Y-72115715D01*
X182784831Y-71606485D01*
X182395564Y-71216539D01*
X181886702Y-71005241D01*
X181335715Y-71004760D01*
X180826485Y-71215169D01*
X180436539Y-71604436D01*
X180225241Y-72113298D01*
X180225111Y-72262527D01*
X179841211Y-72338890D01*
X179757630Y-72550128D01*
X180340000Y-73132498D01*
X180354142Y-73118356D01*
X180881644Y-73645858D01*
X180867502Y-73660000D01*
X180881644Y-73674142D01*
X180354142Y-74201644D01*
X180340000Y-74187502D01*
X179757630Y-74769872D01*
X179841211Y-74981110D01*
X180384746Y-75071425D01*
X180396014Y-75069184D01*
X178882198Y-76583000D01*
X160076802Y-76583000D01*
X161624800Y-75035002D01*
X161648298Y-75044759D01*
X162199285Y-75045240D01*
X162708515Y-74834831D01*
X163098461Y-74445564D01*
X163290246Y-73983694D01*
X164100226Y-73983694D01*
X164348538Y-74584655D01*
X164807927Y-75044846D01*
X165408453Y-75294206D01*
X166058694Y-75294774D01*
X166659655Y-75046462D01*
X167119846Y-74587073D01*
X167369206Y-73986547D01*
X167369208Y-73983694D01*
X174260226Y-73983694D01*
X174508538Y-74584655D01*
X174967927Y-75044846D01*
X175568453Y-75294206D01*
X176218694Y-75294774D01*
X176819655Y-75046462D01*
X177279846Y-74587073D01*
X177529206Y-73986547D01*
X177529452Y-73704746D01*
X178928575Y-73704746D01*
X179018890Y-74158789D01*
X179230128Y-74242370D01*
X179812498Y-73660000D01*
X179230128Y-73077630D01*
X179018890Y-73161211D01*
X178928575Y-73704746D01*
X177529452Y-73704746D01*
X177529774Y-73336306D01*
X177281462Y-72735345D01*
X176822073Y-72275154D01*
X176221547Y-72025794D01*
X175571306Y-72025226D01*
X174970345Y-72273538D01*
X174510154Y-72732927D01*
X174260794Y-73333453D01*
X174260226Y-73983694D01*
X167369208Y-73983694D01*
X167369774Y-73336306D01*
X167121462Y-72735345D01*
X166662073Y-72275154D01*
X166061547Y-72025794D01*
X165411306Y-72025226D01*
X164810345Y-72273538D01*
X164350154Y-72732927D01*
X164100794Y-73333453D01*
X164100226Y-73983694D01*
X163290246Y-73983694D01*
X163309759Y-73936702D01*
X163310240Y-73385715D01*
X163099831Y-72876485D01*
X162710564Y-72486539D01*
X162201702Y-72275241D01*
X162040101Y-72275100D01*
X162040240Y-72115715D01*
X161829831Y-71606485D01*
X161440564Y-71216539D01*
X160931702Y-71005241D01*
X160380715Y-71004760D01*
X159871485Y-71215169D01*
X159481539Y-71604436D01*
X159270241Y-72113298D01*
X159270111Y-72262527D01*
X158886211Y-72338890D01*
X158802630Y-72550128D01*
X159385000Y-73132498D01*
X159399142Y-73118356D01*
X159926644Y-73645858D01*
X159912502Y-73660000D01*
X159926644Y-73674142D01*
X159399142Y-74201644D01*
X159385000Y-74187502D01*
X158802630Y-74769872D01*
X158886211Y-74981110D01*
X159429746Y-75071425D01*
X159441014Y-75069184D01*
X158562198Y-75948000D01*
X139756802Y-75948000D01*
X140669800Y-75035002D01*
X140693298Y-75044759D01*
X141244285Y-75045240D01*
X141753515Y-74834831D01*
X142143461Y-74445564D01*
X142335246Y-73983694D01*
X143145226Y-73983694D01*
X143393538Y-74584655D01*
X143852927Y-75044846D01*
X144453453Y-75294206D01*
X145103694Y-75294774D01*
X145704655Y-75046462D01*
X146164846Y-74587073D01*
X146414206Y-73986547D01*
X146414208Y-73983694D01*
X153305226Y-73983694D01*
X153553538Y-74584655D01*
X154012927Y-75044846D01*
X154613453Y-75294206D01*
X155263694Y-75294774D01*
X155864655Y-75046462D01*
X156324846Y-74587073D01*
X156574206Y-73986547D01*
X156574452Y-73704746D01*
X157973575Y-73704746D01*
X158063890Y-74158789D01*
X158275128Y-74242370D01*
X158857498Y-73660000D01*
X158275128Y-73077630D01*
X158063890Y-73161211D01*
X157973575Y-73704746D01*
X156574452Y-73704746D01*
X156574774Y-73336306D01*
X156326462Y-72735345D01*
X155867073Y-72275154D01*
X155266547Y-72025794D01*
X154616306Y-72025226D01*
X154015345Y-72273538D01*
X153555154Y-72732927D01*
X153305794Y-73333453D01*
X153305226Y-73983694D01*
X146414208Y-73983694D01*
X146414774Y-73336306D01*
X146166462Y-72735345D01*
X145707073Y-72275154D01*
X145106547Y-72025794D01*
X144456306Y-72025226D01*
X143855345Y-72273538D01*
X143395154Y-72732927D01*
X143145794Y-73333453D01*
X143145226Y-73983694D01*
X142335246Y-73983694D01*
X142354759Y-73936702D01*
X142355240Y-73385715D01*
X142144831Y-72876485D01*
X141755564Y-72486539D01*
X141246702Y-72275241D01*
X141085101Y-72275100D01*
X141085240Y-72115715D01*
X140874831Y-71606485D01*
X140485564Y-71216539D01*
X139976702Y-71005241D01*
X139425715Y-71004760D01*
X138916485Y-71215169D01*
X138526539Y-71604436D01*
X138315241Y-72113298D01*
X138315111Y-72262527D01*
X137931211Y-72338890D01*
X137847630Y-72550128D01*
X138430000Y-73132498D01*
X138444142Y-73118356D01*
X138971644Y-73645858D01*
X138957502Y-73660000D01*
X138971644Y-73674142D01*
X138444142Y-74201644D01*
X138430000Y-74187502D01*
X137847630Y-74769872D01*
X137931211Y-74981110D01*
X138474746Y-75071425D01*
X138486014Y-75069184D01*
X138242198Y-75313000D01*
X119436802Y-75313000D01*
X119714800Y-75035002D01*
X119738298Y-75044759D01*
X120289285Y-75045240D01*
X120798515Y-74834831D01*
X121188461Y-74445564D01*
X121380246Y-73983694D01*
X122190226Y-73983694D01*
X122438538Y-74584655D01*
X122897927Y-75044846D01*
X123498453Y-75294206D01*
X124148694Y-75294774D01*
X124749655Y-75046462D01*
X125209846Y-74587073D01*
X125459206Y-73986547D01*
X125459208Y-73983694D01*
X132350226Y-73983694D01*
X132598538Y-74584655D01*
X133057927Y-75044846D01*
X133658453Y-75294206D01*
X134308694Y-75294774D01*
X134909655Y-75046462D01*
X135369846Y-74587073D01*
X135619206Y-73986547D01*
X135619452Y-73704746D01*
X137018575Y-73704746D01*
X137108890Y-74158789D01*
X137320128Y-74242370D01*
X137902498Y-73660000D01*
X137320128Y-73077630D01*
X137108890Y-73161211D01*
X137018575Y-73704746D01*
X135619452Y-73704746D01*
X135619774Y-73336306D01*
X135371462Y-72735345D01*
X134912073Y-72275154D01*
X134311547Y-72025794D01*
X133661306Y-72025226D01*
X133060345Y-72273538D01*
X132600154Y-72732927D01*
X132350794Y-73333453D01*
X132350226Y-73983694D01*
X125459208Y-73983694D01*
X125459774Y-73336306D01*
X125211462Y-72735345D01*
X124752073Y-72275154D01*
X124151547Y-72025794D01*
X123501306Y-72025226D01*
X122900345Y-72273538D01*
X122440154Y-72732927D01*
X122190794Y-73333453D01*
X122190226Y-73983694D01*
X121380246Y-73983694D01*
X121399759Y-73936702D01*
X121400240Y-73385715D01*
X121189831Y-72876485D01*
X120800564Y-72486539D01*
X120291702Y-72275241D01*
X120130101Y-72275100D01*
X120130240Y-72115715D01*
X119919831Y-71606485D01*
X119530564Y-71216539D01*
X119021702Y-71005241D01*
X118470715Y-71004760D01*
X117961485Y-71215169D01*
X117571539Y-71604436D01*
X117360241Y-72113298D01*
X117360111Y-72262527D01*
X116976211Y-72338890D01*
X116892630Y-72550128D01*
X117475000Y-73132498D01*
X117489142Y-73118356D01*
X118016644Y-73645858D01*
X118002502Y-73660000D01*
X118016644Y-73674142D01*
X117489142Y-74201644D01*
X117475000Y-74187502D01*
X116984502Y-74678000D01*
X114323760Y-74678000D01*
X114414846Y-74587073D01*
X114664206Y-73986547D01*
X114664452Y-73704746D01*
X116063575Y-73704746D01*
X116153890Y-74158789D01*
X116365128Y-74242370D01*
X116947498Y-73660000D01*
X116365128Y-73077630D01*
X116153890Y-73161211D01*
X116063575Y-73704746D01*
X114664452Y-73704746D01*
X114664774Y-73336306D01*
X114416462Y-72735345D01*
X113957073Y-72275154D01*
X113356547Y-72025794D01*
X112706306Y-72025226D01*
X112105345Y-72273538D01*
X111645154Y-72732927D01*
X111395794Y-73333453D01*
X111395226Y-73983694D01*
X111643538Y-74584655D01*
X111736720Y-74678000D01*
X104163760Y-74678000D01*
X104254846Y-74587073D01*
X104504206Y-73986547D01*
X104504774Y-73336306D01*
X104256462Y-72735345D01*
X103797073Y-72275154D01*
X103196547Y-72025794D01*
X102546306Y-72025226D01*
X102379111Y-72094309D01*
X99089401Y-68804599D01*
X98842839Y-68639852D01*
X98552000Y-68582000D01*
X66167000Y-68582000D01*
X65876161Y-68639852D01*
X65629599Y-68804599D01*
X55596599Y-78837599D01*
X55431852Y-79084161D01*
X55374000Y-79375000D01*
X55374000Y-98618198D01*
X52116200Y-101875998D01*
X52092702Y-101866241D01*
X51541715Y-101865760D01*
X51032485Y-102076169D01*
X50642539Y-102465436D01*
X50564288Y-102653885D01*
X50291222Y-102245211D01*
X49871547Y-101964794D01*
X50007445Y-101912758D01*
X50409726Y-101531648D01*
X50547974Y-101294133D01*
X50457945Y-101084000D01*
X49268000Y-101084000D01*
X49268000Y-101104000D01*
X48522000Y-101104000D01*
X48522000Y-101084000D01*
X47332055Y-101084000D01*
X47242026Y-101294133D01*
X47380274Y-101531648D01*
X47782555Y-101912758D01*
X47918453Y-101964794D01*
X47498778Y-102245211D01*
X47190441Y-102706671D01*
X47082167Y-103251000D01*
X47065000Y-103251000D01*
X47065000Y-93091000D01*
X47082167Y-93091000D01*
X47190441Y-93635329D01*
X47498778Y-94096789D01*
X47894199Y-94361000D01*
X47498778Y-94625211D01*
X47190441Y-95086671D01*
X47082167Y-95631000D01*
X47190441Y-96175329D01*
X47498778Y-96636789D01*
X47894199Y-96901000D01*
X47498778Y-97165211D01*
X47190441Y-97626671D01*
X47082167Y-98171000D01*
X47190441Y-98715329D01*
X47498778Y-99176789D01*
X47918453Y-99457206D01*
X47782555Y-99509242D01*
X47380274Y-99890352D01*
X47242026Y-100127867D01*
X47332055Y-100338000D01*
X48522000Y-100338000D01*
X48522000Y-100318000D01*
X49268000Y-100318000D01*
X49268000Y-100338000D01*
X50457945Y-100338000D01*
X50547974Y-100127867D01*
X50409726Y-99890352D01*
X50007445Y-99509242D01*
X49871547Y-99457206D01*
X50291222Y-99176789D01*
X50599559Y-98715329D01*
X50707833Y-98171000D01*
X50599559Y-97626671D01*
X50291222Y-97165211D01*
X49895801Y-96901000D01*
X50291222Y-96636789D01*
X50599559Y-96175329D01*
X50707833Y-95631000D01*
X50599559Y-95086671D01*
X50291222Y-94625211D01*
X49895801Y-94361000D01*
X50291222Y-94096789D01*
X50599559Y-93635329D01*
X50707833Y-93091000D01*
X50599559Y-92546671D01*
X50291222Y-92085211D01*
X49829762Y-91776874D01*
X49285433Y-91668600D01*
X48504567Y-91668600D01*
X47960238Y-91776874D01*
X47498778Y-92085211D01*
X47190441Y-92546671D01*
X47082167Y-93091000D01*
X47065000Y-93091000D01*
X47065000Y-82288305D01*
X48279674Y-82288305D01*
X48566043Y-82981372D01*
X49095839Y-83512093D01*
X49788405Y-83799672D01*
X50538305Y-83800326D01*
X51231372Y-83513957D01*
X51762093Y-82984161D01*
X52049672Y-82291595D01*
X52050326Y-81541695D01*
X51763957Y-80848628D01*
X51234161Y-80317907D01*
X50541595Y-80030328D01*
X49791695Y-80029674D01*
X49098628Y-80316043D01*
X48567907Y-80845839D01*
X48280328Y-81538405D01*
X48279674Y-82288305D01*
X47065000Y-82288305D01*
X47065000Y-74769872D01*
X49455630Y-74769872D01*
X49539211Y-74981110D01*
X50082746Y-75071425D01*
X50536789Y-74981110D01*
X50620370Y-74769872D01*
X50038000Y-74187502D01*
X49455630Y-74769872D01*
X47065000Y-74769872D01*
X47065000Y-73704746D01*
X48626575Y-73704746D01*
X48716890Y-74158789D01*
X48928128Y-74242370D01*
X49510498Y-73660000D01*
X48928128Y-73077630D01*
X48716890Y-73161211D01*
X48626575Y-73704746D01*
X47065000Y-73704746D01*
X47065000Y-72550128D01*
X49455630Y-72550128D01*
X50038000Y-73132498D01*
X50052142Y-73118356D01*
X50579644Y-73645858D01*
X50565502Y-73660000D01*
X51147872Y-74242370D01*
X51295863Y-74183814D01*
X51403169Y-74443515D01*
X51792436Y-74833461D01*
X52301298Y-75044759D01*
X52852285Y-75045240D01*
X53361515Y-74834831D01*
X53751461Y-74445564D01*
X53943246Y-73983694D01*
X54118226Y-73983694D01*
X54366538Y-74584655D01*
X54825927Y-75044846D01*
X55426453Y-75294206D01*
X56076694Y-75294774D01*
X56677655Y-75046462D01*
X57137846Y-74587073D01*
X57387206Y-73986547D01*
X57387774Y-73336306D01*
X57139462Y-72735345D01*
X56680073Y-72275154D01*
X56079547Y-72025794D01*
X55429306Y-72025226D01*
X54828345Y-72273538D01*
X54368154Y-72732927D01*
X54118794Y-73333453D01*
X54118226Y-73983694D01*
X53943246Y-73983694D01*
X53962759Y-73936702D01*
X53963240Y-73385715D01*
X53752831Y-72876485D01*
X53363564Y-72486539D01*
X52854702Y-72275241D01*
X52693101Y-72275100D01*
X52693240Y-72115715D01*
X52482831Y-71606485D01*
X52093564Y-71216539D01*
X51584702Y-71005241D01*
X51033715Y-71004760D01*
X50524485Y-71215169D01*
X50134539Y-71604436D01*
X49923241Y-72113298D01*
X49923111Y-72262527D01*
X49539211Y-72338890D01*
X49455630Y-72550128D01*
X47065000Y-72550128D01*
X47065000Y-66998694D01*
X49673226Y-66998694D01*
X49921538Y-67599655D01*
X50380927Y-68059846D01*
X50981453Y-68309206D01*
X51631694Y-68309774D01*
X52232655Y-68061462D01*
X52692846Y-67602073D01*
X52942206Y-67001547D01*
X52942208Y-66998694D01*
X59833226Y-66998694D01*
X60081538Y-67599655D01*
X60540927Y-68059846D01*
X61141453Y-68309206D01*
X61791694Y-68309774D01*
X62392655Y-68061462D01*
X62852846Y-67602073D01*
X63102206Y-67001547D01*
X63102208Y-66998694D01*
X75200226Y-66998694D01*
X75448538Y-67599655D01*
X75907927Y-68059846D01*
X76508453Y-68309206D01*
X77158694Y-68309774D01*
X77759655Y-68061462D01*
X78219846Y-67602073D01*
X78469206Y-67001547D01*
X78469208Y-66998694D01*
X85360226Y-66998694D01*
X85608538Y-67599655D01*
X86067927Y-68059846D01*
X86668453Y-68309206D01*
X87318694Y-68309774D01*
X87919655Y-68061462D01*
X88379846Y-67602073D01*
X88629206Y-67001547D01*
X88629208Y-66998694D01*
X96155226Y-66998694D01*
X96403538Y-67599655D01*
X96862927Y-68059846D01*
X97463453Y-68309206D01*
X98113694Y-68309774D01*
X98714655Y-68061462D01*
X99174846Y-67602073D01*
X99424206Y-67001547D01*
X99424208Y-66998694D01*
X106315226Y-66998694D01*
X106563538Y-67599655D01*
X107022927Y-68059846D01*
X107623453Y-68309206D01*
X108273694Y-68309774D01*
X108874655Y-68061462D01*
X109334846Y-67602073D01*
X109584206Y-67001547D01*
X109584208Y-66998694D01*
X117110226Y-66998694D01*
X117358538Y-67599655D01*
X117817927Y-68059846D01*
X118418453Y-68309206D01*
X119068694Y-68309774D01*
X119669655Y-68061462D01*
X120129846Y-67602073D01*
X120379206Y-67001547D01*
X120379208Y-66998694D01*
X127270226Y-66998694D01*
X127518538Y-67599655D01*
X127977927Y-68059846D01*
X128578453Y-68309206D01*
X129228694Y-68309774D01*
X129829655Y-68061462D01*
X130289846Y-67602073D01*
X130539206Y-67001547D01*
X130539208Y-66998694D01*
X138065226Y-66998694D01*
X138313538Y-67599655D01*
X138772927Y-68059846D01*
X139373453Y-68309206D01*
X140023694Y-68309774D01*
X140624655Y-68061462D01*
X141084846Y-67602073D01*
X141334206Y-67001547D01*
X141334208Y-66998694D01*
X148225226Y-66998694D01*
X148473538Y-67599655D01*
X148932927Y-68059846D01*
X149533453Y-68309206D01*
X150183694Y-68309774D01*
X150784655Y-68061462D01*
X151244846Y-67602073D01*
X151494206Y-67001547D01*
X151494208Y-66998694D01*
X159020226Y-66998694D01*
X159268538Y-67599655D01*
X159727927Y-68059846D01*
X160328453Y-68309206D01*
X160978694Y-68309774D01*
X161579655Y-68061462D01*
X162039846Y-67602073D01*
X162289206Y-67001547D01*
X162289208Y-66998694D01*
X169180226Y-66998694D01*
X169428538Y-67599655D01*
X169887927Y-68059846D01*
X170488453Y-68309206D01*
X171138694Y-68309774D01*
X171739655Y-68061462D01*
X172199846Y-67602073D01*
X172449206Y-67001547D01*
X172449208Y-66998694D01*
X179975226Y-66998694D01*
X180223538Y-67599655D01*
X180682927Y-68059846D01*
X181283453Y-68309206D01*
X181933694Y-68309774D01*
X182534655Y-68061462D01*
X182994846Y-67602073D01*
X183244206Y-67001547D01*
X183244208Y-66998694D01*
X190135226Y-66998694D01*
X190383538Y-67599655D01*
X190842927Y-68059846D01*
X191443453Y-68309206D01*
X192093694Y-68309774D01*
X192694655Y-68061462D01*
X193154846Y-67602073D01*
X193404206Y-67001547D01*
X193404208Y-66998694D01*
X200930226Y-66998694D01*
X201178538Y-67599655D01*
X201637927Y-68059846D01*
X202238453Y-68309206D01*
X202888694Y-68309774D01*
X203489655Y-68061462D01*
X203949846Y-67602073D01*
X204199206Y-67001547D01*
X204199208Y-66998694D01*
X211090226Y-66998694D01*
X211338538Y-67599655D01*
X211797927Y-68059846D01*
X212398453Y-68309206D01*
X213048694Y-68309774D01*
X213649655Y-68061462D01*
X214109846Y-67602073D01*
X214359206Y-67001547D01*
X214359208Y-66998694D01*
X221885226Y-66998694D01*
X222133538Y-67599655D01*
X222592927Y-68059846D01*
X223193453Y-68309206D01*
X223843694Y-68309774D01*
X224444655Y-68061462D01*
X224904846Y-67602073D01*
X225154206Y-67001547D01*
X225154208Y-66998694D01*
X232045226Y-66998694D01*
X232293538Y-67599655D01*
X232752927Y-68059846D01*
X233353453Y-68309206D01*
X234003694Y-68309774D01*
X234604655Y-68061462D01*
X235064846Y-67602073D01*
X235294790Y-67048305D01*
X241954674Y-67048305D01*
X242241043Y-67741372D01*
X242770839Y-68272093D01*
X243463405Y-68559672D01*
X244213305Y-68560326D01*
X244906372Y-68273957D01*
X245437093Y-67744161D01*
X245724672Y-67051595D01*
X245725326Y-66301695D01*
X245438957Y-65608628D01*
X244909161Y-65077907D01*
X244216595Y-64790328D01*
X243466695Y-64789674D01*
X242773628Y-65076043D01*
X242242907Y-65605839D01*
X241955328Y-66298405D01*
X241954674Y-67048305D01*
X235294790Y-67048305D01*
X235314206Y-67001547D01*
X235314774Y-66351306D01*
X235066462Y-65750345D01*
X234607073Y-65290154D01*
X234006547Y-65040794D01*
X233356306Y-65040226D01*
X232755345Y-65288538D01*
X232295154Y-65747927D01*
X232045794Y-66348453D01*
X232045226Y-66998694D01*
X225154208Y-66998694D01*
X225154774Y-66351306D01*
X224906462Y-65750345D01*
X224447073Y-65290154D01*
X223846547Y-65040794D01*
X223196306Y-65040226D01*
X222595345Y-65288538D01*
X222135154Y-65747927D01*
X221885794Y-66348453D01*
X221885226Y-66998694D01*
X214359208Y-66998694D01*
X214359774Y-66351306D01*
X214111462Y-65750345D01*
X213652073Y-65290154D01*
X213051547Y-65040794D01*
X212401306Y-65040226D01*
X211800345Y-65288538D01*
X211340154Y-65747927D01*
X211090794Y-66348453D01*
X211090226Y-66998694D01*
X204199208Y-66998694D01*
X204199774Y-66351306D01*
X203951462Y-65750345D01*
X203492073Y-65290154D01*
X202891547Y-65040794D01*
X202241306Y-65040226D01*
X201640345Y-65288538D01*
X201180154Y-65747927D01*
X200930794Y-66348453D01*
X200930226Y-66998694D01*
X193404208Y-66998694D01*
X193404774Y-66351306D01*
X193156462Y-65750345D01*
X192697073Y-65290154D01*
X192096547Y-65040794D01*
X191446306Y-65040226D01*
X190845345Y-65288538D01*
X190385154Y-65747927D01*
X190135794Y-66348453D01*
X190135226Y-66998694D01*
X183244208Y-66998694D01*
X183244774Y-66351306D01*
X182996462Y-65750345D01*
X182537073Y-65290154D01*
X181936547Y-65040794D01*
X181286306Y-65040226D01*
X180685345Y-65288538D01*
X180225154Y-65747927D01*
X179975794Y-66348453D01*
X179975226Y-66998694D01*
X172449208Y-66998694D01*
X172449774Y-66351306D01*
X172201462Y-65750345D01*
X171742073Y-65290154D01*
X171141547Y-65040794D01*
X170491306Y-65040226D01*
X169890345Y-65288538D01*
X169430154Y-65747927D01*
X169180794Y-66348453D01*
X169180226Y-66998694D01*
X162289208Y-66998694D01*
X162289774Y-66351306D01*
X162041462Y-65750345D01*
X161582073Y-65290154D01*
X160981547Y-65040794D01*
X160331306Y-65040226D01*
X159730345Y-65288538D01*
X159270154Y-65747927D01*
X159020794Y-66348453D01*
X159020226Y-66998694D01*
X151494208Y-66998694D01*
X151494774Y-66351306D01*
X151246462Y-65750345D01*
X150787073Y-65290154D01*
X150186547Y-65040794D01*
X149536306Y-65040226D01*
X148935345Y-65288538D01*
X148475154Y-65747927D01*
X148225794Y-66348453D01*
X148225226Y-66998694D01*
X141334208Y-66998694D01*
X141334774Y-66351306D01*
X141086462Y-65750345D01*
X140627073Y-65290154D01*
X140026547Y-65040794D01*
X139376306Y-65040226D01*
X138775345Y-65288538D01*
X138315154Y-65747927D01*
X138065794Y-66348453D01*
X138065226Y-66998694D01*
X130539208Y-66998694D01*
X130539774Y-66351306D01*
X130291462Y-65750345D01*
X129832073Y-65290154D01*
X129231547Y-65040794D01*
X128581306Y-65040226D01*
X127980345Y-65288538D01*
X127520154Y-65747927D01*
X127270794Y-66348453D01*
X127270226Y-66998694D01*
X120379208Y-66998694D01*
X120379774Y-66351306D01*
X120131462Y-65750345D01*
X119672073Y-65290154D01*
X119071547Y-65040794D01*
X118421306Y-65040226D01*
X117820345Y-65288538D01*
X117360154Y-65747927D01*
X117110794Y-66348453D01*
X117110226Y-66998694D01*
X109584208Y-66998694D01*
X109584774Y-66351306D01*
X109336462Y-65750345D01*
X108877073Y-65290154D01*
X108276547Y-65040794D01*
X107626306Y-65040226D01*
X107025345Y-65288538D01*
X106565154Y-65747927D01*
X106315794Y-66348453D01*
X106315226Y-66998694D01*
X99424208Y-66998694D01*
X99424774Y-66351306D01*
X99176462Y-65750345D01*
X98717073Y-65290154D01*
X98116547Y-65040794D01*
X97466306Y-65040226D01*
X96865345Y-65288538D01*
X96405154Y-65747927D01*
X96155794Y-66348453D01*
X96155226Y-66998694D01*
X88629208Y-66998694D01*
X88629774Y-66351306D01*
X88381462Y-65750345D01*
X87922073Y-65290154D01*
X87321547Y-65040794D01*
X86671306Y-65040226D01*
X86070345Y-65288538D01*
X85610154Y-65747927D01*
X85360794Y-66348453D01*
X85360226Y-66998694D01*
X78469208Y-66998694D01*
X78469774Y-66351306D01*
X78221462Y-65750345D01*
X77762073Y-65290154D01*
X77161547Y-65040794D01*
X76511306Y-65040226D01*
X75910345Y-65288538D01*
X75450154Y-65747927D01*
X75200794Y-66348453D01*
X75200226Y-66998694D01*
X63102208Y-66998694D01*
X63102774Y-66351306D01*
X62854462Y-65750345D01*
X62395073Y-65290154D01*
X61794547Y-65040794D01*
X61144306Y-65040226D01*
X60543345Y-65288538D01*
X60083154Y-65747927D01*
X59833794Y-66348453D01*
X59833226Y-66998694D01*
X52942208Y-66998694D01*
X52942774Y-66351306D01*
X52694462Y-65750345D01*
X52235073Y-65290154D01*
X51634547Y-65040794D01*
X50984306Y-65040226D01*
X50383345Y-65288538D01*
X49923154Y-65747927D01*
X49673794Y-66348453D01*
X49673226Y-66998694D01*
X47065000Y-66998694D01*
X47065000Y-63575000D01*
X246940000Y-63575000D01*
X246940000Y-134545000D01*
X246940000Y-134545000D01*
G37*
X246940000Y-134545000D02*
X47065000Y-134545000D01*
X47065000Y-103251000D01*
X47082167Y-103251000D01*
X47190441Y-103795329D01*
X47498778Y-104256789D01*
X47894199Y-104521000D01*
X47498778Y-104785211D01*
X47190441Y-105246671D01*
X47082167Y-105791000D01*
X47190441Y-106335329D01*
X47498778Y-106796789D01*
X47894199Y-107061000D01*
X47498778Y-107325211D01*
X47190441Y-107786671D01*
X47082167Y-108331000D01*
X47190441Y-108875329D01*
X47498778Y-109336789D01*
X47894199Y-109601000D01*
X47498778Y-109865211D01*
X47190441Y-110326671D01*
X47082167Y-110871000D01*
X47190441Y-111415329D01*
X47498778Y-111876789D01*
X47894199Y-112141000D01*
X47498778Y-112405211D01*
X47190441Y-112866671D01*
X47082167Y-113411000D01*
X47190441Y-113955329D01*
X47498778Y-114416789D01*
X47894199Y-114681000D01*
X47498778Y-114945211D01*
X47190441Y-115406671D01*
X47082167Y-115951000D01*
X47190441Y-116495329D01*
X47498778Y-116956789D01*
X47894199Y-117221000D01*
X47498778Y-117485211D01*
X47190441Y-117946671D01*
X47082167Y-118491000D01*
X47190441Y-119035329D01*
X47498778Y-119496789D01*
X47894199Y-119761000D01*
X47498778Y-120025211D01*
X47190441Y-120486671D01*
X47082167Y-121031000D01*
X47190441Y-121575329D01*
X47498778Y-122036789D01*
X47894199Y-122301000D01*
X47498778Y-122565211D01*
X47190441Y-123026671D01*
X47082167Y-123571000D01*
X47190441Y-124115329D01*
X47498778Y-124576789D01*
X47894199Y-124841000D01*
X47498778Y-125105211D01*
X47190441Y-125566671D01*
X47082167Y-126111000D01*
X47190441Y-126655329D01*
X47498778Y-127116789D01*
X47894199Y-127381000D01*
X47498778Y-127645211D01*
X47190441Y-128106671D01*
X47082167Y-128651000D01*
X47190441Y-129195329D01*
X47498778Y-129656789D01*
X47960238Y-129965126D01*
X48504567Y-130073400D01*
X49285433Y-130073400D01*
X49829762Y-129965126D01*
X50291222Y-129656789D01*
X50599559Y-129195329D01*
X50622235Y-129081328D01*
X50768169Y-129434515D01*
X51157436Y-129824461D01*
X51666298Y-130035759D01*
X52217285Y-130036240D01*
X52726515Y-129825831D01*
X53116461Y-129436564D01*
X53127076Y-129411000D01*
X56261000Y-129411000D01*
X56551839Y-129353148D01*
X56798401Y-129188401D01*
X61089000Y-124897802D01*
X61089000Y-129667000D01*
X61146852Y-129957839D01*
X61311599Y-130204401D01*
X62835599Y-131728401D01*
X63082160Y-131893148D01*
X63130414Y-131902746D01*
X63373000Y-131951000D01*
X72009000Y-131951000D01*
X72299839Y-131893148D01*
X72411849Y-131818305D01*
X241954674Y-131818305D01*
X242241043Y-132511372D01*
X242770839Y-133042093D01*
X243463405Y-133329672D01*
X244213305Y-133330326D01*
X244906372Y-133043957D01*
X245437093Y-132514161D01*
X245724672Y-131821595D01*
X245725326Y-131071695D01*
X245438957Y-130378628D01*
X244909161Y-129847907D01*
X244216595Y-129560328D01*
X243466695Y-129559674D01*
X242773628Y-129846043D01*
X242242907Y-130375839D01*
X241955328Y-131068405D01*
X241954674Y-131818305D01*
X72411849Y-131818305D01*
X72546401Y-131728401D01*
X78058800Y-126216002D01*
X78082298Y-126225759D01*
X78633285Y-126226240D01*
X79142515Y-126015831D01*
X79532461Y-125626564D01*
X79743759Y-125117702D01*
X79744240Y-124566715D01*
X79533831Y-124057485D01*
X79144564Y-123667539D01*
X78635702Y-123456241D01*
X78084715Y-123455760D01*
X77575485Y-123666169D01*
X77185539Y-124055436D01*
X76974241Y-124564298D01*
X76973760Y-125115285D01*
X76984330Y-125140868D01*
X71694198Y-130431000D01*
X63687802Y-130431000D01*
X63342642Y-130085840D01*
X65278000Y-130085840D01*
X65513317Y-130041562D01*
X65729441Y-129902490D01*
X65874431Y-129690290D01*
X65925440Y-129438400D01*
X65925440Y-127863600D01*
X65881162Y-127628283D01*
X65742090Y-127412159D01*
X65529890Y-127267169D01*
X65358197Y-127232400D01*
X65531222Y-127116789D01*
X65839559Y-126655329D01*
X65947833Y-126111000D01*
X65839559Y-125566671D01*
X65531222Y-125105211D01*
X65135801Y-124841000D01*
X65531222Y-124576789D01*
X65784116Y-124198305D01*
X70504674Y-124198305D01*
X70791043Y-124891372D01*
X71320839Y-125422093D01*
X72013405Y-125709672D01*
X72763305Y-125710326D01*
X73456372Y-125423957D01*
X73987093Y-124894161D01*
X74274672Y-124201595D01*
X74275326Y-123451695D01*
X73988957Y-122758628D01*
X73524446Y-122293305D01*
X81299674Y-122293305D01*
X81586043Y-122986372D01*
X82115839Y-123517093D01*
X82808405Y-123804672D01*
X83558305Y-123805326D01*
X84251372Y-123518957D01*
X84368243Y-123402289D01*
X87230213Y-123402289D01*
X87378561Y-123664553D01*
X88107559Y-123840368D01*
X88848347Y-123723824D01*
X88991439Y-123664553D01*
X89139787Y-123402289D01*
X92230213Y-123402289D01*
X92378561Y-123664553D01*
X93107559Y-123840368D01*
X93848347Y-123723824D01*
X93991439Y-123664553D01*
X94139787Y-123402289D01*
X93185000Y-122447502D01*
X92230213Y-123402289D01*
X89139787Y-123402289D01*
X88185000Y-122447502D01*
X87230213Y-123402289D01*
X84368243Y-123402289D01*
X84782093Y-122989161D01*
X85069672Y-122296595D01*
X85070067Y-121842559D01*
X86264632Y-121842559D01*
X86381176Y-122583347D01*
X86440447Y-122726439D01*
X86702711Y-122874787D01*
X87657498Y-121920000D01*
X88712502Y-121920000D01*
X89667289Y-122874787D01*
X89929553Y-122726439D01*
X90105368Y-121997441D01*
X90081002Y-121842559D01*
X91264632Y-121842559D01*
X91381176Y-122583347D01*
X91440447Y-122726439D01*
X91702711Y-122874787D01*
X92657498Y-121920000D01*
X93712502Y-121920000D01*
X94667289Y-122874787D01*
X94929553Y-122726439D01*
X95034013Y-122293305D01*
X96299674Y-122293305D01*
X96586043Y-122986372D01*
X97115839Y-123517093D01*
X97808405Y-123804672D01*
X98558305Y-123805326D01*
X99251372Y-123518957D01*
X99368243Y-123402289D01*
X103820213Y-123402289D01*
X103968561Y-123664553D01*
X104697559Y-123840368D01*
X105438347Y-123723824D01*
X105581439Y-123664553D01*
X105729787Y-123402289D01*
X108820213Y-123402289D01*
X108968561Y-123664553D01*
X109697559Y-123840368D01*
X110438347Y-123723824D01*
X110581439Y-123664553D01*
X110729787Y-123402289D01*
X113820213Y-123402289D01*
X113968561Y-123664553D01*
X114697559Y-123840368D01*
X115438347Y-123723824D01*
X115581439Y-123664553D01*
X115729787Y-123402289D01*
X118820213Y-123402289D01*
X118968561Y-123664553D01*
X119697559Y-123840368D01*
X120438347Y-123723824D01*
X120581439Y-123664553D01*
X120729787Y-123402289D01*
X119775000Y-122447502D01*
X118820213Y-123402289D01*
X115729787Y-123402289D01*
X114775000Y-122447502D01*
X113820213Y-123402289D01*
X110729787Y-123402289D01*
X109775000Y-122447502D01*
X108820213Y-123402289D01*
X105729787Y-123402289D01*
X104775000Y-122447502D01*
X103820213Y-123402289D01*
X99368243Y-123402289D01*
X99782093Y-122989161D01*
X100069672Y-122296595D01*
X100070067Y-121842559D01*
X102854632Y-121842559D01*
X102971176Y-122583347D01*
X103030447Y-122726439D01*
X103292711Y-122874787D01*
X104247498Y-121920000D01*
X105302502Y-121920000D01*
X106257289Y-122874787D01*
X106519553Y-122726439D01*
X106695368Y-121997441D01*
X106671002Y-121842559D01*
X107854632Y-121842559D01*
X107971176Y-122583347D01*
X108030447Y-122726439D01*
X108292711Y-122874787D01*
X109247498Y-121920000D01*
X110302502Y-121920000D01*
X111257289Y-122874787D01*
X111519553Y-122726439D01*
X111695368Y-121997441D01*
X111671002Y-121842559D01*
X112854632Y-121842559D01*
X112971176Y-122583347D01*
X113030447Y-122726439D01*
X113292711Y-122874787D01*
X114247498Y-121920000D01*
X115302502Y-121920000D01*
X116257289Y-122874787D01*
X116519553Y-122726439D01*
X116695368Y-121997441D01*
X116671002Y-121842559D01*
X117854632Y-121842559D01*
X117971176Y-122583347D01*
X118030447Y-122726439D01*
X118292711Y-122874787D01*
X119247498Y-121920000D01*
X120302502Y-121920000D01*
X121257289Y-122874787D01*
X121519553Y-122726439D01*
X121624013Y-122293305D01*
X124479674Y-122293305D01*
X124766043Y-122986372D01*
X125295839Y-123517093D01*
X125988405Y-123804672D01*
X126738305Y-123805326D01*
X127431372Y-123518957D01*
X127962093Y-122989161D01*
X128249672Y-122296595D01*
X128249674Y-122293305D01*
X129479674Y-122293305D01*
X129766043Y-122986372D01*
X130295839Y-123517093D01*
X130988405Y-123804672D01*
X131738305Y-123805326D01*
X132431372Y-123518957D01*
X132962093Y-122989161D01*
X133249672Y-122296595D01*
X133249674Y-122293305D01*
X134479674Y-122293305D01*
X134766043Y-122986372D01*
X135295839Y-123517093D01*
X135988405Y-123804672D01*
X136738305Y-123805326D01*
X137431372Y-123518957D01*
X137962093Y-122989161D01*
X138249672Y-122296595D01*
X138249674Y-122293305D01*
X139479674Y-122293305D01*
X139766043Y-122986372D01*
X140295839Y-123517093D01*
X140988405Y-123804672D01*
X141738305Y-123805326D01*
X142431372Y-123518957D01*
X142962093Y-122989161D01*
X143249672Y-122296595D01*
X143249674Y-122293305D01*
X146069674Y-122293305D01*
X146356043Y-122986372D01*
X146885839Y-123517093D01*
X147578405Y-123804672D01*
X148328305Y-123805326D01*
X149021372Y-123518957D01*
X149552093Y-122989161D01*
X149839672Y-122296595D01*
X149839674Y-122293305D01*
X151069674Y-122293305D01*
X151356043Y-122986372D01*
X151885839Y-123517093D01*
X152578405Y-123804672D01*
X153328305Y-123805326D01*
X154021372Y-123518957D01*
X154552093Y-122989161D01*
X154839672Y-122296595D01*
X154839674Y-122293305D01*
X156069674Y-122293305D01*
X156356043Y-122986372D01*
X156885839Y-123517093D01*
X157578405Y-123804672D01*
X158328305Y-123805326D01*
X159021372Y-123518957D01*
X159552093Y-122989161D01*
X159839672Y-122296595D01*
X159839674Y-122293305D01*
X161069674Y-122293305D01*
X161356043Y-122986372D01*
X161885839Y-123517093D01*
X162578405Y-123804672D01*
X163328305Y-123805326D01*
X164021372Y-123518957D01*
X164552093Y-122989161D01*
X164839672Y-122296595D01*
X164839674Y-122293305D01*
X167659674Y-122293305D01*
X167946043Y-122986372D01*
X168475839Y-123517093D01*
X169168405Y-123804672D01*
X169918305Y-123805326D01*
X170611372Y-123518957D01*
X171142093Y-122989161D01*
X171429672Y-122296595D01*
X171429674Y-122293305D01*
X172659674Y-122293305D01*
X172946043Y-122986372D01*
X173475839Y-123517093D01*
X174168405Y-123804672D01*
X174918305Y-123805326D01*
X175611372Y-123518957D01*
X176142093Y-122989161D01*
X176429672Y-122296595D01*
X176429674Y-122293305D01*
X177659674Y-122293305D01*
X177946043Y-122986372D01*
X178475839Y-123517093D01*
X179168405Y-123804672D01*
X179918305Y-123805326D01*
X180611372Y-123518957D01*
X181142093Y-122989161D01*
X181429672Y-122296595D01*
X181429674Y-122293305D01*
X182659674Y-122293305D01*
X182946043Y-122986372D01*
X183475839Y-123517093D01*
X184168405Y-123804672D01*
X184918305Y-123805326D01*
X185611372Y-123518957D01*
X186142093Y-122989161D01*
X186429672Y-122296595D01*
X186429674Y-122293305D01*
X189249674Y-122293305D01*
X189536043Y-122986372D01*
X190065839Y-123517093D01*
X190758405Y-123804672D01*
X191508305Y-123805326D01*
X192201372Y-123518957D01*
X192732093Y-122989161D01*
X193019672Y-122296595D01*
X193019674Y-122293305D01*
X194249674Y-122293305D01*
X194536043Y-122986372D01*
X195065839Y-123517093D01*
X195758405Y-123804672D01*
X196508305Y-123805326D01*
X197201372Y-123518957D01*
X197732093Y-122989161D01*
X198019672Y-122296595D01*
X198019674Y-122293305D01*
X199249674Y-122293305D01*
X199536043Y-122986372D01*
X200065839Y-123517093D01*
X200758405Y-123804672D01*
X201508305Y-123805326D01*
X202201372Y-123518957D01*
X202732093Y-122989161D01*
X203019672Y-122296595D01*
X203019674Y-122293305D01*
X204249674Y-122293305D01*
X204536043Y-122986372D01*
X205065839Y-123517093D01*
X205758405Y-123804672D01*
X206508305Y-123805326D01*
X207201372Y-123518957D01*
X207732093Y-122989161D01*
X208019672Y-122296595D01*
X208019674Y-122293305D01*
X210839674Y-122293305D01*
X211126043Y-122986372D01*
X211655839Y-123517093D01*
X212348405Y-123804672D01*
X213098305Y-123805326D01*
X213791372Y-123518957D01*
X214322093Y-122989161D01*
X214609672Y-122296595D01*
X214609674Y-122293305D01*
X215839674Y-122293305D01*
X216126043Y-122986372D01*
X216655839Y-123517093D01*
X217348405Y-123804672D01*
X218098305Y-123805326D01*
X218791372Y-123518957D01*
X219322093Y-122989161D01*
X219609672Y-122296595D01*
X219609674Y-122293305D01*
X220839674Y-122293305D01*
X221126043Y-122986372D01*
X221655839Y-123517093D01*
X222348405Y-123804672D01*
X223098305Y-123805326D01*
X223791372Y-123518957D01*
X224322093Y-122989161D01*
X224609672Y-122296595D01*
X224609674Y-122293305D01*
X225839674Y-122293305D01*
X226126043Y-122986372D01*
X226655839Y-123517093D01*
X227348405Y-123804672D01*
X228098305Y-123805326D01*
X228791372Y-123518957D01*
X229322093Y-122989161D01*
X229609672Y-122296595D01*
X229610326Y-121546695D01*
X229323957Y-120853628D01*
X228794161Y-120322907D01*
X228101595Y-120035328D01*
X227351695Y-120034674D01*
X226658628Y-120321043D01*
X226127907Y-120850839D01*
X225840328Y-121543405D01*
X225839674Y-122293305D01*
X224609674Y-122293305D01*
X224610326Y-121546695D01*
X224323957Y-120853628D01*
X223794161Y-120322907D01*
X223101595Y-120035328D01*
X222351695Y-120034674D01*
X221658628Y-120321043D01*
X221127907Y-120850839D01*
X220840328Y-121543405D01*
X220839674Y-122293305D01*
X219609674Y-122293305D01*
X219610326Y-121546695D01*
X219323957Y-120853628D01*
X218794161Y-120322907D01*
X218101595Y-120035328D01*
X217351695Y-120034674D01*
X216658628Y-120321043D01*
X216127907Y-120850839D01*
X215840328Y-121543405D01*
X215839674Y-122293305D01*
X214609674Y-122293305D01*
X214610326Y-121546695D01*
X214323957Y-120853628D01*
X213794161Y-120322907D01*
X213101595Y-120035328D01*
X212351695Y-120034674D01*
X211658628Y-120321043D01*
X211127907Y-120850839D01*
X210840328Y-121543405D01*
X210839674Y-122293305D01*
X208019674Y-122293305D01*
X208020326Y-121546695D01*
X207733957Y-120853628D01*
X207204161Y-120322907D01*
X206511595Y-120035328D01*
X205761695Y-120034674D01*
X205068628Y-120321043D01*
X204537907Y-120850839D01*
X204250328Y-121543405D01*
X204249674Y-122293305D01*
X203019674Y-122293305D01*
X203020326Y-121546695D01*
X202733957Y-120853628D01*
X202204161Y-120322907D01*
X201511595Y-120035328D01*
X200761695Y-120034674D01*
X200068628Y-120321043D01*
X199537907Y-120850839D01*
X199250328Y-121543405D01*
X199249674Y-122293305D01*
X198019674Y-122293305D01*
X198020326Y-121546695D01*
X197733957Y-120853628D01*
X197204161Y-120322907D01*
X196511595Y-120035328D01*
X195761695Y-120034674D01*
X195068628Y-120321043D01*
X194537907Y-120850839D01*
X194250328Y-121543405D01*
X194249674Y-122293305D01*
X193019674Y-122293305D01*
X193020326Y-121546695D01*
X192733957Y-120853628D01*
X192204161Y-120322907D01*
X191511595Y-120035328D01*
X190761695Y-120034674D01*
X190068628Y-120321043D01*
X189537907Y-120850839D01*
X189250328Y-121543405D01*
X189249674Y-122293305D01*
X186429674Y-122293305D01*
X186430326Y-121546695D01*
X186143957Y-120853628D01*
X185614161Y-120322907D01*
X184921595Y-120035328D01*
X184171695Y-120034674D01*
X183478628Y-120321043D01*
X182947907Y-120850839D01*
X182660328Y-121543405D01*
X182659674Y-122293305D01*
X181429674Y-122293305D01*
X181430326Y-121546695D01*
X181143957Y-120853628D01*
X180614161Y-120322907D01*
X179921595Y-120035328D01*
X179171695Y-120034674D01*
X178478628Y-120321043D01*
X177947907Y-120850839D01*
X177660328Y-121543405D01*
X177659674Y-122293305D01*
X176429674Y-122293305D01*
X176430326Y-121546695D01*
X176143957Y-120853628D01*
X175614161Y-120322907D01*
X174921595Y-120035328D01*
X174171695Y-120034674D01*
X173478628Y-120321043D01*
X172947907Y-120850839D01*
X172660328Y-121543405D01*
X172659674Y-122293305D01*
X171429674Y-122293305D01*
X171430326Y-121546695D01*
X171143957Y-120853628D01*
X170614161Y-120322907D01*
X169921595Y-120035328D01*
X169171695Y-120034674D01*
X168478628Y-120321043D01*
X167947907Y-120850839D01*
X167660328Y-121543405D01*
X167659674Y-122293305D01*
X164839674Y-122293305D01*
X164840326Y-121546695D01*
X164553957Y-120853628D01*
X164024161Y-120322907D01*
X163331595Y-120035328D01*
X162581695Y-120034674D01*
X161888628Y-120321043D01*
X161357907Y-120850839D01*
X161070328Y-121543405D01*
X161069674Y-122293305D01*
X159839674Y-122293305D01*
X159840326Y-121546695D01*
X159553957Y-120853628D01*
X159024161Y-120322907D01*
X158331595Y-120035328D01*
X157581695Y-120034674D01*
X156888628Y-120321043D01*
X156357907Y-120850839D01*
X156070328Y-121543405D01*
X156069674Y-122293305D01*
X154839674Y-122293305D01*
X154840326Y-121546695D01*
X154553957Y-120853628D01*
X154024161Y-120322907D01*
X153331595Y-120035328D01*
X152581695Y-120034674D01*
X151888628Y-120321043D01*
X151357907Y-120850839D01*
X151070328Y-121543405D01*
X151069674Y-122293305D01*
X149839674Y-122293305D01*
X149840326Y-121546695D01*
X149553957Y-120853628D01*
X149024161Y-120322907D01*
X148331595Y-120035328D01*
X147581695Y-120034674D01*
X146888628Y-120321043D01*
X146357907Y-120850839D01*
X146070328Y-121543405D01*
X146069674Y-122293305D01*
X143249674Y-122293305D01*
X143250326Y-121546695D01*
X142963957Y-120853628D01*
X142434161Y-120322907D01*
X141741595Y-120035328D01*
X140991695Y-120034674D01*
X140298628Y-120321043D01*
X139767907Y-120850839D01*
X139480328Y-121543405D01*
X139479674Y-122293305D01*
X138249674Y-122293305D01*
X138250326Y-121546695D01*
X137963957Y-120853628D01*
X137434161Y-120322907D01*
X136741595Y-120035328D01*
X135991695Y-120034674D01*
X135298628Y-120321043D01*
X134767907Y-120850839D01*
X134480328Y-121543405D01*
X134479674Y-122293305D01*
X133249674Y-122293305D01*
X133250326Y-121546695D01*
X132963957Y-120853628D01*
X132434161Y-120322907D01*
X131741595Y-120035328D01*
X130991695Y-120034674D01*
X130298628Y-120321043D01*
X129767907Y-120850839D01*
X129480328Y-121543405D01*
X129479674Y-122293305D01*
X128249674Y-122293305D01*
X128250326Y-121546695D01*
X127963957Y-120853628D01*
X127434161Y-120322907D01*
X126741595Y-120035328D01*
X125991695Y-120034674D01*
X125298628Y-120321043D01*
X124767907Y-120850839D01*
X124480328Y-121543405D01*
X124479674Y-122293305D01*
X121624013Y-122293305D01*
X121695368Y-121997441D01*
X121578824Y-121256653D01*
X121519553Y-121113561D01*
X121257289Y-120965213D01*
X120302502Y-121920000D01*
X119247498Y-121920000D01*
X118292711Y-120965213D01*
X118030447Y-121113561D01*
X117854632Y-121842559D01*
X116671002Y-121842559D01*
X116578824Y-121256653D01*
X116519553Y-121113561D01*
X116257289Y-120965213D01*
X115302502Y-121920000D01*
X114247498Y-121920000D01*
X113292711Y-120965213D01*
X113030447Y-121113561D01*
X112854632Y-121842559D01*
X111671002Y-121842559D01*
X111578824Y-121256653D01*
X111519553Y-121113561D01*
X111257289Y-120965213D01*
X110302502Y-121920000D01*
X109247498Y-121920000D01*
X108292711Y-120965213D01*
X108030447Y-121113561D01*
X107854632Y-121842559D01*
X106671002Y-121842559D01*
X106578824Y-121256653D01*
X106519553Y-121113561D01*
X106257289Y-120965213D01*
X105302502Y-121920000D01*
X104247498Y-121920000D01*
X103292711Y-120965213D01*
X103030447Y-121113561D01*
X102854632Y-121842559D01*
X100070067Y-121842559D01*
X100070326Y-121546695D01*
X99783957Y-120853628D01*
X99368765Y-120437711D01*
X103820213Y-120437711D01*
X104775000Y-121392498D01*
X105729787Y-120437711D01*
X108820213Y-120437711D01*
X109775000Y-121392498D01*
X110729787Y-120437711D01*
X113820213Y-120437711D01*
X114775000Y-121392498D01*
X115729787Y-120437711D01*
X118820213Y-120437711D01*
X119775000Y-121392498D01*
X120729787Y-120437711D01*
X120581439Y-120175447D01*
X119852441Y-119999632D01*
X119111653Y-120116176D01*
X118968561Y-120175447D01*
X118820213Y-120437711D01*
X115729787Y-120437711D01*
X115581439Y-120175447D01*
X114852441Y-119999632D01*
X114111653Y-120116176D01*
X113968561Y-120175447D01*
X113820213Y-120437711D01*
X110729787Y-120437711D01*
X110581439Y-120175447D01*
X109852441Y-119999632D01*
X109111653Y-120116176D01*
X108968561Y-120175447D01*
X108820213Y-120437711D01*
X105729787Y-120437711D01*
X105581439Y-120175447D01*
X104852441Y-119999632D01*
X104111653Y-120116176D01*
X103968561Y-120175447D01*
X103820213Y-120437711D01*
X99368765Y-120437711D01*
X99254161Y-120322907D01*
X98561595Y-120035328D01*
X97811695Y-120034674D01*
X97118628Y-120321043D01*
X96587907Y-120850839D01*
X96300328Y-121543405D01*
X96299674Y-122293305D01*
X95034013Y-122293305D01*
X95105368Y-121997441D01*
X94988824Y-121256653D01*
X94929553Y-121113561D01*
X94667289Y-120965213D01*
X93712502Y-121920000D01*
X92657498Y-121920000D01*
X91702711Y-120965213D01*
X91440447Y-121113561D01*
X91264632Y-121842559D01*
X90081002Y-121842559D01*
X89988824Y-121256653D01*
X89929553Y-121113561D01*
X89667289Y-120965213D01*
X88712502Y-121920000D01*
X87657498Y-121920000D01*
X86702711Y-120965213D01*
X86440447Y-121113561D01*
X86264632Y-121842559D01*
X85070067Y-121842559D01*
X85070326Y-121546695D01*
X84783957Y-120853628D01*
X84368765Y-120437711D01*
X87230213Y-120437711D01*
X88185000Y-121392498D01*
X89139787Y-120437711D01*
X92230213Y-120437711D01*
X93185000Y-121392498D01*
X94139787Y-120437711D01*
X93991439Y-120175447D01*
X93262441Y-119999632D01*
X92521653Y-120116176D01*
X92378561Y-120175447D01*
X92230213Y-120437711D01*
X89139787Y-120437711D01*
X88991439Y-120175447D01*
X88262441Y-119999632D01*
X87521653Y-120116176D01*
X87378561Y-120175447D01*
X87230213Y-120437711D01*
X84368765Y-120437711D01*
X84254161Y-120322907D01*
X83561595Y-120035328D01*
X82811695Y-120034674D01*
X82118628Y-120321043D01*
X81587907Y-120850839D01*
X81300328Y-121543405D01*
X81299674Y-122293305D01*
X73524446Y-122293305D01*
X73459161Y-122227907D01*
X72766595Y-121940328D01*
X72016695Y-121939674D01*
X71323628Y-122226043D01*
X70792907Y-122755839D01*
X70505328Y-123448405D01*
X70504674Y-124198305D01*
X65784116Y-124198305D01*
X65839559Y-124115329D01*
X65947833Y-123571000D01*
X65839559Y-123026671D01*
X65531222Y-122565211D01*
X65135801Y-122301000D01*
X65531222Y-122036789D01*
X65839559Y-121575329D01*
X65947833Y-121031000D01*
X65839559Y-120486671D01*
X65531222Y-120025211D01*
X65135801Y-119761000D01*
X65531222Y-119496789D01*
X65839559Y-119035329D01*
X65947833Y-118491000D01*
X65839559Y-117946671D01*
X65531222Y-117485211D01*
X65135801Y-117221000D01*
X65531222Y-116956789D01*
X65839559Y-116495329D01*
X65947833Y-115951000D01*
X65839559Y-115406671D01*
X65531222Y-114945211D01*
X65135801Y-114681000D01*
X65531222Y-114416789D01*
X65839559Y-113955329D01*
X65947833Y-113411000D01*
X65839559Y-112866671D01*
X65531222Y-112405211D01*
X65135801Y-112141000D01*
X65531222Y-111876789D01*
X65839559Y-111415329D01*
X65947833Y-110871000D01*
X65839559Y-110326671D01*
X65531222Y-109865211D01*
X65135801Y-109601000D01*
X65531222Y-109336789D01*
X65839559Y-108875329D01*
X65947833Y-108331000D01*
X65839559Y-107786671D01*
X65531222Y-107325211D01*
X65135801Y-107061000D01*
X65531222Y-106796789D01*
X65839559Y-106335329D01*
X65947833Y-105791000D01*
X65839559Y-105246671D01*
X65531222Y-104785211D01*
X65135801Y-104521000D01*
X65531222Y-104256789D01*
X65839559Y-103795329D01*
X65947833Y-103251000D01*
X65839559Y-102706671D01*
X65531222Y-102245211D01*
X65135801Y-101981000D01*
X65531222Y-101716789D01*
X65726993Y-101423795D01*
X74564716Y-101423795D01*
X74813106Y-102024943D01*
X75272637Y-102485278D01*
X75873352Y-102734716D01*
X76523795Y-102735284D01*
X77124943Y-102486894D01*
X77585278Y-102027363D01*
X77834716Y-101426648D01*
X77834718Y-101423795D01*
X86564716Y-101423795D01*
X86813106Y-102024943D01*
X87272637Y-102485278D01*
X87873352Y-102734716D01*
X88523795Y-102735284D01*
X89124943Y-102486894D01*
X89585278Y-102027363D01*
X89834716Y-101426648D01*
X89834718Y-101423795D01*
X95519716Y-101423795D01*
X95768106Y-102024943D01*
X96227637Y-102485278D01*
X96828352Y-102734716D01*
X97478795Y-102735284D01*
X98079943Y-102486894D01*
X98540278Y-102027363D01*
X98789716Y-101426648D01*
X98789718Y-101423795D01*
X107519716Y-101423795D01*
X107768106Y-102024943D01*
X108227637Y-102485278D01*
X108828352Y-102734716D01*
X109478795Y-102735284D01*
X110079943Y-102486894D01*
X110540278Y-102027363D01*
X110789716Y-101426648D01*
X110789718Y-101423795D01*
X116474716Y-101423795D01*
X116723106Y-102024943D01*
X117182637Y-102485278D01*
X117783352Y-102734716D01*
X118433795Y-102735284D01*
X119034943Y-102486894D01*
X119495278Y-102027363D01*
X119744716Y-101426648D01*
X119744718Y-101423795D01*
X128474716Y-101423795D01*
X128723106Y-102024943D01*
X129182637Y-102485278D01*
X129783352Y-102734716D01*
X130433795Y-102735284D01*
X131034943Y-102486894D01*
X131495278Y-102027363D01*
X131744716Y-101426648D01*
X131744718Y-101423795D01*
X137429716Y-101423795D01*
X137678106Y-102024943D01*
X138137637Y-102485278D01*
X138738352Y-102734716D01*
X139388795Y-102735284D01*
X139989943Y-102486894D01*
X140450278Y-102027363D01*
X140699716Y-101426648D01*
X140699718Y-101423795D01*
X149429716Y-101423795D01*
X149678106Y-102024943D01*
X150137637Y-102485278D01*
X150738352Y-102734716D01*
X151388795Y-102735284D01*
X151989943Y-102486894D01*
X152450278Y-102027363D01*
X152699716Y-101426648D01*
X152699718Y-101423795D01*
X158384716Y-101423795D01*
X158633106Y-102024943D01*
X159092637Y-102485278D01*
X159693352Y-102734716D01*
X160343795Y-102735284D01*
X160944943Y-102486894D01*
X161405278Y-102027363D01*
X161654716Y-101426648D01*
X161654718Y-101423795D01*
X170384716Y-101423795D01*
X170633106Y-102024943D01*
X171092637Y-102485278D01*
X171693352Y-102734716D01*
X172343795Y-102735284D01*
X172944943Y-102486894D01*
X173405278Y-102027363D01*
X173654716Y-101426648D01*
X173654718Y-101423795D01*
X179339716Y-101423795D01*
X179588106Y-102024943D01*
X180047637Y-102485278D01*
X180648352Y-102734716D01*
X181298795Y-102735284D01*
X181899943Y-102486894D01*
X182360278Y-102027363D01*
X182609716Y-101426648D01*
X182609718Y-101423795D01*
X191339716Y-101423795D01*
X191588106Y-102024943D01*
X192047637Y-102485278D01*
X192648352Y-102734716D01*
X193298795Y-102735284D01*
X193899943Y-102486894D01*
X194360278Y-102027363D01*
X194609716Y-101426648D01*
X194609718Y-101423795D01*
X200294716Y-101423795D01*
X200543106Y-102024943D01*
X201002637Y-102485278D01*
X201603352Y-102734716D01*
X202253795Y-102735284D01*
X202854943Y-102486894D01*
X203315278Y-102027363D01*
X203564716Y-101426648D01*
X203564718Y-101423795D01*
X212294716Y-101423795D01*
X212543106Y-102024943D01*
X213002637Y-102485278D01*
X213603352Y-102734716D01*
X214253795Y-102735284D01*
X214854943Y-102486894D01*
X215315278Y-102027363D01*
X215564716Y-101426648D01*
X215564718Y-101423795D01*
X221249716Y-101423795D01*
X221498106Y-102024943D01*
X221957637Y-102485278D01*
X222558352Y-102734716D01*
X223208795Y-102735284D01*
X223809943Y-102486894D01*
X224270278Y-102027363D01*
X224519716Y-101426648D01*
X224519718Y-101423795D01*
X233249716Y-101423795D01*
X233498106Y-102024943D01*
X233957637Y-102485278D01*
X234558352Y-102734716D01*
X235208795Y-102735284D01*
X235809943Y-102486894D01*
X236270278Y-102027363D01*
X236519716Y-101426648D01*
X236520284Y-100776205D01*
X236271894Y-100175057D01*
X235812363Y-99714722D01*
X235211648Y-99465284D01*
X234561205Y-99464716D01*
X233960057Y-99713106D01*
X233499722Y-100172637D01*
X233250284Y-100773352D01*
X233249716Y-101423795D01*
X224519718Y-101423795D01*
X224520284Y-100776205D01*
X224271894Y-100175057D01*
X223812363Y-99714722D01*
X223211648Y-99465284D01*
X222561205Y-99464716D01*
X221960057Y-99713106D01*
X221499722Y-100172637D01*
X221250284Y-100773352D01*
X221249716Y-101423795D01*
X215564718Y-101423795D01*
X215565284Y-100776205D01*
X215316894Y-100175057D01*
X214857363Y-99714722D01*
X214256648Y-99465284D01*
X213606205Y-99464716D01*
X213005057Y-99713106D01*
X212544722Y-100172637D01*
X212295284Y-100773352D01*
X212294716Y-101423795D01*
X203564718Y-101423795D01*
X203565284Y-100776205D01*
X203316894Y-100175057D01*
X202857363Y-99714722D01*
X202256648Y-99465284D01*
X201606205Y-99464716D01*
X201005057Y-99713106D01*
X200544722Y-100172637D01*
X200295284Y-100773352D01*
X200294716Y-101423795D01*
X194609718Y-101423795D01*
X194610284Y-100776205D01*
X194361894Y-100175057D01*
X193902363Y-99714722D01*
X193301648Y-99465284D01*
X192651205Y-99464716D01*
X192050057Y-99713106D01*
X191589722Y-100172637D01*
X191340284Y-100773352D01*
X191339716Y-101423795D01*
X182609718Y-101423795D01*
X182610284Y-100776205D01*
X182361894Y-100175057D01*
X181902363Y-99714722D01*
X181301648Y-99465284D01*
X180651205Y-99464716D01*
X180050057Y-99713106D01*
X179589722Y-100172637D01*
X179340284Y-100773352D01*
X179339716Y-101423795D01*
X173654718Y-101423795D01*
X173655284Y-100776205D01*
X173406894Y-100175057D01*
X172947363Y-99714722D01*
X172346648Y-99465284D01*
X171696205Y-99464716D01*
X171095057Y-99713106D01*
X170634722Y-100172637D01*
X170385284Y-100773352D01*
X170384716Y-101423795D01*
X161654718Y-101423795D01*
X161655284Y-100776205D01*
X161406894Y-100175057D01*
X160947363Y-99714722D01*
X160346648Y-99465284D01*
X159696205Y-99464716D01*
X159095057Y-99713106D01*
X158634722Y-100172637D01*
X158385284Y-100773352D01*
X158384716Y-101423795D01*
X152699718Y-101423795D01*
X152700284Y-100776205D01*
X152451894Y-100175057D01*
X151992363Y-99714722D01*
X151391648Y-99465284D01*
X150741205Y-99464716D01*
X150140057Y-99713106D01*
X149679722Y-100172637D01*
X149430284Y-100773352D01*
X149429716Y-101423795D01*
X140699718Y-101423795D01*
X140700284Y-100776205D01*
X140451894Y-100175057D01*
X139992363Y-99714722D01*
X139391648Y-99465284D01*
X138741205Y-99464716D01*
X138140057Y-99713106D01*
X137679722Y-100172637D01*
X137430284Y-100773352D01*
X137429716Y-101423795D01*
X131744718Y-101423795D01*
X131745284Y-100776205D01*
X131496894Y-100175057D01*
X131037363Y-99714722D01*
X130436648Y-99465284D01*
X129786205Y-99464716D01*
X129185057Y-99713106D01*
X128724722Y-100172637D01*
X128475284Y-100773352D01*
X128474716Y-101423795D01*
X119744718Y-101423795D01*
X119745284Y-100776205D01*
X119496894Y-100175057D01*
X119037363Y-99714722D01*
X118436648Y-99465284D01*
X117786205Y-99464716D01*
X117185057Y-99713106D01*
X116724722Y-100172637D01*
X116475284Y-100773352D01*
X116474716Y-101423795D01*
X110789718Y-101423795D01*
X110790284Y-100776205D01*
X110541894Y-100175057D01*
X110082363Y-99714722D01*
X109481648Y-99465284D01*
X108831205Y-99464716D01*
X108230057Y-99713106D01*
X107769722Y-100172637D01*
X107520284Y-100773352D01*
X107519716Y-101423795D01*
X98789718Y-101423795D01*
X98790284Y-100776205D01*
X98541894Y-100175057D01*
X98082363Y-99714722D01*
X97481648Y-99465284D01*
X96831205Y-99464716D01*
X96230057Y-99713106D01*
X95769722Y-100172637D01*
X95520284Y-100773352D01*
X95519716Y-101423795D01*
X89834718Y-101423795D01*
X89835284Y-100776205D01*
X89586894Y-100175057D01*
X89127363Y-99714722D01*
X88526648Y-99465284D01*
X87876205Y-99464716D01*
X87275057Y-99713106D01*
X86814722Y-100172637D01*
X86565284Y-100773352D01*
X86564716Y-101423795D01*
X77834718Y-101423795D01*
X77835284Y-100776205D01*
X77586894Y-100175057D01*
X77127363Y-99714722D01*
X76526648Y-99465284D01*
X75876205Y-99464716D01*
X75275057Y-99713106D01*
X74814722Y-100172637D01*
X74565284Y-100773352D01*
X74564716Y-101423795D01*
X65726993Y-101423795D01*
X65839559Y-101255329D01*
X65947833Y-100711000D01*
X65839559Y-100166671D01*
X65531222Y-99705211D01*
X65135801Y-99441000D01*
X65531222Y-99176789D01*
X65839559Y-98715329D01*
X65947833Y-98171000D01*
X65839559Y-97626671D01*
X65531222Y-97165211D01*
X65111547Y-96884794D01*
X65247445Y-96832758D01*
X65649726Y-96451648D01*
X65787974Y-96214133D01*
X65697945Y-96004000D01*
X64508000Y-96004000D01*
X64508000Y-96024000D01*
X63762000Y-96024000D01*
X63762000Y-96004000D01*
X63742000Y-96004000D01*
X63742000Y-95258000D01*
X63762000Y-95258000D01*
X63762000Y-95238000D01*
X64508000Y-95238000D01*
X64508000Y-95258000D01*
X65697945Y-95258000D01*
X65787974Y-95047867D01*
X65649726Y-94810352D01*
X65247445Y-94429242D01*
X65111547Y-94377206D01*
X65531222Y-94096789D01*
X65839559Y-93635329D01*
X65947833Y-93091000D01*
X65839559Y-92546671D01*
X65531222Y-92085211D01*
X65177161Y-91848635D01*
X65308461Y-91717564D01*
X65319076Y-91692000D01*
X67934998Y-91692000D01*
X72030399Y-95787401D01*
X72276961Y-95952148D01*
X72567800Y-96010000D01*
X91060530Y-96010000D01*
X91060530Y-96249490D01*
X91104808Y-96484807D01*
X91243880Y-96700931D01*
X91456080Y-96845921D01*
X91707970Y-96896930D01*
X93706950Y-96896930D01*
X93942267Y-96852652D01*
X94158391Y-96713580D01*
X94303381Y-96501380D01*
X94354390Y-96249490D01*
X94354390Y-94250510D01*
X94310112Y-94015193D01*
X94204457Y-93851000D01*
X112167403Y-93851000D01*
X112066539Y-93998620D01*
X112015530Y-94250510D01*
X112015530Y-96249490D01*
X112059808Y-96484807D01*
X112198880Y-96700931D01*
X112411080Y-96845921D01*
X112662970Y-96896930D01*
X114661950Y-96896930D01*
X114897267Y-96852652D01*
X115113391Y-96713580D01*
X115258381Y-96501380D01*
X115309390Y-96249490D01*
X115309390Y-94250510D01*
X115265112Y-94015193D01*
X115159457Y-93851000D01*
X133122403Y-93851000D01*
X133021539Y-93998620D01*
X132970530Y-94250510D01*
X132970530Y-96249490D01*
X133014808Y-96484807D01*
X133153880Y-96700931D01*
X133366080Y-96845921D01*
X133617970Y-96896930D01*
X135616950Y-96896930D01*
X135852267Y-96852652D01*
X136068391Y-96713580D01*
X136213381Y-96501380D01*
X136264390Y-96249490D01*
X136264390Y-94250510D01*
X136220112Y-94015193D01*
X136114457Y-93851000D01*
X154077403Y-93851000D01*
X153976539Y-93998620D01*
X153925530Y-94250510D01*
X153925530Y-96249490D01*
X153969808Y-96484807D01*
X154108880Y-96700931D01*
X154321080Y-96845921D01*
X154572970Y-96896930D01*
X156571950Y-96896930D01*
X156807267Y-96852652D01*
X157023391Y-96713580D01*
X157168381Y-96501380D01*
X157219390Y-96249490D01*
X157219390Y-94250510D01*
X157175112Y-94015193D01*
X157069457Y-93851000D01*
X175032403Y-93851000D01*
X174931539Y-93998620D01*
X174880530Y-94250510D01*
X174880530Y-96249490D01*
X174924808Y-96484807D01*
X175063880Y-96700931D01*
X175276080Y-96845921D01*
X175527970Y-96896930D01*
X177526950Y-96896930D01*
X177762267Y-96852652D01*
X177978391Y-96713580D01*
X178123381Y-96501380D01*
X178174390Y-96249490D01*
X178174390Y-94250510D01*
X178130112Y-94015193D01*
X178024457Y-93851000D01*
X195987403Y-93851000D01*
X195886539Y-93998620D01*
X195835530Y-94250510D01*
X195835530Y-96249490D01*
X195879808Y-96484807D01*
X196018880Y-96700931D01*
X196231080Y-96845921D01*
X196482970Y-96896930D01*
X198481950Y-96896930D01*
X198717267Y-96852652D01*
X198933391Y-96713580D01*
X199078381Y-96501380D01*
X199129390Y-96249490D01*
X199129390Y-94250510D01*
X216790530Y-94250510D01*
X216790530Y-96249490D01*
X216834808Y-96484807D01*
X216973880Y-96700931D01*
X217186080Y-96845921D01*
X217437970Y-96896930D01*
X219436950Y-96896930D01*
X219672267Y-96852652D01*
X219888391Y-96713580D01*
X220033381Y-96501380D01*
X220084390Y-96249490D01*
X220084390Y-94250510D01*
X220040112Y-94015193D01*
X219901040Y-93799069D01*
X219688840Y-93654079D01*
X219436950Y-93603070D01*
X217437970Y-93603070D01*
X217202653Y-93647348D01*
X216986529Y-93786420D01*
X216841539Y-93998620D01*
X216790530Y-94250510D01*
X199129390Y-94250510D01*
X199085112Y-94015193D01*
X198979457Y-93851000D01*
X215138000Y-93851000D01*
X215428839Y-93793148D01*
X215675401Y-93628401D01*
X220080007Y-89223795D01*
X221249716Y-89223795D01*
X221498106Y-89824943D01*
X221957637Y-90285278D01*
X222558352Y-90534716D01*
X223208795Y-90535284D01*
X223809943Y-90286894D01*
X224270278Y-89827363D01*
X224519716Y-89226648D01*
X224520284Y-88576205D01*
X224271894Y-87975057D01*
X223812363Y-87514722D01*
X223211648Y-87265284D01*
X222561205Y-87264716D01*
X221960057Y-87513106D01*
X221499722Y-87972637D01*
X221250284Y-88573352D01*
X221249716Y-89223795D01*
X220080007Y-89223795D01*
X222080007Y-87223795D01*
X227249716Y-87223795D01*
X227498106Y-87824943D01*
X227957637Y-88285278D01*
X228558352Y-88534716D01*
X229208795Y-88535284D01*
X229809943Y-88286894D01*
X230270278Y-87827363D01*
X230339773Y-87660000D01*
X233812906Y-87660000D01*
X233499722Y-87972637D01*
X233250284Y-88573352D01*
X233249716Y-89223795D01*
X233498106Y-89824943D01*
X233957637Y-90285278D01*
X234558352Y-90534716D01*
X235208795Y-90535284D01*
X235809943Y-90286894D01*
X236270278Y-89827363D01*
X236519716Y-89226648D01*
X236520284Y-88576205D01*
X236271894Y-87975057D01*
X235957387Y-87660000D01*
X237080198Y-87660000D01*
X238622300Y-89202102D01*
X238622300Y-93603070D01*
X238392970Y-93603070D01*
X238157653Y-93647348D01*
X237941529Y-93786420D01*
X237796539Y-93998620D01*
X237745530Y-94250510D01*
X237745530Y-96249490D01*
X237789808Y-96484807D01*
X237928880Y-96700931D01*
X238141080Y-96845921D01*
X238392970Y-96896930D01*
X240391950Y-96896930D01*
X240627267Y-96852652D01*
X240843391Y-96713580D01*
X240988381Y-96501380D01*
X241039390Y-96249490D01*
X241039390Y-94250510D01*
X240995112Y-94015193D01*
X240856040Y-93799069D01*
X240643840Y-93654079D01*
X240391950Y-93603070D01*
X240142300Y-93603070D01*
X240142300Y-88948533D01*
X240152459Y-88897460D01*
X240094608Y-88606620D01*
X239929861Y-88360059D01*
X237932401Y-86362599D01*
X237685839Y-86197852D01*
X237395000Y-86140000D01*
X230340047Y-86140000D01*
X230271894Y-85975057D01*
X229812363Y-85514722D01*
X229569060Y-85413694D01*
X237757686Y-85413694D01*
X238005998Y-86014655D01*
X238465387Y-86474846D01*
X239065913Y-86724206D01*
X239716154Y-86724774D01*
X240317115Y-86476462D01*
X240777306Y-86017073D01*
X241026666Y-85416547D01*
X241027234Y-84766306D01*
X240778922Y-84165345D01*
X240319533Y-83705154D01*
X239719007Y-83455794D01*
X239068766Y-83455226D01*
X238467805Y-83703538D01*
X238007614Y-84162927D01*
X237758254Y-84763453D01*
X237757686Y-85413694D01*
X229569060Y-85413694D01*
X229211648Y-85265284D01*
X228561205Y-85264716D01*
X227960057Y-85513106D01*
X227499722Y-85972637D01*
X227250284Y-86573352D01*
X227249716Y-87223795D01*
X222080007Y-87223795D01*
X223422401Y-85881401D01*
X223587148Y-85634840D01*
X223612410Y-85507839D01*
X223645000Y-85344000D01*
X223645000Y-83369496D01*
X223809655Y-83301462D01*
X224269846Y-82842073D01*
X224519206Y-82241547D01*
X224519208Y-82238694D01*
X231410226Y-82238694D01*
X231658538Y-82839655D01*
X232117927Y-83299846D01*
X232718453Y-83549206D01*
X233368694Y-83549774D01*
X233969655Y-83301462D01*
X234429846Y-82842073D01*
X234617616Y-82389872D01*
X236272630Y-82389872D01*
X236356211Y-82601110D01*
X236899746Y-82691425D01*
X237353789Y-82601110D01*
X237437370Y-82389872D01*
X236855000Y-81807502D01*
X236272630Y-82389872D01*
X234617616Y-82389872D01*
X234679206Y-82241547D01*
X234679774Y-81591306D01*
X234569634Y-81324746D01*
X235443575Y-81324746D01*
X235533890Y-81778789D01*
X235745128Y-81862370D01*
X236327498Y-81280000D01*
X235745128Y-80697630D01*
X235533890Y-80781211D01*
X235443575Y-81324746D01*
X234569634Y-81324746D01*
X234431462Y-80990345D01*
X233972073Y-80530154D01*
X233371547Y-80280794D01*
X232721306Y-80280226D01*
X232120345Y-80528538D01*
X231660154Y-80987927D01*
X231410794Y-81588453D01*
X231410226Y-82238694D01*
X224519208Y-82238694D01*
X224519774Y-81591306D01*
X224271462Y-80990345D01*
X223812073Y-80530154D01*
X223211547Y-80280794D01*
X222561306Y-80280226D01*
X221960345Y-80528538D01*
X221500154Y-80987927D01*
X221250794Y-81588453D01*
X221250226Y-82238694D01*
X221498538Y-82839655D01*
X221957927Y-83299846D01*
X222125000Y-83369221D01*
X222125000Y-85029198D01*
X214823198Y-92331000D01*
X195890802Y-92331000D01*
X198998007Y-89223795D01*
X200294716Y-89223795D01*
X200543106Y-89824943D01*
X201002637Y-90285278D01*
X201603352Y-90534716D01*
X202253795Y-90535284D01*
X202854943Y-90286894D01*
X203315278Y-89827363D01*
X203564716Y-89226648D01*
X203564718Y-89223795D01*
X212294716Y-89223795D01*
X212543106Y-89824943D01*
X213002637Y-90285278D01*
X213603352Y-90534716D01*
X214253795Y-90535284D01*
X214854943Y-90286894D01*
X215315278Y-89827363D01*
X215564716Y-89226648D01*
X215565284Y-88576205D01*
X215316894Y-87975057D01*
X214857363Y-87514722D01*
X214256648Y-87265284D01*
X213606205Y-87264716D01*
X213005057Y-87513106D01*
X212544722Y-87972637D01*
X212295284Y-88573352D01*
X212294716Y-89223795D01*
X203564718Y-89223795D01*
X203565284Y-88576205D01*
X203316894Y-87975057D01*
X202857363Y-87514722D01*
X202256648Y-87265284D01*
X201606205Y-87264716D01*
X201005057Y-87513106D01*
X200544722Y-87972637D01*
X200295284Y-88573352D01*
X200294716Y-89223795D01*
X198998007Y-89223795D01*
X200998007Y-87223795D01*
X206294716Y-87223795D01*
X206543106Y-87824943D01*
X207002637Y-88285278D01*
X207603352Y-88534716D01*
X208253795Y-88535284D01*
X208854943Y-88286894D01*
X209315278Y-87827363D01*
X209564716Y-87226648D01*
X209565284Y-86576205D01*
X209316894Y-85975057D01*
X208857363Y-85514722D01*
X208614060Y-85413694D01*
X216802686Y-85413694D01*
X217050998Y-86014655D01*
X217510387Y-86474846D01*
X218110913Y-86724206D01*
X218761154Y-86724774D01*
X219362115Y-86476462D01*
X219822306Y-86017073D01*
X220071666Y-85416547D01*
X220072234Y-84766306D01*
X219823922Y-84165345D01*
X219364533Y-83705154D01*
X218764007Y-83455794D01*
X218113766Y-83455226D01*
X217512805Y-83703538D01*
X217052614Y-84162927D01*
X216803254Y-84763453D01*
X216802686Y-85413694D01*
X208614060Y-85413694D01*
X208256648Y-85265284D01*
X207606205Y-85264716D01*
X207005057Y-85513106D01*
X206544722Y-85972637D01*
X206295284Y-86573352D01*
X206294716Y-87223795D01*
X200998007Y-87223795D01*
X202467401Y-85754401D01*
X202632148Y-85507839D01*
X202690000Y-85217000D01*
X202690000Y-83369496D01*
X202854655Y-83301462D01*
X203314846Y-82842073D01*
X203564206Y-82241547D01*
X203564208Y-82238694D01*
X210455226Y-82238694D01*
X210703538Y-82839655D01*
X211162927Y-83299846D01*
X211763453Y-83549206D01*
X212413694Y-83549774D01*
X213014655Y-83301462D01*
X213474846Y-82842073D01*
X213662616Y-82389872D01*
X215317630Y-82389872D01*
X215401211Y-82601110D01*
X215944746Y-82691425D01*
X216398789Y-82601110D01*
X216482370Y-82389872D01*
X215900000Y-81807502D01*
X215317630Y-82389872D01*
X213662616Y-82389872D01*
X213724206Y-82241547D01*
X213724774Y-81591306D01*
X213614634Y-81324746D01*
X214488575Y-81324746D01*
X214578890Y-81778789D01*
X214790128Y-81862370D01*
X215372498Y-81280000D01*
X214790128Y-80697630D01*
X214578890Y-80781211D01*
X214488575Y-81324746D01*
X213614634Y-81324746D01*
X213476462Y-80990345D01*
X213017073Y-80530154D01*
X212416547Y-80280794D01*
X211766306Y-80280226D01*
X211165345Y-80528538D01*
X210705154Y-80987927D01*
X210455794Y-81588453D01*
X210455226Y-82238694D01*
X203564208Y-82238694D01*
X203564774Y-81591306D01*
X203316462Y-80990345D01*
X202857073Y-80530154D01*
X202256547Y-80280794D01*
X201606306Y-80280226D01*
X201005345Y-80528538D01*
X200545154Y-80987927D01*
X200295794Y-81588453D01*
X200295226Y-82238694D01*
X200543538Y-82839655D01*
X201002927Y-83299846D01*
X201170000Y-83369221D01*
X201170000Y-84902198D01*
X194249198Y-91823000D01*
X175570802Y-91823000D01*
X178170007Y-89223795D01*
X179339716Y-89223795D01*
X179588106Y-89824943D01*
X180047637Y-90285278D01*
X180648352Y-90534716D01*
X181298795Y-90535284D01*
X181899943Y-90286894D01*
X182360278Y-89827363D01*
X182609716Y-89226648D01*
X182609718Y-89223795D01*
X191339716Y-89223795D01*
X191588106Y-89824943D01*
X192047637Y-90285278D01*
X192648352Y-90534716D01*
X193298795Y-90535284D01*
X193899943Y-90286894D01*
X194360278Y-89827363D01*
X194609716Y-89226648D01*
X194610284Y-88576205D01*
X194361894Y-87975057D01*
X193902363Y-87514722D01*
X193301648Y-87265284D01*
X192651205Y-87264716D01*
X192050057Y-87513106D01*
X191589722Y-87972637D01*
X191340284Y-88573352D01*
X191339716Y-89223795D01*
X182609718Y-89223795D01*
X182610284Y-88576205D01*
X182361894Y-87975057D01*
X181902363Y-87514722D01*
X181301648Y-87265284D01*
X180651205Y-87264716D01*
X180050057Y-87513106D01*
X179589722Y-87972637D01*
X179340284Y-88573352D01*
X179339716Y-89223795D01*
X178170007Y-89223795D01*
X180170007Y-87223795D01*
X185339716Y-87223795D01*
X185588106Y-87824943D01*
X186047637Y-88285278D01*
X186648352Y-88534716D01*
X187298795Y-88535284D01*
X187899943Y-88286894D01*
X188360278Y-87827363D01*
X188609716Y-87226648D01*
X188610284Y-86576205D01*
X188361894Y-85975057D01*
X187902363Y-85514722D01*
X187659060Y-85413694D01*
X195847686Y-85413694D01*
X196095998Y-86014655D01*
X196555387Y-86474846D01*
X197155913Y-86724206D01*
X197806154Y-86724774D01*
X198407115Y-86476462D01*
X198867306Y-86017073D01*
X199116666Y-85416547D01*
X199117234Y-84766306D01*
X198868922Y-84165345D01*
X198409533Y-83705154D01*
X197809007Y-83455794D01*
X197158766Y-83455226D01*
X196557805Y-83703538D01*
X196097614Y-84162927D01*
X195848254Y-84763453D01*
X195847686Y-85413694D01*
X187659060Y-85413694D01*
X187301648Y-85265284D01*
X186651205Y-85264716D01*
X186050057Y-85513106D01*
X185589722Y-85972637D01*
X185340284Y-86573352D01*
X185339716Y-87223795D01*
X180170007Y-87223795D01*
X181512401Y-85881401D01*
X181677148Y-85634839D01*
X181735000Y-85344000D01*
X181735000Y-83369496D01*
X181899655Y-83301462D01*
X182359846Y-82842073D01*
X182609206Y-82241547D01*
X182609208Y-82238694D01*
X189500226Y-82238694D01*
X189748538Y-82839655D01*
X190207927Y-83299846D01*
X190808453Y-83549206D01*
X191458694Y-83549774D01*
X192059655Y-83301462D01*
X192519846Y-82842073D01*
X192707616Y-82389872D01*
X194362630Y-82389872D01*
X194446211Y-82601110D01*
X194989746Y-82691425D01*
X195443789Y-82601110D01*
X195527370Y-82389872D01*
X194945000Y-81807502D01*
X194362630Y-82389872D01*
X192707616Y-82389872D01*
X192769206Y-82241547D01*
X192769774Y-81591306D01*
X192659634Y-81324746D01*
X193533575Y-81324746D01*
X193623890Y-81778789D01*
X193835128Y-81862370D01*
X194417498Y-81280000D01*
X193835128Y-80697630D01*
X193623890Y-80781211D01*
X193533575Y-81324746D01*
X192659634Y-81324746D01*
X192521462Y-80990345D01*
X192062073Y-80530154D01*
X191461547Y-80280794D01*
X190811306Y-80280226D01*
X190210345Y-80528538D01*
X189750154Y-80987927D01*
X189500794Y-81588453D01*
X189500226Y-82238694D01*
X182609208Y-82238694D01*
X182609774Y-81591306D01*
X182361462Y-80990345D01*
X181902073Y-80530154D01*
X181301547Y-80280794D01*
X180651306Y-80280226D01*
X180050345Y-80528538D01*
X179590154Y-80987927D01*
X179340794Y-81588453D01*
X179340226Y-82238694D01*
X179588538Y-82839655D01*
X180047927Y-83299846D01*
X180215000Y-83369221D01*
X180215000Y-85029198D01*
X173929198Y-91315000D01*
X154996802Y-91315000D01*
X157088007Y-89223795D01*
X158384716Y-89223795D01*
X158633106Y-89824943D01*
X159092637Y-90285278D01*
X159693352Y-90534716D01*
X160343795Y-90535284D01*
X160944943Y-90286894D01*
X161405278Y-89827363D01*
X161654716Y-89226648D01*
X161654718Y-89223795D01*
X170384716Y-89223795D01*
X170633106Y-89824943D01*
X171092637Y-90285278D01*
X171693352Y-90534716D01*
X172343795Y-90535284D01*
X172944943Y-90286894D01*
X173405278Y-89827363D01*
X173654716Y-89226648D01*
X173655284Y-88576205D01*
X173406894Y-87975057D01*
X172947363Y-87514722D01*
X172346648Y-87265284D01*
X171696205Y-87264716D01*
X171095057Y-87513106D01*
X170634722Y-87972637D01*
X170385284Y-88573352D01*
X170384716Y-89223795D01*
X161654718Y-89223795D01*
X161655284Y-88576205D01*
X161406894Y-87975057D01*
X160947363Y-87514722D01*
X160346648Y-87265284D01*
X159696205Y-87264716D01*
X159095057Y-87513106D01*
X158634722Y-87972637D01*
X158385284Y-88573352D01*
X158384716Y-89223795D01*
X157088007Y-89223795D01*
X159088007Y-87223795D01*
X164384716Y-87223795D01*
X164633106Y-87824943D01*
X165092637Y-88285278D01*
X165693352Y-88534716D01*
X166343795Y-88535284D01*
X166944943Y-88286894D01*
X167405278Y-87827363D01*
X167654716Y-87226648D01*
X167655284Y-86576205D01*
X167406894Y-85975057D01*
X166947363Y-85514722D01*
X166704060Y-85413694D01*
X174892686Y-85413694D01*
X175140998Y-86014655D01*
X175600387Y-86474846D01*
X176200913Y-86724206D01*
X176851154Y-86724774D01*
X177452115Y-86476462D01*
X177912306Y-86017073D01*
X178161666Y-85416547D01*
X178162234Y-84766306D01*
X177913922Y-84165345D01*
X177454533Y-83705154D01*
X176854007Y-83455794D01*
X176203766Y-83455226D01*
X175602805Y-83703538D01*
X175142614Y-84162927D01*
X174893254Y-84763453D01*
X174892686Y-85413694D01*
X166704060Y-85413694D01*
X166346648Y-85265284D01*
X165696205Y-85264716D01*
X165095057Y-85513106D01*
X164634722Y-85972637D01*
X164385284Y-86573352D01*
X164384716Y-87223795D01*
X159088007Y-87223795D01*
X160557401Y-85754401D01*
X160722148Y-85507839D01*
X160780000Y-85217000D01*
X160780000Y-83369496D01*
X160944655Y-83301462D01*
X161404846Y-82842073D01*
X161654206Y-82241547D01*
X161654208Y-82238694D01*
X168545226Y-82238694D01*
X168793538Y-82839655D01*
X169252927Y-83299846D01*
X169853453Y-83549206D01*
X170503694Y-83549774D01*
X171104655Y-83301462D01*
X171564846Y-82842073D01*
X171752616Y-82389872D01*
X173407630Y-82389872D01*
X173491211Y-82601110D01*
X174034746Y-82691425D01*
X174488789Y-82601110D01*
X174572370Y-82389872D01*
X173990000Y-81807502D01*
X173407630Y-82389872D01*
X171752616Y-82389872D01*
X171814206Y-82241547D01*
X171814774Y-81591306D01*
X171704634Y-81324746D01*
X172578575Y-81324746D01*
X172668890Y-81778789D01*
X172880128Y-81862370D01*
X173462498Y-81280000D01*
X172880128Y-80697630D01*
X172668890Y-80781211D01*
X172578575Y-81324746D01*
X171704634Y-81324746D01*
X171566462Y-80990345D01*
X171107073Y-80530154D01*
X170506547Y-80280794D01*
X169856306Y-80280226D01*
X169255345Y-80528538D01*
X168795154Y-80987927D01*
X168545794Y-81588453D01*
X168545226Y-82238694D01*
X161654208Y-82238694D01*
X161654774Y-81591306D01*
X161406462Y-80990345D01*
X160947073Y-80530154D01*
X160346547Y-80280794D01*
X159696306Y-80280226D01*
X159095345Y-80528538D01*
X158635154Y-80987927D01*
X158385794Y-81588453D01*
X158385226Y-82238694D01*
X158633538Y-82839655D01*
X159092927Y-83299846D01*
X159260000Y-83369221D01*
X159260000Y-84902198D01*
X153355198Y-90807000D01*
X134676802Y-90807000D01*
X136260007Y-89223795D01*
X137429716Y-89223795D01*
X137678106Y-89824943D01*
X138137637Y-90285278D01*
X138738352Y-90534716D01*
X139388795Y-90535284D01*
X139989943Y-90286894D01*
X140450278Y-89827363D01*
X140699716Y-89226648D01*
X140699718Y-89223795D01*
X149429716Y-89223795D01*
X149678106Y-89824943D01*
X150137637Y-90285278D01*
X150738352Y-90534716D01*
X151388795Y-90535284D01*
X151989943Y-90286894D01*
X152450278Y-89827363D01*
X152699716Y-89226648D01*
X152700284Y-88576205D01*
X152451894Y-87975057D01*
X151992363Y-87514722D01*
X151391648Y-87265284D01*
X150741205Y-87264716D01*
X150140057Y-87513106D01*
X149679722Y-87972637D01*
X149430284Y-88573352D01*
X149429716Y-89223795D01*
X140699718Y-89223795D01*
X140700284Y-88576205D01*
X140451894Y-87975057D01*
X139992363Y-87514722D01*
X139391648Y-87265284D01*
X138741205Y-87264716D01*
X138140057Y-87513106D01*
X137679722Y-87972637D01*
X137430284Y-88573352D01*
X137429716Y-89223795D01*
X136260007Y-89223795D01*
X138260007Y-87223795D01*
X143429716Y-87223795D01*
X143678106Y-87824943D01*
X144137637Y-88285278D01*
X144738352Y-88534716D01*
X145388795Y-88535284D01*
X145989943Y-88286894D01*
X146450278Y-87827363D01*
X146699716Y-87226648D01*
X146700284Y-86576205D01*
X146451894Y-85975057D01*
X145992363Y-85514722D01*
X145749060Y-85413694D01*
X153937686Y-85413694D01*
X154185998Y-86014655D01*
X154645387Y-86474846D01*
X155245913Y-86724206D01*
X155896154Y-86724774D01*
X156497115Y-86476462D01*
X156957306Y-86017073D01*
X157206666Y-85416547D01*
X157207234Y-84766306D01*
X156958922Y-84165345D01*
X156499533Y-83705154D01*
X155899007Y-83455794D01*
X155248766Y-83455226D01*
X154647805Y-83703538D01*
X154187614Y-84162927D01*
X153938254Y-84763453D01*
X153937686Y-85413694D01*
X145749060Y-85413694D01*
X145391648Y-85265284D01*
X144741205Y-85264716D01*
X144140057Y-85513106D01*
X143679722Y-85972637D01*
X143430284Y-86573352D01*
X143429716Y-87223795D01*
X138260007Y-87223795D01*
X139602402Y-85881401D01*
X139767148Y-85634839D01*
X139825000Y-85344000D01*
X139825000Y-83369496D01*
X139989655Y-83301462D01*
X140449846Y-82842073D01*
X140699206Y-82241547D01*
X140699208Y-82238694D01*
X147590226Y-82238694D01*
X147838538Y-82839655D01*
X148297927Y-83299846D01*
X148898453Y-83549206D01*
X149548694Y-83549774D01*
X150149655Y-83301462D01*
X150609846Y-82842073D01*
X150797616Y-82389872D01*
X152452630Y-82389872D01*
X152536211Y-82601110D01*
X153079746Y-82691425D01*
X153533789Y-82601110D01*
X153617370Y-82389872D01*
X153035000Y-81807502D01*
X152452630Y-82389872D01*
X150797616Y-82389872D01*
X150859206Y-82241547D01*
X150859774Y-81591306D01*
X150749634Y-81324746D01*
X151623575Y-81324746D01*
X151713890Y-81778789D01*
X151925128Y-81862370D01*
X152507498Y-81280000D01*
X151925128Y-80697630D01*
X151713890Y-80781211D01*
X151623575Y-81324746D01*
X150749634Y-81324746D01*
X150611462Y-80990345D01*
X150152073Y-80530154D01*
X149551547Y-80280794D01*
X148901306Y-80280226D01*
X148300345Y-80528538D01*
X147840154Y-80987927D01*
X147590794Y-81588453D01*
X147590226Y-82238694D01*
X140699208Y-82238694D01*
X140699774Y-81591306D01*
X140451462Y-80990345D01*
X139992073Y-80530154D01*
X139391547Y-80280794D01*
X138741306Y-80280226D01*
X138140345Y-80528538D01*
X137680154Y-80987927D01*
X137430794Y-81588453D01*
X137430226Y-82238694D01*
X137678538Y-82839655D01*
X138137927Y-83299846D01*
X138305000Y-83369221D01*
X138305000Y-85029197D01*
X133035198Y-90299000D01*
X131005644Y-90299000D01*
X131034943Y-90286894D01*
X131495278Y-89827363D01*
X131744716Y-89226648D01*
X131745284Y-88576205D01*
X131496894Y-87975057D01*
X131037363Y-87514722D01*
X130436648Y-87265284D01*
X129786205Y-87264716D01*
X129185057Y-87513106D01*
X128724722Y-87972637D01*
X128475284Y-88573352D01*
X128474716Y-89223795D01*
X128723106Y-89824943D01*
X129182637Y-90285278D01*
X129215683Y-90299000D01*
X119005644Y-90299000D01*
X119034943Y-90286894D01*
X119495278Y-89827363D01*
X119744716Y-89226648D01*
X119745284Y-88576205D01*
X119496894Y-87975057D01*
X119037363Y-87514722D01*
X118436648Y-87265284D01*
X117786205Y-87264716D01*
X117185057Y-87513106D01*
X116724722Y-87972637D01*
X116475284Y-88573352D01*
X116474716Y-89223795D01*
X116723106Y-89824943D01*
X117182637Y-90285278D01*
X117215683Y-90299000D01*
X114356802Y-90299000D01*
X117432007Y-87223795D01*
X122474716Y-87223795D01*
X122723106Y-87824943D01*
X123182637Y-88285278D01*
X123783352Y-88534716D01*
X124433795Y-88535284D01*
X125034943Y-88286894D01*
X125495278Y-87827363D01*
X125744716Y-87226648D01*
X125745284Y-86576205D01*
X125496894Y-85975057D01*
X125037363Y-85514722D01*
X124794060Y-85413694D01*
X132982686Y-85413694D01*
X133230998Y-86014655D01*
X133690387Y-86474846D01*
X134290913Y-86724206D01*
X134941154Y-86724774D01*
X135542115Y-86476462D01*
X136002306Y-86017073D01*
X136251666Y-85416547D01*
X136252234Y-84766306D01*
X136003922Y-84165345D01*
X135544533Y-83705154D01*
X134944007Y-83455794D01*
X134293766Y-83455226D01*
X133692805Y-83703538D01*
X133232614Y-84162927D01*
X132983254Y-84763453D01*
X132982686Y-85413694D01*
X124794060Y-85413694D01*
X124436648Y-85265284D01*
X123786205Y-85264716D01*
X123185057Y-85513106D01*
X122724722Y-85972637D01*
X122475284Y-86573352D01*
X122474716Y-87223795D01*
X117432007Y-87223795D01*
X118647401Y-86008401D01*
X118812148Y-85761839D01*
X118870000Y-85471000D01*
X118870000Y-83369496D01*
X119034655Y-83301462D01*
X119494846Y-82842073D01*
X119744206Y-82241547D01*
X119744208Y-82238694D01*
X126635226Y-82238694D01*
X126883538Y-82839655D01*
X127342927Y-83299846D01*
X127943453Y-83549206D01*
X128593694Y-83549774D01*
X129194655Y-83301462D01*
X129654846Y-82842073D01*
X129842616Y-82389872D01*
X131497630Y-82389872D01*
X131581211Y-82601110D01*
X132124746Y-82691425D01*
X132578789Y-82601110D01*
X132662370Y-82389872D01*
X132080000Y-81807502D01*
X131497630Y-82389872D01*
X129842616Y-82389872D01*
X129904206Y-82241547D01*
X129904774Y-81591306D01*
X129794634Y-81324746D01*
X130668575Y-81324746D01*
X130758890Y-81778789D01*
X130970128Y-81862370D01*
X131552498Y-81280000D01*
X130970128Y-80697630D01*
X130758890Y-80781211D01*
X130668575Y-81324746D01*
X129794634Y-81324746D01*
X129656462Y-80990345D01*
X129197073Y-80530154D01*
X128596547Y-80280794D01*
X127946306Y-80280226D01*
X127345345Y-80528538D01*
X126885154Y-80987927D01*
X126635794Y-81588453D01*
X126635226Y-82238694D01*
X119744208Y-82238694D01*
X119744774Y-81591306D01*
X119496462Y-80990345D01*
X119037073Y-80530154D01*
X118436547Y-80280794D01*
X117786306Y-80280226D01*
X117185345Y-80528538D01*
X116725154Y-80987927D01*
X116475794Y-81588453D01*
X116475226Y-82238694D01*
X116723538Y-82839655D01*
X117182927Y-83299846D01*
X117350000Y-83369221D01*
X117350000Y-85156198D01*
X112715198Y-89791000D01*
X110555377Y-89791000D01*
X110789716Y-89226648D01*
X110790284Y-88576205D01*
X110541894Y-87975057D01*
X110082363Y-87514722D01*
X109481648Y-87265284D01*
X108831205Y-87264716D01*
X108230057Y-87513106D01*
X107769722Y-87972637D01*
X107520284Y-88573352D01*
X107519716Y-89223795D01*
X107754081Y-89791000D01*
X98555377Y-89791000D01*
X98789716Y-89226648D01*
X98790284Y-88576205D01*
X98541894Y-87975057D01*
X98082363Y-87514722D01*
X97481648Y-87265284D01*
X96831205Y-87264716D01*
X96230057Y-87513106D01*
X95769722Y-87972637D01*
X95520284Y-88573352D01*
X95519716Y-89223795D01*
X95754081Y-89791000D01*
X89600377Y-89791000D01*
X89834716Y-89226648D01*
X89835284Y-88576205D01*
X89586894Y-87975057D01*
X89127363Y-87514722D01*
X88526648Y-87265284D01*
X87876205Y-87264716D01*
X87275057Y-87513106D01*
X86814722Y-87972637D01*
X86565284Y-88573352D01*
X86564716Y-89223795D01*
X86799081Y-89791000D01*
X77600377Y-89791000D01*
X77834716Y-89226648D01*
X77835284Y-88576205D01*
X77586894Y-87975057D01*
X77127363Y-87514722D01*
X76526648Y-87265284D01*
X75876205Y-87264716D01*
X75275057Y-87513106D01*
X74814722Y-87972637D01*
X74565284Y-88573352D01*
X74564716Y-89223795D01*
X74799081Y-89791000D01*
X74609802Y-89791000D01*
X72042597Y-87223795D01*
X80564716Y-87223795D01*
X80813106Y-87824943D01*
X81272637Y-88285278D01*
X81873352Y-88534716D01*
X82523795Y-88535284D01*
X83124943Y-88286894D01*
X83585278Y-87827363D01*
X83834716Y-87226648D01*
X83834718Y-87223795D01*
X101519716Y-87223795D01*
X101768106Y-87824943D01*
X102227637Y-88285278D01*
X102828352Y-88534716D01*
X103478795Y-88535284D01*
X104079943Y-88286894D01*
X104540278Y-87827363D01*
X104789716Y-87226648D01*
X104790284Y-86576205D01*
X104541894Y-85975057D01*
X104082363Y-85514722D01*
X103839060Y-85413694D01*
X112027686Y-85413694D01*
X112275998Y-86014655D01*
X112735387Y-86474846D01*
X113335913Y-86724206D01*
X113986154Y-86724774D01*
X114587115Y-86476462D01*
X115047306Y-86017073D01*
X115296666Y-85416547D01*
X115297234Y-84766306D01*
X115048922Y-84165345D01*
X114589533Y-83705154D01*
X113989007Y-83455794D01*
X113338766Y-83455226D01*
X112737805Y-83703538D01*
X112277614Y-84162927D01*
X112028254Y-84763453D01*
X112027686Y-85413694D01*
X103839060Y-85413694D01*
X103481648Y-85265284D01*
X102831205Y-85264716D01*
X102230057Y-85513106D01*
X101769722Y-85972637D01*
X101520284Y-86573352D01*
X101519716Y-87223795D01*
X83834718Y-87223795D01*
X83835284Y-86576205D01*
X83586894Y-85975057D01*
X83127363Y-85514722D01*
X82526648Y-85265284D01*
X81876205Y-85264716D01*
X81275057Y-85513106D01*
X80814722Y-85972637D01*
X80565284Y-86573352D01*
X80564716Y-87223795D01*
X72042597Y-87223795D01*
X71149401Y-86330599D01*
X70902839Y-86165852D01*
X70612000Y-86108000D01*
X61595000Y-86108000D01*
X61304160Y-86165852D01*
X61057599Y-86330599D01*
X58487002Y-88901196D01*
X58487002Y-87240800D01*
X61401802Y-84326000D01*
X91254900Y-84326000D01*
X91073254Y-84763453D01*
X91072686Y-85413694D01*
X91320998Y-86014655D01*
X91780387Y-86474846D01*
X92380913Y-86724206D01*
X93031154Y-86724774D01*
X93632115Y-86476462D01*
X94092306Y-86017073D01*
X94341666Y-85416547D01*
X94342234Y-84766306D01*
X94160303Y-84326000D01*
X95504000Y-84326000D01*
X95794839Y-84268148D01*
X96041401Y-84103401D01*
X96663917Y-83480885D01*
X96828453Y-83549206D01*
X97478694Y-83549774D01*
X98079655Y-83301462D01*
X98539846Y-82842073D01*
X98789206Y-82241547D01*
X98789208Y-82238694D01*
X105680226Y-82238694D01*
X105928538Y-82839655D01*
X106387927Y-83299846D01*
X106988453Y-83549206D01*
X107638694Y-83549774D01*
X108239655Y-83301462D01*
X108699846Y-82842073D01*
X108887616Y-82389872D01*
X110542630Y-82389872D01*
X110626211Y-82601110D01*
X111169746Y-82691425D01*
X111623789Y-82601110D01*
X111707370Y-82389872D01*
X111125000Y-81807502D01*
X110542630Y-82389872D01*
X108887616Y-82389872D01*
X108949206Y-82241547D01*
X108949774Y-81591306D01*
X108839634Y-81324746D01*
X109713575Y-81324746D01*
X109803890Y-81778789D01*
X110015128Y-81862370D01*
X110597498Y-81280000D01*
X110015128Y-80697630D01*
X109803890Y-80781211D01*
X109713575Y-81324746D01*
X108839634Y-81324746D01*
X108701462Y-80990345D01*
X108242073Y-80530154D01*
X107641547Y-80280794D01*
X106991306Y-80280226D01*
X106390345Y-80528538D01*
X105930154Y-80987927D01*
X105680794Y-81588453D01*
X105680226Y-82238694D01*
X98789208Y-82238694D01*
X98789774Y-81591306D01*
X98541462Y-80990345D01*
X98082073Y-80530154D01*
X97481547Y-80280794D01*
X96831306Y-80280226D01*
X96230345Y-80528538D01*
X95770154Y-80987927D01*
X95520794Y-81588453D01*
X95520226Y-82238694D01*
X95589309Y-82405889D01*
X95189198Y-82806000D01*
X87759825Y-82806000D01*
X87932616Y-82389872D01*
X89587630Y-82389872D01*
X89671211Y-82601110D01*
X90214746Y-82691425D01*
X90668789Y-82601110D01*
X90752370Y-82389872D01*
X90170000Y-81807502D01*
X89587630Y-82389872D01*
X87932616Y-82389872D01*
X87994206Y-82241547D01*
X87994774Y-81591306D01*
X87884634Y-81324746D01*
X88758575Y-81324746D01*
X88848890Y-81778789D01*
X89060128Y-81862370D01*
X89642498Y-81280000D01*
X89060128Y-80697630D01*
X88848890Y-80781211D01*
X88758575Y-81324746D01*
X87884634Y-81324746D01*
X87746462Y-80990345D01*
X87287073Y-80530154D01*
X86686547Y-80280794D01*
X86036306Y-80280226D01*
X85435345Y-80528538D01*
X84975154Y-80987927D01*
X84725794Y-81588453D01*
X84725226Y-82238694D01*
X84959632Y-82806000D01*
X77599825Y-82806000D01*
X77834206Y-82241547D01*
X77834774Y-81591306D01*
X77586462Y-80990345D01*
X77127073Y-80530154D01*
X76526547Y-80280794D01*
X75876306Y-80280226D01*
X75426001Y-80466288D01*
X75426240Y-80192915D01*
X75415670Y-80167332D01*
X75956002Y-79627000D01*
X90099380Y-79627000D01*
X90055241Y-79733298D01*
X90055111Y-79882527D01*
X89671211Y-79958890D01*
X89587630Y-80170128D01*
X90170000Y-80752498D01*
X90184142Y-80738356D01*
X90711644Y-81265858D01*
X90697502Y-81280000D01*
X91279872Y-81862370D01*
X91427863Y-81803814D01*
X91535169Y-82063515D01*
X91924436Y-82453461D01*
X92433298Y-82664759D01*
X92984285Y-82665240D01*
X93493515Y-82454831D01*
X93883461Y-82065564D01*
X94094759Y-81556702D01*
X94095240Y-81005715D01*
X93884831Y-80496485D01*
X93495564Y-80106539D01*
X92986702Y-79895241D01*
X92825101Y-79895100D01*
X92825240Y-79735715D01*
X92780320Y-79627000D01*
X111054380Y-79627000D01*
X111010241Y-79733298D01*
X111010111Y-79882527D01*
X110626211Y-79958890D01*
X110542630Y-80170128D01*
X111125000Y-80752498D01*
X111139142Y-80738356D01*
X111666644Y-81265858D01*
X111652502Y-81280000D01*
X112234872Y-81862370D01*
X112382863Y-81803814D01*
X112490169Y-82063515D01*
X112879436Y-82453461D01*
X113388298Y-82664759D01*
X113939285Y-82665240D01*
X114448515Y-82454831D01*
X114838461Y-82065564D01*
X115049759Y-81556702D01*
X115050240Y-81005715D01*
X114839831Y-80496485D01*
X114450564Y-80106539D01*
X113941702Y-79895241D01*
X113780101Y-79895100D01*
X113780240Y-79735715D01*
X113735320Y-79627000D01*
X132009380Y-79627000D01*
X131965241Y-79733298D01*
X131965111Y-79882527D01*
X131581211Y-79958890D01*
X131497630Y-80170128D01*
X132080000Y-80752498D01*
X132094142Y-80738356D01*
X132621644Y-81265858D01*
X132607502Y-81280000D01*
X133189872Y-81862370D01*
X133337863Y-81803814D01*
X133445169Y-82063515D01*
X133834436Y-82453461D01*
X134343298Y-82664759D01*
X134894285Y-82665240D01*
X135403515Y-82454831D01*
X135793461Y-82065564D01*
X136004759Y-81556702D01*
X136005240Y-81005715D01*
X135794831Y-80496485D01*
X135405564Y-80106539D01*
X134896702Y-79895241D01*
X134735101Y-79895100D01*
X134735240Y-79735715D01*
X134690320Y-79627000D01*
X152964380Y-79627000D01*
X152920241Y-79733298D01*
X152920111Y-79882527D01*
X152536211Y-79958890D01*
X152452630Y-80170128D01*
X153035000Y-80752498D01*
X153049142Y-80738356D01*
X153576644Y-81265858D01*
X153562502Y-81280000D01*
X154144872Y-81862370D01*
X154292863Y-81803814D01*
X154400169Y-82063515D01*
X154789436Y-82453461D01*
X155298298Y-82664759D01*
X155849285Y-82665240D01*
X156358515Y-82454831D01*
X156748461Y-82065564D01*
X156959759Y-81556702D01*
X156960240Y-81005715D01*
X156749831Y-80496485D01*
X156360564Y-80106539D01*
X155851702Y-79895241D01*
X155690101Y-79895100D01*
X155690240Y-79735715D01*
X155645320Y-79627000D01*
X173919380Y-79627000D01*
X173875241Y-79733298D01*
X173875111Y-79882527D01*
X173491211Y-79958890D01*
X173407630Y-80170128D01*
X173990000Y-80752498D01*
X174004142Y-80738356D01*
X174531644Y-81265858D01*
X174517502Y-81280000D01*
X175099872Y-81862370D01*
X175247863Y-81803814D01*
X175355169Y-82063515D01*
X175744436Y-82453461D01*
X176253298Y-82664759D01*
X176804285Y-82665240D01*
X177313515Y-82454831D01*
X177703461Y-82065564D01*
X177914759Y-81556702D01*
X177915240Y-81005715D01*
X177704831Y-80496485D01*
X177315564Y-80106539D01*
X176806702Y-79895241D01*
X176645101Y-79895100D01*
X176645240Y-79735715D01*
X176600320Y-79627000D01*
X194874380Y-79627000D01*
X194830241Y-79733298D01*
X194830111Y-79882527D01*
X194446211Y-79958890D01*
X194362630Y-80170128D01*
X194945000Y-80752498D01*
X194959142Y-80738356D01*
X195486644Y-81265858D01*
X195472502Y-81280000D01*
X196054872Y-81862370D01*
X196202863Y-81803814D01*
X196310169Y-82063515D01*
X196699436Y-82453461D01*
X197208298Y-82664759D01*
X197759285Y-82665240D01*
X198268515Y-82454831D01*
X198658461Y-82065564D01*
X198869759Y-81556702D01*
X198870240Y-81005715D01*
X198659831Y-80496485D01*
X198270564Y-80106539D01*
X197761702Y-79895241D01*
X197600101Y-79895100D01*
X197600240Y-79735715D01*
X197555320Y-79627000D01*
X215829380Y-79627000D01*
X215785241Y-79733298D01*
X215785111Y-79882527D01*
X215401211Y-79958890D01*
X215317630Y-80170128D01*
X215900000Y-80752498D01*
X215914142Y-80738356D01*
X216441644Y-81265858D01*
X216427502Y-81280000D01*
X217009872Y-81862370D01*
X217157863Y-81803814D01*
X217265169Y-82063515D01*
X217654436Y-82453461D01*
X218163298Y-82664759D01*
X218714285Y-82665240D01*
X219223515Y-82454831D01*
X219613461Y-82065564D01*
X219824759Y-81556702D01*
X219825240Y-81005715D01*
X219614831Y-80496485D01*
X219289043Y-80170128D01*
X236272630Y-80170128D01*
X236855000Y-80752498D01*
X236869142Y-80738356D01*
X237396644Y-81265858D01*
X237382502Y-81280000D01*
X237964872Y-81862370D01*
X238112863Y-81803814D01*
X238220169Y-82063515D01*
X238609436Y-82453461D01*
X239118298Y-82664759D01*
X239669285Y-82665240D01*
X240178515Y-82454831D01*
X240568461Y-82065564D01*
X240779759Y-81556702D01*
X240780240Y-81005715D01*
X240569831Y-80496485D01*
X240180564Y-80106539D01*
X239671702Y-79895241D01*
X239510101Y-79895100D01*
X239510240Y-79735715D01*
X239299831Y-79226485D01*
X238910564Y-78836539D01*
X238401702Y-78625241D01*
X237850715Y-78624760D01*
X237341485Y-78835169D01*
X236951539Y-79224436D01*
X236740241Y-79733298D01*
X236740111Y-79882527D01*
X236356211Y-79958890D01*
X236272630Y-80170128D01*
X219289043Y-80170128D01*
X219225564Y-80106539D01*
X218716702Y-79895241D01*
X218555101Y-79895100D01*
X218555240Y-79735715D01*
X218510320Y-79627000D01*
X219583000Y-79627000D01*
X219873839Y-79569148D01*
X220120401Y-79404401D01*
X224489800Y-75035002D01*
X224513298Y-75044759D01*
X225064285Y-75045240D01*
X225573515Y-74834831D01*
X225963461Y-74445564D01*
X226155246Y-73983694D01*
X226965226Y-73983694D01*
X227213538Y-74584655D01*
X227672927Y-75044846D01*
X228273453Y-75294206D01*
X228923694Y-75294774D01*
X229524655Y-75046462D01*
X229984846Y-74587073D01*
X230234206Y-73986547D01*
X230234208Y-73983694D01*
X237125226Y-73983694D01*
X237373538Y-74584655D01*
X237832927Y-75044846D01*
X238433453Y-75294206D01*
X239083694Y-75294774D01*
X239684655Y-75046462D01*
X240144846Y-74587073D01*
X240394206Y-73986547D01*
X240394774Y-73336306D01*
X240146462Y-72735345D01*
X239687073Y-72275154D01*
X239086547Y-72025794D01*
X238436306Y-72025226D01*
X237835345Y-72273538D01*
X237375154Y-72732927D01*
X237125794Y-73333453D01*
X237125226Y-73983694D01*
X230234208Y-73983694D01*
X230234774Y-73336306D01*
X229986462Y-72735345D01*
X229527073Y-72275154D01*
X228926547Y-72025794D01*
X228276306Y-72025226D01*
X227675345Y-72273538D01*
X227215154Y-72732927D01*
X226965794Y-73333453D01*
X226965226Y-73983694D01*
X226155246Y-73983694D01*
X226174759Y-73936702D01*
X226175240Y-73385715D01*
X225964831Y-72876485D01*
X225575564Y-72486539D01*
X225066702Y-72275241D01*
X224905101Y-72275100D01*
X224905240Y-72115715D01*
X224694831Y-71606485D01*
X224305564Y-71216539D01*
X223796702Y-71005241D01*
X223245715Y-71004760D01*
X222736485Y-71215169D01*
X222346539Y-71604436D01*
X222135241Y-72113298D01*
X222135111Y-72262527D01*
X221751211Y-72338890D01*
X221667630Y-72550128D01*
X222250000Y-73132498D01*
X222264142Y-73118356D01*
X222791644Y-73645858D01*
X222777502Y-73660000D01*
X222791644Y-73674142D01*
X222264142Y-74201644D01*
X222250000Y-74187502D01*
X221667630Y-74769872D01*
X221751211Y-74981110D01*
X222294746Y-75071425D01*
X222306014Y-75069184D01*
X219268198Y-78107000D01*
X200462802Y-78107000D01*
X203534800Y-75035002D01*
X203558298Y-75044759D01*
X204109285Y-75045240D01*
X204618515Y-74834831D01*
X205008461Y-74445564D01*
X205200246Y-73983694D01*
X206010226Y-73983694D01*
X206258538Y-74584655D01*
X206717927Y-75044846D01*
X207318453Y-75294206D01*
X207968694Y-75294774D01*
X208569655Y-75046462D01*
X209029846Y-74587073D01*
X209279206Y-73986547D01*
X209279208Y-73983694D01*
X216170226Y-73983694D01*
X216418538Y-74584655D01*
X216877927Y-75044846D01*
X217478453Y-75294206D01*
X218128694Y-75294774D01*
X218729655Y-75046462D01*
X219189846Y-74587073D01*
X219439206Y-73986547D01*
X219439452Y-73704746D01*
X220838575Y-73704746D01*
X220928890Y-74158789D01*
X221140128Y-74242370D01*
X221722498Y-73660000D01*
X221140128Y-73077630D01*
X220928890Y-73161211D01*
X220838575Y-73704746D01*
X219439452Y-73704746D01*
X219439774Y-73336306D01*
X219191462Y-72735345D01*
X218732073Y-72275154D01*
X218131547Y-72025794D01*
X217481306Y-72025226D01*
X216880345Y-72273538D01*
X216420154Y-72732927D01*
X216170794Y-73333453D01*
X216170226Y-73983694D01*
X209279208Y-73983694D01*
X209279774Y-73336306D01*
X209031462Y-72735345D01*
X208572073Y-72275154D01*
X207971547Y-72025794D01*
X207321306Y-72025226D01*
X206720345Y-72273538D01*
X206260154Y-72732927D01*
X206010794Y-73333453D01*
X206010226Y-73983694D01*
X205200246Y-73983694D01*
X205219759Y-73936702D01*
X205220240Y-73385715D01*
X205009831Y-72876485D01*
X204620564Y-72486539D01*
X204111702Y-72275241D01*
X203950101Y-72275100D01*
X203950240Y-72115715D01*
X203739831Y-71606485D01*
X203350564Y-71216539D01*
X202841702Y-71005241D01*
X202290715Y-71004760D01*
X201781485Y-71215169D01*
X201391539Y-71604436D01*
X201180241Y-72113298D01*
X201180111Y-72262527D01*
X200796211Y-72338890D01*
X200712630Y-72550128D01*
X201295000Y-73132498D01*
X201309142Y-73118356D01*
X201836644Y-73645858D01*
X201822502Y-73660000D01*
X201836644Y-73674142D01*
X201309142Y-74201644D01*
X201295000Y-74187502D01*
X200712630Y-74769872D01*
X200796211Y-74981110D01*
X201339746Y-75071425D01*
X201351014Y-75069184D01*
X199075198Y-77345000D01*
X180269802Y-77345000D01*
X182579800Y-75035002D01*
X182603298Y-75044759D01*
X183154285Y-75045240D01*
X183663515Y-74834831D01*
X184053461Y-74445564D01*
X184245246Y-73983694D01*
X185055226Y-73983694D01*
X185303538Y-74584655D01*
X185762927Y-75044846D01*
X186363453Y-75294206D01*
X187013694Y-75294774D01*
X187614655Y-75046462D01*
X188074846Y-74587073D01*
X188324206Y-73986547D01*
X188324208Y-73983694D01*
X195215226Y-73983694D01*
X195463538Y-74584655D01*
X195922927Y-75044846D01*
X196523453Y-75294206D01*
X197173694Y-75294774D01*
X197774655Y-75046462D01*
X198234846Y-74587073D01*
X198484206Y-73986547D01*
X198484452Y-73704746D01*
X199883575Y-73704746D01*
X199973890Y-74158789D01*
X200185128Y-74242370D01*
X200767498Y-73660000D01*
X200185128Y-73077630D01*
X199973890Y-73161211D01*
X199883575Y-73704746D01*
X198484452Y-73704746D01*
X198484774Y-73336306D01*
X198236462Y-72735345D01*
X197777073Y-72275154D01*
X197176547Y-72025794D01*
X196526306Y-72025226D01*
X195925345Y-72273538D01*
X195465154Y-72732927D01*
X195215794Y-73333453D01*
X195215226Y-73983694D01*
X188324208Y-73983694D01*
X188324774Y-73336306D01*
X188076462Y-72735345D01*
X187617073Y-72275154D01*
X187016547Y-72025794D01*
X186366306Y-72025226D01*
X185765345Y-72273538D01*
X185305154Y-72732927D01*
X185055794Y-73333453D01*
X185055226Y-73983694D01*
X184245246Y-73983694D01*
X184264759Y-73936702D01*
X184265240Y-73385715D01*
X184054831Y-72876485D01*
X183665564Y-72486539D01*
X183156702Y-72275241D01*
X182995101Y-72275100D01*
X182995240Y-72115715D01*
X182784831Y-71606485D01*
X182395564Y-71216539D01*
X181886702Y-71005241D01*
X181335715Y-71004760D01*
X180826485Y-71215169D01*
X180436539Y-71604436D01*
X180225241Y-72113298D01*
X180225111Y-72262527D01*
X179841211Y-72338890D01*
X179757630Y-72550128D01*
X180340000Y-73132498D01*
X180354142Y-73118356D01*
X180881644Y-73645858D01*
X180867502Y-73660000D01*
X180881644Y-73674142D01*
X180354142Y-74201644D01*
X180340000Y-74187502D01*
X179757630Y-74769872D01*
X179841211Y-74981110D01*
X180384746Y-75071425D01*
X180396014Y-75069184D01*
X178882198Y-76583000D01*
X160076802Y-76583000D01*
X161624800Y-75035002D01*
X161648298Y-75044759D01*
X162199285Y-75045240D01*
X162708515Y-74834831D01*
X163098461Y-74445564D01*
X163290246Y-73983694D01*
X164100226Y-73983694D01*
X164348538Y-74584655D01*
X164807927Y-75044846D01*
X165408453Y-75294206D01*
X166058694Y-75294774D01*
X166659655Y-75046462D01*
X167119846Y-74587073D01*
X167369206Y-73986547D01*
X167369208Y-73983694D01*
X174260226Y-73983694D01*
X174508538Y-74584655D01*
X174967927Y-75044846D01*
X175568453Y-75294206D01*
X176218694Y-75294774D01*
X176819655Y-75046462D01*
X177279846Y-74587073D01*
X177529206Y-73986547D01*
X177529452Y-73704746D01*
X178928575Y-73704746D01*
X179018890Y-74158789D01*
X179230128Y-74242370D01*
X179812498Y-73660000D01*
X179230128Y-73077630D01*
X179018890Y-73161211D01*
X178928575Y-73704746D01*
X177529452Y-73704746D01*
X177529774Y-73336306D01*
X177281462Y-72735345D01*
X176822073Y-72275154D01*
X176221547Y-72025794D01*
X175571306Y-72025226D01*
X174970345Y-72273538D01*
X174510154Y-72732927D01*
X174260794Y-73333453D01*
X174260226Y-73983694D01*
X167369208Y-73983694D01*
X167369774Y-73336306D01*
X167121462Y-72735345D01*
X166662073Y-72275154D01*
X166061547Y-72025794D01*
X165411306Y-72025226D01*
X164810345Y-72273538D01*
X164350154Y-72732927D01*
X164100794Y-73333453D01*
X164100226Y-73983694D01*
X163290246Y-73983694D01*
X163309759Y-73936702D01*
X163310240Y-73385715D01*
X163099831Y-72876485D01*
X162710564Y-72486539D01*
X162201702Y-72275241D01*
X162040101Y-72275100D01*
X162040240Y-72115715D01*
X161829831Y-71606485D01*
X161440564Y-71216539D01*
X160931702Y-71005241D01*
X160380715Y-71004760D01*
X159871485Y-71215169D01*
X159481539Y-71604436D01*
X159270241Y-72113298D01*
X159270111Y-72262527D01*
X158886211Y-72338890D01*
X158802630Y-72550128D01*
X159385000Y-73132498D01*
X159399142Y-73118356D01*
X159926644Y-73645858D01*
X159912502Y-73660000D01*
X159926644Y-73674142D01*
X159399142Y-74201644D01*
X159385000Y-74187502D01*
X158802630Y-74769872D01*
X158886211Y-74981110D01*
X159429746Y-75071425D01*
X159441014Y-75069184D01*
X158562198Y-75948000D01*
X139756802Y-75948000D01*
X140669800Y-75035002D01*
X140693298Y-75044759D01*
X141244285Y-75045240D01*
X141753515Y-74834831D01*
X142143461Y-74445564D01*
X142335246Y-73983694D01*
X143145226Y-73983694D01*
X143393538Y-74584655D01*
X143852927Y-75044846D01*
X144453453Y-75294206D01*
X145103694Y-75294774D01*
X145704655Y-75046462D01*
X146164846Y-74587073D01*
X146414206Y-73986547D01*
X146414208Y-73983694D01*
X153305226Y-73983694D01*
X153553538Y-74584655D01*
X154012927Y-75044846D01*
X154613453Y-75294206D01*
X155263694Y-75294774D01*
X155864655Y-75046462D01*
X156324846Y-74587073D01*
X156574206Y-73986547D01*
X156574452Y-73704746D01*
X157973575Y-73704746D01*
X158063890Y-74158789D01*
X158275128Y-74242370D01*
X158857498Y-73660000D01*
X158275128Y-73077630D01*
X158063890Y-73161211D01*
X157973575Y-73704746D01*
X156574452Y-73704746D01*
X156574774Y-73336306D01*
X156326462Y-72735345D01*
X155867073Y-72275154D01*
X155266547Y-72025794D01*
X154616306Y-72025226D01*
X154015345Y-72273538D01*
X153555154Y-72732927D01*
X153305794Y-73333453D01*
X153305226Y-73983694D01*
X146414208Y-73983694D01*
X146414774Y-73336306D01*
X146166462Y-72735345D01*
X145707073Y-72275154D01*
X145106547Y-72025794D01*
X144456306Y-72025226D01*
X143855345Y-72273538D01*
X143395154Y-72732927D01*
X143145794Y-73333453D01*
X143145226Y-73983694D01*
X142335246Y-73983694D01*
X142354759Y-73936702D01*
X142355240Y-73385715D01*
X142144831Y-72876485D01*
X141755564Y-72486539D01*
X141246702Y-72275241D01*
X141085101Y-72275100D01*
X141085240Y-72115715D01*
X140874831Y-71606485D01*
X140485564Y-71216539D01*
X139976702Y-71005241D01*
X139425715Y-71004760D01*
X138916485Y-71215169D01*
X138526539Y-71604436D01*
X138315241Y-72113298D01*
X138315111Y-72262527D01*
X137931211Y-72338890D01*
X137847630Y-72550128D01*
X138430000Y-73132498D01*
X138444142Y-73118356D01*
X138971644Y-73645858D01*
X138957502Y-73660000D01*
X138971644Y-73674142D01*
X138444142Y-74201644D01*
X138430000Y-74187502D01*
X137847630Y-74769872D01*
X137931211Y-74981110D01*
X138474746Y-75071425D01*
X138486014Y-75069184D01*
X138242198Y-75313000D01*
X119436802Y-75313000D01*
X119714800Y-75035002D01*
X119738298Y-75044759D01*
X120289285Y-75045240D01*
X120798515Y-74834831D01*
X121188461Y-74445564D01*
X121380246Y-73983694D01*
X122190226Y-73983694D01*
X122438538Y-74584655D01*
X122897927Y-75044846D01*
X123498453Y-75294206D01*
X124148694Y-75294774D01*
X124749655Y-75046462D01*
X125209846Y-74587073D01*
X125459206Y-73986547D01*
X125459208Y-73983694D01*
X132350226Y-73983694D01*
X132598538Y-74584655D01*
X133057927Y-75044846D01*
X133658453Y-75294206D01*
X134308694Y-75294774D01*
X134909655Y-75046462D01*
X135369846Y-74587073D01*
X135619206Y-73986547D01*
X135619452Y-73704746D01*
X137018575Y-73704746D01*
X137108890Y-74158789D01*
X137320128Y-74242370D01*
X137902498Y-73660000D01*
X137320128Y-73077630D01*
X137108890Y-73161211D01*
X137018575Y-73704746D01*
X135619452Y-73704746D01*
X135619774Y-73336306D01*
X135371462Y-72735345D01*
X134912073Y-72275154D01*
X134311547Y-72025794D01*
X133661306Y-72025226D01*
X133060345Y-72273538D01*
X132600154Y-72732927D01*
X132350794Y-73333453D01*
X132350226Y-73983694D01*
X125459208Y-73983694D01*
X125459774Y-73336306D01*
X125211462Y-72735345D01*
X124752073Y-72275154D01*
X124151547Y-72025794D01*
X123501306Y-72025226D01*
X122900345Y-72273538D01*
X122440154Y-72732927D01*
X122190794Y-73333453D01*
X122190226Y-73983694D01*
X121380246Y-73983694D01*
X121399759Y-73936702D01*
X121400240Y-73385715D01*
X121189831Y-72876485D01*
X120800564Y-72486539D01*
X120291702Y-72275241D01*
X120130101Y-72275100D01*
X120130240Y-72115715D01*
X119919831Y-71606485D01*
X119530564Y-71216539D01*
X119021702Y-71005241D01*
X118470715Y-71004760D01*
X117961485Y-71215169D01*
X117571539Y-71604436D01*
X117360241Y-72113298D01*
X117360111Y-72262527D01*
X116976211Y-72338890D01*
X116892630Y-72550128D01*
X117475000Y-73132498D01*
X117489142Y-73118356D01*
X118016644Y-73645858D01*
X118002502Y-73660000D01*
X118016644Y-73674142D01*
X117489142Y-74201644D01*
X117475000Y-74187502D01*
X116984502Y-74678000D01*
X114323760Y-74678000D01*
X114414846Y-74587073D01*
X114664206Y-73986547D01*
X114664452Y-73704746D01*
X116063575Y-73704746D01*
X116153890Y-74158789D01*
X116365128Y-74242370D01*
X116947498Y-73660000D01*
X116365128Y-73077630D01*
X116153890Y-73161211D01*
X116063575Y-73704746D01*
X114664452Y-73704746D01*
X114664774Y-73336306D01*
X114416462Y-72735345D01*
X113957073Y-72275154D01*
X113356547Y-72025794D01*
X112706306Y-72025226D01*
X112105345Y-72273538D01*
X111645154Y-72732927D01*
X111395794Y-73333453D01*
X111395226Y-73983694D01*
X111643538Y-74584655D01*
X111736720Y-74678000D01*
X104163760Y-74678000D01*
X104254846Y-74587073D01*
X104504206Y-73986547D01*
X104504774Y-73336306D01*
X104256462Y-72735345D01*
X103797073Y-72275154D01*
X103196547Y-72025794D01*
X102546306Y-72025226D01*
X102379111Y-72094309D01*
X99089401Y-68804599D01*
X98842839Y-68639852D01*
X98552000Y-68582000D01*
X66167000Y-68582000D01*
X65876161Y-68639852D01*
X65629599Y-68804599D01*
X55596599Y-78837599D01*
X55431852Y-79084161D01*
X55374000Y-79375000D01*
X55374000Y-98618198D01*
X52116200Y-101875998D01*
X52092702Y-101866241D01*
X51541715Y-101865760D01*
X51032485Y-102076169D01*
X50642539Y-102465436D01*
X50564288Y-102653885D01*
X50291222Y-102245211D01*
X49871547Y-101964794D01*
X50007445Y-101912758D01*
X50409726Y-101531648D01*
X50547974Y-101294133D01*
X50457945Y-101084000D01*
X49268000Y-101084000D01*
X49268000Y-101104000D01*
X48522000Y-101104000D01*
X48522000Y-101084000D01*
X47332055Y-101084000D01*
X47242026Y-101294133D01*
X47380274Y-101531648D01*
X47782555Y-101912758D01*
X47918453Y-101964794D01*
X47498778Y-102245211D01*
X47190441Y-102706671D01*
X47082167Y-103251000D01*
X47065000Y-103251000D01*
X47065000Y-93091000D01*
X47082167Y-93091000D01*
X47190441Y-93635329D01*
X47498778Y-94096789D01*
X47894199Y-94361000D01*
X47498778Y-94625211D01*
X47190441Y-95086671D01*
X47082167Y-95631000D01*
X47190441Y-96175329D01*
X47498778Y-96636789D01*
X47894199Y-96901000D01*
X47498778Y-97165211D01*
X47190441Y-97626671D01*
X47082167Y-98171000D01*
X47190441Y-98715329D01*
X47498778Y-99176789D01*
X47918453Y-99457206D01*
X47782555Y-99509242D01*
X47380274Y-99890352D01*
X47242026Y-100127867D01*
X47332055Y-100338000D01*
X48522000Y-100338000D01*
X48522000Y-100318000D01*
X49268000Y-100318000D01*
X49268000Y-100338000D01*
X50457945Y-100338000D01*
X50547974Y-100127867D01*
X50409726Y-99890352D01*
X50007445Y-99509242D01*
X49871547Y-99457206D01*
X50291222Y-99176789D01*
X50599559Y-98715329D01*
X50707833Y-98171000D01*
X50599559Y-97626671D01*
X50291222Y-97165211D01*
X49895801Y-96901000D01*
X50291222Y-96636789D01*
X50599559Y-96175329D01*
X50707833Y-95631000D01*
X50599559Y-95086671D01*
X50291222Y-94625211D01*
X49895801Y-94361000D01*
X50291222Y-94096789D01*
X50599559Y-93635329D01*
X50707833Y-93091000D01*
X50599559Y-92546671D01*
X50291222Y-92085211D01*
X49829762Y-91776874D01*
X49285433Y-91668600D01*
X48504567Y-91668600D01*
X47960238Y-91776874D01*
X47498778Y-92085211D01*
X47190441Y-92546671D01*
X47082167Y-93091000D01*
X47065000Y-93091000D01*
X47065000Y-82288305D01*
X48279674Y-82288305D01*
X48566043Y-82981372D01*
X49095839Y-83512093D01*
X49788405Y-83799672D01*
X50538305Y-83800326D01*
X51231372Y-83513957D01*
X51762093Y-82984161D01*
X52049672Y-82291595D01*
X52050326Y-81541695D01*
X51763957Y-80848628D01*
X51234161Y-80317907D01*
X50541595Y-80030328D01*
X49791695Y-80029674D01*
X49098628Y-80316043D01*
X48567907Y-80845839D01*
X48280328Y-81538405D01*
X48279674Y-82288305D01*
X47065000Y-82288305D01*
X47065000Y-74769872D01*
X49455630Y-74769872D01*
X49539211Y-74981110D01*
X50082746Y-75071425D01*
X50536789Y-74981110D01*
X50620370Y-74769872D01*
X50038000Y-74187502D01*
X49455630Y-74769872D01*
X47065000Y-74769872D01*
X47065000Y-73704746D01*
X48626575Y-73704746D01*
X48716890Y-74158789D01*
X48928128Y-74242370D01*
X49510498Y-73660000D01*
X48928128Y-73077630D01*
X48716890Y-73161211D01*
X48626575Y-73704746D01*
X47065000Y-73704746D01*
X47065000Y-72550128D01*
X49455630Y-72550128D01*
X50038000Y-73132498D01*
X50052142Y-73118356D01*
X50579644Y-73645858D01*
X50565502Y-73660000D01*
X51147872Y-74242370D01*
X51295863Y-74183814D01*
X51403169Y-74443515D01*
X51792436Y-74833461D01*
X52301298Y-75044759D01*
X52852285Y-75045240D01*
X53361515Y-74834831D01*
X53751461Y-74445564D01*
X53943246Y-73983694D01*
X54118226Y-73983694D01*
X54366538Y-74584655D01*
X54825927Y-75044846D01*
X55426453Y-75294206D01*
X56076694Y-75294774D01*
X56677655Y-75046462D01*
X57137846Y-74587073D01*
X57387206Y-73986547D01*
X57387774Y-73336306D01*
X57139462Y-72735345D01*
X56680073Y-72275154D01*
X56079547Y-72025794D01*
X55429306Y-72025226D01*
X54828345Y-72273538D01*
X54368154Y-72732927D01*
X54118794Y-73333453D01*
X54118226Y-73983694D01*
X53943246Y-73983694D01*
X53962759Y-73936702D01*
X53963240Y-73385715D01*
X53752831Y-72876485D01*
X53363564Y-72486539D01*
X52854702Y-72275241D01*
X52693101Y-72275100D01*
X52693240Y-72115715D01*
X52482831Y-71606485D01*
X52093564Y-71216539D01*
X51584702Y-71005241D01*
X51033715Y-71004760D01*
X50524485Y-71215169D01*
X50134539Y-71604436D01*
X49923241Y-72113298D01*
X49923111Y-72262527D01*
X49539211Y-72338890D01*
X49455630Y-72550128D01*
X47065000Y-72550128D01*
X47065000Y-66998694D01*
X49673226Y-66998694D01*
X49921538Y-67599655D01*
X50380927Y-68059846D01*
X50981453Y-68309206D01*
X51631694Y-68309774D01*
X52232655Y-68061462D01*
X52692846Y-67602073D01*
X52942206Y-67001547D01*
X52942208Y-66998694D01*
X59833226Y-66998694D01*
X60081538Y-67599655D01*
X60540927Y-68059846D01*
X61141453Y-68309206D01*
X61791694Y-68309774D01*
X62392655Y-68061462D01*
X62852846Y-67602073D01*
X63102206Y-67001547D01*
X63102208Y-66998694D01*
X75200226Y-66998694D01*
X75448538Y-67599655D01*
X75907927Y-68059846D01*
X76508453Y-68309206D01*
X77158694Y-68309774D01*
X77759655Y-68061462D01*
X78219846Y-67602073D01*
X78469206Y-67001547D01*
X78469208Y-66998694D01*
X85360226Y-66998694D01*
X85608538Y-67599655D01*
X86067927Y-68059846D01*
X86668453Y-68309206D01*
X87318694Y-68309774D01*
X87919655Y-68061462D01*
X88379846Y-67602073D01*
X88629206Y-67001547D01*
X88629208Y-66998694D01*
X96155226Y-66998694D01*
X96403538Y-67599655D01*
X96862927Y-68059846D01*
X97463453Y-68309206D01*
X98113694Y-68309774D01*
X98714655Y-68061462D01*
X99174846Y-67602073D01*
X99424206Y-67001547D01*
X99424208Y-66998694D01*
X106315226Y-66998694D01*
X106563538Y-67599655D01*
X107022927Y-68059846D01*
X107623453Y-68309206D01*
X108273694Y-68309774D01*
X108874655Y-68061462D01*
X109334846Y-67602073D01*
X109584206Y-67001547D01*
X109584208Y-66998694D01*
X117110226Y-66998694D01*
X117358538Y-67599655D01*
X117817927Y-68059846D01*
X118418453Y-68309206D01*
X119068694Y-68309774D01*
X119669655Y-68061462D01*
X120129846Y-67602073D01*
X120379206Y-67001547D01*
X120379208Y-66998694D01*
X127270226Y-66998694D01*
X127518538Y-67599655D01*
X127977927Y-68059846D01*
X128578453Y-68309206D01*
X129228694Y-68309774D01*
X129829655Y-68061462D01*
X130289846Y-67602073D01*
X130539206Y-67001547D01*
X130539208Y-66998694D01*
X138065226Y-66998694D01*
X138313538Y-67599655D01*
X138772927Y-68059846D01*
X139373453Y-68309206D01*
X140023694Y-68309774D01*
X140624655Y-68061462D01*
X141084846Y-67602073D01*
X141334206Y-67001547D01*
X141334208Y-66998694D01*
X148225226Y-66998694D01*
X148473538Y-67599655D01*
X148932927Y-68059846D01*
X149533453Y-68309206D01*
X150183694Y-68309774D01*
X150784655Y-68061462D01*
X151244846Y-67602073D01*
X151494206Y-67001547D01*
X151494208Y-66998694D01*
X159020226Y-66998694D01*
X159268538Y-67599655D01*
X159727927Y-68059846D01*
X160328453Y-68309206D01*
X160978694Y-68309774D01*
X161579655Y-68061462D01*
X162039846Y-67602073D01*
X162289206Y-67001547D01*
X162289208Y-66998694D01*
X169180226Y-66998694D01*
X169428538Y-67599655D01*
X169887927Y-68059846D01*
X170488453Y-68309206D01*
X171138694Y-68309774D01*
X171739655Y-68061462D01*
X172199846Y-67602073D01*
X172449206Y-67001547D01*
X172449208Y-66998694D01*
X179975226Y-66998694D01*
X180223538Y-67599655D01*
X180682927Y-68059846D01*
X181283453Y-68309206D01*
X181933694Y-68309774D01*
X182534655Y-68061462D01*
X182994846Y-67602073D01*
X183244206Y-67001547D01*
X183244208Y-66998694D01*
X190135226Y-66998694D01*
X190383538Y-67599655D01*
X190842927Y-68059846D01*
X191443453Y-68309206D01*
X192093694Y-68309774D01*
X192694655Y-68061462D01*
X193154846Y-67602073D01*
X193404206Y-67001547D01*
X193404208Y-66998694D01*
X200930226Y-66998694D01*
X201178538Y-67599655D01*
X201637927Y-68059846D01*
X202238453Y-68309206D01*
X202888694Y-68309774D01*
X203489655Y-68061462D01*
X203949846Y-67602073D01*
X204199206Y-67001547D01*
X204199208Y-66998694D01*
X211090226Y-66998694D01*
X211338538Y-67599655D01*
X211797927Y-68059846D01*
X212398453Y-68309206D01*
X213048694Y-68309774D01*
X213649655Y-68061462D01*
X214109846Y-67602073D01*
X214359206Y-67001547D01*
X214359208Y-66998694D01*
X221885226Y-66998694D01*
X222133538Y-67599655D01*
X222592927Y-68059846D01*
X223193453Y-68309206D01*
X223843694Y-68309774D01*
X224444655Y-68061462D01*
X224904846Y-67602073D01*
X225154206Y-67001547D01*
X225154208Y-66998694D01*
X232045226Y-66998694D01*
X232293538Y-67599655D01*
X232752927Y-68059846D01*
X233353453Y-68309206D01*
X234003694Y-68309774D01*
X234604655Y-68061462D01*
X235064846Y-67602073D01*
X235294790Y-67048305D01*
X241954674Y-67048305D01*
X242241043Y-67741372D01*
X242770839Y-68272093D01*
X243463405Y-68559672D01*
X244213305Y-68560326D01*
X244906372Y-68273957D01*
X245437093Y-67744161D01*
X245724672Y-67051595D01*
X245725326Y-66301695D01*
X245438957Y-65608628D01*
X244909161Y-65077907D01*
X244216595Y-64790328D01*
X243466695Y-64789674D01*
X242773628Y-65076043D01*
X242242907Y-65605839D01*
X241955328Y-66298405D01*
X241954674Y-67048305D01*
X235294790Y-67048305D01*
X235314206Y-67001547D01*
X235314774Y-66351306D01*
X235066462Y-65750345D01*
X234607073Y-65290154D01*
X234006547Y-65040794D01*
X233356306Y-65040226D01*
X232755345Y-65288538D01*
X232295154Y-65747927D01*
X232045794Y-66348453D01*
X232045226Y-66998694D01*
X225154208Y-66998694D01*
X225154774Y-66351306D01*
X224906462Y-65750345D01*
X224447073Y-65290154D01*
X223846547Y-65040794D01*
X223196306Y-65040226D01*
X222595345Y-65288538D01*
X222135154Y-65747927D01*
X221885794Y-66348453D01*
X221885226Y-66998694D01*
X214359208Y-66998694D01*
X214359774Y-66351306D01*
X214111462Y-65750345D01*
X213652073Y-65290154D01*
X213051547Y-65040794D01*
X212401306Y-65040226D01*
X211800345Y-65288538D01*
X211340154Y-65747927D01*
X211090794Y-66348453D01*
X211090226Y-66998694D01*
X204199208Y-66998694D01*
X204199774Y-66351306D01*
X203951462Y-65750345D01*
X203492073Y-65290154D01*
X202891547Y-65040794D01*
X202241306Y-65040226D01*
X201640345Y-65288538D01*
X201180154Y-65747927D01*
X200930794Y-66348453D01*
X200930226Y-66998694D01*
X193404208Y-66998694D01*
X193404774Y-66351306D01*
X193156462Y-65750345D01*
X192697073Y-65290154D01*
X192096547Y-65040794D01*
X191446306Y-65040226D01*
X190845345Y-65288538D01*
X190385154Y-65747927D01*
X190135794Y-66348453D01*
X190135226Y-66998694D01*
X183244208Y-66998694D01*
X183244774Y-66351306D01*
X182996462Y-65750345D01*
X182537073Y-65290154D01*
X181936547Y-65040794D01*
X181286306Y-65040226D01*
X180685345Y-65288538D01*
X180225154Y-65747927D01*
X179975794Y-66348453D01*
X179975226Y-66998694D01*
X172449208Y-66998694D01*
X172449774Y-66351306D01*
X172201462Y-65750345D01*
X171742073Y-65290154D01*
X171141547Y-65040794D01*
X170491306Y-65040226D01*
X169890345Y-65288538D01*
X169430154Y-65747927D01*
X169180794Y-66348453D01*
X169180226Y-66998694D01*
X162289208Y-66998694D01*
X162289774Y-66351306D01*
X162041462Y-65750345D01*
X161582073Y-65290154D01*
X160981547Y-65040794D01*
X160331306Y-65040226D01*
X159730345Y-65288538D01*
X159270154Y-65747927D01*
X159020794Y-66348453D01*
X159020226Y-66998694D01*
X151494208Y-66998694D01*
X151494774Y-66351306D01*
X151246462Y-65750345D01*
X150787073Y-65290154D01*
X150186547Y-65040794D01*
X149536306Y-65040226D01*
X148935345Y-65288538D01*
X148475154Y-65747927D01*
X148225794Y-66348453D01*
X148225226Y-66998694D01*
X141334208Y-66998694D01*
X141334774Y-66351306D01*
X141086462Y-65750345D01*
X140627073Y-65290154D01*
X140026547Y-65040794D01*
X139376306Y-65040226D01*
X138775345Y-65288538D01*
X138315154Y-65747927D01*
X138065794Y-66348453D01*
X138065226Y-66998694D01*
X130539208Y-66998694D01*
X130539774Y-66351306D01*
X130291462Y-65750345D01*
X129832073Y-65290154D01*
X129231547Y-65040794D01*
X128581306Y-65040226D01*
X127980345Y-65288538D01*
X127520154Y-65747927D01*
X127270794Y-66348453D01*
X127270226Y-66998694D01*
X120379208Y-66998694D01*
X120379774Y-66351306D01*
X120131462Y-65750345D01*
X119672073Y-65290154D01*
X119071547Y-65040794D01*
X118421306Y-65040226D01*
X117820345Y-65288538D01*
X117360154Y-65747927D01*
X117110794Y-66348453D01*
X117110226Y-66998694D01*
X109584208Y-66998694D01*
X109584774Y-66351306D01*
X109336462Y-65750345D01*
X108877073Y-65290154D01*
X108276547Y-65040794D01*
X107626306Y-65040226D01*
X107025345Y-65288538D01*
X106565154Y-65747927D01*
X106315794Y-66348453D01*
X106315226Y-66998694D01*
X99424208Y-66998694D01*
X99424774Y-66351306D01*
X99176462Y-65750345D01*
X98717073Y-65290154D01*
X98116547Y-65040794D01*
X97466306Y-65040226D01*
X96865345Y-65288538D01*
X96405154Y-65747927D01*
X96155794Y-66348453D01*
X96155226Y-66998694D01*
X88629208Y-66998694D01*
X88629774Y-66351306D01*
X88381462Y-65750345D01*
X87922073Y-65290154D01*
X87321547Y-65040794D01*
X86671306Y-65040226D01*
X86070345Y-65288538D01*
X85610154Y-65747927D01*
X85360794Y-66348453D01*
X85360226Y-66998694D01*
X78469208Y-66998694D01*
X78469774Y-66351306D01*
X78221462Y-65750345D01*
X77762073Y-65290154D01*
X77161547Y-65040794D01*
X76511306Y-65040226D01*
X75910345Y-65288538D01*
X75450154Y-65747927D01*
X75200794Y-66348453D01*
X75200226Y-66998694D01*
X63102208Y-66998694D01*
X63102774Y-66351306D01*
X62854462Y-65750345D01*
X62395073Y-65290154D01*
X61794547Y-65040794D01*
X61144306Y-65040226D01*
X60543345Y-65288538D01*
X60083154Y-65747927D01*
X59833794Y-66348453D01*
X59833226Y-66998694D01*
X52942208Y-66998694D01*
X52942774Y-66351306D01*
X52694462Y-65750345D01*
X52235073Y-65290154D01*
X51634547Y-65040794D01*
X50984306Y-65040226D01*
X50383345Y-65288538D01*
X49923154Y-65747927D01*
X49673794Y-66348453D01*
X49673226Y-66998694D01*
X47065000Y-66998694D01*
X47065000Y-63575000D01*
X246940000Y-63575000D01*
X246940000Y-134545000D01*
G36*
X101304115Y-73168917D02*
X101235794Y-73333453D01*
X101235226Y-73983694D01*
X101483538Y-74584655D01*
X101576720Y-74678000D01*
X100000620Y-74678000D01*
X100233461Y-74445564D01*
X100444759Y-73936702D01*
X100445240Y-73385715D01*
X100234831Y-72876485D01*
X99845564Y-72486539D01*
X99336702Y-72275241D01*
X99175101Y-72275100D01*
X99175240Y-72115715D01*
X98964831Y-71606485D01*
X98575564Y-71216539D01*
X98066702Y-71005241D01*
X97515715Y-71004760D01*
X97006485Y-71215169D01*
X96616539Y-71604436D01*
X96405241Y-72113298D01*
X96405111Y-72262527D01*
X96021211Y-72338890D01*
X95937630Y-72550128D01*
X96520000Y-73132498D01*
X96534142Y-73118356D01*
X97061644Y-73645858D01*
X97047502Y-73660000D01*
X97629872Y-74242370D01*
X97777863Y-74183814D01*
X97885169Y-74443515D01*
X98119246Y-74678000D01*
X97010498Y-74678000D01*
X96520000Y-74187502D01*
X96029502Y-74678000D01*
X92733760Y-74678000D01*
X92824846Y-74587073D01*
X93074206Y-73986547D01*
X93074452Y-73704746D01*
X95108575Y-73704746D01*
X95198890Y-74158789D01*
X95410128Y-74242370D01*
X95992498Y-73660000D01*
X95410128Y-73077630D01*
X95198890Y-73161211D01*
X95108575Y-73704746D01*
X93074452Y-73704746D01*
X93074774Y-73336306D01*
X92826462Y-72735345D01*
X92367073Y-72275154D01*
X91766547Y-72025794D01*
X91116306Y-72025226D01*
X90949111Y-72094309D01*
X89310401Y-70455599D01*
X89063839Y-70290852D01*
X88773000Y-70233000D01*
X74844547Y-70233000D01*
X74834831Y-70209485D01*
X74727533Y-70102000D01*
X98237198Y-70102000D01*
X101304115Y-73168917D01*
X101304115Y-73168917D01*
G37*
X101304115Y-73168917D02*
X101235794Y-73333453D01*
X101235226Y-73983694D01*
X101483538Y-74584655D01*
X101576720Y-74678000D01*
X100000620Y-74678000D01*
X100233461Y-74445564D01*
X100444759Y-73936702D01*
X100445240Y-73385715D01*
X100234831Y-72876485D01*
X99845564Y-72486539D01*
X99336702Y-72275241D01*
X99175101Y-72275100D01*
X99175240Y-72115715D01*
X98964831Y-71606485D01*
X98575564Y-71216539D01*
X98066702Y-71005241D01*
X97515715Y-71004760D01*
X97006485Y-71215169D01*
X96616539Y-71604436D01*
X96405241Y-72113298D01*
X96405111Y-72262527D01*
X96021211Y-72338890D01*
X95937630Y-72550128D01*
X96520000Y-73132498D01*
X96534142Y-73118356D01*
X97061644Y-73645858D01*
X97047502Y-73660000D01*
X97629872Y-74242370D01*
X97777863Y-74183814D01*
X97885169Y-74443515D01*
X98119246Y-74678000D01*
X97010498Y-74678000D01*
X96520000Y-74187502D01*
X96029502Y-74678000D01*
X92733760Y-74678000D01*
X92824846Y-74587073D01*
X93074206Y-73986547D01*
X93074452Y-73704746D01*
X95108575Y-73704746D01*
X95198890Y-74158789D01*
X95410128Y-74242370D01*
X95992498Y-73660000D01*
X95410128Y-73077630D01*
X95198890Y-73161211D01*
X95108575Y-73704746D01*
X93074452Y-73704746D01*
X93074774Y-73336306D01*
X92826462Y-72735345D01*
X92367073Y-72275154D01*
X91766547Y-72025794D01*
X91116306Y-72025226D01*
X90949111Y-72094309D01*
X89310401Y-70455599D01*
X89063839Y-70290852D01*
X88773000Y-70233000D01*
X74844547Y-70233000D01*
X74834831Y-70209485D01*
X74727533Y-70102000D01*
X98237198Y-70102000D01*
X101304115Y-73168917D01*
G36*
X75450241Y-72113298D02*
X75450111Y-72262527D01*
X75066211Y-72338890D01*
X74982630Y-72550128D01*
X75565000Y-73132498D01*
X75579142Y-73118356D01*
X76106644Y-73645858D01*
X76092502Y-73660000D01*
X76106644Y-73674142D01*
X75636186Y-74144600D01*
X75493814Y-74144600D01*
X75023356Y-73674142D01*
X75037498Y-73660000D01*
X74455128Y-73077630D01*
X74274644Y-73149042D01*
X73503466Y-72377864D01*
X73934285Y-72378240D01*
X74443515Y-72167831D01*
X74833461Y-71778564D01*
X74844076Y-71753000D01*
X75599850Y-71753000D01*
X75450241Y-72113298D01*
X75450241Y-72113298D01*
G37*
X75450241Y-72113298D02*
X75450111Y-72262527D01*
X75066211Y-72338890D01*
X74982630Y-72550128D01*
X75565000Y-73132498D01*
X75579142Y-73118356D01*
X76106644Y-73645858D01*
X76092502Y-73660000D01*
X76106644Y-73674142D01*
X75636186Y-74144600D01*
X75493814Y-74144600D01*
X75023356Y-73674142D01*
X75037498Y-73660000D01*
X74455128Y-73077630D01*
X74274644Y-73149042D01*
X73503466Y-72377864D01*
X73934285Y-72378240D01*
X74443515Y-72167831D01*
X74833461Y-71778564D01*
X74844076Y-71753000D01*
X75599850Y-71753000D01*
X75450241Y-72113298D01*
M02*
